<svg width="1060px" height="779px" xmlns="http://www.w3.org/2000/svg">
  <g fill="none" fill-rule="evenodd">
    <path d="M1060 649c0 7.7-181.8 14-406 14s-406-6.3-406-14 181.8-14 406-14 406 6.3 406 14zM735 711.5c0 5.2-158.5 9.5-354 9.5s-354-4.3-354-9.5 158.5-9.5 354-9.5 354 4.3 354 9.5z" fill="#E1E1FE" fill-rule="nonzero"/>
    <path d="M853.2 546.2c.1.5.2.9 0 1.1a8 8 0 0 0 .4-2.5c2-6.8 4.3-13.4 7-19.8l1.7-4c3.1-1 10.5-1.7 12.5-2.4 4-1.3 9.2-2.8 12.5-5.5 1.4-1.1 4.8-5 3-7-2-2.2-9 2.3-10.8 3.5-3.8 2.5-7.2 5.6-11.3 7.7-1.8 1-3.9 1.7-5.5 3 2.6-5.8 5.6-11.4 8.9-16.7 3-1.2 10.6-1.9 12.6-2.5 4-1.3 9.2-2.8 12.6-5.5 1.3-1.2 4.7-5 3-7-2-2.2-9.1 2.3-10.8 3.4-3.8 2.5-7.3 5.7-11.3 7.7-1.9 1-3.9 1.7-5.5 3a138.6 138.6 0 0 1 21-26.1c3.6.2 8.6 1 10.2.9 4.2-.2 9.6-.3 13.5-2 1.7-.7 6-3.5 4.8-6-1.4-2.6-9.4-.1-11.4.5-4.3 1.5-8.4 3.5-13 4.5l-2.3.4c4.5-4.1 9.2-8 14.3-11.5 1.5.3 3 .4 4.6.6 3.9.5 7.6 2 11.4 3 1.7.4 8.7 2 9.7-.4.8-2-3-4.2-4.5-4.7-3.5-1.2-8.1-1-11.7-.8-1.3 0-5 .9-8 1.3a130.8 130.8 0 0 1 19.6-10.9c1.7.6 3.7.7 5.7 1 3.8.4 7.5 2 11.3 2.9 1.8.4 8.8 2 9.7-.4.8-2-3-4.2-4.5-4.7-3.5-1.2-8-.9-11.7-.8-1.5 0-6.3 1.2-9.4 1.5 5.6-2.4 11.4-4.5 17.4-6 1.6.3 3.3.4 5 .6 3.8.4 7.5 1.8 11.3 2.7 1.8.4 8.8 1.9 9.7-.5.8-2.1-3.1-4.2-4.6-4.7-3.5-1.1-8-.7-11.7-.6l-2.2.4a98.7 98.7 0 0 0-9.7 1.2l.2.1c-4.2.9-8.4 2-12.6 3.3 1.2-1 2.2-2.3 3.3-3.4 2.7-2.8 6.1-4.8 9.1-7.3 1.4-1.1 6.9-5.7 5.5-8-1.1-1.9-5.1 0-6.4.8-3 2-5.5 5.9-7.6 8.8-1 1.4-3.4 7.2-5.1 9.5-3.9 1.3-7.6 2.8-11.3 4.5 1.3-1.2 2.2-3 3.3-4.5 2.3-3.2 5.3-5.7 7.9-8.6 1.2-1.3 5.8-6.7 4.2-8.7-1.4-1.7-5 .6-6.2 1.7-2.7 2.5-4.6 6.7-6.2 10-.8 1.6-2.4 8.3-3.8 10.5a111.7 111.7 0 0 0-21.7 13.5l.7-3.3c.8-3.9 2.7-7.4 4-11 .5-1.8 2.7-8.6.5-9.8-2-1-4.5 2.6-5.1 4-1.5 3.3-1.7 8-2 11.6 0 1.5.7 6.2.7 9.4-5.2 4.1-10 8.7-14.5 13.7.4-1.3.7-2.6 1.2-3.7 1-3 2.2-5.8 3.5-8.6a52 52 0 0 1 8-12c1.6-1.9-.2-4.8-2.5-4.2h-.3c-3.8 1.3-5.8 5.4-7.4 9.1-1.1 2.8-7.5 18.1-5.4 22.6-4.9 5.9-9.3 12.2-13.1 18.8.9-3.7 2.6-7 3.8-10.7.6-1.7 2.8-8.5.6-9.7-2-1-4.5 2.6-5.1 4-1.5 3.3-1.6 8-1.9 11.6 0 1.3.5 5.3.6 8.4-2.9 5.3-5.4 10.9-7.6 16.6l-.1-2.3c-.2-4 .7-7.8 1-11.7.2-1.8.6-9-1.9-9.6-2.1-.5-3.6 3.6-3.9 5.1-.6 3.7.4 8.2 1 11.8.4 1.5 2.2 6 3 9a146 146 0 0 0-4.1 13.3c-.2-3.5.2-7 .2-10.5 0-1.8-.1-9-2.6-9.4-2.3-.3-3.4 4-3.5 5.5-.4 3.6 1 8 2 11.6.3 1.2 1.8 4.2 2.9 6.9-2 8.5-10.5 16.5-11 25.2 1.2-7.6 10.1-14.4 12.2-21.8zM409.8 384c0 .5.1 1 .3 1.1-.5-.6-1-1.4-1.2-2.2a181.2 181.2 0 0 0-16.7-19c-3.3 0-10.5 2.1-12.5 2.2-4.3.2-9.7.7-13.8-.6-1.7-.6-6.2-3-5.3-5.4 1.1-2.8 9.3-1.2 11.4-.7 4.4 1 8.8 2.6 13.3 3.1 2.1.2 4.3.2 6.3.8a157 157 0 0 0-14.3-12.3c-3.3 0-10.7 2-12.8 2.1-4.2.2-9.6.7-13.7-.6-1.7-.6-6.2-3-5.3-5.4 1-2.8 9.3-1.1 11.3-.7 4.5 1 8.8 2.7 13.4 3.1 2 .3 4.2.3 6.2.8a139 139 0 0 0-29.1-16.8c-3.4 1.5-7.7 4-9.2 4.5-4 1.3-9.1 3.2-13.5 3-1.7 0-6.7-1.2-6.5-3.8.3-3 8.7-3.5 10.8-3.6 4.6-.3 9.2.2 13.7-.5l2.4-.5c-5.7-2.3-11.6-4.1-17.5-5.6-1.3.9-2.8 1.5-4.1 2.2-3.5 1.9-6.4 4.6-9.6 6.9-1.5 1-7.5 5-9.2 3.1-1.5-1.6 1.3-5 2.5-6 2.8-2.4 7.2-3.7 10.7-5 1.2-.4 5-1 8-1.6a134.3 134.3 0 0 0-22.3-3.1c-1.5 1.2-3.3 2-5 2.9-3.5 1.8-6.4 4.6-9.6 6.8-1.5 1-7.5 5-9.2 3.2-1.5-1.7 1.3-5 2.5-6 2.8-2.4 7.2-3.8 10.7-5 1.4-.5 6.3-1.2 9.3-2-6.1-.2-12.3 0-18.4.6-1.4 1-3 1.6-4.4 2.4-3.5 1.7-6.5 4.4-9.8 6.6-1.4 1-7.5 4.9-9.2 3-1.5-1.7 1.4-5 2.6-6 2.9-2.3 7.3-3.6 10.8-4.8a100.3 100.3 0 0 1 11.8-2.8l-.2.2c4.2-.7 8.5-1.2 12.9-1.4-1.5-.5-2.9-1.4-4.3-2-3.5-1.6-7.5-2.3-11.2-3.5-1.7-.6-8.4-3-8-5.5.4-2.2 4.8-2 6.3-1.6 3.6.8 7.3 3.5 10.3 5.5 1.5 1 5.8 5.5 8.2 7 4-.2 8.2-.1 12.2.2-1.7-.7-3.1-2-4.7-3-3.3-2.2-7-3.4-10.5-5.2-1.6-.8-7.9-4.2-7-6.6.7-2.2 5-1.3 6.3-.7 3.5 1.4 6.8 4.6 9.4 7 1.4 1.3 5.3 7 7.4 8.6a110.5 110.5 0 0 1 25.2 4.8l-1.9-2.9c-2.1-3.3-5.1-5.9-7.6-8.9-1.2-1.3-5.7-7-4-8.8 1.5-1.7 5 .8 6.1 1.8 2.7 2.6 4.5 6.9 6 10.2.6 1.3 1.7 6 2.8 9 6.3 2 12.5 4.5 18.5 7.5l-2.4-3c-2-2.4-4.2-4.6-6.5-6.7a52.3 52.3 0 0 0-11.7-8.5c-2.2-1-1.6-4.4.9-4.7h.2c4-.2 7.4 2.9 10.2 5.8 2 2.2 13.6 14.2 13.2 19.1 6.7 3.7 13 8 19 12.8-2.1-3.1-5-5.7-7.4-8.6-1.2-1.3-5.7-7-4-8.8 1.5-1.7 5 .8 6.2 1.8 2.6 2.6 4.4 6.9 5.9 10.2.6 1.2 1.5 5.1 2.4 8 4.7 4 9 8.2 13.1 12.8l-.7-2.2c-1.2-3.7-3.5-7-5.2-10.6-.7-1.6-3.7-8.1-1.6-9.5 1.8-1.3 4.7 2 5.5 3.3 1.9 3.2 2.5 7.8 3.2 11.4.3 1.4.1 6.2.4 9.4 3.1 3.5 6 7.1 8.7 10.9-1-3.3-2.7-6.4-4-9.7-.6-1.6-3-8.4-.8-9.7 2-1 4.5 2.5 5.2 3.8 1.6 3.3 2 8 2.3 11.6.2 1.2-.2 4.5-.3 7.4 5 7.3 15.8 11.6 19.4 19.6-3.9-6.7-14.6-9.8-19.2-16z" fill="#538406" fill-rule="nonzero"/>
    <path d="M478 437l.6 1a8 8 0 0 1-1.8-2 181.8 181.8 0 0 0-21.4-13.6c-3.2 1-9.5 5-11.4 5.7-4 1.5-9.1 3.5-13.4 3.3-1.8 0-6.8-1-6.6-3.7.2-3 8.6-3.7 10.6-3.9 4.6-.3 9.2 0 13.8-.8 2-.4 4.1-1 6.2-1-5.6-3-11.4-5.6-17.3-8-3.1 1-9.6 5.2-11.6 5.9-4 1.4-9 3.4-13.4 3.3-1.8 0-6.8-1-6.6-3.8.2-3 8.6-3.7 10.7-3.9 4.5-.3 9.2.1 13.7-.7 2-.4 4.1-1 6.1-1a138.6 138.6 0 0 0-32.7-8c-2.7 2.4-6.2 6-7.5 7-3.5 2.4-7.9 5.7-12 6.7-1.8.4-6.9.8-7.4-1.8-.6-3 7.3-6 9.3-6.6 4.3-1.6 8.9-2.4 13-4.5l2.2-1.1c-6.1-.6-12.3-.7-18.4-.4-1 1.2-2.2 2.2-3.3 3.3-2.8 2.8-4.8 6.3-7.3 9.4-1.1 1.4-5.7 7-8 5.7-1.8-1.2 0-5.3.8-6.6 2-3 5.8-5.7 8.8-7.9 1-.7 4.6-2.3 7.2-3.8a131.8 131.8 0 0 0-22.3 3.3c-1 1.6-2.6 2.9-4 4.3-2.7 2.8-4.8 6.3-7.2 9.4-1.1 1.4-5.7 7-8 5.7-1.9-1.2 0-5.3.8-6.6 2-3.1 5.8-5.7 8.8-7.9 1.2-1 5.7-3 8.4-4.6-6 1.5-11.8 3.5-17.5 5.9-1 1.3-2.4 2.3-3.6 3.5-2.9 2.8-5 6.2-7.5 9.3-1.1 1.3-5.8 6.9-8 5.5-1.9-1.2 0-5.3.8-6.5 2.1-3.1 6-5.7 9-7.8l2-1a100.4 100.4 0 0 1 8.5-5l-.1.2c3.9-2 7.9-3.7 12-5.2-1.6 0-3.1-.4-4.7-.7-3.9-.5-7.8 0-11.7-.2-1.8 0-9-.4-9.3-3-.2-2.2 4-3.3 5.6-3.4 3.6-.2 8 1.3 11.5 2.4 1.7.5 7 3.7 9.8 4.5 3.9-1.3 7.8-2.5 11.8-3.3-1.8-.2-3.6-1-5.4-1.6-3.7-1.2-7.7-1.3-11.6-2-1.7-.4-8.7-1.9-8.6-4.4 0-2.3 4.4-2.7 6-2.5 3.6.3 7.7 2.5 11 4.1 1.6.9 7 5.3 9.5 6.2a114.7 114.7 0 0 1 25.5-2.6l-2.6-2.2c-3-2.6-6.6-4.3-9.9-6.5-1.5-1-7.4-5-6.3-7.4 1-2 5-.7 6.4 0 3.3 1.8 6.2 5.4 8.6 8.2 1 1.2 3.4 5.4 5.3 8 6.6 0 13.3.8 20 2l-3.3-2.3a93.4 93.4 0 0 0-8-4.7 52 52 0 0 0-13.7-4.8c-2.5-.4-2.8-3.9-.6-4.8l.3-.1c3.8-1.4 7.9.6 11.3 2.7 2.7 1.5 17.2 9.9 18.2 14.8 7.5 1.7 14.8 4 22 7-3-2.4-6.5-4-9.7-6.2-1.5-1-7.4-5.1-6.3-7.5 1-2 5-.6 6.4 0 3.3 1.8 6.2 5.5 8.6 8.3 1 1 3 4.5 4.7 7a140 140 0 0 1 16.2 8.7l-1.3-2c-2.3-3.2-5.4-5.7-8-8.7-1.2-1.3-6-6.8-4.3-8.8 1.4-1.8 5 .6 6.2 1.7 2.7 2.5 4.7 6.8 6.4 10 .6 1.4 1.9 6.2 3 9.1 4 2.5 7.8 5.3 11.5 8.1-2-2.9-4.4-5.4-6.5-8.2-1.1-1.5-5.4-7.3-3.7-9.2 1.6-1.7 5 1 6.1 2.2 2.6 2.7 4.2 7.1 5.6 10.6.4 1.1 1 4.5 1.8 7.3 6.8 5.7 18.5 6.8 24.2 13.5-5.6-5.4-16.9-5.4-23-10zM776.2 513.6c.1.2-.9-16.9 23.2-34.4 24.5-18.6 78.8-18 85-35.5 6.6-18.6-27.3-13.2-42.5-26.3-15.4-13.3-20.6-19.6-.3-24.4 20.2-4.5 32.4-6.6 31.8-23.6-.6-17.1 33.2-10 49.5-23.1 17-13.2 6.9-29.7-25.9-27.6-32.2 2.9-33.5-2.4-24.4-7.7 9-5.3 36.9-14.8 24.6-23.2-12.5-8.5-30.2 0-21-11.3 9-11.4 31.2-20.2 19.9-31.9-11.4-11.8-39.6-9.7-54.6 22.6-14.6 32.1-19.5 41.1-35 45.1-15 4.1-29.9-11.8-48.3-4.4-18.3 7.7-14.1 25.3-2.7 36.8C767.3 356 787 379 776 389.9c-10.7 11-24.6-4.2-40.9-6.5-18-2.5-37.8 13.6-20.1 37.7 18.3 23.6 45.9 41.8 48.4 97.9l12.9-5.4z" fill="#538406" fill-rule="nonzero"/>
    <g fill="#334C06" fill-rule="nonzero" opacity="0.7">
      <path d="M769 517.6c.6 0 1-.3 1.1-.8 37-195.6 111.2-269.3 112-270 .4-.4.4-1 0-1.4a1 1 0 0 0-1.4 0c-.7.7-75.4 74.9-112.5 271-.1.6.2 1 .8 1.2z"/>
      <path d="M838 310.3c.2 0 .5 0 .6-.2 24-16.6 52.6-17.2 52.9-17.2.5 0 1-.5 1-1s-.5-1-1-1c-.3 0-29.4.6-54 17.6a1 1 0 0 0-.2 1.4c.2.2.4.4.7.4zM811.6 367.3a1 1 0 0 0 .8-1.6c-.2-.2-23.3-26.5-54-49.2a1 1 0 0 0-1 1.6c30.4 22.5 53.3 48.6 53.6 48.9.1.2.4.3.6.3zM816.8 354.7h.4c45-17.7 95-18.2 95.5-18.2s1-.4 1-1c0-.5-.4-.9-1-.9-.5 0-51 .5-96.2 18.2a1 1 0 0 0-.5 1.3c.1.3.5.5.8.6zM782.8 455.9h.5c30.8-14.2 82.5-16.2 83-16.2a1 1 0 0 0 0-1.9c-.6 0-52.7 2-83.8 16.3a1 1 0 0 0 .3 1.8zM779.4 469.5h.4c.5-.3.8-.8.6-1.3-14-38.3-51.1-68.5-51.5-68.8a1 1 0 0 0-1.4.2 1 1 0 0 0 .2 1.3c.4.3 37 30.1 50.9 68 .1.3.5.5.8.6z"/>
    </g>
    <path d="M482.8 450.6c-.1.2.9-16.9-23.2-34.4-24.5-18.6-78.8-18-85-35.5-6.6-18.6 27.3-13.2 42.5-26.3 15.4-13.3 20.6-19.6.3-24.4-20.2-4.5-32.4-6.6-31.8-23.6.6-17.1-33.2-10-49.5-23.1-17-13.2-6.9-29.7 25.9-27.6 32.2 2.9 33.5-2.4 24.4-7.7-9-5.3-36.9-14.8-24.6-23.2 12.5-8.5 30.2 0 21-11.3-9-11.4-31.2-20.2-19.9-31.9 11.4-11.8 39.6-9.7 54.6 22.6 14.6 32.1 19.5 41.1 35 45.1 15 4.1 29.9-11.8 48.3-4.4 18.3 7.7 14.1 25.3 2.7 36.8C491.7 293 472 316 483 326.9c10.7 11 24.6-4.2 40.9-6.5 18-2.5 37.8 13.6 20.1 37.7-18.3 23.6-45.9 41.8-48.4 97.9l-12.9-5.4z" fill="#538406" fill-rule="nonzero"/>
    <g fill="#334C06" fill-rule="nonzero" opacity="0.7">
      <path d="M490.2 454.7a1 1 0 0 1-1-.7c-37-195.6-111.4-269.3-112.1-270a1 1 0 0 1 0-1.4 1 1 0 0 1 1.3 0c.8.7 75.5 74.9 112.7 271 0 .5-.3 1-.8 1.1h-.1z"/>
      <path d="M421.2 247.5a106.9 106.9 0 0 0-53.5-17.4 1 1 0 0 1-1-1c0-.6.4-1 1-1 .3 0 29.4.6 54 17.6.4.3.5 1 .2 1.4a1 1 0 0 1-.7.4zM447.6 304.5a1 1 0 0 1-.8-1.6c.2-.3 23.3-26.6 54-49.2a1 1 0 0 1 1.3.2c.3.4.3 1-.2 1.3-30.5 22.6-53.4 48.7-53.6 49a1 1 0 0 1-.7.3zM442.4 291.9a305.1 305.1 0 0 0-96-18.1 1 1 0 0 1-1-1c0-.6.4-1 1-1 .5 0 51 .5 96.3 18.2a1 1 0 0 1-.3 1.9zM476.4 393a1 1 0 0 1-.5 0c-30.8-14.2-82.5-16-83-16a1 1 0 0 1 0-2c.6 0 52.7 2 83.8 16.2a1 1 0 0 1-.3 1.9zM479.8 406.7a1 1 0 0 1-1-1.3c14.1-38.4 51.2-68.5 51.6-68.8a1 1 0 0 1 1.4.1c.3.5.2 1-.2 1.4-.4.3-37 30.1-51 68a1 1 0 0 1-.8.6z"/>
    </g>
    <path d="M763.8 541s-1.7-69.3 53-75.6c54.6-6.4 34.9 72.4 11.4 98.2 0 0 30.4-35.7 50.6-11.6 20.2 24-36.5 51.7-36.5 51.7s45.4-15.4 58-5c16.2 13.5-14.6 33-14.6 33s49.2-19.5 38.9 15.3l-233.6-.7L763.8 541z" fill="#538406" fill-rule="nonzero"/>
    <path d="M785 46.2v555.6a46 46 0 0 1-46 46.2H512a46 46 0 0 1-46-46.2V46.2A46 46 0 0 1 512 0h227a46 46 0 0 1 46 46.2z" fill="#6D6D6D" fill-rule="nonzero"/>
    <path d="M785 46.3V54H466v-7.7A46.2 46.2 0 0 1 512 0h227c25.4 0 46 20.8 46 46.3zM785 594v7.7a46.2 46.2 0 0 1-46 46.3H512c-25.4 0-46-20.7-46-46.3V594h319zM794 254h-8V132h8c.5 0 1 .5 1 1v120c0 .5-.5 1-1 1zM466 190h-7a1 1 0 0 1-1-1v-58c0-.6.4-1 1-1h7v60zM466 254h-7c-.6 0-1-.4-1-.8v-35.4c0-.4.4-.8 1-.8h7v37z" fill="#1E1E1E" fill-rule="nonzero"/>
    <path d="M580 26a9 9 0 1 1-18 0 9 9 0 0 1 18 0zM600 27.5a4.5 4.5 0 1 1-9 0 4.5 4.5 0 0 1 9 0zM694.4 33h-82.8a.6.6 0 0 1-.6-.6v-9.8c0-.3.3-.6.6-.6h82.8c.3 0 .6.3.6.6v9.8c0 .3-.3.6-.6.6zM643 621.5a17.5 17.5 0 1 1-35 0 17.5 17.5 0 0 1 35 0z" fill="#FFF" fill-rule="nonzero"/>
    <rect fill="#EAEAEA" fill-rule="nonzero" x="473" y="55" width="303" height="539"/>
    <g opacity="0.33" fill="#59595B" fill-rule="nonzero">
      <path d="M723.9 392.6c0 11.6-42.4 21-94.8 21-52.3 0-94.8-9.4-94.8-21 0-11.7 42.5-21.1 94.8-21.1 52.4 0 94.8 9.4 94.8 21z" opacity="0.5"/>
      <g transform="translate(534 371)">
        <path d="M189.9 21.6c0 11.6-42.4 21-94.8 21-52.3 0-94.8-9.4-94.8-21C.3 9.9 42.8.5 95.1.5c52.4 0 94.8 9.4 94.8 21z" opacity="0.3"/>
        <ellipse opacity="0.5" cx="95.1143979" cy="21.57" rx="49.4298429" ry="11.01"/>
      </g>
    </g>
    <g fill-rule="nonzero">
      <path d="M710.3 253.2l-82-47.2a4.7 4.7 0 0 0-4.7 0l-82 47.2-.4.3-.2.1-.3.3a4 4 0 0 0-.4.5l-.1.1-.2.2v.1l-.1.2-.2.4v.1a4.2 4.2 0 0 0-.4 1.7v94.6c0 1.6.9 3.2 2.3 4l82 47.3c1.5.8 3.3.8 4.7 0l82-47.3a4.6 4.6 0 0 0 2.4-4v-94.6c0-1.6-1-3.2-2.4-4zm-85 50.5L608.6 293l72.2-46 19.2 11-74.7 45.7zM580.4 286l13.3 8.5v22.7l-13.3-9.5V286zm5.6-7.5l72-44.8 13.7 8-71.8 45.7-13.9-9zm40-63.2l22.8 13.1-71.5 44.5-24.4-15.5 73-42.1zm-77.4 50.4l22.5 14.3v30c0 1.6.7 3 2 3.9l22.6 16.2a4.7 4.7 0 0 0 7.4-3.8v-25.8l17.4 11.1v78.8L548.6 349v-83.3zM630 391.4v-46l.4-.5c6.2-9.8 15.4-11 20.7-11 2.1 0 1-1.3 0-1.6-12.6-3.4-18.4 2.8-21.1 8.5v-29l73.4-44.9v82.2L630 391.4z" fill="#E71E6E"/>
      <path d="M681.3 338.1c-.4 2.1 2.2-.2 2.2-.2-1.3 17-22.6 18.8-22.6 18.8-2.2.6 5 1.3 5 1.3 18.5.3 19.3-14 20-16.5.6-2.4 3.3-.9 1.7-4.4-1.6-3.5-5.9-1-6.3 1zM684.7 305.3a12.3 12.3 0 1 0 15 8.7 12.3 12.3 0 0 0-15-8.7z" fill="#E71E6E"/>
      <path d="M694.6 310.8a6 6 0 1 1-11.5 3 6 6 0 0 1 11.5-3z" fill="#FFF"/>
      <path d="M689 321.1a3.4 3.4 0 1 1-4.2-2.3c1.8-.5 3.7.6 4.2 2.3z" fill="#FFF"/>
    </g>
    <g opacity="0.5" transform="translate(473 54)" fill="#FFF" fill-rule="nonzero">
      <polygon points="200.453438 0.109695291 0.0647861842 307.361219 0.0647861842 136.21662 88.8318257 0.109695291"/>
      <polygon points="284.829967 0.109695291 0.0647861842 436.746814 0.0647861842 357.442105 233.110658 0.109695291"/>
      <polygon points="302.880395 178.773407 302.880395 258.078116 119.196612 539.735734 67.4822862 539.735734"/>
    </g>
    <path d="M757 714c0 2.7 26.1 4.9 58.3 4.9 32.2 0 58.3-2.2 58.3-4.9s-26.1-4.8-58.3-4.8c-32.2 0-58.3 2.1-58.3 4.8z" opacity="0.5" fill="#B0AFFD" fill-rule="nonzero"/>
    <path d="M219.2 773.6c0 2.8 26.1 5.1 58.3 5.1 32.2 0 58.3-2.3 58.3-5 0-2.9-26.1-5.2-58.3-5.2-32.2 0-58.3 2.3-58.3 5.1z" opacity="0.5" fill="#7C7C7C" fill-rule="nonzero"/>
    <g fill-rule="nonzero">
      <g fill="#AF835B" transform="translate(465 592)">
        <polygon transform="rotate(-.1 31 30)" points="1.93617376 1.46296758 59.9005332 1.46259737 59.9001704 58.5716084 1.93581105 58.5719787"/>
        <polygon transform="rotate(-.1 30.9 6.6)" points="1.91091071 1.46300797 59.8752703 1.46263673 59.8752045 11.7901648 1.91084493 11.790536"/>
        <polygon transform="rotate(-.1 30.4 5.4)" points="0.47170355 0.288037612 60.3466452 0.287655312 60.3465797 10.6101406 0.471638008 10.6105229"/>
        <polygon points="35.5388135 0.282393162 35.5538574 17.5083761 34.475708 15.854359 33.3875293 17.5134188 32.3093799 15.8594017 31.2312305 17.5134188 30.1480664 15.8594017 29.0649023 17.5184615 27.9817383 15.8644444 26.9035889 17.5184615 26.8835303 0.292478632"/>
      </g>
      <g transform="translate(468.5 592)">
        <polygon fill="#E9A056" transform="rotate(-.1 31 30)" points="1.94620222 1.45793908 59.9105612 1.45757068 59.9102003 58.5665814 1.94584128 58.5669498"/>
        <polygon fill="#AF835B" transform="rotate(-.1 30.9 6.6)" points="1.92092339 1.45790786 59.885281 1.45754664 59.885217 11.7850743 1.92085939 11.7854355"/>
        <polygon fill="#E9A056" transform="rotate(-.1 30.4 5.5)" points="0.481761977 0.288046914 60.3567033 0.287666392 60.356638 10.6151943 0.481696709 10.6155749"/>
        <polygon fill="#EA8237" points="35.5438281 0.277350427 35.5638867 17.5083761 34.4807227 15.8493162 33.3975586 17.5083761 32.3143945 15.854359 31.2362451 17.5134188 30.1580957 15.854359 29.069917 17.5134188 27.9917676 15.8594017 26.9136182 17.5134188 26.8935596 0.287435897"/>
      </g>
    </g>
    <g fill-rule="nonzero">
      <g fill="#AF835B" transform="translate(434 533)">
        <polygon transform="rotate(-.1 30.8 30.2)" points="1.79571599 1.66465958 59.760075 1.66429119 59.759714 58.7783446 1.79535502 58.778713"/>
        <polygon transform="rotate(-.1 30.8 6.8)" points="1.77048288 1.66467646 59.7348425 1.66430521 59.7347767 11.9918333 1.7704171 11.9922045"/>
        <polygon transform="rotate(-.1 30.3 5.7)" points="0.33127289 0.494765709 60.2062142 0.494385187 60.206149 10.8168704 0.331207653 10.8172509"/>
        <polygon points="35.3984033 0.484102564 35.4184619 17.7151282 34.3352979 16.0560684 33.2521338 17.7151282 32.1689697 16.0611111 31.0908203 17.7201709 30.0076562 16.0611111 28.9244922 17.7201709 27.8413281 16.0661538 26.7631787 17.7252137 26.7431201 0.494188034"/>
      </g>
      <g transform="translate(437.5 533)">
        <polygon fill="#D38C4C" transform="rotate(-.1 30.8 30.2)" points="1.80573505 1.65958716 59.7700941 1.65921861 59.769733 58.7682294 1.80537395 58.7685979"/>
        <polygon fill="#AF835B" transform="rotate(-.1 30.8 6.8)" points="1.78055658 1.65961983 59.7449162 1.65924858 59.7448504 11.9867766 1.78049081 11.9871479"/>
        <polygon fill="#D38C4C" transform="rotate(-.1 30.3 5.7)" points="0.341307818 0.489697454 60.2162495 0.489315156 60.216184 10.8118004 0.341242277 10.8121827"/>
        <polygon fill="#EA8237" points="35.403418 0.484102564 35.4234766 17.7100855 34.3453271 16.0510256 33.2571484 17.7100855 32.178999 16.0560684 31.1008496 17.7151282 30.0176855 16.0560684 28.9345215 17.7151282 27.8513574 16.0611111 26.773208 17.7201709 26.7531494 0.494188034"/>
      </g>
    </g>
    <polygon fill="#E71E6E" fill-rule="nonzero" points="667.507483 711 439.596765 655.563613 414 639 704 710.416042"/>
    <rect fill="#ED2680" fill-rule="nonzero" x="239" y="424" width="262" height="227"/>
    <path d="M37 596.8a18 18 0 1 1-32 16.4 18 18 0 0 1 32-16.4z" fill="#E71E6E" fill-rule="nonzero"/>
    <path d="M225 457v6.1l-.8 81.8v.4l-98.5.4-60.7.3.2-.3.3-.4.3-.4 59.8-82.5a9.3 9.3 0 0 1 6.5-3.7L215 449a9 9 0 0 1 10 7.9z" fill="#ED2680" fill-rule="nonzero"/>
    <path d="M224 459.3v3.6c-.1-2-1.5-4.5-3-5.9a7.2 7.2 0 0 0-5.6-1.8l-79.7 9.6a10 10 0 0 0-7 4.2l-54.4 77-1.3-.2 54.8-77.5a11 11 0 0 1 7.8-4.7l79.6-9.5a8.3 8.3 0 0 1 8.8 5.2z" fill="#E71E6E" fill-rule="nonzero"/>
    <path d="M213 469.3V545h-31.3l-11.8-.1h-35.6l-33.7-.2H95v-9c0-2.8.8-5.4 2.3-7.6l36-53.1c2-3 5.3-5 9-5.5l12-1.4 36.8-4.4 13.7-1.6c2-.3 3.7.2 5.1 1.3 1.9 1.3 3.1 3.4 3.1 5.9z" fill="#B9C9EF" fill-rule="nonzero"/>
    <path d="M225 545v122H75.3c-14.6 0-57.3-1-57.3-1v-61.7a58.6 58.6 0 0 1 45.3-58.5l2.5-.4h.1c2.5-.4 5-.4 7.7-.4H225z" fill="#ED2680" fill-rule="nonzero"/>
    <path d="M204.2 563h-18.4a4.9 4.9 0 0 1-4.8-5c0-2.8 2.1-5 4.8-5h18.4c2.7 0 4.8 2.2 4.8 5s-2.1 5-4.8 5z" fill="#3D38A0" fill-rule="nonzero"/>
    <path d="M209 556.8c0 1.4-.5 2.7-1.4 3.7-.9 1-2 1.5-3.4 1.5h-18.4c-2.7 0-4.8-2.3-4.8-5.2l.3-1.8c.7 2 2.4 3.4 4.5 3.4h18.4c1.3 0 2.5-.6 3.4-1.5.5-.5.9-1.2 1.1-1.9l.3 1.8z" fill="#262691" fill-rule="nonzero"/>
    <polygon fill="#8EB9BF" fill-rule="nonzero" opacity="0.5" points="191 464 134.507784 546 101 545.914426 154.391852 468.424678"/>
    <path d="M214 470v14l-43.7 62H153l57.9-82a7.3 7.3 0 0 1 3.1 6z" fill="#8EB9BF" fill-rule="nonzero" opacity="0.5"/>
    <polygon fill="#8EB9BF" fill-rule="nonzero" opacity="0.5" points="214 501 214 545 182 544.916926"/>
    <path d="M23 663h-9a14 14 0 1 1 0-28h9a14 14 0 0 1 0 28z" fill="#FF408E" fill-rule="nonzero"/>
    <path d="M375 649l7.7-10.7a44 44 0 0 1 71-.4l8.3 11.1" fill="#0A0A0A" fill-rule="nonzero"/>
    <path d="M511.6 668H14.4c-.8 0-1.4-.6-1.4-1.4v-15.2c0-.8.6-1.4 1.4-1.4h497.2c.8 0 1.4.6 1.4 1.4v15.2c0 .8-.6 1.4-1.4 1.4zM94 649l7.7-10.7a44 44 0 0 1 71-.4l8.3 11.1" fill="#E71E6E" fill-rule="nonzero"/>
    <circle fill="#565656" fill-rule="nonzero" cx="137" cy="670" r="41"/>
    <circle fill="#FEFEFE" fill-rule="nonzero" transform="rotate(-45 137.7 670.1)" cx="137.71351" cy="670.106853" r="30.7237673"/>
    <circle fill="#4A4A4F" fill-rule="nonzero" cx="138" cy="670" r="22"/>
    <circle stroke="#FEFEFE" stroke-width="0.2537" cx="138" cy="670" r="20"/>
    <path d="M150 670.5a12.5 12.5 0 1 1-25 0 12.5 12.5 0 0 1 25 0z" fill="#474747" fill-rule="nonzero"/>
    <circle fill="#2A2A2B" fill-rule="nonzero" cx="138" cy="670" r="4"/>
    <circle stroke="#FEFEFE" stroke-width="0.1268" cx="138.5" cy="670.5" r="5.5"/>
    <g transform="translate(374 626)">
      <circle fill="#173A2C" fill-rule="nonzero" cx="43.5596571" cy="43.7187429" r="40.3182857"/>
      <circle fill="#FEFEFE" fill-rule="nonzero" transform="rotate(-45 43.6 43.7)" cx="43.5512435" cy="43.7181324" r="30.6038208"/>
      <circle fill="#0A0A0A" fill-rule="nonzero" cx="43.5596571" cy="43.7187429" r="22.2222857"/>
      <circle stroke="#FEFEFE" stroke-width="0.2537" cx="43.5596571" cy="43.7187429" r="20.358"/>
      <path d="M56.2 43.7a12.6 12.6 0 1 1-25.3 0 12.6 12.6 0 0 1 25.3 0z" fill="#81172B" fill-rule="nonzero"/>
      <path d="M34.5 46a9.4 9.4 0 0 1 .3-5.7M41.7 53a9.4 9.4 0 0 1-5.6-3.6M49.7 50.8a9.3 9.3 0 0 1-4.3 2.1M53 43.7c0 1.7-.5 3.3-1.3 4.7" stroke="#0A0A0A" stroke-width="0.2537" stroke-linecap="round"/>
      <path d="M47.7 43.7a4.1 4.1 0 1 1-8.3 0 4.1 4.1 0 0 1 8.3 0z" fill="#0A0A0A" fill-rule="nonzero"/>
      <circle stroke="#FEFEFE" stroke-width="0.1268" cx="43.5596571" cy="43.7187429" r="5.19017143"/>
    </g>
    <g fill-rule="nonzero">
      <g transform="translate(558.4 501)">
        <polygon fill="#E9A056" transform="rotate(-76.1 52.2 54.3)" points="9.85941439 11.1869773 94.69983 11.1010801 94.6121649 97.3541297 9.77174935 97.4400269"/>
        <polygon fill="#AF835B" transform="rotate(-76.1 60.5 20.5)" points="52.9015221 -22.5980004 68.2456402 -22.6135357 68.1579752 63.6395139 52.8138571 63.6550492"/>
        <polygon fill="#E9A056" transform="rotate(13.9 60.3 18.6)" points="15.7178733 10.8949265 104.811637 10.9854788 104.827167 26.3245939 15.7334035 26.2340417"/>
        <polygon fill="#EA8237" points="69.5333776 13.0365975 63.424605 37.8887063 62.4529813 35.1112354 60.2954785 37.1130162 59.3238548 34.3355453 57.1763173 36.3373261 56.2046936 33.5598553 54.0471907 35.5616361 53.075567 32.7841652 50.9280295 34.7909505 57.0368021 9.93884172"/>
      </g>
      <g transform="translate(533 584)">
        <polygon fill="#E9A056" transform="rotate(-76.1 52.3 53.9)" points="9.92762437 10.7702751 94.76804 10.6843779 94.6803749 96.9374275 9.83995932 97.0233247"/>
        <polygon fill="#AF835B" transform="rotate(-76.1 60.6 20.1)" points="52.9761612 -22.9978836 68.3202793 -23.0134189 68.2326143 63.2396307 52.8884962 63.255166"/>
        <polygon fill="#E9A056" transform="rotate(13.9 60.3 18.2)" points="15.7902533 10.4768516 104.884017 10.5674039 104.899547 25.906519 15.8057835 25.8159667"/>
        <polygon fill="#FFC064" points="69.6031352 12.621228 63.4943626 37.4733367 62.5227389 34.6958659 60.365236 36.6976467 59.3936124 33.9201758 57.2460749 35.9219566 56.2744512 33.1444857 54.1169483 35.1462666 53.1453246 32.3687957 50.9977871 34.3705765 57.1065597 9.5234722"/>
      </g>
      <g fill="#AF835B" transform="translate(601.8 601)">
        <polygon transform="rotate(-76.1 52.4 54)" points="10.0009894 10.8247431 94.841405 10.7388458 94.75374 96.9918954 9.91332439 97.0777927"/>
        <polygon transform="rotate(-76.1 60.7 20.2)" points="53.0402585 -22.9582289 68.3843766 -22.9737641 68.2967116 63.2792855 52.9525935 63.2948207"/>
        <polygon transform="rotate(13.9 60.4 18.2)" points="15.8628774 10.5293698 104.956641 10.6199221 104.972171 25.9590372 15.8784076 25.8684849"/>
        <polygon points="69.6828581 12.676277 63.5691029 37.5283857 62.5974792 34.7509148 60.4399763 36.7526957 59.4683526 33.9752248 57.3208151 35.9770056 56.3491915 33.2045392 54.1916886 35.2013155 53.2200649 32.4238447 51.0725274 34.4306299 57.1813 9.57852117"/>
      </g>
      <g transform="translate(606.7 602)">
        <polygon fill="#FFC064" transform="rotate(-76.1 52.5 54.2)" points="10.099676 11.088824 94.9400916 11.0029268 94.8524266 97.2559764 10.012011 97.3418736"/>
        <polygon fill="#AF835B" transform="rotate(-76.1 60.8 20.4)" points="53.1392425 -22.7004075 68.4833606 -22.7159428 68.3956956 63.5371068 53.0515775 63.5526421"/>
        <polygon fill="#FFC064" transform="rotate(13.9 60.5 18.5)" points="15.9587024 10.7917312 105.052466 10.8822835 105.067996 26.2213986 15.9742326 26.1308463"/>
        <polygon fill="#EA8237" points="69.7825118 12.9365085 63.6687566 37.7886172 62.6971329 35.0111463 60.53963 37.0129272 59.5680064 34.2354563 57.4204689 36.2372371 56.4488452 33.4597662 54.2913423 35.461547 53.3197186 32.6840762 51.1721811 34.6908614 57.2809537 9.83875268"/>
      </g>
    </g>
    <g opacity="0.2" fill="#989898" fill-rule="nonzero">
      <path d="M297.2 620.6h-19.8a.9.9 0 0 1-1-.9V456.1c0-.5.5-1 1-1h19.8c.5 0 1 .5 1 1v163.6c0 .5-.5 1-1 1zM339 620.6h-20a.9.9 0 0 1-.8-.9V456.1c0-.5.4-1 .9-1h19.8c.5 0 1 .5 1 1v163.6c0 .5-.5 1-1 1zM380.6 620.6h-19.8a.9.9 0 0 1-1-.9V456.1c0-.5.5-1 1-1h19.8c.5 0 1 .5 1 1v163.6c0 .5-.5 1-1 1zM422.3 620.6h-19.8a.9.9 0 0 1-1-.9V456.1c0-.5.5-1 1-1h19.8c.5 0 1 .5 1 1v163.6c0 .5-.5 1-1 1zM464 620.6h-19.8a.9.9 0 0 1-1-.9V456.1c0-.5.5-1 1-1H464c.5 0 1 .5 1 1v163.6c0 .5-.5 1-1 1z"/>
    </g>
    <g fill-rule="nonzero">
      <g transform="translate(364.2 580)">
        <polygon fill="#AF835B" points="57.3929953 0.552889734 57.437783 38.9463498 55.4720991 35.2554373 53.5014387 38.9513308 51.5407311 35.2604183 49.585 38.9563118 47.619316 35.2653992 45.6486557 38.9612928 43.6879481 35.2703802 41.732217 38.9662738 41.6874292 0.5678327"/>
        <polygon fill="#E9A056" transform="rotate(-.1 55.4 66.8)" points="2.80699933 3.16338695 108.013459 3.16327702 108.013326 130.462485 2.80686643 130.462595"/>
        <polygon fill="#AF835B" transform="rotate(-.1 55.4 14.7)" points="2.7472219 3.1633929 107.953682 3.16328298 107.953657 26.1854271 2.74719787 26.185537"/>
        <polygon fill="#E9A056" transform="rotate(-.1 54.5 12)" points="0.134757702 0.553140027 108.809655 0.55302653 108.809631 23.5653961 0.13473369 23.5655096"/>
        <polygon fill="#FFC064" points="63.7777358 0.542927757 63.8225236 38.9413688 61.8568396 35.2504563 59.8911557 38.9463498 57.9254717 35.2554373 55.9697406 38.9513308 54.0040566 35.2604183 52.0383726 38.9513308 50.0726887 35.2653992 48.1169575 38.9563118 48.0721698 0.562851711"/>
      </g>
      <g transform="translate(306.5 632.8)" fill="#AF835B">
        <polygon transform="rotate(-89.9 39.2 39.5)" points="1.7044117 1.23842088 76.7878819 1.23834271 76.7878022 77.8005382 1.70433192 77.8006164"/>
        <polygon transform="rotate(-89.9 39.3 8.8)" points="32.4913447 -29.5135548 46.0695283 -29.513569 46.0694483 47.0486269 32.4912646 47.0486411"/>
        <polygon transform="rotate(-179.9 40 7.2)" points="0.376782941 0.438225315 79.461647 0.438308123 79.4616612 14.0115108 0.376797141 14.011428"/>
        <polygon points="33.1429245 0.428365019 33.1180425 23.0769202 34.5462736 20.9002281 35.9794811 23.0819011 37.4077123 20.9052091 38.830967 23.0819011 40.2591981 20.9101901 41.6924057 23.0868821 43.1206368 20.9101901 44.5488679 23.0918631 44.57375 0.443307985"/>
      </g>
      <g transform="translate(302 632.8)">
        <polygon fill="#FFC064" transform="rotate(-89.9 39 39.5)" points="1.53593371 1.23373147 76.6194043 1.23365301 76.6193242 77.7958489 1.53585362 77.7959274"/>
        <polygon fill="#AF835B" transform="rotate(-89.9 39.1 8.8)" points="32.3230289 -29.5182426 45.9012126 -29.5182568 45.9011325 47.0439391 32.3229488 47.0439533"/>
        <polygon fill="#FFC064" transform="rotate(-179.9 39.7 7.2)" points="0.203201726 0.432805044 79.2882447 0.432887563 79.2882589 14.0060902 0.203215876 14.0060077"/>
        <polygon fill="#EA8237" points="32.9737264 0.42338403 32.9488443 23.0719392 34.3770755 20.8952471 35.810283 23.0769202 37.2385142 20.9002281 38.6617689 23.0769202 40.0949764 20.9002281 41.528184 23.0819011 42.9564151 20.9052091 44.3796698 23.0868821 44.4045519 0.438326996"/>
      </g>
    </g>
    <path d="M225 546H64l2.5-.5.4-.5H225v1z" fill="#E71E6E" fill-rule="nonzero"/>
    <g opacity="0.5" fill="#020202" fill-rule="nonzero">
      <path d="M109.6 531.8V551c0 2.4-3 3.3-4.3 1.3l-3.2-5.2c-2.6-4.2-2.4-9.5.4-13.4l2.6-3.5c1.4-2 4.5-1 4.5 1.5z" opacity="0.3"/>
      <g opacity="0.3">
        <path d="M93.1 556.1h-7.8a4.9 4.9 0 0 1-4.9-5c0-2.7 2.2-4.9 4.9-4.9H93c2.7 0 4.8 2.2 4.8 5 0 2.7-2.1 5-4.8 5z"/>
        <g transform="translate(80 537)">
          <polygon transform="rotate(-33 20.5 6.8)" points="12.3158761 4.56662322 28.6868752 4.39354147 28.6375056 9.10721393 12.2665064 9.28029568"/>
          <path d="M17.7 15.6a4.8 4.8 0 0 1-4.6 3.5H5.3a4.9 4.9 0 0 1-4.9-5A5 5 0 0 1 2.7 10l-.2 1.5c0 2.8 2.1 5 4.8 5h7.9c.9 0 1.8-.3 2.5-.8z" opacity="0.5"/>
        </g>
      </g>
    </g>
    <g transform="translate(82 529)" fill-rule="nonzero">
      <polygon fill="#5858C4" transform="rotate(-33 20.4 14.8)" points="12.2957706 12.5101829 28.6347493 12.3864375 28.5994523 17.0784271 12.2604736 17.2021725"/>
      <path d="M29.6 2.8V22c0 2.4-3 3.3-4.3 1.3L22.1 18a12 12 0 0 1 .4-13.2L25 1.2c1.5-2 4.6-1 4.6 1.6z" fill="#5858C4"/>
      <path d="M29.6 22.5c-.5 2-3.1 2.6-4.3.8L22.1 18a12 12 0 0 1 .4-13.2L25 1.3c.5-.7 1-1 1.7-1l-2 2.6a12 12 0 0 0-.4 13.3l3.3 5.2c.4.8 1.2 1.1 2 1.1z" fill="#4444AD"/>
      <path d="M13.1 27H5.2a4.9 4.9 0 0 1-4.8-5c0-2.7 2.2-4.9 4.8-4.9h7.9c2.7 0 4.8 2.2 4.8 5 0 2.6-2.1 4.8-4.8 4.8z" fill="#5858C4"/>
      <path d="M17.7 23.5c-.3.8-.7 1.4-1.2 2-.9.9-2 1.4-3.4 1.4H5.2A4.9 4.9 0 0 1 .4 22 5 5 0 0 1 2.7 18l-.3 1.5c0 2.7 2.2 4.9 4.9 4.9H15c1 0 1.8-.3 2.6-.8z" fill="#4444AD"/>
    </g>
    <path d="M815 498.7c-3.5 7-4.3 22-8 29a194 194 0 0 1-26.3 32.3c-1.4-3.5-8.4.5-6.3-2.5 6.6-9.5 19.2-20.6 21-35.6 1-9.9 8.3-32.9 8.3-32.9" fill="#D8826A" fill-rule="nonzero"/>
    <path d="M847 716c4.6-.4 9.2-3 11.2-3.1 1.7-.2 6.2-1.3 7.4-1.7 1.3-.4-1-8-3-8.2l-1 .7c-1 .5-2.7 1.2-5.2 1-2.8 2.8-2.7 3.5-6.2 5.7-1.5.9-3.2 2.1-4.2 3.2-1.4 1.4-1.6 2.6 1 2.4z" fill="#000" fill-rule="nonzero"/>
    <path d="M861.5 699s.8 3.5 1.5 4.2c-3.8 4.6-7 2.2-7 2.2v-.7l-1-4.3 6.5-1.4z" fill="#ED9C80" fill-rule="nonzero"/>
    <path d="M779.7 714.6c4.5 1.1 9.7.2 11.7.6 1.6.4 6.3.7 7.6.8 1.3 0 1.5-7.8-.3-8.7l-1.2.3c-1.1.2-3 .3-5.3-.6-3.5 1.7-3.7 2.4-7.6 3.3-1.8.4-3.8 1-5.1 1.8-1.7.9-2.3 1.9.2 2.5z" fill="#000" fill-rule="nonzero"/>
    <path d="M798.9 702.8s-.3 3.2.1 4c-5.5 2.8-8-.2-8-.2l.2-.6.5-4 7.2.8z" fill="#ED9C80" fill-rule="nonzero"/>
    <path d="M839.7 577.7s9.6-20-4-35.7c0 0-12.8 4.9-22.8 5-7.8 0-11.8-1.1-11.8-1.1s-2.6 14.7-3.1 38.1l41.7-6.3zM810 645.6c0 20.1-6.8 45.9-9.2 60.4h-.7c-5.2-.3-8.1-1.1-8.1-1.1v-1.6c1.8-23.4 1.4-62 1.6-74.1l.2-2.3c1.5-8.9 10.3-7.1 13.6 1.3a30.7 30.7 0 0 1 1.7 6.4c.4 2 .7 4.3.8 6.6V643.5l.1 2.1z" fill="#1E1E1E" fill-rule="nonzero"/>
    <path d="M823.4 586l-.2.7a726 726 0 0 1-12.1 40.5v.1l-2.6 6.8c-.3.9-1.2 1.6-2.3 2.1l-1.8.6c-4.7 1-11.4-1.2-11.4-10.2 0-1 0-2.2.3-3.3 1-7.3 5.2-47.8 5.8-51.7.6-4 1.6-9.6 3.7-10.2 10.6-3 24.2 10 20.6 24.6z" fill="#1E1E1E" fill-rule="nonzero"/>
    <path d="M809 631.4l2-3.4c-.3.9-1.8 6.8-1.8 13.4v.2l.1 2v2.1c-.3 1.8-2.7-6.7-3.2-8.7l-.1-.4 2-3.6 1-1.6z" fill="#272728" fill-rule="nonzero"/>
    <path d="M823 587.6c-2.2 8.4-8 28.5-12.2 40.7v.1c-.3.9-1.9 6.9-1.8 13.4v.3l.1 2v2.1c0 20-7 45.4-9.3 59.8h-.8s2.8-23.7 6-40c2.4-12.6.2-23.6-1-28l-.6-2 3-7c3.5-9.2 5-31 5-31-6-15.7-5.8-35-5.8-35l6 1.2 9.8 13.4 1.6 10z" fill="#1E1E1E" fill-rule="nonzero" opacity="0.5"/>
    <path d="M841.4 630c-6.5-7-16.4-4.6-12.5 6 4.1 11.2 17.2 42.4 24 64.6l.4 1.4s3.3-.4 8.7-2.2c-3-14.3-4.3-38.6-11.2-56-2.3-5.6-6-10.2-9.4-13.8z" fill="#1E1E1E" fill-rule="nonzero"/>
    <path d="M806 562.3c-.3-16.5 19.5-4.3 29 1.7 4 2.6 5.3 7.3 5.6 11.6l3.3 57.2c1.3 18.3-14 7.4-15.2 2.2-3-13-22.5-63.7-22.7-72.7z" fill="#1E1E1E" fill-rule="nonzero"/>
    <path d="M843.7 621s.1 8.3 6.3 19c0 0-10.8-6-11.3-6.8-.5-.8-2-9-1.7-9.8.3-.8 6.7-2.4 6.7-2.4z" fill="#1C1C1C" fill-rule="nonzero"/>
    <path d="M795.2 434.7s-3.2 29.7 19.5 23.4c1.2.2 8.2-1.5 9.2-10.5s-4.2-18.6-4.7-18.9c-.4-.3-14.8-.7-15.3-.7-.6 0-8.7 6.7-8.7 6.7z" fill="#ED9C80" fill-rule="nonzero"/>
    <path d="M814.5 442.1s-3.3-1.5-2.5-6.1c.8-4.7.3-5-3.1-3s-20.5 11.2-17.6-10.4c2 1.1 8.3 1 9.5-1.7 1.3-2.6 15.9-10 21.4.7 3.8.2 8.2 4.5 7.8 13-.5 8.7-3.6 19.7-6.8 20.3-3.3.6-5-2-4.8-6 .1-2.1 6.3-5 1.8-11.3-2-2-7.5-.2-5.7 4.5z" fill="#542B0E" fill-rule="nonzero"/>
    <path d="M818.7 455.7s-.6 6 1.3 8.4c-4.5 3.6-12.7 2.8-12.7 2.8s2.5-2.5 0-11c-2.5-8.6 11.4-.2 11.4-.2z" fill="#ED9C80" fill-rule="nonzero"/>
    <path d="M793 502.8s6.4 4.8 11 5.2l-2.4-27-2.6 6.6-6 15.2z" fill="#FFF" fill-rule="nonzero"/>
    <path d="M793 502.8s6.4 4.8 11 5.2l-1.8-27-.6.2a53.8 53.8 0 0 0-3 18.1l-.1 4.8c0 1-3.4-.6-5.5-1.3z" fill="#B0AFFD" fill-rule="nonzero" opacity="0.3"/>
    <path d="M799 545.3l.8.3a45.5 45.5 0 0 0 36.9-3.4l2.3-1.2s-3-7-3.6-27.5c-.6-20.4 0-22.7-3.4-32.8-3-8.8-12.5-19.7-12.5-19.7s-8.9 5.7-12 5.7c-4.1 10-8.4 23.2-6.8 32.6 1 6.3-.1 24.7-1 36.2-.3 5.7-.7 9.8-.7 9.8z" fill="#FFF" fill-rule="nonzero"/>
    <path d="M798 544.7l.8.3a155 155 0 0 0 21.5-19.2 38.2 38.2 0 0 0 5.1-16.3h1.7c2.8-14-1.8-26.5-1.8-26.5l-14.8 5.4-5.6 16.7s4.2 2 7.4 2.6c-.5 5-1.7 13.3-2.5 15-.7 1.3-6 7-11 12.3l-.8 9.7z" fill="#B0AFFD" fill-rule="nonzero" opacity="0.3"/>
    <g transform="translate(742 513)" fill-rule="nonzero">
      <polygon fill="#FFC064" transform="rotate(-89.9 26.6 26.5)" points="1.35810647 0.521256051 51.8179492 0.521807708 51.8185123 52.5168407 1.3586695 52.516289"/>
      <polygon fill="#AF835B" transform="rotate(-89.9 26.6 5.9)" points="22.0493953 -20.1473651 31.1766394 -20.1472656 31.1772007 31.8477672 22.0499566 31.8476677"/>
      <polygon fill="#FFC064" transform="rotate(-179.9 27 4.8)" points="0.191900548 0.252878166 53.9019346 0.252296341 53.9018349 9.37458807 0.191800778 9.37516989"/>
      <polygon fill="#EA8237" points="22.445 0.247619048 22.43 15.4662857 23.4 14.0053333 24.37 15.4712381 25.345 14.0053333 26.31 15.4712381 27.28 14.0102857 28.255 15.4761905 29.225 14.0102857 30.19 15.4761905 30.21 0.25752381"/>
    </g>
    <g fill="#ED9C80" fill-rule="nonzero">
      <path d="M783 560.3c0 1.5-3 5.7-5.2 6.3-.7.2-1.5.2-2.2-.1-1 .4-4.2.8-3-1.1-2 1.7-4.4 1.6-7 1.4-.8 0-.8-1 1.1-1.6a9.6 9.6 0 0 0 6-5c-.4-.2-.7.3-1.8.5-1.2.2-1.8-.4-1.9-.9 0-.4 1.4-.8 1.8-1l3.6-2.4a6.8 6.8 0 0 1 3.7-1.3c.3 0 2.8.1 2.2 1"/>
      <path d="M825.7 500.5c-3.1 6.4-11.5 27.7-12.8 30.1-5 9.7-30.7 30.4-30.7 30.4s-4.3-.7-4.2-5c7.3-5 21.2-26.8 24-29.4 2-1.7 10.5-35.3 10.5-35.3"/>
    </g>
    <path d="M824.8 482s2.7 11.2 0 25c-11.2.5-19.8-2.5-19.8-2.5l3.6-18.3" fill="#FFF" fill-rule="nonzero"/>
    <path d="M279 571.7c4.5 5.3 8.3 17.8 13 23a172 172 0 0 0 29.5 22.3c.5-3.3 7.4-1.3 5-3.5-7.7-6.7-21-13.6-25.6-26-3-8.3-14.2-26.5-14.2-26.5" fill="#D8826A" fill-rule="nonzero"/>
    <g transform="translate(305 574)" fill-rule="nonzero">
      <polygon fill="#E9A056" transform="rotate(-.1 24.1 23.5)" points="1.57843367 1.39029048 46.6291995 1.39030218 46.629211 45.5206532 1.57844513 45.5206415"/>
      <polygon fill="#AF835B" transform="rotate(-.1 24 5.4)" points="1.55862158 1.39028211 46.6093876 1.39029384 46.6093896 9.37352482 1.55862366 9.37351309"/>
      <polygon fill="#E9A056" transform="rotate(-.1 23.7 4.5)" points="0.440533753 0.485132293 46.9755112 0.485144403 46.9755133 8.46342914 0.44053583 8.46341703"/>
      <polygon fill="#FFC064" points="27.6904211 0.479784946 27.7052632 13.7901075 26.8642105 12.5139785 26.0231579 13.7901075 25.1821053 12.5139785 24.3410526 13.7950538 23.5 12.5139785 22.6589474 13.7950538 21.8178947 12.5189247 20.9817895 13.8 20.9669474 0.489677419"/>
    </g>
    <path d="M260 749.7s-1.7 9-1.1 10c.5 1.2 2.4 4.4 4.2 5.6 2 1.2 6.3 2.6 6.6 3.1.4.5.4 1.3-.2 1.8a8.8 8.8 0 0 1-6 1.7c-5.8-.8-6.5-3.4-9.9-3.7-.6 0-1.6.8-3.2 0-1.7-.8-2.5-2.2-2.4-3.7.2-2.4 1.5-4.5 2.4-6.3 1-1.9 1.4-10.2 1.4-10.2" fill="#FFBFAE" fill-rule="nonzero"/>
    <path d="M272.5 601l-23.3.6s-9 13-5.3 25.2c2 6 4.2 9 5.2 11.9 1 2.7 7.9 40.6 7.5 43.4-.4 2.8-3.5 10.6-4.5 18.9-1.3 9.8-.2 42-1.2 50.5 3 1.5 5.5 1.6 8 1.4 3-24.7 11.1-57.8 12.2-70.1 1-12.4 2.7-52 1.4-81.8z" fill="#FF8A29" fill-rule="nonzero"/>
    <path d="M269.8 642s-16.2-34.5-19.3-27a15.7 15.7 0 0 0 4.7 19.4c3.8 6.2 12.5 41.3 13 48.8.2 3.9 0 7.8.2 11.7l.2 1.1c1-5.8 1.7-10.8 2-14 .7-8.6.4-22.3-.3-40h-.5z" fill="#F47211" fill-rule="nonzero"/>
    <path d="M269.6 770.7c.5-.7.5-1.8.1-2-.5-.4-2.6-1.6-3.8-2.1-1.1-.5-3-.9-2.3-.6.6.3-.5 1.6-1.6 1.6-3.8-.1-6.6-2.5-8.8-3-3-.6-4.5-4-4.6-4.6-.6.4-1.9 3.2-2.1 4-.3.9-.7 2.3-.4 3.2.2.5.6 1.7.4 3 0 0 .6.3 2.2.6 1 .2 2.4 0 2.4 0l.3-1.9 1.9.2c1 .2 2.8 1.1 3 1.2.4.5.7 1.4 1.3 1.6 1.5.7 3 1 5 1 4 .2 6.3-1 7-2.2z" fill="#060219" fill-rule="nonzero"/>
    <path d="M278.7 755l7.5.1a25 25 0 0 0 .7 8c.5 1.1 3.1 3.8 5.3 4.6 2.2.9 7 1.6 7.4 2 .5.5.6 1.2 0 1.8a10.2 10.2 0 0 1-6.2 2.5c-6.3 0-7.3-2.3-11-2.1-.6 0-1.6 1-3.4.5-1.9-.5-3-1.8-3-3.2-.1-2.4 1.8-4.6 2.6-6.5V755z" fill="#FFBFAE" fill-rule="nonzero"/>
    <path d="M255 598l22.8 6c7 28.6 11.8 60.1 11.1 78-.3 10.2-3 53-3.3 70.5v1.5l-7.6-.1v-.7c-.9-10.7-5.3-38.8-5.3-48.2 0-10.9 3-20.9 3-20.9L259 635.3c-1-2.9-7-4-8.5-11.3a46 46 0 0 1 4.4-26z" fill="#FF8A29" fill-rule="nonzero"/>
    <path d="M299.8 771.3c.3-.8.3-2-.2-2.2a33 33 0 0 0-4-1.7c-1.2-.3-3-.5-2.4-.2.7.2-.3 1.8-1.3 2-3.7.4-6.8-1.7-9-1.9-3.1-.2-4.3-3.7-4.5-4.3-.6.5-2 3.8-2.2 4.8-.1.9-.4 2.5 0 3.4.2.6.8 1.7.8 3 0 0 .6.4 2.3.5 1 0 2.3-.4 2.3-.4v-2s.8-.2 1.9-.2c1 0 2.4.6 3 1.2.6.4 1.1 1 1.7 1.2 1.8.5 3 .6 5 .4 4-.5 6-2.1 6.6-3.6z" fill="#060219" fill-rule="nonzero"/>
    <path d="M276.7 539c1.5.5 1 4.3 2.6 4.8 1.1.4 3.4-.1 4.4.5 5.6 3 4.2 9.4 5 17.2 2.4 6 3 11.4 1.3 14.8-2.3 4.2-4.8 5.4-7.6 8.9-2.1 2.6-2.8 7.9-3.2 13.6 0 1 .8 2.7.6 3.7-.4 1.8-3.2 2.4-6.3 2.5-7 .2-17.8-2.3-21-2.1-3 .1-5.8-1.3-5.5-3.1.2-1.2 1.4-1.8 1.9-4.2 1-5.2 1.7-18.4 2.5-22.9 2-11.4 3.5-20 8-30.6" fill="#FFF" fill-rule="nonzero"/>
    <path d="M292.8 566.6c-1.8-3-4.3-5.7-6.6-8.3l-6.2 2.8c3 5.4 3.6 11.8 5 17.7 1.4 0 3.5-.4 3.5-.4l1.2-1.9c1.2-2.2 2.8-5.9 3-9.9z" opacity="0.3" fill="#B0AFFD" fill-rule="nonzero"/>
    <path d="M296.9 522.6c.6-2.6 1-5.5 1-7.8-.3-4.5-1-11-8.6-13.6-7.7-2.6-16.2-1-18.6 4.5-2.5 5.4-1.8 13.6-2.1 18-.4 4.3-3.6 9.5-3.6 9.5l16.6 6.8s2.6-5.7 3.7-6.4c1.1-.7 1.6 2 5.2 1.6 1.6-.1 3.2-2.8 4.5-6.2v-.4l2-.1c1.2-.4 1-.9.8-1.6-.5-1.5-.8-3-1-4.3zM321 615.9c0 1.4 2.5 5.2 4.4 5.8.6.2 1.2.2 1.8 0 .8.3 3.5.6 2.5-1.1 1.7 1.6 3.7 1.5 5.8 1.3.8 0 .7-1-.9-1.4-2.2-.7-3.8-2.3-5-4.7.4-.2.7.3 1.6.4 1 .2 1.5-.3 1.5-.8 0-.4-1.2-.8-1.4-1l-3-2.2a5.3 5.3 0 0 0-3.2-1.2c-.2 0-2.3.2-1.8 1" fill="#FFBFAE" fill-rule="nonzero"/>
    <path d="M284 564c2.7 5.7 9.9 24.3 11 26.4 4.3 8.4 26.3 26.6 26.3 26.6s3.7-.7 3.7-4.5c-6.3-4.4-18.2-23.3-20.7-25.6-1.6-1.5-9-30.9-9-30.9" fill="#FFBFAE" fill-rule="nonzero"/>
    <path d="M289.4 543.9c-6.3-2.3-12.3-2.3-17.2-6.9-4.8 3.7 6.2 24.7 8.9 25.2 2.7.6 6.4 12.2 7 13.8 8.8-.3 11.9-5 11.9-5-3.7-10.5-4.5-25-10.6-27.1z" fill="#FFF" fill-rule="nonzero"/>
    <path d="M284.9 544c-.5-1.6-1.7-2.9-2-4.5-.3-1.5 0-3.5.9-4.8.5-.8 1.3-1.4 2-2 3.5-2.7 4.6-4.9 3.4-8.9-.3-1.3-.7-2.6-.6-4 .1-1.2.4-2.4 1.7-2.6 1-.1 1.5 0 1.9.9.2.5-.2 4.3 1 2.2 1.3-2.1 2.4-2.3 2.3-7.1 0-.6-.3-3 0-3.3 2.4 1.6 3 4.4 3.4 6.5 1.7-.8 2.1-3.2 2.1-4.1 0-1.9-.2-3.4-1-4.8-3-6.3-6.2-7.4-8.8-8.5a20 20 0 0 0-8.1-2c-2.8.1-6.3 1-7 3-4-1-6.1 2.4-7 3.7a19.4 19.4 0 0 0-3 5.7c-1 3-1.1 6.2-1.9 9.3-.6 2.5-1.7 5.1-3.6 6.9-1.9 1.7-4.5 1.9-6.6 3.4a10 10 0 0 0-3.8 8.5c.2 3.2 1.9 6.7 0 9.7-.7 1-1.6 1.7-2.2 2.7a7.2 7.2 0 0 0 .2 7.6c1.4 2.3 4.2 4.8 6.7 5.6 2.6.7 4.6 1 7.3.9 4.7-.3 8.7-.1 13.6-4.4 2.8-2.4 1-3.7 3.7-6.3 1.5-1.4 3.6-2.2 4.7-4a7 7 0 0 0 .7-5.3z" fill="#161616" fill-rule="nonzero"/>
    <g fill-rule="nonzero">
      <g transform="translate(884 562)">
        <polygon fill="#AF835B" points="34.0080691 0.140304282 33.9832384 25.4101076 35.2645004 22.979837 36.5507285 25.4151185 37.8319904 22.9848479 39.1082862 25.4151185 40.3895482 22.9848479 41.6757763 25.4201293 42.9570382 22.9898587 44.233334 25.4201293 44.2631308 0.150326016"/>
        <polygon fill="#E9A056" transform="rotate(-89.9 35.3 43.8)" points="-6.5813314 9.40788614 77.1954105 9.40703652 77.1947076 78.0936476 -6.58203426 78.0944972"/>
        <polygon fill="#AF835B" transform="rotate(-89.9 35.3 9.4)" points="27.7674182 -24.9086551 42.9202901 -24.9088077 42.9195921 43.7778027 27.7667202 43.7779553"/>
        <polygon fill="#E9A056" transform="rotate(-179.9 36 7.7)" points="0.442049663 0.142091878 71.3882523 0.142819709 71.3884063 15.2906809 0.442203676 15.2899531"/>
        <polygon fill="#FFC064" points="29.8414847 0.135293414 29.8116879 25.4050967 31.0929499 22.9748261 32.3791779 25.4101076 33.6604399 22.979837 34.9367357 25.4101076 36.2229638 22.9848479 37.5042257 25.4151185 38.7904538 22.9848479 40.0667496 25.4151185 40.0915803 0.145315149"/>
      </g>
      <g fill="#AF835B" transform="translate(941.1 597)">
        <polygon transform="rotate(-.1 26.4 26)" points="1.44602628 1.26338275 51.4301735 1.2628715 51.4296725 50.6800751 1.44552534 50.6805864"/>
        <polygon transform="rotate(-.1 26.4 5.7)" points="1.42099244 1.26339937 51.4051394 1.26289002 51.4050491 10.2022827 1.42090216 10.2027921"/>
        <polygon transform="rotate(-.1 26 4.7)" points="0.179434592 0.246222948 51.8073726 0.245693364 51.8072818 9.18007528 0.179343764 9.18060486"/>
        <polygon points="30.417556 0.240521626 30.4324544 15.1478516 29.4988216 13.7147435 28.5651889 15.1478516 27.6315561 13.7147435 26.7028895 15.1528624 25.7692568 13.7197544 24.8356241 15.1528624 23.9019913 13.7197544 22.9733247 15.1528624 22.9534602 0.25054336"/>
      </g>
      <g transform="translate(944 597)">
        <polygon fill="#FFC064" transform="rotate(-.1 26.5 26)" points="1.50063697 1.2583835 51.4847842 1.25787187 51.4842829 50.6750756 1.50013567 50.6755872"/>
        <polygon fill="#AF835B" transform="rotate(-.1 26.5 5.7)" points="1.47560211 1.2583986 51.4597493 1.2578872 51.4596587 10.1972799 1.47551147 10.1977914"/>
        <polygon fill="#FFC064" transform="rotate(-.1 26 4.7)" points="0.234062039 0.246194108 51.8620001 0.245664524 51.8619092 9.18004644 0.233971211 9.18057602"/>
        <polygon fill="#EA8237" points="30.4721834 0.240521626 30.4870818 15.1428407 29.5534491 13.7097327 28.6198163 15.1478516 27.6861836 13.7147435 26.757517 15.1478516 25.8238842 13.7147435 24.8902515 15.1478516 23.9566188 13.7197544 23.0279522 15.1528624 23.0080876 0.245532493"/>
      </g>
    </g>
  </g>
</svg>
