<?xml version="1.0" encoding="UTF-8"?>
<svg width="186px" height="154px" viewBox="0 0 186 154" version="1.1" xmlns="http://www.w3.org/2000/svg" xmlns:xlink="http://www.w3.org/1999/xlink">
    <!-- Generator: Sketch 53.2 (72643) - https://sketchapp.com -->
    <title>house</title>
    <desc>Created with Sketch.</desc>
    <defs>
        <linearGradient x1="50%" y1="0%" x2="50%" y2="100%" id="linearGradient-1">
            <stop stop-color="#F43EA6" offset="0%"></stop>
            <stop stop-color="#F5576C" offset="100%"></stop>
        </linearGradient>
        <linearGradient x1="50%" y1="0%" x2="50%" y2="100%" id="linearGradient-2">
            <stop stop-color="#F43EA6" offset="0%"></stop>
            <stop stop-color="#F5576C" offset="100%"></stop>
        </linearGradient>
    </defs>
    <g id="Dashboard" stroke="none" stroke-width="1" fill="none" fill-rule="evenodd">
        <g id="Home" transform="translate(-190.000000, -651.000000)">
            <g id="house" transform="translate(190.000000, 651.000000)">
                <path d="M180.618815,60.9551335 C181.157833,61.3785191 181.813124,61.5959872 182.47401,61.5959872 C182.919128,61.5959872 183.366245,61.4972105 183.781796,61.2964707 C184.814679,60.7970111 185.47037,59.7530848 185.47037,58.6087885 L185.47037,42.6770622 C185.47037,41.7617845 185.049625,40.89709 184.328405,40.3307172 L135.541547,2.0153136 C132.120046,-0.671970342 127.340813,-0.671572049 123.919312,2.0153136 L105.556763,16.4367123 L105.556763,10.8136095 C105.556763,9.16387921 104.215014,7.82641078 102.560003,7.82641078 L89.7738261,7.82641078 C88.1188153,7.82641078 86.7770658,9.16387921 86.7770658,10.8136095 L86.7770658,31.1859062 L75.1328542,40.3307172 C74.4116339,40.89709 73.9908887,41.7617845 73.9908887,42.6770622 L73.9908887,58.6087885 C73.9908887,59.7530848 74.6465799,60.7970111 75.6794632,61.2964707 C76.711947,61.7959304 77.9406188,61.663697 78.8424438,60.9555318 L80.3839773,59.7447206 L80.3839773,88.8543744 L52.4313963,66.9016504 C49.0098952,64.2143664 44.2306619,64.2143664 40.8091609,66.9016504 L1.61233581,97.684932 C0.891115511,98.2509066 0.47037037,99.1159993 0.47037037,100.031277 L0.47037037,115.963003 C0.47037037,117.1073 1.12606152,118.151226 2.15894488,118.650686 C2.57449564,118.851824 3.02161227,118.950202 3.46673106,118.950202 C4.12721702,118.950202 4.78290817,118.732734 5.32192545,118.309348 L6.86345892,117.098537 L6.86345892,148.025603 L3.46713063,148.025603 C1.81211983,148.025603 0.47037037,149.363071 0.47037037,151.012801 C0.47037037,152.662532 1.81211983,154 3.46713063,154 L182.47361,154 C184.128621,154 185.47037,152.662532 185.47037,151.012801 C185.47037,149.363071 184.128621,148.025603 182.47361,148.025603 L179.077282,148.025603 L179.077282,59.7443223 L180.618815,60.9551335 Z M92.7705864,13.8008082 L99.5632429,13.8008082 L99.5632429,21.1441391 L92.7705864,26.4788777 L92.7705864,13.8008082 Z M79.9844092,44.126451 L127.628902,6.70840189 C128.866364,5.73656658 130.595295,5.73656658 131.832757,6.70840189 L179.47685,44.126451 L179.47685,52.4519729 L131.585424,14.839955 C131.041612,14.4125865 130.386321,14.1991013 129.73063,14.1991013 C129.074938,14.1991013 128.420046,14.4125865 127.875835,14.839955 L79.9844092,52.4519729 L79.9844092,44.126451 Z M6.46389089,101.480666 L44.5187505,71.5939421 C45.7562127,70.6221068 47.4851436,70.6221068 48.7226058,71.5939421 L80.3839773,96.4597823 L80.3839773,104.785702 L48.4752732,79.7254952 C47.3872494,78.8707581 45.8537073,78.8707581 44.7660831,79.7254952 L6.46389089,109.806586 L6.46389089,101.480666 L6.46389089,101.480666 Z M12.8569794,112.391509 L46.6204784,85.8751416 L80.3839773,112.391907 L80.3839773,148.026001 L67.1982321,148.026001 L67.1982321,112.777056 C67.1982321,111.127326 65.8564827,109.789858 64.2014719,109.789858 L29.0394848,109.789858 C27.384474,109.789858 26.0427246,111.127326 26.0427246,112.777056 L26.0427246,148.026001 L12.8569794,148.026001 L12.8569794,112.391509 Z M32.0362451,128.509238 L61.2047116,128.509238 L61.2047116,135.280222 L32.0362451,135.280222 L32.0362451,128.509238 Z M61.2047116,122.53484 L32.0362451,122.53484 L32.0362451,115.763857 L61.2047116,115.763857 L61.2047116,122.53484 Z M32.0362451,141.254619 L61.2047116,141.254619 L61.2047116,148.025603 L32.0362451,148.025603 L32.0362451,141.254619 Z M118.742509,125.731143 C118.67618,125.726762 118.609452,125.721186 118.542725,125.721186 C117.755576,125.721186 116.980414,126.03982 116.425014,126.597431 C115.865619,127.151058 115.545964,127.923747 115.545964,128.708384 C115.545964,129.493022 115.865619,130.265711 116.425014,130.819338 C116.980414,131.376949 117.755576,131.695583 118.542725,131.695583 C118.609452,131.695583 118.67618,131.690007 118.742509,131.685626 L118.742509,148.025603 L105.556763,148.025603 L105.556763,109.391166 L118.742509,109.391166 L118.742509,125.731143 Z M173.083761,148.025603 L124.736029,148.025603 L124.736029,106.403968 C124.736029,104.754237 123.39428,103.416769 121.739269,103.416769 L102.560003,103.416769 C100.904992,103.416769 99.5632429,104.754237 99.5632429,106.403968 L99.5632429,148.025603 L86.3774978,148.025603 L86.3774978,55.0372938 L129.73063,20.9892031 L173.083761,55.0372938 L173.083761,148.025603 Z" id="Shape" fill="url(#linearGradient-1)"></path>
                <path d="M138.327513,135 L156.613228,135 C158.191132,135 159.47037,133.639797 159.47037,131.962025 L159.47037,106.037975 C159.47037,104.360203 158.191132,103 156.613228,103 L138.327513,103 C136.749608,103 135.47037,104.360203 135.47037,106.037975 L135.47037,131.962025 C135.47037,133.639797 136.749608,135 138.327513,135 Z M141.184656,128.924051 L141.184656,118.797468 L153.756085,118.797468 L153.756085,128.924051 L141.184656,128.924051 Z M153.756085,109.075949 L153.756085,112.721519 L141.184656,112.721519 L141.184656,109.075949 L153.756085,109.075949 Z" id="Shape" fill="url(#linearGradient-2)"></path>
                <path d="M138.327513,90 L156.613228,90 C158.191132,90 159.47037,88.6397975 159.47037,86.9620253 L159.47037,61.0379747 C159.47037,59.3602025 158.191132,58 156.613228,58 L138.327513,58 C136.749608,58 135.47037,59.3602025 135.47037,61.0379747 L135.47037,86.9620253 C135.47037,88.6397975 136.749608,90 138.327513,90 Z M141.184656,83.9240506 L141.184656,73.7974684 L153.756085,73.7974684 L153.756085,83.9240506 L141.184656,83.9240506 Z M153.756085,64.0759494 L153.756085,67.721519 L141.184656,67.721519 L141.184656,64.0759494 L153.756085,64.0759494 Z" id="Shape" fill="url(#linearGradient-2)"></path>
                <path d="M121.613228,58 L103.327513,58 C101.749608,58 100.47037,59.3602025 100.47037,61.0379747 L100.47037,86.9620253 C100.47037,88.6397975 101.749608,90 103.327513,90 L121.613228,90 C123.191132,90 124.47037,88.6397975 124.47037,86.9620253 L124.47037,61.0379747 C124.47037,59.3602025 123.191132,58 121.613228,58 Z M118.756085,64.0759494 L118.756085,67.721519 L106.184656,67.721519 L106.184656,64.0759494 L118.756085,64.0759494 Z M106.184656,83.9240506 L106.184656,73.7974684 L118.756085,73.7974684 L118.756085,83.9240506 L106.184656,83.9240506 Z" id="Shape" fill="url(#linearGradient-2)"></path>
            </g>
        </g>
    </g>
</svg>