<?xml version="1.0" encoding="UTF-8"?>
<svg width="119px" height="120px" viewBox="0 0 119 120" version="1.1" xmlns="http://www.w3.org/2000/svg" xmlns:xlink="http://www.w3.org/1999/xlink">
    <!-- Generator: Sketch 53.2 (72643) - https://sketchapp.com -->
    <title>Group 12</title>
    <desc>Created with Sketch.</desc>
    <defs>
        <linearGradient x1="50%" y1="0%" x2="50%" y2="100%" id="linearGradient-1">
            <stop stop-color="#F43EA6" offset="0%"></stop>
            <stop stop-color="#F5576C" offset="100%"></stop>
        </linearGradient>
        <linearGradient x1="50%" y1="0%" x2="50%" y2="100%" id="linearGradient-2">
            <stop stop-color="#F43EA6" offset="0%"></stop>
            <stop stop-color="#F5576C" offset="100%"></stop>
        </linearGradient>
        <linearGradient x1="50%" y1="0%" x2="50%" y2="100%" id="linearGradient-3">
            <stop stop-color="#F43EA6" offset="0%"></stop>
            <stop stop-color="#F5576C" offset="100%"></stop>
        </linearGradient>
        <linearGradient x1="50%" y1="0%" x2="50%" y2="100%" id="linearGradient-4">
            <stop stop-color="#F43EA6" offset="0%"></stop>
            <stop stop-color="#F5576C" offset="100%"></stop>
        </linearGradient>
        <linearGradient x1="50%" y1="0%" x2="50%" y2="100%" id="linearGradient-5">
            <stop stop-color="#F43EA6" offset="0%"></stop>
            <stop stop-color="#F5576C" offset="100%"></stop>
        </linearGradient>
    </defs>
    <g id="Landing" stroke="none" stroke-width="1" fill="none" fill-rule="evenodd">
        <g transform="translate(-881.000000, -2835.000000)" id="Group-12">
            <g transform="translate(881.000000, 2836.000000)">
                <path d="M68,62.0118414 L68,62.0118414 C64.6826317,62.0118414 62,64.7012448 62,68.0223463 C62,71.337326 64.6891281,74.0297904 68,74.0297904 L68,74.0297904 C71.3108719,74.0297904 74,71.337326 74,68.0223463 C74.0003821,64.7012448 71.3169862,62.0118414 68,62.0118414 Z" id="Path" fill="url(#linearGradient-2)"></path>
                <path d="M49.9996178,56.0028669 C53.3122293,56.0028669 56,53.3110759 56,49.9935096 C56,46.6736469 53.3122293,43.9849178 49.9996178,43.9849178 C46.6877707,43.9849178 44,46.6736469 44,49.9935096 C44,53.3110759 46.6877707,56.0028669 49.9996178,56.0028669 Z" id="Path" fill="url(#linearGradient-2)"></path>
                <path d="M68,43.9849178 L68,43.9849178 C64.6826317,43.9849178 62,46.6736469 62,49.9935096 C62,53.3110759 64.6830138,56.0028669 68,56.0028669 L68,56.0028669 C71.3108719,56.0028669 74,53.3110759 74,49.9935096 C74.0003821,46.6736469 71.3169862,43.9849178 68,43.9849178 Z" id="Path" fill="url(#linearGradient-2)"></path>
                <polygon id="Path" fill="url(#linearGradient-3)" points="75 11.9370538 44 11.9370538 44 23.9550028 75 23.9550028"></polygon>
                <path d="M87,56.0028669 C90.3093434,56.0028669 93,53.3110759 93,49.9935096 C93,46.6736469 90.3154576,43.9849178 87,43.9849178 C83.6826317,43.9849178 81,46.6736469 81,49.9935096 C81,53.3110759 83.6891281,56.0028669 87,56.0028669 Z" id="Path" fill="url(#linearGradient-2)"></path>
                <path d="M87,74.0297904 C90.3093434,74.0297904 93,71.33664 93,68.0208159 C93,64.6988683 90.3154576,62.0118414 87,62.0118414 C83.6826317,62.0118414 81,64.6988683 81,68.0208159 C81,71.33664 83.6891281,74.0297904 87,74.0297904 Z" id="Path" fill="url(#linearGradient-2)"></path>
                <path d="M49.9996178,74.0297904 C53.3122293,74.0297904 56,71.337326 56,68.0223463 C56,64.7012448 53.3152866,62.0118414 49.9996178,62.0118414 C46.6847134,62.0118414 44,64.7012448 44,68.0223463 C44,71.337326 46.6877707,74.0297904 49.9996178,74.0297904 Z" id="Path" fill="url(#linearGradient-2)"></path>
                <path d="M32,93.0582096 C35.3116362,93.0582096 38,90.3635284 38,87.0492351 C38,83.7272876 35.3116362,81.0402606 32,81.0402606 C28.6853067,81.0402606 26,83.7272876 26,87.0492351 C26,90.3635284 28.6879817,93.0582096 32,93.0582096 Z" id="Path" fill="url(#linearGradient-2)"></path>
                <path d="M106.473789,11.9370538 L100.212479,11.9370538 L100.212479,24.4264353 L106.473789,24.4264353 L106.473789,105.605426 L12.5266097,105.605426 L12.5266097,24.4268331 L18.7891168,24.4268331 L18.7891168,11.9370538 L12.5266097,11.9370538 C5.60869157,11.9370538 0,17.5270881 0,24.4268331 L0,105.60304 C0,112.504376 5.60869157,118.095603 12.5266097,118.095603 L106.47339,118.095603 C113.392505,118.095603 119,112.503978 119,105.60304 L119,24.4268331 C119.000399,17.5270881 113.392505,11.9370538 106.473789,11.9370538 Z" id="Path" fill="url(#linearGradient-4)"></path>
                <path d="M32,74.0297904 C35.3116362,74.0297904 38,71.337326 38,68.0223463 C38,64.7012448 35.3116362,62.0118414 32,62.0118414 C28.6853067,62.0118414 26,64.7012448 26,68.0223463 C26,71.337326 28.6879817,74.0297904 32,74.0297904 Z" id="Path" fill="url(#linearGradient-2)"></path>
                <path d="M32,56.0028669 C35.3116362,56.0028669 38,53.3110759 38,49.9935096 C38,46.6736469 35.3116362,43.9849178 32,43.9849178 C28.6853067,43.9849178 26,46.6736469 26,49.9935096 C26,53.3110759 28.6879817,56.0028669 32,56.0028669 Z" id="Path" fill="url(#linearGradient-2)"></path>
                <path d="M49.9996178,93.0582096 C53.3122293,93.0582096 56,90.3635284 56,87.0492351 C56,83.7272876 53.3122293,81.0402606 49.9996178,81.0402606 C46.6877707,81.0402606 44,83.7272876 44,87.0492351 C44,90.3635284 46.6877707,93.0582096 49.9996178,93.0582096 Z" id="Path" fill="url(#linearGradient-2)"></path>
                <path d="M32,24.9564986 C35.3116362,24.9564986 38,22.1526836 38,18.6970505 L38,6.17895159 C38,2.71973044 35.3146933,-0.0808951841 32,-0.0808951841 C28.6879817,-0.0808951841 26,2.71973044 26,6.17855292 L26,18.6966518 C26,22.1526836 28.6879817,24.9564986 32,24.9564986 Z" id="Path" fill="url(#linearGradient-5)"></path>
                <path d="M87,24.9564986 C90.3093434,24.9564986 93,22.1526836 93,18.6970505 L93,6.17895159 C93,2.71973044 90.3093434,-0.0808951841 87,-0.0808951841 C83.6826317,-0.0808951841 81,2.71973044 81,6.17855292 L81,18.6966518 C81,22.1526836 83.6891281,24.9564986 87,24.9564986 Z" id="Path" fill="url(#linearGradient-5)"></path>
            </g>
        </g>
    </g>
</svg>