<?xml version="1.0" encoding="UTF-8"?>
<svg width="113px" height="65px" viewBox="0 0 113 65" version="1.1" xmlns="http://www.w3.org/2000/svg" xmlns:xlink="http://www.w3.org/1999/xlink">
    <!-- Generator: Sketch 53.2 (72643) - https://sketchapp.com -->
    <title>Group 8</title>
    <desc>Created with Sketch.</desc>
    <g id="Symbols" stroke="none" stroke-width="1" fill="none" fill-rule="evenodd">
        <g id="icon/delivery" transform="translate(0.000000, -23.000000)" fill="#FFFFFF" fill-rule="nonzero">
            <g id="Group-8" transform="translate(0.000000, 22.606667)">
                <g id="Group-7" transform="translate(0.000000, 0.393333)">
                    <path d="M110.793181,42.5856891 L109.689661,42.5856891 L109.689661,27.7371018 C109.689661,23.7642844 106.731345,20.4966 103.095026,20.4528934 L81.3574486,20.1899814 L75.3017726,5.84144247 C74.6919675,4.39665933 72.8369505,0 67.1348423,0 L45.1423521,0 C43.923404,0 42.9353122,1.00368273 42.9353122,2.24136385 L42.9353122,20.1722747 L5.51715827,20.1722747 C4.29843085,20.1722747 3.3101184,21.1759574 3.3101184,22.4136385 L3.3101184,27.4567072 L3.3101184,42.5854649 L2.20703987,42.5854649 C0.98809175,42.5854649 0,43.5891477 0,44.8268288 L0,48.1888746 C0,51.2785946 2.47497451,53.7922842 5.51715827,53.7922842 L13.4296169,53.7922842 C14.4836992,60.1443093 19.9346462,65 26.4844784,65 C33.03409,65 38.485037,60.1447576 39.5391193,53.7927325 C39.5406642,53.7927325 39.5400021,53.7927325 39.5391193,53.7927325 C39.541547,53.7927325 39.5388986,53.7927325 39.5419884,53.7927325 L75.6676998,53.7927325 C76.7217821,60.1447576 82.1729499,65 88.7223407,65 C95.2721729,65 100.72312,60.1447576 101.777202,53.7927325 L107.4824,53.7927325 C110.524805,53.7927325 113,51.2790429 113,48.1893228 L113,44.8272771 C113.000221,43.5891477 112.012129,42.5856891 110.793181,42.5856891 Z M13.4293962,49.3097806 L5.51715827,49.3097806 C4.91927117,49.3097806 4.41407974,48.7965083 4.41407974,48.1890987 L4.41407974,47.0684168 L14.0012402,47.0684168 C13.749417,47.7894635 13.5571838,48.5387515 13.4293962,49.3097806 Z M35.3124172,51.5567479 C35.3093274,56.4980586 31.3503392,60.5172723 26.4844784,60.5172723 C21.6172934,60.5172723 17.6576432,56.4967138 17.6560983,51.5542824 C17.6560983,51.5533858 17.656319,51.5522652 17.656319,51.5513686 C17.656319,51.5504721 17.6560983,51.5493514 17.6560983,51.5484548 C17.6576432,46.6062475 21.6172934,42.5859132 26.4844784,42.5859132 C31.3503392,42.5859132 35.3093274,46.6049027 35.3124172,51.5457652 C35.3124172,51.5477824 35.3121965,51.5495755 35.3121965,51.5513686 C35.3121965,51.5531617 35.3124172,51.5549548 35.3124172,51.5567479 Z M42.9353122,49.3097806 L39.5391193,49.3097806 C38.485037,42.9579796 33.0338693,38.1029614 26.4844784,38.1029614 C22.5716175,38.1029614 19.0511682,39.8364322 16.6247485,42.5856891 L7.72419814,42.5856891 L7.72419814,39.2814705 L9.18415501,39.2814705 C10.4028824,39.2814705 11.3911949,38.2777877 11.3911949,37.0401066 C11.3911949,35.8024255 10.4028824,34.7987428 9.18415501,34.7987428 L7.72419814,34.7987428 L7.72419814,32.3892766 L14.9081129,32.3892766 C16.1268403,32.3892766 17.1151528,31.3855939 17.1151528,30.1479128 C17.1151528,28.9100075 16.1268403,27.9065489 14.9081129,27.9065489 L7.72419814,27.9065489 L7.72419814,24.6552265 L42.9353122,24.6552265 L42.9353122,49.3097806 Z M97.5509416,51.5540582 C97.5493966,56.4967138 93.5897464,60.5172723 88.7225614,60.5172723 C83.8567006,60.5172723 79.8977125,56.4982828 79.8946226,51.556972 C79.8946226,51.5549548 79.8948433,51.5531617 79.8948433,51.5513686 C79.8948433,51.5493514 79.8946226,51.5475583 79.8946226,51.5457652 C79.8977125,46.6049027 83.8567006,42.5859132 88.7225614,42.5859132 C93.5897464,42.5859132 97.5493966,46.6064717 97.5509416,51.5484548 C97.5509416,51.5493514 97.5507209,51.5504721 97.5507209,51.5513686 C97.5507209,51.5522652 97.5509416,51.5533858 97.5509416,51.5540582 Z M88.7230028,38.1029614 L88.7227821,38.1029614 L74.0349318,38.1029614 C72.8162043,38.1029614 71.8278919,39.1066441 71.8278919,40.3443252 C71.8278919,41.5822305 72.8162043,42.5856891 74.0349318,42.5856891 L78.8630522,42.5856891 C77.2278563,44.4384004 76.0921136,46.7526086 75.6676998,49.3097806 L47.349392,49.3097806 L47.349392,22.4136385 L47.349392,4.48272771 L67.1348423,4.48272771 C69.1697331,4.48272771 70.2836261,5.32951497 71.2447919,7.60718892 L77.866353,23.2967359 C78.2104305,24.1119199 78.9952539,24.644468 79.8685795,24.6550024 L103.042498,24.9351729 C104.273806,24.9499659 105.275581,26.2071468 105.275581,27.7371018 L105.275581,33.6209061 L103.815845,33.6209061 C102.597118,33.6209061 101.608805,34.6245888 101.608805,35.8622699 C101.608805,37.099951 102.597118,38.1036338 103.815845,38.1036338 L105.275581,38.1036338 L105.275581,42.5859132 L98.5822913,42.5859132 C96.1560924,39.8366563 92.6358638,38.1031855 88.7230028,38.1029614 Z M107.482621,49.3097806 L101.777423,49.3097806 C101.649635,48.5387515 101.457402,47.7894635 101.205579,47.0684168 L108.58592,47.0684168 L108.58592,48.1890987 L108.586141,48.1890987 C108.586141,48.7965083 108.080729,49.3097806 107.482621,49.3097806 Z" id="Shape"></path>
                    <path d="M75.1556197,21.0254198 L69.6739634,7.82783622 C69.6258383,7.71287548 69.5364001,7.49905304 69.4296018,7.28296313 C69.0542693,6.52404085 68.2983303,6.04651163 67.472511,6.04651163 L52.6708305,6.04651163 C51.4573726,6.04651163 50.4733335,7.06165804 50.4733335,8.31398183 L50.4733335,21.9188031 C50.472894,23.1706734 51.4569331,24.1860465 52.670391,24.1860465 L73.1356805,24.1860465 C73.8742592,24.1860465 74.563614,23.8030708 74.9703707,23.1668187 C75.3771274,22.530113 75.4465683,21.7258413 75.1556197,21.0254198 Z M54.867888,19.6508794 L54.867888,10.5809985 L66.0357874,10.5809985 L69.8031763,19.6508794 L54.867888,19.6508794 Z" id="Shape"></path>
                </g>
                <path d="M89,43.3933333 C85.1402567,43.3933333 82,46.5334614 82,50.3933333 C82,54.2532053 85.1402567,57.3933333 89,57.3933333 C92.8597433,57.3933333 96,54.2532053 96,50.3933333 C96,46.5334614 92.8597433,43.3933333 89,43.3933333 Z M89,52.7259665 C87.7136523,52.7259665 86.6674446,51.6797239 86.6674446,50.3935667 C86.6674446,49.1074095 87.7136523,48.0611669 89,48.0611669 C90.2863477,48.0611669 91.3325554,49.1074095 91.3325554,50.3935667 C91.3325554,51.6794906 90.2863477,52.7259665 89,52.7259665 Z" id="Shape"></path>
                <path d="M26,43.3933333 C22.1402567,43.3933333 19,46.5334614 19,50.3933333 C19,54.2532053 22.1402567,57.3933333 26,57.3933333 C29.8597433,57.3933333 33,54.2532053 33,50.3933333 C33,46.5334614 29.8597433,43.3933333 26,43.3933333 Z M26,52.7259665 C24.7136523,52.7259665 23.6674446,51.6797239 23.6674446,50.3935667 C23.6674446,49.1074095 24.7136523,48.0611669 26,48.0611669 C27.2863477,48.0611669 28.3325554,49.1074095 28.3325554,50.3935667 C28.3325554,51.6794906 27.2863477,52.7259665 26,52.7259665 Z" id="Shape"></path>
            </g>
        </g>
    </g>
</svg>