<?xml version="1.0" encoding="UTF-8"?>
<svg width="35px" height="84px" viewBox="0 0 35 84" version="1.1" xmlns="http://www.w3.org/2000/svg" xmlns:xlink="http://www.w3.org/1999/xlink">
    <!-- Generator: Sketch 53.2 (72643) - https://sketchapp.com -->
    <title>Group 9</title>
    <desc>Created with Sketch.</desc>
    <defs>
        <linearGradient x1="50%" y1="0%" x2="50%" y2="100%" id="linearGradient-1">
            <stop stop-color="#F43EA6" offset="0%"></stop>
            <stop stop-color="#F5576C" offset="100%"></stop>
        </linearGradient>
        <linearGradient x1="50%" y1="0%" x2="50%" y2="100%" id="linearGradient-2">
            <stop stop-color="#F43EA6" offset="0%"></stop>
            <stop stop-color="#F5576C" offset="100%"></stop>
        </linearGradient>
        <linearGradient x1="50%" y1="0%" x2="50%" y2="100%" id="linearGradient-3">
            <stop stop-color="#F43EA6" offset="0%"></stop>
            <stop stop-color="#F5576C" offset="100%"></stop>
        </linearGradient>
    </defs>
    <g id="Landing" stroke="none" stroke-width="1" fill="none" fill-rule="evenodd">
        <g transform="translate(-980.000000, -2107.000000)" id="Group-9">
            <g transform="translate(980.000000, 2107.856606)">
                <path d="M30.4121998,53.4994927 C30.1619517,53.2077799 30.0240722,52.8342606 30.0240722,52.4486924 L30.0240722,12.8518511 C30.0240722,9.41851837 28.7436767,6.19128706 26.4197707,3.76499751 C24.0952576,1.33617148 21.0060299,0 17.7163608,0 C17.7036055,0 17.6902428,0 17.6768799,0 C10.9116779,0.0221955794 5.40804196,5.8640614 5.40804196,13.0224398 L5.40804196,52.4486924 C5.40804196,52.8342606 5.27198474,53.2052433 5.02538112,53.4925169 C2.20523085,56.7818958 0.665476157,61.0275852 0.689164729,65.4470342 C0.704957007,68.2417695 1.36641385,71.028261 2.60307676,73.5052832 C2.90313143,74.106465 3.6137875,74.3404695 4.19020844,74.0265612 C4.76602201,73.7132871 4.99015194,72.9713218 4.68948975,72.3695057 C3.61014304,70.2076603 3.05558844,67.8733236 3.0422256,65.4330826 C3.02157414,61.6243283 4.34873935,57.9658693 6.77893984,55.131816 C7.27700659,54.550927 7.59528314,53.837499 7.71008153,53.0771432 L9.10163088,53.0771432 C9.75154712,53.0771432 10.2781615,52.5273282 10.2781615,51.8487788 C10.2781615,51.1702293 9.75154712,50.6204143 9.10163088,50.6204143 L7.76110299,50.6204143 L7.76110299,48.6006203 L9.10163088,48.6006203 C9.75154712,48.6006203 10.2781615,48.050805 10.2781615,47.3722556 C10.2781615,46.6937064 9.75154712,46.1438911 9.10163088,46.1438911 L7.76110299,46.1438911 L7.76110299,44.1234628 L9.10163088,44.1234628 C9.75154712,44.1234628 10.2781615,43.5736478 10.2781615,42.8950983 C10.2781615,42.2165491 9.75154712,41.6667338 9.10163088,41.6667338 L7.76110299,41.6667338 L7.76110299,39.6469398 L9.10163088,39.6469398 C9.75154712,39.6469398 10.2781615,39.0971246 10.2781615,38.4185754 C10.2781615,37.7400259 9.75154712,37.1902107 9.10163088,37.1902107 L7.76110299,37.1902107 L7.76110299,35.1704167 L9.10163088,35.1704167 C9.75154712,35.1704167 10.2781615,34.6206015 10.2781615,33.9420522 C10.2781615,33.2635028 9.75154712,32.7136875 9.10163088,32.7136875 L7.76110299,32.7136875 L7.76110299,30.6938936 L9.10163088,30.6938936 C9.75154712,30.6938936 10.2781615,30.1434442 10.2781615,29.4655291 C10.2781615,28.7869796 9.75154712,28.2371646 9.10163088,28.2371646 L7.76110299,28.2371646 L7.76110299,26.2167363 L9.10163088,26.2167363 C9.75154712,26.2167363 10.2781615,25.666921 10.2781615,24.9890059 C10.2781615,24.3104567 9.75154712,23.7606414 9.10163088,23.7606414 L7.76110299,23.7606414 L7.76110299,21.7402131 L9.10163088,21.7402131 C9.75154712,21.7402131 10.2781615,21.1903981 10.2781615,20.5118486 C10.2781615,19.8332994 9.75154712,19.2834842 9.10163088,19.2834842 L7.76110299,19.2834842 L7.76110299,17.2636902 L9.10163088,17.2636902 C9.75154712,17.2636902 10.2781615,16.7138749 10.2781615,16.0353257 C10.2781615,15.3567763 9.75154712,14.806961 9.10163088,14.806961 L7.76110299,14.806961 L7.76110299,13.0224398 C7.76110299,7.21418428 12.2121176,2.47448558 17.6841687,2.45672899 L17.7163608,2.45672899 C20.3761579,2.45672899 22.8756019,3.53796893 24.7554996,5.501957 C26.6353972,7.46467683 27.6704039,10.0748722 27.6704039,12.8518511 L27.6704039,52.4486924 C27.6704039,53.4392477 28.0214801,54.3942901 28.6574262,55.1375234 C31.0639381,57.9468445 32.3892812,61.5716931 32.3892812,65.3436664 C32.3892812,69.4086207 30.8805037,73.2376683 28.1399227,76.1256249 C25.4017714,79.011045 21.7525225,80.6224411 17.864566,80.6630272 C17.8153667,80.6636615 17.7661675,80.6636615 17.7169681,80.6636615 C13.8903591,80.6636615 10.2660135,79.1194861 7.49688469,76.3050917 C7.03101017,75.8313755 6.28633995,75.8421563 5.83322076,76.3285555 C5.38010171,76.814955 5.38982009,77.5924331 5.85569445,78.065515 C9.06761658,81.3295276 13.2732425,83.1203905 17.7169681,83.1203905 C17.7734563,83.1203905 17.8311592,83.1197564 17.8882545,83.1197564 C22.400009,83.0728286 26.6341825,81.202696 29.8120903,77.8543404 C32.9918203,74.5034482 34.7429495,70.0605355 34.7429495,65.3436664 C34.7423421,60.966706 33.2044097,56.7603344 30.4121998,53.4994927 Z" id="Path" fill="url(#linearGradient-1)"></path>
                <path d="M20.5969448,27.1395925 C21.2453326,27.1395925 21.7707086,26.5957229 21.7707086,25.9245114 L21.7707086,13.9650263 C21.7707086,12.5535999 21.2095805,11.174166 20.2309389,10.1798946 C19.2650228,9.19879654 18.0015752,8.67500053 16.673289,8.69946529 C13.9688448,8.75215854 11.7685678,11.0744253 11.7685678,13.8753222 L11.7685678,55.4578217 C11.7685678,55.9722082 11.5334515,56.4596207 11.140177,56.7619796 C8.62964323,58.689047 7.20076589,61.7697199 7.31711213,65.0021998 C7.50011514,70.0776887 11.4831559,74.2115993 16.3848472,74.4135901 C16.5157368,74.4192358 16.6454144,74.421745 16.7750919,74.421745 C19.2316944,74.421745 21.5446818,73.4600933 23.3238098,71.6904783 C25.197469,69.8267684 26.229436,67.3188207 26.229436,64.6289559 C26.229436,61.5112722 24.8429766,58.6514089 22.4263682,56.7820533 C22.0161264,56.4652664 21.7713147,55.969699 21.7713147,55.4571945 L21.7713147,31.1906996 C21.7713147,30.519488 21.2453326,29.9756185 20.5975507,29.9756185 C19.9491629,29.9756185 19.4237868,30.519488 19.4237868,31.1906996 L19.4237868,34.5222929 C18.654205,34.021707 17.744038,33.7306396 16.7702442,33.7306396 C15.7958444,33.7306396 14.8862835,34.021707 14.1160955,34.5222929 L14.1160955,13.8753222 C14.1160955,12.3892473 15.2837998,11.157229 16.7181308,11.1290003 C17.4095425,11.1151998 18.0748975,11.3943485 18.5869423,11.9143808 C19.1183779,12.4544865 19.4237868,13.2016014 19.4237868,13.9650263 L19.4237868,25.9245114 C19.4231809,26.5957229 19.9491629,27.1395925 20.5969448,27.1395925 L20.5969448,27.1395925 Z M23.9362337,64.7296724 C23.9362337,66.7442606 23.1540652,68.6226268 21.7344385,70.0185915 C20.3160329,71.4139313 18.4482315,72.1406578 16.4760189,72.0575498 C12.7642292,71.9063306 9.7472935,68.8113382 9.60868905,65.0114898 C9.52076378,62.5894848 10.6039543,60.2812064 12.5065593,58.8377515 C13.5018246,58.0822808 14.0959307,56.8700287 14.0959307,55.5940394 L14.0959307,43.475891 C14.8719933,43.9751638 15.7884921,44.2651046 16.7703243,44.2651046 C17.7515459,44.2651046 18.6686554,43.9751638 19.4441073,43.475891 L19.4441073,55.5940394 C19.4441073,56.8637799 20.0455405,58.0822808 21.0536282,58.8527485 C22.8854046,60.2530872 23.9362337,62.3951495 23.9362337,64.7296724 Z M16.9133016,36.1078305 C18.4151227,36.1078305 19.6364794,37.363581 19.6364794,38.9076935 C19.6364794,40.4518061 18.4151227,41.7075565 16.9133016,41.7075565 C15.4114806,41.7075565 14.1901239,40.4518061 14.1901239,38.9076935 C14.1901239,37.363581 15.4114806,36.1078305 16.9133016,36.1078305 Z" id="Shape" fill="url(#linearGradient-2)"></path>
                <path d="M17.2784059,63.1879383 C18.0426316,63.1879383 18.6618684,62.6737766 18.6618684,62.0392285 C18.6618684,61.4046805 18.0426316,60.8905186 17.2784059,60.8905186 C14.3900619,60.8905186 12.0402468,62.8416055 12.0402468,65.2398415 C12.0402468,67.6380771 14.3900619,69.5891642 17.2784059,69.5891642 C18.0426316,69.5891642 18.6618684,69.0750023 18.6618684,68.4404543 C18.6618684,67.8059062 18.0426316,67.2917443 17.2784059,67.2917443 C15.9156561,67.2917443 14.8071719,66.3713532 14.8071719,65.2398415 C14.8071719,64.1083295 15.9156561,63.1879383 17.2784059,63.1879383 L17.2784059,63.1879383 Z" id="Path" fill="url(#linearGradient-3)"></path>
            </g>
        </g>
    </g>
</svg>