<?xml version="1.0" encoding="UTF-8"?>
<svg width="151px" height="154px" viewBox="0 0 151 154" version="1.1" xmlns="http://www.w3.org/2000/svg" xmlns:xlink="http://www.w3.org/1999/xlink">
    <!-- Generator: Sketch 53.2 (72643) - https://sketchapp.com -->
    <title>warehouse</title>
    <desc>Created with Sketch.</desc>
    <defs>
        <linearGradient x1="50%" y1="0%" x2="50%" y2="100%" id="linearGradient-1">
            <stop stop-color="#F43EA6" offset="0%"></stop>
            <stop stop-color="#F5576C" offset="100%"></stop>
        </linearGradient>
        <linearGradient x1="50%" y1="0%" x2="50%" y2="100%" id="linearGradient-2">
            <stop stop-color="#F43EA6" offset="0%"></stop>
            <stop stop-color="#F5576C" offset="100%"></stop>
        </linearGradient>
        <linearGradient x1="50%" y1="0%" x2="50%" y2="100%" id="linearGradient-3">
            <stop stop-color="#F43EA6" offset="0%"></stop>
            <stop stop-color="#F5576C" offset="100%"></stop>
        </linearGradient>
    </defs>
    <g id="Dashboard" stroke="none" stroke-width="1" fill="none" fill-rule="evenodd">
        <g id="Home" transform="translate(-648.000000, -651.000000)">
            <g id="warehouse" transform="translate(648.000000, 651.000000)">
                <path d="M148.967659,49.2844922 L76.3975538,0.416092152 C75.5743539,-0.138847764 74.4929189,-0.138546984 73.6691128,0.416092152 L1.09900747,49.2844922 C0.432506496,49.7332566 0.0333333333,50.4803952 0.0333333333,51.2798696 L0.0333333333,151.588643 C0.0333333333,152.920198 1.12113324,154 2.46322798,154 L147.603439,154 C148.945533,154 150.033333,152.920499 150.033333,151.588643 L150.033333,51.2798696 C150.033333,50.4803952 149.634463,49.7332566 148.967659,49.2844922 Z M57.0526585,149.177286 L30.8108875,149.177286 L30.8108875,123.135716 L36.318386,123.135716 L36.318386,136.156501 C36.318386,137.488056 37.4061859,138.567858 38.7482807,138.567858 L49.1155685,138.567858 C50.4573601,138.567858 51.5454631,137.488357 51.5454631,136.156501 L51.5454631,123.135716 L57.0529616,123.135716 L57.0529616,149.177286 L57.0526585,149.177286 Z M25.6273951,61.7286814 L25.6273951,56.2632 L124.439575,56.2632 L124.439575,61.7286814 L25.6273951,61.7286814 Z M41.1781753,133.745144 L41.1781753,123.135716 L46.6856738,123.135716 L46.6856738,133.745144 L41.1781753,133.745144 Z M57.0526585,118.313002 L49.1152654,118.313002 L38.7479776,118.313002 L30.8105844,118.313002 L30.8105844,92.2714314 L36.3180829,92.2714314 L36.3180829,105.292217 C36.3180829,106.623772 37.4058828,107.703574 38.7479776,107.703574 L49.1152654,107.703574 C50.457057,107.703574 51.54516,106.624073 51.54516,105.292217 L51.54516,92.2714314 L57.0526585,92.2714314 L57.0526585,118.313002 Z M41.1781753,102.88086 L41.1781753,92.2714314 L46.6856738,92.2714314 L46.6856738,102.88086 L41.1781753,102.88086 Z M88.1542188,149.177286 L61.9124478,149.177286 L61.9124478,123.135716 L67.4199463,123.135716 L67.4199463,136.156501 C67.4199463,137.488056 68.5077462,138.567858 69.849841,138.567858 L80.2171288,138.567858 C81.5592235,138.567858 82.6470234,137.488357 82.6470234,136.156501 L82.6470234,123.135716 L88.1545219,123.135716 L88.1545219,149.177286 L88.1542188,149.177286 Z M72.2794325,133.745144 L72.2794325,123.135716 L77.786931,123.135716 L77.786931,133.745144 L72.2794325,133.745144 Z M145.173847,149.177587 L124.115568,149.177286 L124.115568,97.5759953 C124.115568,96.2444403 123.028072,95.1646385 121.685674,95.1646385 C120.343579,95.1646385 119.255779,96.2441395 119.255779,97.5759953 L119.255779,149.176986 L93.0140081,149.176986 L93.0140081,120.724359 C93.0140081,119.392804 91.9265113,118.313002 90.5841135,118.313002 L61.9124478,118.313002 L61.9124478,89.8600746 C61.9124478,88.5285196 60.8246479,87.4487178 59.4825532,87.4487178 L30.8108875,87.4487178 L30.8108875,66.5510942 L119.255779,66.5510942 L119.255779,87.288101 C119.255779,88.6196561 120.343276,89.6994578 121.685674,89.6994578 C123.027769,89.6994578 124.115568,88.6199568 124.115568,87.288101 L124.115568,66.5510942 L126.869469,66.5510942 C128.211564,66.5510942 129.299364,65.4715932 129.299364,64.1397374 L129.299364,53.8518432 C129.299364,52.5202882 128.211867,51.4404864 126.869469,51.4404864 L23.1975005,51.4404864 C21.8557089,51.4404864 20.7676059,52.5199874 20.7676059,53.8518432 L20.7676059,64.1400382 C20.7676059,65.4715932 21.8554058,66.551395 23.1975005,66.551395 L25.9514013,66.551395 L25.9514013,149.177587 L4.89312262,149.177587 L4.89312262,52.5575849 L75.0333333,5.32543053 L145.173544,52.5575849 L145.173847,149.177587 L145.173847,149.177587 Z" id="Shape" fill="url(#linearGradient-1)"></path>
                <path d="M85.6598388,21 L65.4068279,21 C64.0961805,21 63.0333333,21.8953474 63.0333333,23 C63.0333333,24.1046526 64.0958844,25 65.4068279,25 L85.6598388,25 C86.9707823,25 88.0333333,24.1046526 88.0333333,23 C88.0333333,21.8953474 86.9707823,21 85.6598388,21 Z" id="Path" fill="url(#linearGradient-2)"></path>
                <path d="M85.6598388,31 L65.4068279,31 C64.0961805,31 63.0333333,31.8953474 63.0333333,33 C63.0333333,34.1046526 64.0958844,35 65.4068279,35 L85.6598388,35 C86.9707823,35 88.0333333,34.1046526 88.0333333,33 C88.0333333,31.8953474 86.9707823,31 85.6598388,31 Z" id="Path" fill="url(#linearGradient-2)"></path>
                <path d="M85.6598388,41 L65.4068279,41 C64.0961805,41 63.0333333,41.8953474 63.0333333,43 C63.0333333,44.1046526 64.0958844,45 65.4068279,45 L85.6598388,45 C86.9707823,45 88.0333333,44.1046526 88.0333333,43 C88.0333333,41.8953474 86.9707823,41 85.6598388,41 Z" id="Path" fill="url(#linearGradient-2)"></path>
                <path d="M48.639675,112 L38.4269916,112 C37.1052098,112 36.0333333,112.895347 36.0333333,114 C36.0333333,115.104403 37.1049112,116 38.4269916,116 L48.639675,116 C49.9614569,116 51.0333333,115.104653 51.0333333,114 C51.0330348,112.895347 49.9614569,112 48.639675,112 Z" id="Path" fill="url(#linearGradient-3)"></path>
                <path d="M48.639675,142 L38.4269916,142 C37.1052098,142 36.0333333,142.895347 36.0333333,144 C36.0333333,145.104403 37.1049112,146 38.4269916,146 L48.639675,146 C49.9614569,146 51.0333333,145.104653 51.0333333,144 C51.0330348,142.895597 49.9614569,142 48.639675,142 Z" id="Path" fill="url(#linearGradient-3)"></path>
                <path d="M79.639675,142 L69.4269916,142 C68.1052098,142 67.0333333,142.895347 67.0333333,144 C67.0333333,145.104403 68.1049112,146 69.4269916,146 L79.639675,146 C80.9617555,146 82.0333333,145.104653 82.0333333,144 C82.0333333,142.895597 80.962054,142 79.639675,142 Z" id="Path" fill="url(#linearGradient-3)"></path>
            </g>
        </g>
    </g>
</svg>