<?xml version="1.0" encoding="UTF-8"?>
<svg width="41px" height="41px" viewBox="0 0 41 41" version="1.1" xmlns="http://www.w3.org/2000/svg" xmlns:xlink="http://www.w3.org/1999/xlink">
    <!-- Generator: Sketch 53.2 (72643) - https://sketchapp.com -->
    <title>Group 4</title>
    <desc>Created with Sketch.</desc>
    <defs>
        <linearGradient x1="50%" y1="0%" x2="50%" y2="100%" id="linearGradient-1">
            <stop stop-color="#F43EA6" offset="0%"></stop>
            <stop stop-color="#F5576C" offset="100%"></stop>
        </linearGradient>
        <linearGradient x1="50%" y1="0%" x2="50%" y2="100%" id="linearGradient-2">
            <stop stop-color="#F43EA6" offset="0%"></stop>
            <stop stop-color="#F5576C" offset="100%"></stop>
        </linearGradient>
    </defs>
    <g id="OrderBox" stroke="none" stroke-width="1" fill="none" fill-rule="evenodd">
        <g id="Order-Box-5" transform="translate(-137.000000, -2052.000000)">
            <g id="Group-4" transform="translate(137.000000, 2052.000000)">
                <path d="M19.9869119,28 C18.8889389,28 18,28.9090909 18,30 C18,31.0649031 18.8627627,32 19.9869119,32 C21.1110611,32 22,31.0649776 22,30 C22,28.9090909 21.085035,28 19.9869119,28 Z" id="Path" fill="url(#linearGradient-1)"></path>
                <path d="M20.2853324,11 C16.663385,11 15,13.178929 15,14.649755 C15,15.7120659 15.8853016,16.2023152 16.6097373,16.2023152 C18.0584547,16.2023152 17.4682536,14.1050423 20.2048225,14.1050423 C21.5463216,14.1050423 22.6195054,14.7042966 22.6195054,15.9571905 C22.6195054,17.4280946 21.1170634,18.2723954 20.2316848,19.0350401 C19.4536784,19.7159506 18.4341422,20.832725 18.4341422,23.1751225 C18.4341422,24.5914069 18.8096757,25 19.9097219,25 C21.2243587,25 21.4925969,24.4008238 21.4925969,23.8833038 C21.4925969,22.4669413 21.5195362,21.6498331 22.9951159,20.4786734 C23.7194746,19.9066899 26,18.0545416 26,15.4942121 C26,12.9338825 23.7194746,11 20.2853324,11 Z" id="Path" fill="url(#linearGradient-2)"></path>
                <path d="M20.5,0 C9.17022656,0 0,9.16870508 0,20.5 L0,39.3984375 C0,40.2829805 0.717019531,41 1.6015625,41 L20.5,41 C31.8296934,41 41,31.8312949 41,20.5 C41,9.17022656 31.8312949,0 20.5,0 Z M20.5,37.796875 L3.203125,37.796875 L3.203125,20.5 C3.203125,10.9405137 10.9392324,3.203125 20.5,3.203125 C30.0594863,3.203125 37.796875,10.9392324 37.796875,20.5 C37.796875,30.0594863 30.0607676,37.796875 20.5,37.796875 Z" id="Shape" fill="url(#linearGradient-1)"></path>
            </g>
        </g>
    </g>
</svg>