<?xml version="1.0" encoding="UTF-8"?>
<svg width="111px" height="109px" viewBox="0 0 111 109" version="1.1" xmlns="http://www.w3.org/2000/svg" xmlns:xlink="http://www.w3.org/1999/xlink">
    <!-- Generator: Sketch 53.2 (72643) - https://sketchapp.com -->
    <title>add-user</title>
    <desc>Created with Sketch.</desc>
    <g id="Symbols" stroke="none" stroke-width="1" fill="none" fill-rule="evenodd">
        <g id="icon/adduser" transform="translate(-1.000000, 0.000000)" fill="#FFFFFF">
            <g id="add-user" transform="translate(1.000000, 0.000000)">
                <path d="M79.2649949,54.6935176 C77.1566356,53.6978281 75.0054192,52.8400918 72.8164885,52.1215859 C79.9057098,46.8350859 84.5,38.4171777 84.5,28.953125 C84.5,12.988457 71.42663,0 55.3571142,0 C39.2875984,0 26.2142284,12.988457 26.2142284,28.953125 C26.2142284,38.4276094 30.8188044,46.8538203 37.9213114,52.1392559 C31.4138764,54.2677363 25.307799,57.5796758 19.963508,61.9469141 C10.1637841,69.9552207 3.35013454,81.1253789 0.778060586,93.4000137 C-0.0280830637,97.2460957 0.9377036,101.196494 3.42727747,104.23785 C5.90463705,107.264303 9.57814066,109 13.5055731,109 L66.2856964,109 C68.6526987,109 70.5714149,107.093777 70.5714149,104.742188 C70.5714149,102.390598 68.6526987,100.484375 66.2856964,100.484375 L13.5055731,100.484375 C11.6759999,100.484375 10.5722131,99.4697383 10.0772126,98.8651289 C9.22242603,97.8209004 8.89156856,96.4615937 9.1694974,95.135498 C13.6170018,73.9113672 32.4604489,58.4073945 54.2209702,57.8845352 C54.5978992,57.8990117 54.9765424,57.90625 55.3571142,57.90625 C55.7413289,57.90625 56.1238293,57.8987988 56.5044011,57.8841094 C63.172979,58.0395195 69.5865568,59.5514688 75.585277,62.3846172 C77.7232076,63.3937188 80.2796387,62.4908496 81.2957826,60.3668398 C82.3119264,58.243043 81.4029255,55.7030449 79.2649949,54.6935176 Z M56.402401,49.3644395 C56.0546149,49.3582656 55.706186,49.3550723 55.3571142,49.3550723 C55.0112567,49.3550723 54.6653993,49.3584785 54.3199703,49.3648652 C43.4567454,48.8264648 34.7856654,39.8769687 34.7856654,28.953125 C34.7856654,17.6837598 44.0138888,8.515625 55.3571142,8.515625 C66.7003397,8.515625 75.928563,17.6837598 75.928563,28.953125 C75.928563,39.8742012 67.2617688,48.8219941 56.402401,49.3644395 Z" id="Shape"></path>
                <path d="M106.184211,84.1842105 L94.3157895,84.1842105 L94.3157895,72.3157895 C94.3157895,69.9321789 92.3836105,68 90,68 C87.6163895,68 85.6842105,69.9321789 85.6842105,72.3157895 L85.6842105,84.1842105 L73.8157895,84.1842105 C71.4321789,84.1842105 69.5,86.1163895 69.5,88.5 C69.5,90.8836105 71.4321789,92.8157895 73.8157895,92.8157895 L85.6842105,92.8157895 L85.6842105,104.684211 C85.6842105,107.067821 87.6163895,109 90,109 C92.3836105,109 94.3157895,107.067821 94.3157895,104.684211 L94.3157895,92.8157895 L106.184211,92.8157895 C108.567821,92.8157895 110.5,90.8836105 110.5,88.5 C110.5,86.1163895 108.567821,84.1842105 106.184211,84.1842105 Z" id="Path"></path>
            </g>
        </g>
    </g>
</svg>