<?xml version="1.0" encoding="UTF-8"?>
<svg width="33px" height="30px" viewBox="0 0 33 30" version="1.1" xmlns="http://www.w3.org/2000/svg" xmlns:xlink="http://www.w3.org/1999/xlink">
    <!-- Generator: Sketch 53.2 (72643) - https://sketchapp.com -->
    <title>reviews icon</title>
    <desc>Created with Sketch.</desc>
    <defs>
        <linearGradient x1="50%" y1="0%" x2="50%" y2="100%" id="linearGradient-1">
            <stop stop-color="#F43EA6" offset="0%"></stop>
            <stop stop-color="#F5576C" offset="100%"></stop>
        </linearGradient>
    </defs>
    <g id="Landing" stroke="none" stroke-width="1" fill="none" fill-rule="evenodd">
        <g transform="translate(-1356.000000, -4139.000000)" fill="#FAFAFA" id="Group-7">
            <g transform="translate(1331.000000, 4112.000000)">
                <path d="M31.4166711,52.4546033 L26.8333488,57 L25,55.1819368 L25.9166744,55.1819368 L25,55.1819368 L25,50.6364446 L25,37.9090793 C25,36.9049907 25.8208479,36.0909207 26.8333488,36.0909207 L47.0000116,36.0909207 C48.0125126,36.0909207 48.8333256,36.9049907 48.8333256,37.9090793 L48.8333256,50.6364446 C48.8333256,51.6406605 48.0125126,52.4546033 47.0000116,52.4546033 L31.4166711,52.4546033 Z M37.8333372,36.0909207 L37.8333372,32.4546033 L34.1666744,32.4546033 L34.1666744,28.8181587 C34.1666744,27.81407 34.9874874,27 35.9999884,27 L56.166686,27 C57.179187,27 58,27.81407 58,28.8181587 L58,41.545524 C58,42.5496126 57.179187,43.3636826 56.166686,43.3636826 L52.4999884,43.3636826 L52.4999884,39.7273653 L48.8333256,39.7273653 L48.8333256,39.7273653 L54.3333372,39.7273653 L54.3333372,30.6363174 L37.8333372,30.6363174 L37.8333372,36.0909207 L37.8333372,36.0909207 Z M28.6666628,39.7273653 L28.6666628,48.818286 L45.1666628,48.818286 L45.1666628,39.7273653 L28.6666628,39.7273653 Z" id="reviews-icon"></path>
            </g>
        </g>
    </g>
</svg>