<svg width="73" height="63" xmlns="http://www.w3.org/2000/svg">
  <g fill="#ddd" fill-rule="evenodd">
    <path d="M59 7a7 7 0 1 0 0 14 7 7 0 0 0 0-14zm0 12a5 5 0 1 1 0-10 5 5 0 0 1 0 10z"/>
    <path d="M67.5 0H13.4c-3 0-5.5 2.4-5.5 5.4v2.7H5.5A5.5 5.5 0 0 0 0 13.6v44c0 3 2.5 5.4 5.5 5.4h35.9a1 1 0 1 0 0-2.1h-36a3.3 3.3 0 0 1-3.3-3.3v-44c0-1.9 1.5-3.3 3.4-3.3h2.3v39.1c0 3 2.5 5.5 5.5 5.5H63v2.7c0 1.8-1.5 3.3-3.3 3.3H48.1a1 1 0 1 0 0 2.1h11.6c3 0 5.5-2.4 5.5-5.4v-2.7h2.2c3 0 5.5-2.5 5.5-5.5v-44c0-3-2.5-5.4-5.5-5.4zm3.4 40L56.6 24a1.8 1.8 0 0 0-2.6 0l-8.9 8.8-11.7-13.2a1.8 1.8 0 0 0-2.6 0l-8.3 8.2a1 1 0 0 0 0 1.5 1 1 0 0 0 1.5 0l8-8 15.4 17.1A1 1 0 0 0 49 37l-2.6-2.6 8.7-8.7 15.7 17.6v6.1c0 1.9-1.5 3.3-3.4 3.3h-54a3.3 3.3 0 0 1-3.3-3.3v-6l9.4-9.5c.4-.4.4-1 0-1.5a1 1 0 0 0-1.5 0l-8 7.9V5.4c0-1.8 1.6-3.3 3.4-3.3h54.2c1.9 0 3.4 1.5 3.4 3.3v34.7z"/>
  </g>
</svg>
