<svg width="73" height="63" xmlns="http://www.w3.org/2000/svg">
  <defs>
    <linearGradient x1="50%" y1="0%" x2="50%" y2="100%" id="a">
      <stop stop-color="#F43EA6" offset="0%"/>
      <stop stop-color="#F5576C" offset="100%"/>
    </linearGradient>
    <linearGradient x1="50%" y1="0%" x2="50%" y2="100%" id="b">
      <stop stop-color="#F43EA6" offset="0%"/>
      <stop stop-color="#F5576C" offset="100%"/>
    </linearGradient>
  </defs>
  <g fill="none" fill-rule="evenodd">
    <path d="M59.6 7a7 7 0 1 0 0 14 7 7 0 0 0 0-14zm0 12a5 5 0 1 1 0-10 5 5 0 0 1 0 10z" fill="url(#a)" transform="translate(-.6)"/>
    <path d="M68.1 0H14c-3 0-5.5 2.4-5.5 5.4v2.7H6.1C3 8.1.6 10.6.6 13.6v44c0 3 2.5 5.4 5.5 5.4H42a1 1 0 1 0 0-2.1H6a3.3 3.3 0 0 1-3.3-3.3v-44c0-1.9 1.5-3.3 3.4-3.3h2.3v39.1c0 3 2.5 5.5 5.5 5.5h49.7v2.7c0 1.8-1.5 3.3-3.3 3.3H48.7a1 1 0 1 0 0 2.1h11.6c3 0 5.5-2.4 5.5-5.4v-2.7H68c3 0 5.5-2.5 5.5-5.5v-44c0-3-2.5-5.4-5.5-5.4zm3.4 40L57.2 24a1.8 1.8 0 0 0-2.6 0l-8.9 8.8L34 19.6a1.8 1.8 0 0 0-2.6 0l-8.3 8.2a1 1 0 0 0 0 1.5 1 1 0 0 0 1.5 0l8-8L48 38.4a1 1 0 0 0 1.6-1.4L47 34.4l8.7-8.7 15.7 17.6v6.1c0 1.9-1.5 3.3-3.4 3.3H14a3.3 3.3 0 0 1-3.3-3.3v-6l9.4-9.5c.4-.4.4-1 0-1.5a1 1 0 0 0-1.5 0l-8 7.9V5.4c0-1.8 1.6-3.3 3.4-3.3h54.2c1.9 0 3.4 1.5 3.4 3.3v34.7z" fill="url(#b)" transform="translate(-.6)"/>
  </g>
</svg>
