<?xml version="1.0" encoding="UTF-8"?>
<svg width="85px" height="108px" viewBox="0 0 85 108" version="1.1" xmlns="http://www.w3.org/2000/svg" xmlns:xlink="http://www.w3.org/1999/xlink">
    <!-- Generator: Sketch 53.2 (72643) - https://sketchapp.com -->
    <title>trash</title>
    <desc>Created with Sketch.</desc>
    <defs>
        <linearGradient x1="50%" y1="0%" x2="50%" y2="100%" id="linearGradient-1">
            <stop stop-color="#F43EA6" offset="0%"></stop>
            <stop stop-color="#F5576C" offset="100%"></stop>
        </linearGradient>
        <linearGradient x1="50%" y1="0%" x2="50%" y2="100%" id="linearGradient-2">
            <stop stop-color="#F43EA6" offset="0%"></stop>
            <stop stop-color="#F5576C" offset="100%"></stop>
        </linearGradient>
        <linearGradient x1="50%" y1="0%" x2="50%" y2="100%" id="linearGradient-3">
            <stop stop-color="#F43EA6" offset="0%"></stop>
            <stop stop-color="#F5576C" offset="100%"></stop>
        </linearGradient>
        <linearGradient x1="50%" y1="0%" x2="50%" y2="100%" id="linearGradient-4">
            <stop stop-color="#F43EA6" offset="0%"></stop>
            <stop stop-color="#F5576C" offset="100%"></stop>
        </linearGradient>
    </defs>
    <g id="Dashboard" stroke="none" stroke-width="1" fill="none" fill-rule="evenodd">
        <g id="Edit-account" transform="translate(-1221.000000, -500.000000)">
            <g id="trash" transform="translate(1221.000000, 500.000000)">
                <path d="M82.9118326,12.8075391 L56.3854587,12.8075391 L56.3854587,8.30099298 C56.3799361,3.71882158 52.7475177,0.00564539213 48.2650038,0 L36.7383346,0 C32.2558207,0.00564539213 28.6234023,3.71882158 28.6178797,8.30099298 L28.6178797,12.8075391 L2.08816471,12.8075391 C0.934903184,12.8075391 0,13.7632275 0,14.9421289 L0,30.0943014 C0,31.2732029 0.934903184,32.2288913 2.08816471,32.2288913 L5.23210549,32.2288913 L11.7471794,106.056669 C11.8440169,107.15703 12.7462157,108.000024 13.8269914,108 L71.176347,108 C72.2571227,108.000024 73.1593215,107.15703 73.256159,106.056669 L78.8407467,42.7413193 C78.9445402,41.5671335 78.097518,40.5292559 76.9488695,40.4231548 C75.800221,40.3170536 74.7849161,41.1829074 74.6811226,42.3570932 L69.2685997,103.729113 L15.7313976,103.729113 L9.42346969,32.2323066 L19.9478198,32.2323066 C21.1010813,32.2323066 22.0359845,31.2766182 22.0359845,30.0977168 C22.0359845,28.9188154 21.1010813,27.9631269 19.9478198,27.9631269 L4.17799995,27.9631269 L4.17799995,17.0767187 L80.8236679,17.0767187 L80.8236679,27.9631269 L30.7077149,27.9631269 C29.5544534,27.9631269 28.6195502,28.9188154 28.6195502,30.0977168 C28.6195502,31.2766182 29.5544534,32.2323066 30.7077149,32.2323066 L82.9118326,32.2323066 C83.4662277,32.2323073 83.9978675,32.0069449 84.3895705,31.6058927 C84.7812736,31.2048405 85.0008844,30.6610214 84.9999973,30.0943014 L84.9999973,14.9421289 C84.9999973,13.7632275 84.0650941,12.8075391 82.9118326,12.8075391 Z M32.7958796,12.8075391 L32.7958796,8.30099298 C32.7986407,6.07545415 34.5628695,4.27200219 36.7400051,4.26917969 L48.2666743,4.26917969 C50.44381,4.27200219 52.2080387,6.07545415 52.2107998,8.30099298 L52.2107998,12.8075391 L32.7958796,12.8075391 Z" id="Shape" fill="url(#linearGradient-1)"></path>
                <path d="M43.5,60 C42.6715729,60 42,60.9474097 42,62.1160987 L42,88.8839013 C42,90.0525903 42.6715729,91 43.5,91 C44.3284271,91 45,90.0525903 45,88.8839013 L45,62.1160987 C45,60.9474097 44.3284271,60 43.5,60 Z" id="Path" fill="url(#linearGradient-2)"></path>
                <path d="M45,53.3525721 C45,52.0532824 44.3284271,51 43.5,51 C42.6715729,51 42,52.0532824 42,53.3525721 L42,54.6474279 C42,55.9467176 42.6715729,57 43.5,57 C44.3284271,57 45,55.9467176 45,54.6474279 L45,53.3525721 Z" id="Path" fill="url(#linearGradient-3)"></path>
                <path d="M23.9563426,51.0024678 C22.8154987,51.0675687 21.9410801,52.0866515 22.003106,53.2788485 L23.865302,88.9554088 C23.9250472,90.1013977 24.8311764,90.998945 25.9294427,91 L26.0436574,91 C27.1845013,90.934899 28.0589199,89.9158163 27.996894,88.7236192 L26.134698,53.0435995 C26.0644839,51.8554036 25.09427,50.9463076 23.9563426,51.0024678 L23.9563426,51.0024678 Z" id="Path" fill="url(#linearGradient-4)"></path>
                <path d="M57.8652851,53.0519533 L56.003106,88.7239128 C55.9410806,89.9159561 56.8154913,90.9349074 57.956325,91 L58.0705386,91 C59.168795,90.9989451 60.074916,90.1015136 60.1346607,88.9556724 L61.9968399,53.2837129 C62.0594612,52.0897082 61.1838636,51.0687334 60.041138,51.003302 C58.8984123,50.9378705 57.9212855,51.8527599 57.858664,53.0467646 L57.8652851,53.0519533 Z" id="Path" fill="url(#linearGradient-4)"></path>
            </g>
        </g>
    </g>
</svg>