<?xml version="1.0" encoding="UTF-8"?>
<svg width="113px" height="96px" viewBox="0 0 113 96" version="1.1" xmlns="http://www.w3.org/2000/svg" xmlns:xlink="http://www.w3.org/1999/xlink">
    <!-- Generator: Sketch 53.2 (72643) - https://sketchapp.com -->
    <title>send copy</title>
    <desc>Created with Sketch.</desc>
    <g id="Symbols" stroke="none" stroke-width="1" fill="none" fill-rule="evenodd">
        <g id="icon/send" transform="translate(0.000000, -6.000000)" fill="#FFFFFF" fill-rule="nonzero">
            <g id="send-copy" transform="translate(0.000000, 6.000000)">
                <path d="M112.455215,0.498466048 C111.949364,0.0185102381 111.202063,-0.13001169 110.544368,0.119316004 L1.15049015,41.4946019 C0.500299063,41.7404906 0.0542582666,42.3292049 0.00460008781,43.0064735 C-0.045058091,43.683742 0.310494469,44.3281252 0.917869171,44.6614935 L23.5882624,57.101011 L31.4565456,94.5558338 C31.5055417,94.820637 31.6161139,95.0671705 31.7747994,95.2788841 C31.79069,95.300163 31.8037114,95.3164982 31.8169536,95.3328335 C32.0941566,95.6705006 32.4872287,95.9062872 32.9454082,95.9776465 C33.0038945,95.9866739 33.0626015,95.993122 33.1208671,95.996561 C33.1586073,95.9989253 33.1961268,96 33.2336463,96 C33.5777223,96 33.9037007,95.9043527 34.1815657,95.7360565 C34.2755852,95.679313 34.36497,95.613757 34.4479543,95.5393886 C34.4737765,95.5161753 34.4962883,95.4953264 34.5181378,95.4736177 L51.5835572,78.8116497 C52.286717,78.1249239 52.2853928,77.0128364 51.5802467,76.328045 C50.8744384,75.6428237 49.7334038,75.6445432 49.0300233,76.3312691 L35.6247428,89.4196833 L38.5212492,65.2619792 L79.4605553,87.1456428 C79.8728285,87.3648792 80.331008,87.4119506 80.7507851,87.3132942 C80.796912,87.3023324 80.8390663,87.2907257 80.8807792,87.2776145 C81.2952594,87.1467175 81.658978,86.8741765 81.8902748,86.48299 C81.901972,86.4627859 81.9123451,86.4445162 81.9224974,86.4262464 C81.9692865,86.3394116 82.006806,86.2542963 82.0366009,86.1678914 L112.894193,2.34886442 C113.132332,1.70147217 112.961066,0.977991982 112.455215,0.498466048 Z M7.36956522,44.9733734 L95.8043478,12 L26.2755636,55.2 L7.36956522,44.9733734 Z M35.8310357,61.8806118 C35.6604842,62.0126852 35.512033,62.1766458 35.3959508,62.3690464 C35.3807708,62.3942546 35.3664838,62.4196781 35.3526432,62.4453172 C35.2419187,62.6519378 35.177627,62.8701928 35.1564197,63.0886634 L32.6264983,84 L27.0217391,57.5598936 L88.4347826,19.2 L35.8310357,61.8806118 Z M80.4778943,84 L41.7608696,62.806771 L108.086957,7.2 L80.4778943,84 Z" id="Shape"></path>
            </g>
        </g>
    </g>
</svg>