<?xml version="1.0" encoding="UTF-8"?>
<svg width="118px" height="119px" viewBox="0 0 118 119" version="1.1" xmlns="http://www.w3.org/2000/svg" xmlns:xlink="http://www.w3.org/1999/xlink">
    <!-- Generator: Sketch 53.2 (72643) - https://sketchapp.com -->
    <title>Group 13</title>
    <desc>Created with Sketch.</desc>
    <defs>
        <linearGradient x1="50%" y1="0%" x2="50%" y2="100%" id="linearGradient-1">
            <stop stop-color="#F43EA6" offset="0%"></stop>
            <stop stop-color="#F5576C" offset="100%"></stop>
        </linearGradient>
        <linearGradient x1="50%" y1="0%" x2="50%" y2="100%" id="linearGradient-2">
            <stop stop-color="#F43EA6" offset="0%"></stop>
            <stop stop-color="#F5576C" offset="100%"></stop>
        </linearGradient>
        <linearGradient x1="50%" y1="0%" x2="50%" y2="100%" id="linearGradient-3">
            <stop stop-color="#F43EA6" offset="0%"></stop>
            <stop stop-color="#F5576C" offset="100%"></stop>
        </linearGradient>
        <linearGradient x1="50%" y1="0%" x2="50%" y2="100%" id="linearGradient-4">
            <stop stop-color="#F43EA6" offset="0%"></stop>
            <stop stop-color="#F5576C" offset="100%"></stop>
        </linearGradient>
        <linearGradient x1="50%" y1="0%" x2="50%" y2="100%" id="linearGradient-5">
            <stop stop-color="#F43EA6" offset="0%"></stop>
            <stop stop-color="#F5576C" offset="100%"></stop>
        </linearGradient>
    </defs>
    <g id="Landing" stroke="none" stroke-width="1" fill="none" fill-rule="evenodd">
        <g transform="translate(-637.000000, -2835.000000)" id="Group-13">
            <g transform="translate(637.000000, 2835.000000)">
                <polygon id="Path-Copy-18" fill="url(#linearGradient-2)" points="74 13.9192256 44 13.9192256 44 25.9192256 74 25.9192256"></polygon>
                <path d="M105.579051,12.9192256 L99.3703572,12.9192256 L99.3703572,25.389954 L105.579051,25.389954 L105.579051,106.447703 L12.4213441,106.447703 L12.4213441,25.3903512 L18.631225,25.3903512 L18.631225,12.9192256 L12.4213441,12.9192256 C5.56155971,12.9192256 0,18.5009111 0,25.3903512 L0,106.44532 C0,113.336349 5.56155971,118.919226 12.4213441,118.919226 L105.578656,118.919226 C112.439627,118.919226 118,113.335952 118,106.44532 L118,25.3903512 C118.000396,18.5009111 112.439627,12.9192256 105.579051,12.9192256 Z" id="Path-Copy-23" fill="url(#linearGradient-3)"></path>
                <path d="M31,25.9192256 C34.3116362,25.9192256 37,23.1195982 37,19.6691261 L37,7.16972322 C37,3.71566848 34.3146933,0.919225634 31,0.919225634 C27.6879817,0.919225634 25,3.71566848 25,7.16932515 L25,19.668728 C25,23.1195982 27.6879817,25.9192256 31,25.9192256 Z" id="Path-Copy-27" fill="url(#linearGradient-4)"></path>
                <path d="M86,25.9192256 C89.3093434,25.9192256 92,23.1195982 92,19.6691261 L92,7.16972322 C92,3.71566848 89.3093434,0.919225634 86,0.919225634 C82.6826317,0.919225634 80,3.71566848 80,7.16932515 L80,19.668728 C80,23.1195982 82.6891281,25.9192256 86,25.9192256 Z" id="Path-Copy-28" fill="url(#linearGradient-4)"></path>
                <path d="M39.7692308,65.737907 C39.7692308,66.9467042 39.8096682,68.4073123 39.8905442,70.1197751 C39.9714203,71.8322379 40.2241542,73.484236 40.6487534,75.075819 C41.0733527,76.6674021 41.7506794,78.0272786 42.680754,79.1554894 C43.6108286,80.2837001 44.9452634,80.8477971 46.6840985,80.8477971 C48.4633716,80.8477971 49.8281345,80.2837001 50.7784281,79.1554894 C51.7287217,78.0272786 52.4161578,76.6674021 52.8407571,75.075819 C53.2653563,73.484236 53.5180902,71.8322379 53.5989663,70.1197751 C53.6798423,68.4073123 53.7202797,66.9467042 53.7202797,65.737907 C53.7202797,65.0126286 53.7101704,64.1362637 53.6899514,63.1087861 C53.6697323,62.0813084 53.5888575,61.0236267 53.4473244,59.9357092 C53.3057913,58.8477916 53.1036042,57.7699636 52.8407571,56.7021927 C52.5779099,55.6344218 52.1836451,54.6774716 51.6579507,53.8313135 C51.1322564,52.9851555 50.465039,52.3001806 49.6562785,51.7763685 C48.847518,51.2525563 47.8568012,50.9906542 46.6840985,50.9906542 C45.5113958,50.9906542 44.5307884,51.2525563 43.7422469,51.7763685 C42.9537054,52.3001806 42.3067067,52.9851555 41.8012314,53.8313135 C41.2957561,54.6774716 40.9014912,55.6344218 40.6184251,56.7021927 C40.3353589,57.7699636 40.1331718,58.8477916 40.0118577,59.9357092 C39.8905436,61.0236267 39.8197781,62.0813084 39.7995591,63.1087861 C39.7793401,64.1362637 39.7692308,65.0126286 39.7692308,65.737907 Z M31,65.7679189 C31,61.652355 31.4186307,58.1925088 32.2559046,55.3882765 C33.0931785,52.5840443 34.2265445,50.3346399 35.6560366,48.6399959 C37.0855286,46.945352 38.7498408,45.7349101 40.6490232,45.0086342 C42.5482055,44.2823582 44.5596748,43.9192256 46.6834916,43.9192256 C48.848151,43.9192256 50.8800414,44.2823582 52.7792237,45.0086342 C54.678406,45.7349101 56.3529287,46.945352 57.8028421,48.6399959 C59.2527555,50.3346399 60.396332,52.5840443 61.2336059,55.3882765 C62.0708798,58.1925088 62.4895105,61.652355 62.4895105,65.7679189 C62.4895105,70.0045288 62.0708798,73.5450711 61.2336059,76.389652 C60.396332,79.234233 59.2527555,81.5038114 57.8028421,83.1984553 C56.3529287,84.8930993 54.678406,86.1035411 52.7792237,86.8298171 C50.8800414,87.5560931 48.848151,87.9192256 46.6834916,87.9192256 C44.5596748,87.9192256 42.5482055,87.5560931 40.6490232,86.8298171 C38.7498408,86.1035411 37.0855286,84.8930993 35.6560366,83.1984553 C34.2265445,81.5038114 33.0931785,79.234233 32.2559046,76.389652 C31.4186307,73.5450711 31,70.0045288 31,65.7679189 Z M88,87.1335113 L79.2784008,87.1335113 L79.2784008,59.6155522 L68.4685315,59.6155522 L68.4685315,53.130042 C69.9835586,53.1704503 71.4473805,53.059329 72.8600409,52.7966746 C74.2727014,52.5340202 75.5420294,52.069331 76.6680631,51.402593 C77.7940968,50.735855 78.7460928,49.8569862 79.5240797,48.7659603 C80.3020666,47.6749345 80.8138924,46.3212745 81.0595725,44.7049399 L88,44.7049399 L88,87.1335113 Z" id="01" fill="url(#linearGradient-5)"></path>
            </g>
        </g>
    </g>
</svg>