<?xml version="1.0" encoding="UTF-8"?>
<svg width="93px" height="93px" viewBox="0 0 93 93" version="1.1" xmlns="http://www.w3.org/2000/svg" xmlns:xlink="http://www.w3.org/1999/xlink">
    <!-- Generator: Sketch 53.2 (72643) - https://sketchapp.com -->
    <title>Combined Shape</title>
    <desc>Created with Sketch.</desc>
    <defs>
        <linearGradient x1="50%" y1="0%" x2="50%" y2="100%" id="linearGradient-1">
            <stop stop-color="#F43EA6" offset="0%"></stop>
            <stop stop-color="#F5576C" offset="100%"></stop>
        </linearGradient>
    </defs>
    <g id="Landing" stroke="none" stroke-width="1" fill="none" fill-rule="evenodd">
        <g transform="translate(-137.000000, -2103.000000)" fill="url(#linearGradient-1)" id="Combined-Shape">
            <path d="M161.923077,2152.50392 L163.076923,2152.50392 L163.076923,2151.34591 C163.076923,2150.27988 163.938552,2149.41589 165,2149.41589 C166.062199,2149.41589 166.923077,2150.27988 166.923077,2151.34591 L166.923077,2152.50392 L168.076923,2152.50392 C169.139122,2152.50392 170,2153.36791 170,2154.43394 C170,2155.49997 169.139122,2156.36396 168.076923,2156.36396 L166.923077,2156.36396 L166.923077,2157.52197 C166.923077,2158.588 166.062199,2159.45198 165,2159.45198 C163.938552,2159.45198 163.076923,2158.588 163.076923,2157.52197 L163.076923,2156.36396 L161.923077,2156.36396 C160.860877,2156.36396 160,2155.49997 160,2154.43394 C160,2153.36791 160.860877,2152.50392 161.923077,2152.50392 Z M169.68,2128.34011 C167.099531,2128.34011 165,2126.24973 165,2123.6805 L165,2107.9095 C165,2105.34028 167.099531,2103.24989 169.68,2103.24989 L196.32,2103.24989 C198.900469,2103.24989 201,2105.34028 201,2107.9095 L201,2123.6805 C201,2126.24973 198.900469,2128.34011 196.32,2128.34011 L169.68,2128.34011 Z M196.32,2124.75579 C196.905703,2124.75579 197.4,2124.26365 197.4,2123.6805 L197.4,2120.18929 C196.378359,2119.1714 194.327344,2117.46185 192.674297,2117.42824 C192.082969,2117.41354 191.610469,2117.62706 191.147813,2118.11431 C189.034219,2120.3356 187.127344,2121.37449 185.146641,2121.38359 L185.119922,2121.38359 C182.463516,2121.38359 180.28875,2119.51163 178.51125,2117.67817 C176.875781,2115.99172 175.546172,2115.26785 174.321328,2115.39526 C172.6725,2115.56958 170.699531,2117.37644 168.6,2120.62753 L168.6,2123.6805 C168.6,2124.26295 169.095,2124.75579 169.68,2124.75579 L196.32,2124.75579 Z M169.68,2106.83421 C169.095,2106.83421 168.6,2107.32635 168.6,2107.9095 L168.6,2114.77921 C170.355703,2112.98215 172.105781,2112.02447 173.942344,2111.83055 C176.323828,2111.57923 178.665938,2112.67762 181.100859,2115.18875 C182.827734,2116.9697 184.105313,2117.79928 185.120625,2117.79928 C185.124141,2117.79928 185.126953,2117.79928 185.129766,2117.79928 C186.048047,2117.79508 187.161797,2117.09152 188.534297,2115.64939 C189.691641,2114.43268 191.154141,2113.80892 192.759375,2113.84463 C194.451094,2113.88243 196.073906,2114.6483 197.4,2115.53738 L197.4,2107.9095 C197.4,2107.32635 196.905703,2106.83421 196.32,2106.83421 L169.68,2106.83421 Z M160.480054,2141.38702 C159.662555,2141.38702 159,2140.71312 159,2139.88161 C159,2139.05011 159.662555,2138.3762 160.480054,2138.3762 L160.519946,2138.3762 C161.337445,2138.3762 162,2139.05011 162,2139.88161 C162,2140.71312 161.337445,2141.38702 160.519946,2141.38702 L160.480054,2141.38702 Z M222.690384,2157.1261 C226.724792,2157.14984 230,2160.38656 230,2164.36279 C230,2166.8523 228.724258,2169.13721 226.587143,2170.47449 L226.474327,2170.54502 C225.454018,2171.18329 224.779961,2171.60437 224.647278,2171.88789 C224.457832,2172.29222 224.459251,2173.48006 224.46138,2175.12461 L224.46209,2175.75798 L224.46209,2185.65528 C224.46209,2187.19996 223.559563,2188.54074 222.246925,2189.19576 L222.246925,2192.19714 C222.246925,2193.21459 221.868744,2195.5819 218.366486,2195.5819 C215.661034,2195.5819 214.671234,2195.18316 213.750969,2192.69015 L212.618553,2189.62313 L154.381447,2189.62313 L153.249031,2192.69015 C152.328766,2195.18316 151.338966,2195.5819 148.633514,2195.5819 C145.131256,2195.5819 144.753075,2193.21459 144.753075,2192.19714 L144.753075,2189.19576 C143.440437,2188.54074 142.53791,2187.19996 142.53791,2185.65528 L142.53862,2175.1253 C142.540749,2173.48076 142.542168,2172.29222 142.352722,2171.88859 C142.220039,2171.60437 141.545982,2171.18329 140.525673,2170.54502 L140.412857,2170.47449 C138.275742,2169.13791 137,2166.853 137,2164.36279 C137,2160.38656 140.275208,2157.14984 144.309616,2157.1261 L144.309616,2148.88382 C144.309616,2143.08986 149.098969,2138.3762 154.986679,2138.3762 C155.98925,2138.3762 156.803085,2139.17647 156.803085,2140.1639 C156.803085,2141.15062 155.98925,2141.9516 154.986679,2141.9516 C151.101982,2141.9516 147.942429,2145.06122 147.942429,2148.88382 L147.942429,2158.05696 C148.546951,2158.38936 149.107483,2158.80416 149.600609,2159.29578 C150.981361,2160.67147 151.72921,2162.47803 151.707924,2164.38374 L151.707924,2166.1072 C156.59874,2164.84463 161.629333,2164.20357 166.696114,2164.20357 C171.762184,2164.20357 176.792778,2164.84463 181.683594,2166.1072 L181.683594,2148.88382 C181.683594,2145.06122 178.52404,2141.9516 174.639343,2141.9516 L167.513496,2141.9516 C166.510925,2141.9516 165.69709,2141.15062 165.69709,2140.1639 C165.69709,2139.17647 166.510925,2138.3762 167.513496,2138.3762 L174.639343,2138.3762 C178.325371,2138.3762 181.580711,2140.22395 183.5,2143.02771 C185.419289,2140.22395 188.674629,2138.3762 192.360657,2138.3762 L212.014031,2138.3762 C217.901031,2138.3762 222.690384,2143.08986 222.690384,2148.88382 L222.690384,2157.1261 Z M198.923077,2156.36396 C197.860878,2156.36396 197,2155.49997 197,2154.43394 C197,2153.36791 197.861629,2152.50392 198.923077,2152.50392 L200.076923,2152.50392 L200.076923,2151.34591 C200.076923,2150.27988 200.938552,2149.41589 202,2149.41589 C203.0622,2149.41589 203.923077,2150.27988 203.923077,2151.34591 L203.923077,2152.50392 L205.076923,2152.50392 C206.139123,2152.50392 207,2153.36791 207,2154.43394 C207,2155.49997 206.139123,2156.36396 205.076923,2156.36396 L203.923077,2156.36396 L203.923077,2157.52197 C203.923077,2158.588 203.0622,2159.45198 202,2159.45198 C200.938552,2159.45198 200.076923,2158.588 200.076923,2157.52197 L200.076923,2156.36396 L198.923077,2156.36396 Z M192.098288,2141.38702 C188.184506,2141.38702 185,2144.48837 185,2148.29995 L185,2165.47364 C189.928334,2164.21471 194.997519,2163.57551 200.102452,2163.57551 C205.2081,2163.57551 210.27657,2164.21471 215.204904,2165.47364 L215.204904,2163.73426 C215.204904,2161.03329 216.737814,2158.67491 219,2157.43827 L219,2148.29995 C219,2144.48837 215.816209,2141.38702 211.901712,2141.38702 L192.098288,2141.38702 Z M167,2167.48085 C161.921886,2167.48085 156.882829,2168.29134 152,2169.88588 L152,2175.04541 C152,2175.29739 152.182503,2175.50972 152.399091,2175.50972 L182,2175.50972 L182,2169.88588 C177.117171,2168.29134 172.078114,2167.48085 167,2167.48085 Z M150.170553,2193.55244 C150.219854,2193.39692 151,2190.56385 151,2190.56385 L149,2190.56385 L149,2193.571 C149.064624,2193.5763 149.892738,2193.57984 150.170553,2193.55244 Z M216.829171,2193.55244 C217.106893,2193.57984 217.935398,2193.5763 218,2193.571 L218,2190.56385 L216,2190.56385 C216,2190.56385 216.779887,2193.39692 216.829171,2193.55244 Z M207.519946,2174.50611 C208.337445,2174.50611 209,2175.18002 209,2176.01153 C209,2176.84303 208.336866,2177.51694 207.519946,2177.51694 L207.480054,2177.51694 C206.662555,2177.51694 206,2176.84303 206,2176.01153 C206,2175.18002 206.662555,2174.50611 207.480054,2174.50611 L207.519946,2174.50611 Z M224.286381,2168.41454 C225.359152,2167.7172 226,2166.52671 226,2165.2291 C226,2163.15005 224.344768,2161.4592 222.310373,2161.4592 C220.275978,2161.4592 218.620746,2163.15005 218.620746,2165.2291 L218.62145,2175.32817 C218.62145,2177.58048 216.82834,2179.41295 214.624412,2179.41295 C213.629726,2179.41295 212.823565,2178.58909 212.823565,2177.57257 C212.823565,2176.55605 213.629726,2175.73219 214.624412,2175.73219 C214.838263,2175.73219 215.019755,2175.54744 215.019755,2175.32817 L215.019755,2170.83866 C210.182791,2169.45119 205.190363,2168.74667 200.160653,2168.74667 C195.130239,2168.74667 190.137811,2169.45119 185.300847,2170.83938 L185.300847,2175.73291 L202.204896,2175.73291 C203.198879,2175.73291 204.005744,2176.55677 204.005744,2177.57257 C204.005744,2178.58909 203.198879,2179.41295 202.204896,2179.41295 L152.376291,2179.41295 C150.172363,2179.41295 148.379254,2177.58048 148.379254,2175.32889 L148.379254,2165.23988 L148.379254,2165.21688 C148.391213,2164.24205 148.017677,2163.31252 147.328291,2162.59865 C146.628352,2161.87472 145.666727,2161.4592 144.689627,2161.4592 C142.655232,2161.4592 141,2163.15005 141,2165.2291 C141,2166.52671 141.640848,2167.7172 142.714322,2168.41454 L142.825468,2168.48714 C144.375886,2169.4936 145.400118,2170.1593 145.976248,2171.43462 C146.496102,2172.5863 146.494695,2173.83215 146.491178,2176.31378 L146.490474,2182.05418 L146.491178,2187.14901 C146.491178,2187.36827 146.671966,2187.55303 146.88652,2187.55303 L220.114183,2187.55303 C220.328034,2187.55303 220.509526,2187.36827 220.509526,2187.14901 L220.510229,2176.96007 L220.509526,2176.31306 C220.506008,2173.83143 220.504601,2172.5863 221.024455,2171.43462 C221.600586,2170.15858 222.624818,2169.4936 224.175235,2168.48714 L224.286381,2168.41454 Z"></path>
        </g>
    </g>
</svg>