<?xml version="1.0" encoding="UTF-8"?>
<svg width="112px" height="90px" viewBox="0 0 112 90" version="1.1" xmlns="http://www.w3.org/2000/svg" xmlns:xlink="http://www.w3.org/1999/xlink">
    <!-- Generator: Sketch 53.2 (72643) - https://sketchapp.com -->
    <title>Group 4</title>
    <desc>Created with Sketch.</desc>
    <g id="Symbols" stroke="none" stroke-width="1" fill="none" fill-rule="evenodd">
        <g id="icon/boxsend" transform="translate(-2.000000, -10.000000)">
            <g id="Group-4" transform="translate(2.000000, 10.000000)">
                <path d="M69.0033342,73.8485675 L65.7503947,75.0235032 C65.5358478,75.1008394 65.3161444,75.1376147 65.1003084,75.1376147 C64.3360426,75.1376147 63.6180011,74.6777438 63.3378931,73.935028 C62.9787803,72.9822966 63.4765659,71.9250082 64.4498538,71.5734801 L67.9148902,70.3219367 C68.1729099,71.5405016 68.5392089,72.7195037 69.0033342,73.8485675 Z M67.5026496,64.8897846 C67.5006813,64.8847802 67.4987336,64.8797626 67.4968067,64.8747317 C67.2916133,64.3386938 67.3670961,63.7689333 67.6516414,63.3152693 C67.5823007,63.8342675 67.532387,64.3593538 67.5026496,64.8897846 Z M68.8731759,58.5860316 C68.2623123,58.4633963 67.7288295,58.0493266 67.4968067,57.443539 C67.138859,56.5084528 67.6350296,55.4707459 68.6051598,55.1257282 L71.2502684,54.1849841 C70.2884458,55.5409245 69.4869611,57.0169933 68.8731759,58.5860316 Z M94,46.2072897 C92.792996,45.8644109 91.5410867,45.6270752 90.2550547,45.5059855 L90.2550547,21.0652031 L48.8726562,36.2300343 L48.8726562,85.4718839 L70.8917659,77.4029445 C71.6199597,78.4991864 72.4506309,79.5224351 73.3702412,80.4592526 L47.6482695,89.8851287 L47.6475352,89.8840347 C47.439707,89.9602509 47.2203125,90 46.9998164,90 C46.7815234,90 46.5621289,89.9622566 46.3517305,89.8851287 L1.22420313,73.3480417 C0.488542969,73.0783677 2.84217094e-14,72.382029 2.84217094e-14,71.6032747 L2.84217094e-14,18.3967253 C2.84217094e-14,17.7886369 0.299441406,17.2188389 0.8019375,16.870943 C0.934125,16.779593 1.07622656,16.7077529 1.22401953,16.653417 L1.22438672,16.6519583 L46.3519141,0.114871271 C46.7701406,-0.0382904237 47.2298594,-0.0382904237 47.6482695,0.114871271 L92.7757969,16.6519583 C93.511457,16.9216323 94,17.6177886 94,18.3967253 L94,46.2072897 Z M61.4517175,74.7348757 C61.777489,75.7238782 61.3257525,76.8212313 60.4429952,77.1861423 L59.6925512,77.4962232 C59.4979236,77.5765036 59.2986182,77.6146789 59.1028212,77.6146789 C58.4095125,77.6146789 57.7579695,77.1371132 57.5040347,76.3661217 C57.1782632,75.3773063 57.6299997,74.2797661 58.5127571,73.9148551 L59.263201,73.6047742 C60.1461254,73.2398632 61.126113,73.745686 61.4517175,74.7348757 Z M45.1275273,85.4720662 L45.1271602,36.2300343 L36.1391445,32.9363285 L36.1391445,54.096893 C36.1391445,54.7049814 35.8397031,55.2747794 35.3373906,55.6224929 C35.0188555,55.8429363 34.6443242,55.9565313 34.2664883,55.9565313 C34.0481953,55.9565313 33.8288008,55.9187878 33.6184023,55.84166 L13.3953672,48.4306396 C12.659707,48.1609656 12.1711641,47.4646269 12.1711641,46.6858727 L12.1711641,24.1532346 L3.74494531,21.0652031 L3.74494531,70.3072351 L45.1275273,85.4720662 Z M32.3943828,31.5638903 L15.916293,25.5253081 L15.916293,45.3894683 L32.3943828,51.4280505 L32.3943828,31.5638903 Z M19.453043,22.8420611 L34.2668555,28.2707315 L49.080668,22.8420611 L34.2668555,17.4133907 L19.453043,22.8420611 Z M47,32.9516447 L86.7181211,18.3969076 L47,3.84198818 L7.28187891,18.3967253 L14.0234414,20.8673693 L33.6185859,13.6862738 C34.0371797,13.5331121 34.4967148,13.5331121 34.915125,13.6862738 L55.1383438,21.0971118 C55.8740039,21.3667858 56.3625469,22.0629422 56.3625469,22.8418788 C56.3625469,23.6208154 55.8740039,24.3169718 55.1383438,24.5866458 L39.6560664,30.2603749 L47,32.9516447 Z" id="Combined-Shape" fill="#000000" fill-rule="nonzero"></path>
                <path d="M89.0011831,54.4133733 C88.7356086,54.1486963 88.375396,54 87.9997977,54 C87.6241995,54 87.2639868,54.1486963 86.9984123,54.4133733 L78.4148197,62.9650681 C78.0570592,63.3215832 77.9173377,63.8412153 78.0482872,64.328224 C78.1792366,64.8152327 78.5609626,65.1956298 79.0496726,65.3261234 C79.5383826,65.4566169 80.05983,65.3173819 80.4175906,64.9608668 L86.5838994,58.8176372 L86.5838994,77.5888292 C86.5838994,78.3681973 87.2179093,79 88,79 C88.7820908,79 89.4161006,78.3681973 89.4161006,77.5888292 L89.4161006,58.8176372 L95.5824095,64.9608668 C95.94017,65.3173819 96.4616174,65.4566169 96.9503274,65.3261233 C97.4390374,65.1956297 97.8207634,64.8152326 97.9517128,64.328224 C98.0826623,63.8412153 97.9429409,63.3215832 97.5851803,62.9650681 L89.0011831,54.4133733 Z" id="Path" fill="#000000" fill-rule="nonzero"></path>
                <circle id="Oval-Copy" stroke="#000000" stroke-width="5" cx="88.5" cy="65.5" r="20.5"></circle>
            </g>
        </g>
    </g>
</svg>