<?xml version="1.0" encoding="utf-8"?>
<!-- Generator: Adobe Illustrator 23.0.2, SVG Export Plug-In . SVG Version: 6.00 Build 0)  -->
<svg version="1.1" id="Layer_1" xmlns="http://www.w3.org/2000/svg" xmlns:xlink="http://www.w3.org/1999/xlink" x="0px" y="0px"
	 viewBox="0 0 112 90" style="enable-background:new 0 0 112 90;" xml:space="preserve">
<style type="text/css">
	.st0{fill:#FFFFFF;}
</style>
<title>Group 4</title>
<desc>Created with Sketch.</desc>
<g>
	<path id="Combined-Shape" class="st0" d="M70.5,73.8L67.3,75c-0.2,0.1-0.4,0.1-0.7,0.1c-0.8,0-1.5-0.5-1.8-1.2
		c-0.4-1,0.1-2,1.1-2.4l3.5-1.3C69.7,71.5,70,72.7,70.5,73.8z M69,64.9C69,64.9,69,64.9,69,64.9c-0.2-0.6-0.1-1.1,0.1-1.6
		C69.1,63.8,69,64.4,69,64.9z M70.4,58.6c-0.6-0.1-1.1-0.5-1.4-1.1c-0.4-0.9,0.1-2,1.1-2.3l2.6-0.9C71.8,55.5,71,57,70.4,58.6z
		 M95.5,46.2c-1.2-0.3-2.5-0.6-3.7-0.7V21.1L50.4,36.2v49.2l22-8.1c0.7,1.1,1.6,2.1,2.5,3.1l-25.7,9.4l0,0C48.9,90,48.7,90,48.5,90
		c-0.2,0-0.4,0-0.6-0.1L2.7,73.3c-0.7-0.3-1.2-1-1.2-1.7V18.4c0-0.6,0.3-1.2,0.8-1.5c0.1-0.1,0.3-0.2,0.4-0.2l0,0L47.9,0.1
		c0.4-0.2,0.9-0.2,1.3,0l45.1,16.5c0.7,0.3,1.2,1,1.2,1.7V46.2z M63,74.7c0.3,1-0.1,2.1-1,2.5l-0.8,0.3c-0.2,0.1-0.4,0.1-0.6,0.1
		c-0.7,0-1.3-0.5-1.6-1.2c-0.3-1,0.1-2.1,1-2.5l0.8-0.3C61.6,73.2,62.6,73.7,63,74.7z M46.6,85.5l0-49.2l-9-3.3v21.2
		c0,0.6-0.3,1.2-0.8,1.5c-0.3,0.2-0.7,0.3-1.1,0.3c-0.2,0-0.4,0-0.6-0.1l-20.2-7.4c-0.7-0.3-1.2-1-1.2-1.7V24.2l-8.4-3.1v49.2
		L46.6,85.5z M33.9,31.6l-16.5-6v19.9l16.5,6V31.6z M21,22.8l14.8,5.4l14.8-5.4l-14.8-5.4L21,22.8z M48.5,33l39.7-14.6L48.5,3.8
		L8.8,18.4l6.7,2.5l19.6-7.2c0.4-0.2,0.9-0.2,1.3,0l20.2,7.4c0.7,0.3,1.2,1,1.2,1.7s-0.5,1.5-1.2,1.7l-15.5,5.7L48.5,33z"/>
	<path id="Path" class="st0" d="M90.5,54.4c-0.3-0.3-0.6-0.4-1-0.4c-0.4,0-0.7,0.1-1,0.4L79.9,63c-0.4,0.4-0.5,0.9-0.4,1.4
		s0.5,0.9,1,1c0.5,0.1,1,0,1.4-0.4l6.2-6.1v18.8c0,0.8,0.6,1.4,1.4,1.4s1.4-0.6,1.4-1.4V58.8l6.2,6.1c0.4,0.4,0.9,0.5,1.4,0.4
		c0.5-0.1,0.9-0.5,1-1s0-1-0.4-1.4L90.5,54.4z"/>
	<g id="Oval-Copy">
		<path class="st0" d="M90,87.5c-12.1,0-22-9.9-22-22s9.9-22,22-22s22,9.9,22,22S102.1,87.5,90,87.5z M90,46.5c-10.5,0-19,8.5-19,19
			s8.5,19,19,19s19-8.5,19-19S100.5,46.5,90,46.5z"/>
	</g>
</g>
</svg>
