<?xml version="1.0" encoding="UTF-8"?>
<svg width="73px" height="63px" viewBox="0 0 73 63" version="1.1" xmlns="http://www.w3.org/2000/svg" xmlns:xlink="http://www.w3.org/1999/xlink">
    <!-- Generator: Sketch 53.2 (72643) - https://sketchapp.com -->
    <title>picture (1)</title>
    <desc>Created with Sketch.</desc>
    <defs>
        <linearGradient x1="50%" y1="0%" x2="50%" y2="100%" id="linearGradient-1">
            <stop stop-color="#F43EA6" offset="0%"></stop>
            <stop stop-color="#F5576C" offset="100%"></stop>
        </linearGradient>
        <linearGradient x1="50%" y1="0%" x2="50%" y2="100%" id="linearGradient-2">
            <stop stop-color="#F43EA6" offset="0%"></stop>
            <stop stop-color="#F5576C" offset="100%"></stop>
        </linearGradient>
    </defs>
    <g id="Dashboard" stroke="none" stroke-width="1" fill="none" fill-rule="evenodd">
        <g id="Box-rental-Record-Edit" transform="translate(-696.000000, -1352.000000)">
            <g id="picture-(1)" transform="translate(695.400000, 1352.000000)">
                <path d="M59.6,7 C55.7401226,7 52.6,10.1401226 52.6,14 C52.6,17.8598774 55.7401226,21 59.6,21 C63.4598774,21 66.6,17.8598774 66.6,14 C66.6,10.1401226 63.4598774,7 59.6,7 L59.6,7 Z M59.6,18.9620186 C56.8634485,18.9620186 54.6379814,16.7360219 54.6379814,14 C54.6379814,11.2639781 56.8639781,9.0379814 59.6,9.0379814 C62.3360217,9.0379814 64.5620186,11.2639781 64.5620186,14 C64.5620186,16.7360219 62.3360217,18.9620186 59.6,18.9620186 L59.6,18.9620186 Z" id="Shape" fill="url(#linearGradient-1)"></path>
                <path d="M68.1363618,4.03931345e-15 L13.9009795,4.03931345e-15 C10.8884597,4.03931345e-15 8.43789822,2.44269966 8.43789822,5.44555473 L8.43789822,8.12586245 L6.06363823,8.12586245 C3.05111843,8.12586245 0.6,10.5685621 0.6,13.5719724 L0.6,57.5538901 C0.6,60.5573003 3.05111843,63 6.06363823,63 L41.9571243,63 C42.5491577,63 43.028688,62.5220081 43.028688,61.9318741 C43.028688,61.3422953 42.5491577,60.8643032 41.9571243,60.8643032 L6.06363823,60.8643032 C4.23240044,60.8643032 2.74257053,59.379253 2.74257053,57.5538901 L2.74257053,13.5719724 C2.74257053,11.7466096 4.23240044,10.2615592 6.06363823,10.2615592 L8.43789822,10.2615592 L8.43789822,49.4285828 C8.43789822,52.4314379 10.8884597,54.8741376 13.9009795,54.8741376 L63.6195313,54.8741376 L63.6195313,57.5538901 C63.6195313,59.379253 62.1297012,60.8643032 60.2990205,60.8643032 L48.7429519,60.8643032 C48.1509185,60.8643032 47.6713882,61.3422953 47.6713882,61.9318741 C47.6713882,62.5220081 48.1509185,63 48.7429519,63 L60.2990205,63 C63.3115403,63 65.7621018,60.5573003 65.7621018,57.5538901 L65.7621018,54.8741376 L68.1363618,54.8741376 C71.1488816,54.8741376 73.6,52.4314379 73.6,49.4285828 L73.6,5.44555473 C73.6,2.44269966 71.1488816,0 68.1363618,4.03931345e-15 Z M71.4574295,40.0674915 L57.1756684,24.0245064 C56.850969,23.6592117 56.3831345,23.4410342 55.8935791,23.4266001 C55.4045806,23.408835 54.9239365,23.6014751 54.5775161,23.9467841 L45.7220779,32.7699263 L34.0156342,19.6193195 C33.6909348,19.2540248 33.2231003,19.0364025 32.7335449,19.0219684 C32.2389771,19.0042034 31.7639023,19.1968436 31.417482,19.5421524 L23.1162048,27.8129115 C22.6973816,28.2298358 22.6973816,28.9060195 23.1156479,29.3234991 C23.5339141,29.7409787 24.2122742,29.7404236 24.6305405,29.3234991 L32.6644836,21.3197716 L47.879686,38.4120074 C48.0913254,38.6496154 48.3859497,38.77064 48.681688,38.77064 C48.9345413,38.77064 49.1885086,38.6823698 49.3923508,38.501943 C49.8351226,38.1100009 49.8752227,37.4354826 49.482576,36.9941312 L47.1467453,34.3698946 L55.8245178,25.7244032 L71.4574295,43.2857482 L71.4574295,49.4280276 C71.4574295,51.2533904 69.9675996,52.7384408 68.1363618,52.7384408 L13.9009795,52.7384408 C12.0702988,52.7384408 10.5804688,51.2533904 10.5804688,49.4280276 L10.5804688,43.3223888 L20.0023208,33.9357602 C20.4205872,33.5182806 20.4211441,32.842097 20.0028779,32.4251725 C19.5840546,32.007693 18.9056946,32.007693 18.4874282,32.4246174 L10.5804688,40.3028789 L10.5804688,5.44555473 C10.5804688,3.62074702 12.0702988,2.13569676 13.9009795,2.13569676 L68.1363618,2.13569676 C69.9675996,2.13569676 71.4574295,3.62074702 71.4574295,5.44555473 L71.4574295,40.0674915 Z" id="Shape" fill="url(#linearGradient-2)"></path>
            </g>
        </g>
    </g>
</svg>