<?xml version="1.0" encoding="UTF-8"?>
<svg width="118px" height="119px" viewBox="0 0 118 119" version="1.1" xmlns="http://www.w3.org/2000/svg" xmlns:xlink="http://www.w3.org/1999/xlink">
    <!-- Generator: Sketch 53.2 (72643) - https://sketchapp.com -->
    <title>Group 15</title>
    <desc>Created with Sketch.</desc>
    <defs>
        <linearGradient x1="50%" y1="0%" x2="50%" y2="100%" id="linearGradient-1">
            <stop stop-color="#F43EA6" offset="0%"></stop>
            <stop stop-color="#F5576C" offset="100%"></stop>
        </linearGradient>
        <linearGradient x1="50%" y1="0%" x2="50%" y2="100%" id="linearGradient-2">
            <stop stop-color="#F43EA6" offset="0%"></stop>
            <stop stop-color="#F5576C" offset="100%"></stop>
        </linearGradient>
        <linearGradient x1="50%" y1="0%" x2="50%" y2="100%" id="linearGradient-3">
            <stop stop-color="#F43EA6" offset="0%"></stop>
            <stop stop-color="#F5576C" offset="100%"></stop>
        </linearGradient>
        <linearGradient x1="50%" y1="0%" x2="50%" y2="100%" id="linearGradient-4">
            <stop stop-color="#F43EA6" offset="0%"></stop>
            <stop stop-color="#F5576C" offset="100%"></stop>
        </linearGradient>
        <linearGradient x1="50%" y1="0%" x2="50%" y2="100%" id="linearGradient-5">
            <stop stop-color="#F43EA6" offset="0%"></stop>
            <stop stop-color="#F5576C" offset="100%"></stop>
        </linearGradient>
    </defs>
    <g id="Landing" stroke="none" stroke-width="1" fill="none" fill-rule="evenodd">
        <g transform="translate(-1125.000000, -2835.000000)" id="Group-15">
            <g transform="translate(1125.000000, 2836.000000)">
                <g id="Group-14" transform="translate(0.000000, -0.080895)">
                    <polygon id="Path-Copy-19" fill="url(#linearGradient-2)" points="74.355786 12.4105085 43.3742742 12.4105085 43.3742742 24.8218076 74.355786 24.8218076"></polygon>
                    <path d="M105.336114,12.4105085 L99.1417057,12.4105085 L99.1417057,24.8218076 L105.336114,24.8218076 L105.336114,105.493275 L12.3927625,105.493275 L12.3927625,24.8222028 L18.5883545,24.8222028 L18.5883545,12.4105085 L12.3927625,12.4105085 C5.54876254,12.4105085 -5.68434189e-14,17.9655945 -5.68434189e-14,24.8222028 L-5.68434189e-14,105.490904 C-5.68434189e-14,112.349093 5.54876254,117.905365 12.3927625,117.905365 L105.335719,117.905365 C112.180903,117.905365 117.728482,112.348698 117.728482,105.490904 L117.728482,24.8222028 C117.728876,17.9655945 112.180903,12.4105085 105.336114,12.4105085 Z" id="Path-Copy-24" fill="url(#linearGradient-3)"></path>
                    <path d="M30.9815117,24.8222028 C34.4015385,24.8222028 37.177893,22.042486 37.177893,18.6165533 L37.177893,6.20604475 C37.177893,2.77655486 34.4046957,-5.68434189e-14 30.9815117,-5.68434189e-14 C27.5610903,-5.68434189e-14 24.7851304,2.77655486 24.7851304,6.20564951 L24.7851304,18.6161581 C24.7851304,22.042486 27.5610903,24.8222028 30.9815117,24.8222028 Z" id="Path-Copy-29" fill="url(#linearGradient-4)"></path>
                    <path d="M86.7485485,24.8222028 C90.1662074,24.8222028 92.9449298,22.042486 92.9449298,18.6165533 L92.9449298,6.20604475 C92.9449298,2.77655486 90.1662074,-5.68434189e-14 86.7485485,-5.68434189e-14 C83.322602,-5.68434189e-14 80.5521672,2.77655486 80.5521672,6.20564951 L80.5521672,18.6161581 C80.5521672,22.042486 83.329311,24.8222028 86.7485485,24.8222028 Z" id="Path-Copy-30" fill="url(#linearGradient-4)"></path>
                    <path d="M24.5895397,62.4433534 C24.5465427,61.1590966 24.6970299,59.9658259 25.0410057,58.8635055 C25.3849815,57.7611851 25.9009374,56.7980069 26.588889,55.9739421 C27.2768406,55.1498773 28.1421418,54.5077586 29.1848184,54.0475665 C30.227495,53.5873745 31.4260177,53.357282 32.7804224,53.357282 C33.8123498,53.357282 34.7958909,53.5178117 35.731075,53.8388759 C36.6662592,54.1599401 37.4885641,54.6201252 38.1980141,55.219445 C38.9074642,55.8187649 39.471791,56.5572014 39.8910115,57.4347769 C40.310232,58.3123524 40.5198392,59.2969345 40.5198392,60.3885528 C40.5198392,61.5229796 40.3371048,62.4968598 39.9716305,63.3102224 C39.6061562,64.1235851 39.1224475,64.8459687 38.5204898,65.4773949 C37.9185322,66.1088212 37.2359655,66.6813771 36.4727692,67.1950798 C35.7095729,67.7087825 34.9410135,68.2171266 34.1670679,68.7201271 C33.3931224,69.2231277 32.6406866,69.7635777 31.909738,70.3414933 C31.1787895,70.9194088 30.5338445,71.5936335 29.9748839,72.3641876 L40.6488294,72.3641876 L40.6488294,76.2811513 L24.0735786,76.2811513 C24.0735786,74.9754902 24.2616875,73.8410804 24.6379111,72.8778878 C25.0141346,71.9146952 25.524716,71.0531858 26.1696706,70.2933339 C26.8146252,69.5334819 27.5724356,68.8325023 28.4431243,68.1903739 C29.313813,67.5482455 30.2328596,66.8954247 31.2002915,66.231892 C31.6947567,65.8894236 32.2214617,65.5416092 32.7804224,65.1884386 C33.3393831,64.835268 33.8499645,64.4446457 34.312182,64.0165601 C34.7743995,63.5884745 35.1613664,63.1068854 35.4730945,62.5717784 C35.7848226,62.0366714 35.9406843,61.4266586 35.9406843,60.7417217 C35.9406843,59.6501034 35.6235863,58.799296 34.9893809,58.189274 C34.3551756,57.579252 33.5436198,57.2742456 32.5546894,57.2742456 C31.8882363,57.2742456 31.3239095,57.4294243 30.861692,57.7397864 C30.3994745,58.0501485 30.0286312,58.4568237 29.7491509,58.9598243 C29.4696705,59.4628248 29.2708125,60.0193278 29.1525708,60.6293497 C29.0343291,61.2393717 28.9752092,61.8440336 28.9752092,62.4433534 L24.5895397,62.4433534 Z M46.173913,64.7232071 C46.173913,65.3632737 46.1956471,66.1366758 46.2391159,67.0434368 C46.2825847,67.9501978 46.4184226,68.8249423 46.6466337,69.6676966 C46.8748448,70.5104509 47.2388904,71.230515 47.7387814,71.8279104 C48.2386725,72.4253059 48.9558966,72.7239991 49.8904755,72.7239991 C50.8467887,72.7239991 51.5803135,72.4253059 52.0910717,71.8279104 C52.6018299,71.230515 52.971309,70.5104509 53.1995201,69.6676966 C53.4277313,68.8249423 53.5635692,67.9501978 53.607038,67.0434368 C53.6505067,66.1366758 53.6722408,65.3632737 53.6722408,64.7232071 C53.6722408,64.3391672 53.6668073,63.8751259 53.6559401,63.3310693 C53.6450729,62.7870127 53.6016048,62.2269629 53.5255344,61.650903 C53.449464,61.0748431 53.3407937,60.5041256 53.1995201,59.9387335 C53.0582466,59.3733414 52.8463394,58.8666296 52.5637924,58.418583 C52.2812453,57.9705364 51.9226332,57.6078375 51.4879453,57.3304753 C51.0532575,57.0531131 50.5207729,56.9144341 49.8904755,56.9144341 C49.2601781,56.9144341 48.733127,57.0531131 48.3093064,57.3304753 C47.8854857,57.6078375 47.5377407,57.9705364 47.2660608,58.418583 C46.9943809,58.8666296 46.7824737,59.3733414 46.630333,59.9387335 C46.4781922,60.5041256 46.3695219,61.0748431 46.3043187,61.650903 C46.2391156,62.2269629 46.201081,62.7870127 46.1902138,63.3310693 C46.1793466,63.8751259 46.173913,64.3391672 46.173913,64.7232071 Z M41.8327759,64.9366467 C41.8327759,62.7554812 42.0531321,60.9218328 42.4938511,59.4356465 C42.9345701,57.9494603 43.5311442,56.7573215 44.2835912,55.8591946 C45.0360383,54.9610676 45.9120885,54.319558 46.9117682,53.9346464 C47.9114478,53.5497349 48.9702324,53.357282 50.0881538,53.357282 C51.2275736,53.357282 52.2971073,53.5497349 53.296787,53.9346464 C54.2964666,54.319558 55.1778914,54.9610676 55.9410877,55.8591946 C56.704284,56.7573215 57.3062326,57.9494603 57.7469516,59.4356465 C58.1876706,60.9218328 58.4080268,62.7554812 58.4080268,64.9366467 C58.4080268,67.1819641 58.1876706,69.0583798 57.7469516,70.56595 C57.3062326,72.0735203 56.704284,73.2763508 55.9410877,74.1744778 C55.1778914,75.0726048 54.2964666,75.7141144 53.296787,76.0990259 C52.2971073,76.4839375 51.2275736,76.6763904 50.0881538,76.6763904 C48.9702324,76.6763904 47.9114478,76.4839375 46.9117682,76.0990259 C45.9120885,75.7141144 45.0360383,75.0726048 44.2835912,74.1744778 C43.5311442,73.2763508 42.9345701,72.0735203 42.4938511,70.56595 C42.0531321,69.0583798 41.8327759,67.1819641 41.8327759,64.9366467 Z M71.4314381,76.2811513 L66.8495404,76.2811513 L66.8495404,61.6697254 L61.1705686,61.6697254 L61.1705686,58.2260634 C61.966489,58.2475193 62.7355088,58.1885164 63.4776509,58.0490527 C64.2197929,57.9095891 64.8866352,57.6628494 65.4781978,57.3088263 C66.0697603,56.9548032 66.569892,56.4881434 66.9786079,55.9088328 C67.3873239,55.3295223 67.6562119,54.6107589 67.7852801,53.7525211 L71.4314381,53.7525211 L71.4314381,76.2811513 Z M85.5419276,65.2144557 C86.1661935,65.2144557 86.7043456,65.1027258 87.1564001,64.8792626 C87.6084547,64.6557993 87.9851612,64.3525323 88.2865309,63.9694525 C88.5879006,63.5863727 88.8139245,63.1447734 88.9646093,62.6446413 C89.1152942,62.1445093 89.1906355,61.6177825 89.1906355,61.0644449 C89.1906355,60.5536718 89.1099126,60.0482268 88.9484646,59.5480948 C88.7870165,59.0479628 88.5502296,58.601043 88.2380967,58.2073221 C87.9259638,57.8136011 87.5438758,57.4996932 87.0918212,57.2655889 C86.6397667,57.0314845 86.1231406,56.9144341 85.5419276,56.9144341 C85.0037675,56.9144341 84.5194306,57.0314845 84.0889024,57.2655889 C83.6583743,57.4996932 83.2924308,57.8082807 82.9910611,58.1913605 C82.6896914,58.5744403 82.4636675,59.0107192 82.3129827,59.5002101 C82.1622978,59.989701 82.0869565,60.4898255 82.0869565,61.0005986 C82.0869565,61.5326539 82.1569163,62.0487399 82.2968379,62.5488719 C82.4367596,63.0490039 82.6466389,63.4959236 82.9264822,63.8896446 C83.2063255,64.2833655 83.5668874,64.6025939 84.0081788,64.8473394 C84.4494701,65.0920848 84.9607146,65.2144557 85.5419276,65.2144557 Z M82.0915633,70.4857605 C82.2420527,71.2341996 82.5860234,71.8864011 83.1234855,72.4423845 C83.6609477,72.9983678 84.3273908,73.2763553 85.1228349,73.2763553 C85.9612759,73.2763553 86.6492172,73.0357892 87.1866793,72.5546498 C87.7241415,72.0735103 88.1541048,71.4854598 88.4765821,70.7904806 C88.7990594,70.0955014 89.0301647,69.3524194 89.1699049,68.5612124 C89.309645,67.7700053 89.4010122,67.0643447 89.4440092,66.4442094 L89.3795141,66.3800578 C88.7560579,67.2781847 88.0251203,67.9196944 87.1866793,68.3046059 C86.3482383,68.6895175 85.3808209,68.8819704 84.2843981,68.8819704 C83.3169661,68.8819704 82.3710469,68.6734797 81.4466119,68.2564922 C80.522177,67.8395047 79.737494,67.2781838 79.0925393,66.5725126 C78.4905817,65.8882254 78.0498693,65.107722 77.770389,64.230979 C77.4909086,63.354236 77.3511706,62.4668144 77.3511706,61.5686874 C77.3511706,60.4139527 77.5392795,59.3394241 77.915503,58.3450693 C78.2917266,57.3507144 78.8291807,56.4846764 79.5278815,55.7469293 C80.2265824,55.0091821 81.0596362,54.4264775 82.0270682,53.998798 C82.9945001,53.5711185 84.0694083,53.357282 85.2518251,53.357282 C86.9717041,53.357282 88.3852085,53.6940745 89.4923806,54.3676697 C90.5995527,55.041265 91.486352,55.9286866 92.1528051,57.0299614 C92.8192582,58.1312361 93.2814687,59.376834 93.5394506,60.7667923 C93.7974324,62.1567507 93.9264214,63.5573801 93.9264214,64.9687225 C93.9264214,66.3586809 93.7651852,67.7486184 93.4427079,69.1385768 C93.1202305,70.5285352 92.6042746,71.7848249 91.8948245,72.9074836 C91.1853744,74.0301423 90.2717024,74.9389476 89.1537811,75.6339268 C88.0358597,76.328906 86.6707263,76.6763904 85.0583397,76.6763904 C84.0909078,76.6763904 83.1879849,76.5427425 82.3495439,76.2754429 C81.5111029,76.0081432 80.7694162,75.6071996 80.1244616,75.0726003 C79.4795069,74.5380009 78.9528019,73.8857994 78.5443306,73.1159763 C78.1358594,72.3461532 77.8671323,71.4694234 77.7381414,70.4857605 L82.0915633,70.4857605 Z" id="2019" fill="url(#linearGradient-5)"></path>
                </g>
            </g>
        </g>
    </g>
</svg>