<?xml version="1.0" encoding="UTF-8"?>
<svg width="96px" height="93px" viewBox="0 0 96 93" version="1.1" xmlns="http://www.w3.org/2000/svg" xmlns:xlink="http://www.w3.org/1999/xlink">
    <!-- Generator: Sketch 53.2 (72643) - https://sketchapp.com -->
    <title>edit (1)</title>
    <desc>Created with Sketch.</desc>
    <defs>
        <linearGradient x1="50%" y1="0%" x2="50%" y2="100%" id="linearGradient-1">
            <stop stop-color="#F43EA6" offset="0%"></stop>
            <stop stop-color="#F5576C" offset="100%"></stop>
        </linearGradient>
        <linearGradient x1="50%" y1="0%" x2="50%" y2="100%" id="linearGradient-2">
            <stop stop-color="#F43EA6" offset="0%"></stop>
            <stop stop-color="#F5576C" offset="100%"></stop>
        </linearGradient>
        <linearGradient x1="50%" y1="0%" x2="50%" y2="100%" id="linearGradient-3">
            <stop stop-color="#F43EA6" offset="0%"></stop>
            <stop stop-color="#F5576C" offset="100%"></stop>
        </linearGradient>
    </defs>
    <g id="Dashboard" stroke="none" stroke-width="1" fill="none" fill-rule="evenodd">
        <g id="Home-menu" transform="translate(-1290.000000, -617.000000)">
            <g id="edit-(1)" transform="translate(1290.000000, 617.000000)">
                <path d="M88.6089746,58.3388075 C87.2883065,58.3388075 86.2179491,59.3816189 86.2179491,60.6682988 L86.2179491,81.3516336 C86.213279,85.2098536 83.0050087,88.3364677 79.0448728,88.3401075 L11.9551272,88.3401075 C7.99499132,88.3364677 4.7867208,85.2098536 4.78205088,81.3516336 L4.78205088,20.6474565 C4.7867208,16.7901464 7.99499132,13.6635323 11.9551272,13.6589826 L33.1848178,13.6589826 C34.5054859,13.6589826 35.5758433,12.6161711 35.5758433,11.3294913 C35.5758433,10.0437214 34.5054859,9 33.1848178,9 L11.9551272,9 C5.35552351,9.00727966 0.00747195451,14.2176964 0,20.6474565 L0,81.3525435 C0.00747195451,87.7823036 5.35552351,92.9927203 11.9551272,93 L79.0448728,93 C85.6444765,92.9927203 90.992528,87.7823036 91,81.3525435 L91,60.6682988 C91,59.3816189 89.9296424,58.3388075 88.6089746,58.3388075 Z" id="Path" fill="url(#linearGradient-2)"></path>
                <path d="M90.2290014,3.14510297 C86.1549827,-1.04836766 79.5499828,-1.04836766 75.4759638,3.14510297 L34.1181972,45.715496 C33.8347636,46.00724 33.6301117,46.368891 33.5232583,46.765961 L28.0845926,66.9764583 C27.8609244,67.8050859 28.0882145,68.6924351 28.678626,69.3010895 C29.2699427,69.9088119 30.1320157,70.1427664 30.9370396,69.9134723 L50.5718367,64.3144106 C50.9575961,64.204424 51.3089452,63.9937718 51.592379,63.7020276 L92.9492399,21.1307026 C97.01692,16.9344356 97.01692,10.1413671 92.9492399,5.94509992 L90.2290014,3.14510297 Z M39.1692926,47.266493 L73.017426,12.4249863 L83.9336959,23.6613257 L50.0846568,58.5028324 L39.1692926,47.266493 Z M36.9887552,51.7703496 L45.7099991,60.748236 L33.6464116,64.1885785 L36.9887552,51.7703496 Z M89.6711895,17.7565385 L87.212652,20.2871616 L76.2954766,9.0498902 L78.7549196,6.51926707 C81.0178611,4.18997527 84.6871042,4.18997527 86.9500456,6.51926707 L89.6711895,9.31926402 C91.9305088,11.6513521 91.9305088,15.4253826 89.6711895,17.7565385 L89.6711895,17.7565385 Z" id="Shape" fill="url(#linearGradient-3)"></path>
            </g>
        </g>
    </g>
</svg>