<?xml version="1.0" encoding="UTF-8"?>
<svg width="113px" height="109px" viewBox="0 0 113 109" version="1.1" xmlns="http://www.w3.org/2000/svg" xmlns:xlink="http://www.w3.org/1999/xlink">
    <!-- Generator: Sketch 53.2 (72643) - https://sketchapp.com -->
    <title>Group 16</title>
    <desc>Created with Sketch.</desc>
    <g id="Symbols" stroke="none" stroke-width="1" fill="none" fill-rule="evenodd">
        <g id="icon/box" fill="#FFFFFF" fill-rule="nonzero">
            <g id="Group-16">
                <path d="M103.859767,79.4565617 C103.427846,78.3026982 102.129648,77.7125576 100.959632,78.1382972 L77.4769519,86.683437 C76.3069356,87.1091766 75.7085338,88.3896704 76.1402332,89.5435339 C76.4769588,90.4430453 77.3401364,91 78.2588814,91 C78.5183438,91 78.7824554,90.9554611 79.0403681,90.8617984 L102.523048,82.3166586 C103.693064,81.890919 104.291466,80.6104252 103.859767,79.4565617 Z" id="Path"></path>
                <path d="M73.8728093,90.5122383 C73.4813912,89.3142197 72.303321,88.7016121 71.2419331,89.1435599 L70.3398037,89.5191022 C69.2786167,89.9610501 68.7355717,91.2902932 69.1271907,92.4878585 C69.4324527,93.4216149 70.2156906,94 71.0491361,94 C71.2845092,94 71.5240996,93.9537655 71.7580669,93.8565369 L72.6601963,93.4809946 C73.7213833,93.0390468 74.2644283,91.7100303 73.8728093,90.5122383 Z" id="Path"></path>
                <path d="M103.860222,70.4294133 C103.429702,69.2969199 102.135716,68.7181376 100.969496,69.1355637 L82.4721602,75.763382 C81.3059398,76.1812367 80.7094794,77.438015 81.1397783,78.5705084 C81.4754114,79.4533603 82.3357885,80 83.2515528,80 C83.5101735,80 83.7734282,79.956286 84.0305042,79.8643579 L102.52784,73.2365397 C103.69406,72.818685 104.290521,71.5619066 103.860222,70.4294133 Z" id="Path"></path>
                <path d="M103.860222,61.4294133 C103.429702,60.2969199 102.135716,59.7181376 100.969496,60.1355637 L82.4721602,66.763382 C81.3059398,67.1812367 80.7094794,68.438015 81.1397783,69.5705084 C81.4754114,70.4533603 82.3357885,71 83.2515528,71 C83.5101735,71 83.7734282,70.956286 84.0305042,70.8643579 L102.52784,64.2365397 C103.69406,63.818685 104.290521,62.5619066 103.860222,61.4294133 Z" id="Path"></path>
                <path d="M111.528352,20.1673717 L57.2793027,0.139121873 C56.7763203,-0.0463739576 56.2236797,-0.0463739576 55.720918,0.139121873 L1.47186914,20.1673717 L1.47142773,20.1691383 C1.29376172,20.2349452 1.1229375,20.3219516 0.96403125,20.4325866 C0.359966797,20.8539271 0,21.5440158 0,22.2804784 L0,86.7195216 C0,87.6626796 0.587291016,88.5060231 1.47164844,88.8326283 L55.7206973,108.860878 C55.973623,108.954289 56.2373633,109 56.4997793,109 C56.7648437,109 57.028584,108.951859 57.2784199,108.859553 L57.2793027,108.860878 L111.528352,88.8326283 C112.412709,88.5060231 113,87.6629004 113,86.7195216 L113,22.2804784 C113,21.3370996 112.412709,20.4939769 111.528352,20.1673717 Z M54.2490488,103.516169 L4.50190234,85.1498736 L4.50190234,25.5123016 L14.631293,29.2522508 L14.631293,56.5417791 C14.631293,57.4849371 15.218584,58.3282806 16.1029414,58.6548858 L40.4136113,67.6304549 C40.6665371,67.7238653 40.9302773,67.7695767 41.1926934,67.7695767 C41.6469004,67.7695767 42.0971348,67.6320007 42.4800547,67.3650192 C43.0838984,66.9438995 43.4438652,66.2538108 43.4438652,65.5173482 L43.4438652,39.8895534 L54.2486074,43.8785971 L54.2490488,103.516169 L54.2490488,103.516169 Z M38.9421836,38.2273783 L38.9421836,62.2850833 L19.133416,54.9716894 L19.133416,30.9139843 L38.9421836,38.2273783 Z M23.385041,27.664274 L41.1931348,21.089551 L59.0012285,27.664274 L41.1931348,34.2389971 L23.385041,27.664274 Z M56.5,39.908103 L47.6716543,36.6486762 L66.2833281,29.7771599 C67.1676855,29.4505547 67.7549766,28.607432 67.7549766,27.6640532 C67.7549766,26.7206744 67.1676855,25.8775517 66.2833281,25.5509465 L41.9724375,16.5755983 C41.4694551,16.3901024 40.9170352,16.3901024 40.413832,16.5755983 L16.8579668,25.2727028 L8.75374805,22.2804784 L56.5,4.65307458 L104.246252,22.2806992 L56.5,39.908103 Z M108.498098,85.1498736 L58.7511719,103.515948 L58.7511719,43.8785971 L108.498098,25.5123016 L108.498098,85.1498736 Z" id="Shape"></path>
            </g>
        </g>
    </g>
</svg>