<?xml version="1.0" encoding="UTF-8"?>
<svg width="56px" height="79px" viewBox="0 0 56 79" version="1.1" xmlns="http://www.w3.org/2000/svg" xmlns:xlink="http://www.w3.org/1999/xlink">
    <!-- Generator: Sketch 53.2 (72643) - https://sketchapp.com -->
    <title>Group 10</title>
    <desc>Created with Sketch.</desc>
    <defs>
        <linearGradient x1="50%" y1="0%" x2="50%" y2="100%" id="linearGradient-1">
            <stop stop-color="#F43EA6" offset="0%"></stop>
            <stop stop-color="#F5576C" offset="100%"></stop>
        </linearGradient>
        <linearGradient x1="50%" y1="0%" x2="50%" y2="100%" id="linearGradient-2">
            <stop stop-color="#F43EA6" offset="0%"></stop>
            <stop stop-color="#F5576C" offset="100%"></stop>
        </linearGradient>
        <linearGradient x1="50%" y1="0%" x2="50%" y2="100%" id="linearGradient-3">
            <stop stop-color="#F43EA6" offset="0%"></stop>
            <stop stop-color="#F5576C" offset="100%"></stop>
        </linearGradient>
        <linearGradient x1="50%" y1="0%" x2="50%" y2="100%" id="linearGradient-4">
            <stop stop-color="#F43EA6" offset="0%"></stop>
            <stop stop-color="#F5576C" offset="100%"></stop>
        </linearGradient>
    </defs>
    <g id="Landing" stroke="none" stroke-width="1" fill="none" fill-rule="evenodd">
        <g transform="translate(-563.000000, -2111.000000)" id="Group-10">
            <g transform="translate(563.000000, 2111.000000)">
                <path d="M50.1052632,30.4668856 L50.1052632,23.3226297 C50.1052632,10.7522062 40.1889803,0.525602161 28,0.525602161 C15.8110197,0.525602161 5.89473684,10.7522062 5.89473684,23.3226297 L5.89473684,30.4668856 C2.53519737,31.1727624 0,34.2432371 0,37.9127273 L0,46.5405711 C0,47.3800242 0.659703874,48.0603729 1.47368421,48.0603729 C2.28766455,48.0603729 2.94736842,47.3800242 2.94736842,46.5405711 L2.94736842,37.9127273 C2.94736842,35.3985239 4.93050983,33.3533218 7.36842105,33.3533218 L48.6315789,33.3533218 C51.0694902,33.3533218 53.0526316,35.3985239 53.0526316,37.9127273 L53.0526316,70.740447 C53.0526316,72.7215324 51.8207237,74.4111247 50.1052632,75.0386366 L50.1052632,65.8770811 C50.1052632,65.037628 49.4455593,64.3572793 48.6315789,64.3572793 C47.8175986,64.3572793 47.1578947,65.037628 47.1578947,65.8770811 L47.1578947,75.2998525 L7.36842105,75.2998525 C4.93050983,75.2998525 2.94736842,73.2546505 2.94736842,70.740447 L2.94736842,58.7340125 C2.94736842,57.8945594 2.28766455,57.2142107 1.47368421,57.2142107 C0.659703874,57.2142107 0,57.8945594 0,58.7340125 L0,70.740447 C0,74.9305881 3.30542771,78.3394562 7.36842105,78.3394562 L48.6315789,78.3394562 C52.6945723,78.3394562 56,74.9305881 56,70.740447 L56,37.9127273 C56,34.2432371 53.4648026,31.1727624 50.1052632,30.4668856 Z M16.8,30.3137182 L16.8,23.3226297 C16.8,16.9537101 21.8243421,11.7721357 28,11.7721357 C34.1756579,11.7721357 39.2,16.9537101 39.2,23.3226297 L39.2,30.3137182 L16.8,30.3137182 Z M42.1473684,30.3137182 L42.1473684,23.3226297 C42.1473684,15.2777724 35.8007402,8.73253208 28,8.73253208 C20.1992598,8.73253208 13.8526316,15.2777724 13.8526316,23.3226297 L13.8526316,30.3137182 L8.84210526,30.3137182 L8.84210526,23.3226297 C8.84210526,12.4281439 17.4361019,3.56520583 28,3.56520583 C38.5638981,3.56520583 47.1578947,12.4281439 47.1578947,23.3226297 L47.1578947,30.3137182 L42.1473684,30.3137182 Z" id="Shape" fill="url(#linearGradient-2)"></path>
                <path d="M2,54.3967319 C2.5257812,54.3967319 3.0421876,54.1839597 3.4140624,53.8121928 C3.7859376,53.4412053 4,52.9268108 4,52.4015048 C4,51.8769784 3.7859376,51.3618046 3.4140624,50.9915964 C3.0421876,50.6198296 2.5257812,50.4062778 2,50.4062778 C1.4742188,50.4062778 0.9578124,50.6198296 0.5859376,50.9915964 C0.2140624,51.3618046 0,51.8769784 0,52.4015048 C0,52.9268108 0.2140624,53.4412053 0.5859376,53.8121928 C0.9578124,54.1839597 1.4742188,54.3967319 2,54.3967319 Z" id="Path" fill="url(#linearGradient-3)"></path>
                <path d="M28.9809028,69.3609346 C31.431713,69.3609346 33.4253473,67.2965377 33.4253473,64.7587376 L33.4253473,56.6126094 C35.6510418,55.086933 37,52.522167 37,49.7117107 C37,45.14427 33.4108797,41.4277562 29,41.4277562 C24.5885416,41.4277562 21,45.14427 21,49.7117107 C21,52.5017926 22.333912,55.0569707 24.5364584,56.5862424 L24.5364584,64.7587376 C24.5364584,67.2965377 26.5300926,69.3609346 28.9809028,69.3609346 Z M23.962963,49.7117107 C23.962963,46.8353376 26.2222222,44.4958875 29,44.4958875 C31.7771991,44.4958875 34.037037,46.8353376 34.037037,49.7117107 C34.037037,51.6868203 32.9780093,53.4695724 31.2737268,54.3654428 C30.7760418,54.6267133 30.4623843,55.155247 30.4623843,55.7335178 L30.4623843,64.7587376 C30.4623843,65.6048707 29.7980324,66.2928033 28.9809028,66.2928033 C28.1637732,66.2928033 27.4994213,65.6048707 27.4994213,64.7587376 L27.4994213,55.7131434 C27.4994213,55.1390673 27.1898148,54.6129307 26.6967593,54.3498625 C25.0104167,53.4497974 23.962963,51.6724384 23.962963,49.7117107 Z" id="Shape" fill="url(#linearGradient-4)"></path>
                <path d="M49,61.3800265 C49.528125,61.3800265 50.0421876,61.1664749 50.4140624,60.7954872 C50.7859376,60.4244999 51,59.9116641 51,59.3847994 C51,58.8579348 50.7859376,58.345099 50.4140624,57.9741117 C50.0421876,57.603124 49.528125,57.3895724 49,57.3895724 C48.4742188,57.3895724 47.9578124,57.603124 47.5859376,57.9741117 C47.2140624,58.345099 47,58.860273 47,59.3847994 C47,59.9093259 47.2140624,60.4244999 47.5859376,60.7954872 C47.9578124,61.1664749 48.4742188,61.3800265 49,61.3800265 Z" id="Path" fill="url(#linearGradient-3)"></path>
            </g>
        </g>
    </g>
</svg>