<?xml version="1.0" encoding="UTF-8"?>
<svg width="84px" height="109px" viewBox="0 0 84 109" version="1.1" xmlns="http://www.w3.org/2000/svg" xmlns:xlink="http://www.w3.org/1999/xlink">
    <!-- Generator: Sketch 53.2 (72643) - https://sketchapp.com -->
    <title>Group 18</title>
    <desc>Created with Sketch.</desc>
    <g id="Symbols" stroke="none" stroke-width="1" fill="none" fill-rule="evenodd">
        <g id="icon/phone" transform="translate(-8.000000, 0.000000)" fill="#FFFFFF" fill-rule="nonzero">
            <g id="Group-18" transform="translate(8.000000, 0.000000)">
                <g id="Group-17" transform="translate(0.287879, 0.000000)">
                    <path d="M51.875,90.8333333 C48.4423571,90.8333333 45.65,93.6114177 45.65,97.0265152 C45.65,100.441613 48.4423571,103.219697 51.875,103.219697 C55.3076429,103.219697 58.1,100.441613 58.1,97.0265152 C58.1,93.6114177 55.3058643,90.8333333 51.875,90.8333333 Z M51.875,99.6807359 C50.4041214,99.6807359 49.2071429,98.4898755 49.2071429,97.0265152 C49.2071429,95.5631548 50.4041214,94.3722944 51.875,94.3722944 C53.3458786,94.3722944 54.5428571,95.5631548 54.5428571,97.0265152 C54.5428571,98.4898755 53.3458786,99.6807359 51.875,99.6807359 Z" id="Shape"></path>
                    <path d="M61.005,67.7121212 C64.8958325,67.7121212 68.06,64.3789508 68.06,60.280303 C68.06,56.1816553 64.8958325,52.8484848 61.005,52.8484848 C57.1141675,52.8484848 53.95,56.1816553 53.95,60.280303 C53.95,64.3789508 57.1124037,67.7121212 61.005,67.7121212 Z M61.005,56.5643939 C62.9504162,56.5643939 64.5325,58.2309792 64.5325,60.280303 C64.5325,62.3296269 62.9504162,63.9962121 61.005,63.9962121 C59.0595837,63.9962121 57.4775,62.3296269 57.4775,60.280303 C57.4775,58.2309792 59.0595837,56.5643939 61.005,56.5643939 Z" id="Shape"></path>
                    <path d="M83,54.0410703 C83,52.4424236 82.3722693,50.9400591 81.2339355,49.8101065 L80.2145594,48.7982359 C81.951342,47.2722549 82.9981699,45.0650325 82.9981699,42.6906789 C82.9981699,38.1835852 79.3031603,34.5157811 74.7626358,34.5157811 C74.4295542,34.5157811 74.1001328,34.5484806 73.7743717,34.5884468 C73.8146343,34.2632675 73.8475765,33.9399049 73.8475765,33.6074591 C73.8475765,29.1003654 70.1525669,25.4325613 65.6120424,25.4325613 C65.2789608,25.4325613 64.9495394,25.4652609 64.6237783,25.505227 C64.6640409,25.1800477 64.6969831,24.8566851 64.6969831,24.5242393 C64.6969831,20.0171456 61.0019734,16.3493415 56.461449,16.3493415 C56.1283674,16.3493415 55.798946,16.3820411 55.4731849,16.4220072 C55.5134475,16.096828 55.5463896,15.7734653 55.5463896,15.4410195 C55.5463896,10.9339258 51.85138,7.26612167 47.3108556,7.26612167 C44.9170603,7.26612167 42.6952963,8.30705866 41.1579966,10.0292371 L39.7048823,8.58682183 L32.8181457,1.75079062 C30.4664432,-0.583596872 26.6414952,-0.583596872 24.2934529,1.75079062 L1.7610317,24.117311 C-0.587010567,26.4516985 -0.587010567,30.2466677 1.7610317,32.5810552 L8.6477683,39.4170865 L17.633651,48.3368083 C15.1520101,49.746524 13.4554901,52.3715745 13.4554901,55.4071866 C13.4554901,58.2466011 14.9250754,60.7499365 17.1468395,62.2159681 C17.2584767,62.3631163 17.3884151,62.5084478 17.5622764,62.655596 L37.2470329,82.120936 L37.2470329,85.3836285 L33.5867956,85.3836285 L33.5867956,109 L66.5289319,109 L81.1698813,109 L81.1698813,85.3836285 L77.509644,85.3836285 L77.509644,79.8791973 C81.010661,76.9344175 83,72.6998204 83,68.1236943 C83,64.9627338 82.0062456,61.8926055 80.1889377,59.3093378 L81.2339355,58.2720341 C82.3722693,57.1420816 83,55.639717 83,54.0410703 Z M79.3397626,42.6906789 C79.3397626,44.0858614 78.6919006,45.3774953 77.6249414,46.2276847 L71.1993947,39.8494477 C72.0558903,38.7903443 73.3589348,38.1472523 74.7626358,38.1472523 C77.2863695,38.149069 79.3397626,40.1855268 79.3397626,42.6906789 Z M70.1891692,33.6074591 C70.1891692,35.0026416 69.5413072,36.2942755 68.474348,37.1444649 L62.0488013,30.7662279 C62.9052969,29.7071245 64.2083414,29.0640325 65.6120424,29.0640325 C68.1357761,29.0658492 70.1891692,31.1023071 70.1891692,33.6074591 Z M61.0385758,24.5242393 C61.0385758,25.9194218 60.3907138,27.2110557 59.3237546,28.0612451 L52.8982079,21.6830081 C53.7547035,20.6239047 55.057748,19.9808127 56.461449,19.9808127 C58.9851827,19.9826294 61.0385758,22.0190873 61.0385758,24.5242393 Z M47.3126857,10.8994096 C49.8364194,10.8994096 51.8879824,12.9358675 51.8879824,15.4410195 C51.8879824,16.836202 51.2401204,18.1278359 50.1731612,18.9780253 L43.7476145,12.5997883 C44.60411,11.5425016 45.9071546,10.8994096 47.3126857,10.8994096 Z M4.34881952,30.0141373 C3.4264397,29.0967321 3.4264397,27.6052674 4.34881952,26.6878622 L26.8812407,4.32134182 C27.1100056,4.09426132 27.3772029,3.92349679 27.6608713,3.80904822 C27.7889796,3.75636555 27.933559,3.75818219 28.0689878,3.72911589 C28.3947489,3.66008342 28.7168498,3.66008342 29.0426109,3.72911589 C29.1780397,3.75818219 29.3226191,3.75636555 29.4507274,3.80904822 C29.7343958,3.92349679 29.999763,4.09426132 30.2303579,4.32134182 L34.5293067,8.58863848 L8.6477683,34.2796173 L4.34881952,30.0141373 Z M37.1170945,11.157373 L39.2729743,13.2973796 L48.4235677,22.3805994 L49.4722257,23.4215364 L57.5741611,31.4638192 L58.6228192,32.5047562 L66.7247546,40.547039 L67.7734126,41.587976 L76.924006,50.6711958 L78.6443175,52.3788411 C79.5685275,53.2962463 79.5685275,54.7858943 78.6443175,55.7032995 L77.8445557,56.4989896 L77.8445557,56.4989896 L56.1137264,78.0716366 C55.1931767,78.9872252 53.6869891,78.9908584 52.7627791,78.0716366 L38.1675826,63.5820844 L39.9903809,63.5820844 C44.5309053,63.5820844 48.2259149,59.9142802 48.2259149,55.4071866 C48.2259149,50.9000929 44.5309053,47.2322888 39.9903809,47.2322888 L21.6946844,47.2322888 L11.233726,36.8483519 L37.1170945,11.157373 Z M20.7027601,50.9782086 L21.4622593,50.8928263 C21.5372942,50.8819265 21.612329,50.8655767 21.689194,50.8655767 L39.9903809,50.8655767 C42.5141145,50.8655767 44.5656776,52.9020346 44.5656776,55.4071866 C44.5656776,57.9123386 42.5141145,59.9487965 39.9903809,59.9487965 L34.5073453,59.9487965 L29.3317696,59.9487965 L21.689194,59.9487965 C19.1654604,59.9487965 17.1138973,57.9123386 17.1138973,55.4071866 C17.1157274,53.2399303 18.6548573,51.4287363 20.7027601,50.9782086 Z M37.2470329,105.364895 L37.2470329,89.0150998 L52.667613,89.0150998 C58.2915677,89.0150998 62.8686945,93.5585264 62.8686945,99.1410732 L62.8686945,105.364895 L37.2470329,105.364895 Z M77.509644,105.364895 L66.5289319,105.364895 L66.5289319,99.1410732 C66.5289319,95.1335567 64.7829986,91.5329683 62.0195194,89.0150998 L77.509644,89.0150998 L77.509644,105.364895 Z M77.5553969,61.9253051 C78.7156922,63.7800986 79.3397626,65.9255551 79.3397626,68.1236943 C79.3397626,71.8568976 77.6048101,75.2921713 74.5777938,77.5538931 L73.8494066,78.0988863 L73.8494066,85.3818119 L52.6657828,85.3818119 L40.9054402,85.3818119 L40.9054402,80.4441736 L40.2594083,79.9009971 C40.177053,79.830148 40.0892073,79.7647488 39.9299869,79.6466669 L23.6840234,63.5802677 L32.9901769,63.5802677 L50.1731612,80.6385545 C51.3499275,81.8048399 52.8927176,82.3879827 54.4355076,82.3879827 C55.9801278,82.3879827 57.5247479,81.8048399 58.6996841,80.6385545 L77.5553969,61.9253051 Z" id="Shape"></path>
                </g>
                <path d="M17.0380975,22 C17.4860415,22 17.9339855,21.8285107 18.2751929,21.487282 L21.7747554,17.9875008 C22.4589199,17.3032935 22.4589199,16.1973627 21.7747554,15.5131554 C21.0905909,14.8289482 19.9847292,14.8289482 19.3005647,15.5131554 L15.8010021,19.0129367 C15.1168377,19.6971439 15.1168377,20.8030748 15.8010021,21.487282 C16.1422095,21.8285107 16.5901535,22 17.0380975,22 Z" id="Path"></path>
            </g>
        </g>
    </g>
</svg>