<?xml version="1.0" encoding="UTF-8"?>
<svg width="133px" height="36px" viewBox="0 0 133 36" version="1.1" xmlns="http://www.w3.org/2000/svg" xmlns:xlink="http://www.w3.org/1999/xlink">
    <!-- Generator: Sketch 53.2 (72643) - https://sketchapp.com -->
    <title>paypal</title>
    <desc>Created with Sketch.</desc>
    <g id="Symbols" stroke="none" stroke-width="1" fill="none" fill-rule="evenodd">
        <g id="checkicon/paypal" fill-rule="nonzero">
            <g id="paypal" transform="translate(0.000000, 1.000000)">
                <path d="M103.386339,7.9047309 L96.0818952,7.9047309 C95.6522221,7.9047309 95.2225489,8.34338222 95.0077123,8.78203353 L92,28.0826914 C92,28.5213427 92.2148366,28.7406684 92.6445098,28.7406684 L96.5115684,28.7406684 C96.9412416,28.7406684 97.1560782,28.5213427 97.1560782,28.0826914 L98.0154246,22.59955 C98.0154246,22.1608987 98.4450978,21.7222474 99.0896075,21.7222474 L101.45281,21.7222474 C106.394052,21.7222474 109.186927,19.3096651 109.831437,14.4845006 C110.26111,12.5105697 109.831437,10.7559645 108.972091,9.65933617 C107.683071,8.56270788 105.749542,7.9047309 103.386339,7.9047309 M104.245686,15.1424776 C103.816013,17.7743855 101.882483,17.7743855 99.9489539,17.7743855 L98.6599343,17.7743855 L99.5192807,12.7298954 C99.5192807,12.5105697 99.7341173,12.2912441 100.16379,12.2912441 L100.593464,12.2912441 C101.882483,12.2912441 103.171503,12.2912441 103.816013,13.1685467 C104.245686,13.3878724 104.245686,14.0458493 104.245686,15.1424776" id="Shape" fill="#139AD6"></path>
                <g id="Group" transform="translate(40.000000, 7.904731)" fill="#263B80">
                    <path d="M11.227907,0.0541193182 L4.05891473,0.0541193182 C3.6372093,0.0541193182 3.21550388,0.487073864 3.00465116,0.920028409 L0.0527131783,19.9700284 C0.0527131783,20.402983 0.263565891,20.6194602 0.685271318,20.6194602 L4.05891473,20.6194602 C4.48062016,20.6194602 4.90232558,20.1865057 5.11317829,19.7535511 L5.95658915,14.5580966 C5.95658915,14.125142 6.37829457,13.6921875 7.01085271,13.6921875 L9.33023256,13.6921875 C14.179845,13.6921875 16.9209302,11.3109375 17.5534884,6.5484375 C17.9751938,4.60014205 17.5534884,2.86832386 16.7100775,1.7859375 C15.4449612,0.703551136 13.7581395,0.0541193182 11.227907,0.0541193182 M12.0713178,7.19786932 C11.6496124,9.79559659 9.75193798,9.79559659 7.85426357,9.79559659 L6.8,9.79559659 L7.64341085,4.81661932 C7.64341085,4.60014205 7.85426357,4.38366477 8.27596899,4.38366477 L8.69767442,4.38366477 C9.9627907,4.38366477 11.227907,4.38366477 11.8604651,5.24957386 C12.0713178,5.46605114 12.2821705,6.11548295 12.0713178,7.19786932" id="Shape"></path>
                    <path d="M32.9457364,6.98139205 L29.572093,6.98139205 C29.3612403,6.98139205 28.9395349,7.19786932 28.9395349,7.41434659 L28.7286822,8.49673295 L28.5178295,8.06377841 C27.6744186,6.98139205 26.1984496,6.5484375 24.5116279,6.5484375 C20.7162791,6.5484375 17.3426357,9.57911932 16.7100775,13.6921875 C16.2883721,15.8569602 16.9209302,17.8052557 17.9751938,19.1041193 C19.0294574,20.402983 20.5054264,20.8359375 22.4031008,20.8359375 C25.5658915,20.8359375 27.2527132,18.887642 27.2527132,18.887642 L27.0418605,19.9700284 C27.0418605,20.402983 27.2527132,20.6194602 27.6744186,20.6194602 L30.8372093,20.6194602 C31.2589147,20.6194602 31.6806202,20.1865057 31.8914729,19.7535511 L33.7891473,7.63082386 C33.5782946,7.41434659 33.1565891,6.98139205 32.9457364,6.98139205 M28.096124,13.9086648 C27.6744186,15.8569602 26.1984496,17.3723011 24.0899225,17.3723011 C23.0356589,17.3723011 22.1922481,16.9393466 21.7705426,16.506392 C21.3488372,15.8569602 21.1379845,14.9910511 21.1379845,13.9086648 C21.3488372,11.9603693 23.0356589,10.4450284 24.9333333,10.4450284 C25.9875969,10.4450284 26.620155,10.877983 27.2527132,11.3109375 C27.8852713,11.9603693 28.096124,13.0427557 28.096124,13.9086648" id="Shape"></path>
                </g>
                <path d="M125.166937,15.2709714 L121.834684,15.2709714 C121.626418,15.2709714 121.209887,15.4814354 121.209887,15.6918995 L121.001621,16.7442195 L120.793355,16.3232915 C119.960292,15.2709714 118.502431,14.8500434 116.836305,14.8500434 C113.087521,14.8500434 109.755268,17.7965396 109.130471,21.7953559 C108.713939,23.8999961 109.338736,25.7941722 110.380065,27.0569563 C111.421394,28.3197404 112.879255,28.7406684 114.753647,28.7406684 C117.877634,28.7406684 119.54376,26.8464923 119.54376,26.8464923 L119.335495,27.8988123 C119.335495,28.3197404 119.54376,28.5302044 119.960292,28.5302044 L123.084279,28.5302044 C123.50081,28.5302044 123.917342,28.1092764 124.125608,27.6883483 L126,15.9023635 C125.791734,15.6918995 125.583468,15.2709714 125.166937,15.2709714 M120.376824,22.0058199 C119.960292,23.8999961 118.502431,25.3732442 116.419773,25.3732442 C115.378444,25.3732442 114.545381,24.9523161 114.12885,24.5313881 C113.712318,23.8999961 113.504052,23.05814 113.504052,22.0058199 C113.712318,20.1116438 115.378444,18.6383957 117.252837,18.6383957 C118.294166,18.6383957 118.918963,19.0593237 119.54376,19.4802517 C120.376824,20.1116438 120.585089,21.1639639 120.376824,22.0058199" id="Shape" fill="#139AD6"></path>
                <path d="M91.4592346,15.8422309 L87.8253776,15.8422309 C87.397865,15.8422309 87.1841087,16.0589155 86.9703524,16.2756002 L82.267714,23.6428775 L80.130151,16.7089694 C79.9163948,16.2756002 79.7026385,16.0589155 79.0613696,16.0589155 L75.6412689,16.0589155 C75.2137563,16.0589155 75,16.4922848 75,16.925654 L78.8476133,28.4099392 L75.2137563,33.6103703 C75,34.0437395 75.2137563,34.6937934 75.6412689,34.6937934 L79.0613696,34.6937934 C79.4888822,34.6937934 79.7026385,34.4771088 79.9163948,34.2604241 L91.6729909,17.1423387 C92.3142598,16.4922848 91.8867472,15.8422309 91.4592346,15.8422309" id="Path" fill="#263B80"></path>
                <path d="M128.111111,8.42726691 L125,28.0853974 C125,28.5222447 125.222222,28.7406684 125.666667,28.7406684 L128.777778,28.7406684 C129.222222,28.7406684 129.666667,28.3038211 129.888889,27.8669737 L133,8.64569058 C133,8.20884324 132.777778,7.99041957 132.333333,7.99041957 L128.777778,7.99041957 C128.555556,7.7719959 128.333333,7.99041957 128.111111,8.42726691" id="Path" fill="#139AD6"></path>
                <path d="M24.2613206,2.56648266 C22.7845446,0.833648156 20.0419605,-0.0327690972 16.2445364,-0.0327690972 L5.69613614,-0.0327690972 C5.06323213,-0.0327690972 4.43032811,0.617043843 4.21936011,1.26685678 L0,29.6420218 C0,30.2918348 0.421936011,30.7250434 0.843872021,30.7250434 L7.38388019,30.7250434 L9.07162423,20.111432 L9.07162423,20.5446407 C9.28259223,19.8948277 9.91549625,19.2450148 10.5484003,19.2450148 L13.7129203,19.2450148 C19.8309925,19.2450148 24.4722886,16.645763 25.9490647,9.49782069 C25.9490647,9.28121638 25.9490647,9.06461206 25.9490647,8.84800775 C25.7380967,8.84800775 25.7380967,8.84800775 25.9490647,8.84800775 C26.1600327,6.03215168 25.7380967,4.29931717 24.2613206,2.56648266" id="Path" fill="#263B80"></path>
                <path d="M25.5410302,7.9047309 L25.5410302,7.9047309 C25.5410302,8.12151136 25.5410302,8.33829183 25.5410302,8.55507229 C24.0989501,15.925608 19.5666983,18.3101931 13.5923663,18.3101931 L10.5021946,18.3101931 C9.88416026,18.3101931 9.26612591,18.9605345 9.06011447,19.6108759 L7,32.8344841 C7,33.268045 7.20601145,33.7016059 7.82404579,33.7016059 L13.1803434,33.7016059 C13.7983777,33.7016059 14.4164121,33.268045 14.4164121,32.6177036 L14.4164121,32.4009231 L15.4464693,25.6807288 L15.4464693,25.2471679 C15.4464693,24.5968265 16.0645037,24.1632656 16.682538,24.1632656 L17.5065838,24.1632656 C22.65687,24.1632656 26.7770989,21.9954609 27.8071561,15.4920471 C28.219179,12.8906815 28.0131676,10.5060964 26.7770989,8.98863321 C26.5710874,8.55507229 26.1590646,8.12151136 25.5410302,7.9047309" id="Path" fill="#139AD6"></path>
                <path d="M24.1111111,8.54965278 C23.9012346,8.54965278 23.691358,8.33467882 23.4814815,8.33467882 C23.2716049,8.33467882 23.0617284,8.33467882 22.8518519,8.11970486 C22.0123457,7.9047309 21.1728395,7.9047309 20.1234568,7.9047309 L11.9382716,7.9047309 C11.7283951,7.9047309 11.5185185,7.9047309 11.308642,8.11970486 C10.8888889,8.33467882 10.6790123,8.76462674 10.6790123,9.19457465 L9,20.3732205 L9,20.8031684 C9.20987654,20.1582465 9.83950617,19.5133247 10.4691358,19.5133247 L13.617284,19.5133247 C19.7037037,19.5133247 24.3209877,16.9336372 25.7901235,9.83949653 C25.7901235,9.62452257 25.7901235,9.40954861 26,9.19457465 C25.5802469,8.97960069 25.3703704,8.76462674 24.9506173,8.76462674 C24.3209877,8.54965278 24.3209877,8.54965278 24.1111111,8.54965278" id="Path" fill="#232C65"></path>
            </g>
        </g>
    </g>
</svg>