<svg width="619px" height="779px" xmlns="http://www.w3.org/2000/svg" xmlns:xlink="http://www.w3.org/1999/xlink">
  <defs>
    <polygon id="a" points="0.998 165.511 0.998 394.674 286.749 229.695 286.136 13.746 286.1 0.907"/>
    <polygon id="c" points="0.998 165.511 0.998 394.674 286.749 229.695 286.136 13.746 286.1 0.907"/>
    <polygon id="e" points="0.998 165.511 0.998 394.674 286.749 229.695 286.136 13.746 286.1 0.907"/>
    <polygon id="f" points="0.998 165.511 0.998 394.674 286.749 229.695 286.136 13.746 286.1 0.907"/>
    <polygon id="g" points="0.998 165.511 0.998 394.674 286.749 229.695 286.136 13.746 286.1 0.907"/>
    <polygon id="h" points="0.998 165.511 0.998 394.674 286.749 229.695 286.136 13.746 286.1 0.907"/>
    <polygon id="i" points="0.998 165.511 0.998 394.674 286.749 229.695 286.136 13.746 286.1 0.907"/>
    <polygon id="k" points="0.998 165.511 0.998 394.674 286.749 229.695 286.136 13.746 286.1 0.907"/>
  </defs>
  <g transform="translate(-276 -69)" fill="none" fill-rule="evenodd">
    <polygon fill="#EFF0F5" points="0.998 874.075 1170.998 874.075 1170.998 0.807 0.998 0.807"/>
    <polygon fill="#F6F6F6" points="0.998 0.8068 0.998 798.9918 486.056 517.1058 487.52 0.8068"/>
    <polygon fill="#FFF" points="487.5195 0.8068 486.0555 517.1138 1104.3295 874.0748 1170.9975 874.0748 1170.9975 0.8068"/>
    <polygon fill="#EDEDED" points="0.998 799.0123 0.998 874.0753 1104.368 874.0753 486.086 517.1103"/>
    <g transform="translate(297 130.3)">
      <path d="M47.8 418.5c0 .3.3.4.5.3.2-.2.4-.5.4-.8v-2c0-.3-.2-.4-.4-.3a1 1 0 0 0-.5.8v2m-3.4 2c0 .3.2.4.5.3.2-.2.4-.5.4-.8v-2c0-.3-.2-.4-.4-.3a1 1 0 0 0-.5.8v2m7.2-5.2c0 3.2-2.3 7-5 8.7-2.8 1.6-5 .3-5-2.9 0-3.2 2.2-7 5-8.6 2.7-1.6 5-.3 5 2.8M47.8 404.4c0 .3.2.4.5.3.2-.2.4-.5.4-.8v-2c0-.3-.2-.4-.5-.3a1 1 0 0 0-.4.8v2m-3.4 2c0 .3.2.4.4.2.3-.1.5-.4.5-.7v-2c0-.3-.2-.5-.5-.3a1 1 0 0 0-.4.7v2m7.1-5c0 3.1-2.2 7-5 8.6-2.7 1.5-5 .3-5-2.9 0-3.2 2.3-7 5-8.6 2.8-1.6 5-.3 5 2.8" fill="#D5D5E3"/>
      <path d="M48.2 401.6c.3-.1.5 0 .5.3v2c0 .3-.2.6-.4.8-.3.1-.5 0-.5-.3v-2c0-.3.2-.7.4-.8M44.8 403.6c.3-.2.5 0 .5.2v2c0 .4-.2.7-.5.8-.2.2-.4 0-.4-.2v-2c0-.3.2-.7.4-.8M48.3 415.7c.2-.1.4 0 .4.3v2c0 .3-.2.6-.4.8-.2.1-.5 0-.5-.3v-2c0-.3.2-.6.5-.8M44.9 417.7c.2-.1.4 0 .4.2v2c0 .4-.2.7-.4.9-.3 0-.5 0-.5-.3v-2c0-.3.2-.7.5-.8" fill="#6E7388"/>
      <path d="M43.7 424.6h.9a3.9 3.9 0 0 0 1-.2 5.5 5.5 0 0 0 1-.4l1-.7a9.6 9.6 0 0 0 1.8-2l.7-1 .6-1.2.5-1.3.3-1.2a7.7 7.7 0 0 0 0-2.3 3 3 0 0 0-.7-1.5l-.2-.2-.5-.4 1.4.8c.2 0 .4.2.6.4l.1.2.2.2.2.4a3.7 3.7 0 0 1 .2.8v.2a5.7 5.7 0 0 1 .2 1 5.6 5.6 0 0 1 0 1l-.1.2a11.2 11.2 0 0 1-.3 1v.2a12.9 12.9 0 0 1-.3.8v.3l-.2.2a12.8 12.8 0 0 1-.2.5l-.2.3a12.1 12.1 0 0 1-.2.4 12.5 12.5 0 0 1-.7 1.1 9.2 9.2 0 0 1-.8 1l-.2.2a8.2 8.2 0 0 1-1.8 1.4h-.2l-.2.2h-.1a4.8 4.8 0 0 1-.5.2l-.2.1h-.2-.1v.1h-.3-.1-.4-.1-.1a2.4 2.4 0 0 1-.6-.1c-.2 0-.3 0-.4-.2l-1.5-.8a2.4 2.4 0 0 0 .7.3M53 402.5a6.8 6.8 0 0 1-.2.8 9.8 9.8 0 0 1-.2 1v.2l-.2.3v.3a12.2 12.2 0 0 1-.3.7 12.8 12.8 0 0 1-.4.8l-.2.3v.1a12.6 12.6 0 0 1-.8 1 12.5 12.5 0 0 1-.6.8c0 .1 0 .2-.2.3a11.3 11.3 0 0 1-.8.8H49l-.1.2a5.5 5.5 0 0 1-.9.5l-.2.2a5.8 5.8 0 0 1-.4.1l-.2.1-.2.1h-.2l-.2.1h-.1-.1l-.2.1h-1-.4v-.1l-.4-.2-1.4-.8a2.5 2.5 0 0 0 .7.3H45l.5-.2.5-.2.5-.2 1-.7a9.9 9.9 0 0 0 1.8-2 11.8 11.8 0 0 0 1.8-3.5l.3-1.2a7.5 7.5 0 0 0 0-2.3 3 3 0 0 0-.7-1.5v-.2l-.6-.5 1.4.9c.2 0 .4.2.5.4l.2.2.1.2a3 3 0 0 1 .4.9l.1.2v.2a6 6 0 0 1 .1 1 8.4 8.4 0 0 1 0 .5" fill="#CECEDD"/>
      <path d="M38.6 403a3.5 3.5 0 0 1 0-.5v-.1-.2l.1-.1v-.2l.1-.1v-.2l.1-.2v-.1l.1-.2v-.1a3.7 3.7 0 0 1 .2-.3l.1-.2.1-.2a7.6 7.6 0 0 1 .5-.7l.1-.1.1-.2.1-.1.2-.1a4.4 4.4 0 0 1 .5-.5l.1-.1a5.6 5.6 0 0 1 .4-.3h.1v-.1l10-5.7.2-.2h.2l.1-.1h.2a2 2 0 0 1 .2-.1h.2a2.2 2.2 0 0 1 .5 0 1.8 1.8 0 0 1 .5.2l1.4.8a1.5 1.5 0 0 0-.5-.2h-.4a2.4 2.4 0 0 0-.6.1l-.6.3-10 5.7-.5.4-.6.5-.5.7-.4.6-.4.7-.3.8-.2.7v25.8l.1.6a2.4 2.4 0 0 0 .2.6l.2.3.1.1.3.3-1.4-.8-.3-.3-.2-.2-.1-.2a2 2 0 0 1-.2-.5 1.3 1.3 0 0 1 0-.3 3.2 3.2 0 0 1 0-.4l-.1-25v-.2" fill="#CECEDD"/>
      <path d="M48 424.8a11 11 0 0 0 5-8.6c0-3.2-2.3-4.5-5-2.9a11 11 0 0 0-5 8.6c0 3.2 2.2 4.5 5 2.9zm0-14.1a11 11 0 0 0 5-8.6c0-3.2-2.3-4.5-5-2.9a11 11 0 0 0-5 8.6c0 3.2 2.2 4.5 5 2.9zm4.9-17.5c1.6-1 3-.2 3 1.7v25c0 2-1.3 4.2-3 5.2l-9.9 5.7c-1.6 1-3 .2-3-1.7v-25c0-2 1.3-4.2 3-5.2l9.9-5.7z" fill="#F8F8FC"/>
      <polygon fill="#D1CCD5" points="200.6916 485.8789 289.3586 434.3519 371.7776 481.9369 283.1106 533.4639"/>
      <polygon fill="#C3BEC9" points="200.9601 391.1729 289.6271 339.6459 289.3581 434.3519 200.6911 485.8789"/>
      <polygon fill="#D1CCD5" points="109.6403 328.1816 198.3063 276.6546 280.7253 324.2396 192.0593 375.7666"/>
      <polygon fill="#C3BEC9" points="109.9089 233.4648 198.5749 181.9378 198.3059 276.6538 109.6399 328.1818"/>
      <polygon fill="#D1CCD5" points="200.9894 380.9219 289.6554 329.3959 372.0744 376.9799 283.4084 428.5069"/>
      <polygon fill="#C3BEC9" points="201.258 286.2051 289.924 234.6791 289.655 329.3951 200.989 380.9221"/>
      <polygon fill="#F8F8FA" points="346.0812 487.041 346.0472 499.104 320.8452 484.555 320.8792 472.491"/>
      <polygon fill="#D1CCD5" points="383.381 591.3545 472.047 539.8275 554.466 587.4125 465.8 638.9395"/>
      <polygon fill="#C3BEC9" points="383.6486 496.6484 472.3156 445.1214 472.0466 539.8274 383.3806 591.3544"/>
      <polygon fill="#D1CCD5" points="292.3283 433.6572 380.9943 382.1302 463.4243 429.7202 374.7583 481.2472"/>
      <polygon fill="#F8F8FA" points="163.3918 381.5654 163.3578 393.6284 138.1558 379.0794 138.1898 367.0154"/>
      <path d="M163.4 393.6v-12L138.2 367v12l25.2 14.6zm-53.8-55.2L192 386l-.2 94.7-82.5-47.6.3-94.7z" fill="#FFC13D"/>
      <path d="M346 499.1v-12L321 472.4v12l25.1 14.6zm-53.7-55.2l82.4 47.6-.2 94.7-82.5-47.6.3-94.7z" fill="#53435A"/>
      <polygon fill="#F8F8FA" points="437.7278 434.8145 437.6938 446.8885 412.4918 432.3385 412.5258 420.2635"/>
      <polygon fill="#D5D5DE" points="475.3245 434.1709 563.9915 382.6439 563.3665 602.8279 474.7005 654.3559"/>
      <path d="M286.1 278.8c0 1.4-.9 2.7-2.6 3.7L232 312l.2 75.4 51.4-29.7c1.7-1 2.6-2.3 2.6-3.6l-.2-75.4z" fill="#7D7384"/>
      <polygon fill="#FFF" points="219.633 304.8809 219.846 380.2379 232.337 387.4959 232.123 312.1399"/>
      <path d="M219.6 304.9l12.5 7.2 51.4-29.6c3.4-2 3.5-5.3 0-7.3-3.4-2-9-2-12.5 0L219.6 305z" fill="#F6F5F7"/>
      <path d="M312.5 369.3l.1-.2.1-.2.1-.3.1-.2v-.3-.1-.4l-12.5-81.2v1.1l-.2.2v.2l-.2.3-.2.2-.2.2-.2.2-.3.2-.2.2-.3.3-.3.2-.5.3-51.3 29.6 12.5 81.2 51.4-29.7.2-.1.2-.2.3-.2a8 8 0 0 0 .6-.4l.2-.2.2-.2.2-.3.2-.2" fill="#53435A"/>
      <polygon fill="#FFF" points="234.2053 315.2344 246.7203 396.3854 258.9773 400.7854 246.4633 319.6334"/>
      <path d="M234.2 315.2l12.3 4.4 51.3-29.6c3.5-2 3.6-4.6.2-5.9a17 17 0 0 0-12.4 1.5l-51.4 29.6z" fill="#F6F5F7"/>
      <polygon fill="#C3BEC9" points="292.5969 338.9404 381.2629 287.4134 380.9939 382.1294 292.3279 433.6574"/>
      <polygon fill="#F3C659" points="375.9846 331.7832 369.3356 402.2342 313.4826 434.6922 320.1316 364.2412"/>
      <polygon fill="#FFF" points="378.6799 335.21 324.0539 366.956 320.1319 364.241 374.7589 332.496"/>
      <polygon fill="#F7E980" points="324.0549 368.5186 317.4059 438.9696 311.0289 434.5556 317.6779 364.1036"/>
      <polygon fill="#F3C659" points="381.134 335.3477 374.484 405.7987 317.405 438.9697 324.055 368.5187"/>
      <polygon fill="#FAE6BC" points="381.134 335.3477 324.055 368.5187 317.678 364.1037 374.757 330.9337 375.985 331.7837 320.132 364.2417 324.054 366.9557 378.68 335.2097 379.906 334.4977"/>
      <polygon fill="#FFF" points="382.3732 333.1309 331.9422 362.4389 328.0282 360.1789 378.4592 330.8709"/>
      <polygon fill="#A297F8" points="331.175 363.7539 330.937 447.8779 325.507 444.7429 325.745 360.6199"/>
      <path d="M385 333.4l-51.5 30-.8.4c-.4.2-1.1.2-1.5 0l-5.5-3.2c-.4-.2-.4-.6 0-.9l.8-.4 51.5-29.9 1.5.9-1 .6-50.5 29.3 4 2.2 51.4-29.9 1.5.9z" fill="#C5C3F4"/>
      <path d="M325.4 360.2l-.2 84.1c0 .2.1.3.3.4l.2-84-.3-.5M333.5 363.3l-.8.5-.8.1-.7-.1-.3 84a1 1 0 0 0 .3.2h.1a1.8 1.8 0 0 0 .2 0h.7l.3-.1.7-.5 51.5-29.9.2-84.1-51.4 30z" fill="#8279E5"/>
      <path d="M357.9 374.3c7.9-4.5 14.3-.9 14.3 8.2 0 9-6.3 20-14.2 24.6-7.9 4.6-14.3 1-14.3-8.1 0-9 6.3-20.1 14.2-24.7" fill="#94C242"/>
      <path d="M371.5 378l-.4-1.2-.2-.3-.4-.8-.4-.4-.3-.6-.5-.4-.4-.3-.6-.5-.3-.2-.7-.3c2.1 1.6 3.4 4.6 3.4 8.6l-.1 2.6v.6l-.3 1.1-.1.8-.2.7a27.6 27.6 0 0 1-.9 2.8l-.1.4-.7 1.6v.2a33 33 0 0 1-1.6 3l-.1.3-1 1.5-.2.4a36.7 36.7 0 0 1-2.3 3l-.6.7a30.6 30.6 0 0 1-3.4 3.2l-.4.3a22 22 0 0 1-4 2.4l-.5.2a13.6 13.6 0 0 1-3 .8h-.4a9 9 0 0 1-1 0h-1.2l-.3-.2a7 7 0 0 1-.8-.2h-.2l-.2-.1c.5.3 1.1.7 1.7.9h.2l.9.3h.1l1.2.2a9 9 0 0 0 2.7-.3 13.1 13.1 0 0 0 2.3-.8l1.6-.7.2-.2c.8-.4 1.5-1 2.1-1.4l.5-.4a26.5 26.5 0 0 0 3.3-3.1l.7-.8a32.3 32.3 0 0 0 2.3-3c0-.2.1-.2.2-.3a35.5 35.5 0 0 0 1.8-3.1l.2-.4a35 35 0 0 0 1.3-3.1l.2-.5.4-1.1a22 22 0 0 0 .4-1.6l.2-.8.2-.7a26 26 0 0 0 .2-1.2v-.6l.2-2.5c0-1.7-.2-3.2-.7-4.5" fill="#CBCDDC"/>
      <polygon fill="#FFF" points="379.6252 360.6963 339.4212 384.0593 336.3012 382.2583 376.5052 358.8943"/>
      <polygon fill="#FFF" points="338.8098 385.1094 338.6198 452.1734 334.2908 449.6744 334.4808 382.6104"/>
      <path d="M381.7 361l-41 23.8-.7.3c-.3.2-.9.2-1.2 0l-4.3-2.5c-.4-.2-.3-.5 0-.7l.6-.3 41-23.9 1.2.7-.8.5-40.2 23.4 3.1 1.8 41-23.9 1.3.7z" fill="#CBCDDC"/>
      <path d="M334.2 382.3l-.2 67c0 .2.1.3.3.4l.2-67-.3-.4M340.6 384.8l-.6.3-.6.2c-.2 0-.4 0-.6-.2l-.2 67a1 1 0 0 0 .4.2h.2a1.5 1.5 0 0 0 .4 0l.2-.1.6-.4 41-23.8.3-67-41 23.8z" fill="#E8E8F0"/>
      <path d="M360.1 393.5c6.3-3.6 11.4-.7 11.4 6.6 0 7.2-5 16-11.3 19.6-6.3 3.6-11.4.7-11.4-6.5s5-16 11.3-19.7" fill="#94C242"/>
      <path d="M371 396.5v-.1l-.4-1-.1-.2-.4-.6-.2-.3-.3-.4-.4-.4-.3-.3-.5-.3-.2-.2-.6-.2c1.7 1.3 2.7 3.6 2.8 6.9 0 .6 0 1.3-.2 2v.5l-.2.9-.1.6-.2.6c0 .2 0 .5-.2.8l-.1.4-.3 1-.2.3-.5 1.3v.1a25.9 25.9 0 0 1-1.3 2.5v.2l-.8 1.2-.2.3a27 27 0 0 1-5 5.5l-.3.2a16.9 16.9 0 0 1-3.2 2l-.5.1a10.3 10.3 0 0 1-2.3.6h-1.1-.2a6 6 0 0 1-.8 0h-.2l-.6-.3h-.2l-.2-.1 1.4.8h.1a6 6 0 0 0 1.7.3h.1a7.1 7.1 0 0 0 2.2-.2c.2 0 .4 0 .6-.2a11.7 11.7 0 0 0 2.4-1l.2-.1 1.7-1.2.4-.2a20.4 20.4 0 0 0 3.1-3.1l.4-.5a26.2 26.2 0 0 0 1.5-2l.1-.2.8-1.3a29 29 0 0 0 1.4-2.6v-.1l.5-1.3.1-.4.3-.9.2-.4.2-.8.1-.6.2-.6.1-1v-.4c.2-.7.2-1.4.2-2 0-1.4-.2-2.6-.5-3.6" fill="#CBCDDC"/>
      <polygon fill="#FFF" points="386.6496 380.1055 351.7956 400.3605 344.6866 396.2565 379.5416 376.0015"/>
      <polygon fill="#BAABE1" points="351.8127 402.0586 351.6507 459.5556 341.5917 453.7486 341.7547 396.2516"/>
      <polygon fill="#AF9CE0" points="389.0978 380.3906 388.9348 437.8886 351.6508 459.5556 351.8128 402.0586"/>
      <polygon fill="#E0D1FA" points="389.0978 380.3906 351.8128 402.0586 341.7548 396.2516 379.0398 374.5836 380.5148 375.4356 344.6868 396.2566 351.7948 400.3606 386.6498 380.1056 387.6228 379.5396"/>
      <polygon fill="#F8F8FA" points="101.0173 218.0645 189.6833 166.5375 563.9913 382.6435 475.3243 434.1705"/>
      <path d="M437.7 446.9v-12l-25.2-14.6v12l25.2 14.6zm-53.8-55.2l82.5 47.6-.3 94.7-82.4-47.6.2-94.7z" fill="#FF7260"/>
      <path d="M191.8 480.7l.2-94.7-82.4-47.6-.3 94.7 82.5 47.6zm91.3 52.8l.3-94.7-82.4-47.6-.3 94.7 82.4 47.6zm182.7 105.4l.3-94.7-82.5-47.6-.2 94.8 82.4 47.5zM192.1 375.8l.2-94.8-82.4-47.5-.3 94.7 82.5 47.6zM466 534l.3-94.7-82.5-47.6-.2 94.7L466 534zM283.4 428.5l.3-94.7-82.4-47.6-.3 94.7 82.4 47.6zm91 157.7l.3-94.7-82.4-47.6-.3 94.7 82.5 47.6zm.4-105l.2-94.7-82.4-47.6-.3 94.8 82.5 47.5zM101 218.1l374.3 216-.6 220.3-374.3-216.2.6-220.1z" fill="#E3E4EA"/>
      <polygon fill="#9F7E7F" points="197.4177 196.3291 201.8937 186.5241 189.4577 179.3451 172.5517 181.9741 168.0687 191.7741 180.5047 198.9541"/>
      <polygon fill="#E8E8F0" points="199.6613 197.625 199.5953 221.03 204.8803 209.455 204.9463 186.051"/>
      <polygon fill="#CFD1DE" points="179.6965 200.7236 165.0235 192.2526 164.9575 215.6586 179.6305 224.1286"/>
      <polygon fill="#D9DBE6" points="199.6613 197.625 179.6963 200.724 179.6303 224.129 199.5953 221.03"/>
      <path d="M172.6 182l16.9-2.7 12.4 7.2-4.5 9.8-16.9 2.7-12.4-7.2 4.5-9.8zm7.1 18.7l20-3 5.2-11.6-14.6-8.5-20 3-5.3 11.7 14.7 8.4z" fill="#FFF"/>
      <path d="M193.3 192.5c2.6 1.2 4.6-1.2 5.6-4.5s5.3-19.4 4.1-20.3c-1.2-.8-15.7 22-9.7 24.8" fill="#6BAC34"/>
      <path d="M183.6 192.8c2.8.6 4.2-2.2 4.3-5.7.2-3.4.7-20.2-.6-20.7-1.4-.5-10.2 25-3.7 26.4" fill="#70B438"/>
      <path d="M167.7 169.6c-1.4.3 4.8 19.3 8 19 7.3-1.7-4.3-19.5-8-19" fill="#63A62C"/>
      <path d="M165.8 177.8c-1.3.5 9.4 17.5 12.4 16.4 6.7-3.4-9-17.9-12.4-16.4" fill="#71BD30"/>
      <path d="M179.4 195.2c3.2-.2 3.7-4.6 3.2-9.1-.5-4.4-2.5-35.7-4.6-35.7-2.2-.1-7 45.5 1.4 44.8M187.7 193.9c3.4 1.3 5.7-2 6.7-6.2 1-4.3 5.3-25.3 3.7-26.3-1.5-1-18.3 29.3-10.4 32.5" fill="#82C14B"/>
      <path d="M535.1 597l-.5.6-.3.4a13.2 13.2 0 0 0-1.2 2.2l-.3.8-.3.9-.1.7-.1 1c-.2 1.2 0 2.4.3 3.7 1-3.5 3.7-6.8 8.3-9.5a46.5 46.5 0 0 1 42.2 0c4.6 2.7 7.4 6 8.4 9.6.2-1 .4-2 .4-2.8v-.6-.3l-.2-.8v-.2a11.4 11.4 0 0 0-.8-2.6c-.3-.7-.7-1.3-1.2-2l-.7-1-.6-.6v-.1a20 20 0 0 0-2.7-2.4 25.2 25.2 0 0 0-6.7-3.7l-.4-.1c-1-.5-2.1-.8-3.2-1.1l-1-.3-1.9-.5a58.9 58.9 0 0 0-5.6-.8 48.3 48.3 0 0 0-4.3-.3 52.2 52.2 0 0 0-5 .2h-1l-3.4.6-1.1.2-1.7.3-.6.2-.5.2-1.6.4c-.3 0-.5.2-.8.3l-2.4.9-.4.2-.4.1-2.8 1.5-1.2.7-1 .7-1 .7-.8.7-.5.5-1.3 1.4z" fill="#FFCCD4"/>
      <path d="M590.2 628.6l-1.3.8-1 .6a36 36 0 0 1-3.8 2l-1 .4-2.8 1.1-.6.3h-.5l-1.8.6-1.4.4-2 .4-1.2.3h-.2l-4 .5h-.3l-1 .2-2.5.1h-7l-.8-.1-.8-.1-1.8-.2-.9-.1-.7-.1-2-.4-.8-.1-.6-.2-2.3-.5-.9-.3h-.3l-3.9-1.4h-.2l-1.6-.7-.9-.4a36.5 36.5 0 0 1-5.9-3.6l3.2 30.7c0 3.8 2.5 7.6 7.5 10.5 10 5.7 26 5.7 36 0 5-2.9 7.4-6.7 7.4-10.4l3-30.7-.3.4" fill="#F3BAC3"/>
      <path d="M583 597.8a46.5 46.5 0 0 0-42.1 0c-4.6 2.7-7.4 6-8.3 9.5 1 3.4 3.8 6.8 8.4 9.4a46.5 46.5 0 0 0 42.2 0c4.6-2.6 7.3-6 8.3-9.3-1-3.5-3.8-7-8.4-9.6" fill="#53273F"/>
      <path d="M598 605.6l-.2 1.2-.2.8-.3 1.2-.4.8-.5 1.2-.5.7-.9 1.3-.4.6-1.7 1.8-1.7 1.5-.5.4-1.8 1.2-1.3 1a40.3 40.3 0 0 1-7.3 3.2l-.5.1-2.4.7-.3.1c-1.2.4-2.5.6-3.7.9l-.7.1-5 .7h-.4l-2.4.2h-.4a60.8 60.8 0 0 1-4.8 0l-5.3-.5-1.6-.2-1.9-.3a59.3 59.3 0 0 1-4.3-1l-.7-.2a46.8 46.8 0 0 1-5.6-2 37.8 37.8 0 0 1-6.4-3.7l-.8-.6a25.3 25.3 0 0 1-3.6-3.6l-.6-.6-1.3-2.2a14 14 0 0 1-.8-1.8l-.1-.5a13 13 0 0 1-.4-1.3v-.5l-.2-1.6v-.2-.1 11c0 4.5 2.4 9 7.3 12.7a30.4 30.4 0 0 0 5.9 3.6l1 .4 1.5.7h.2c1.3.5 2.6 1 4 1.3l.2.2 1 .2 2.2.5.6.2.9.1 1.9.4h.7l.9.2 1.8.2h.8l.8.1 1.9.1h5.1l2.5-.1 1-.1h.3l4-.6h.2l1.2-.3 2-.4 1.4-.4 1.8-.5.5-.1.6-.3 2.8-1 1-.5a37.7 37.7 0 0 0 3.9-2l.9-.6 1.3-.8.4-.4.6-.4 1-1 .3-.1.4-.4 1.5-1.7.3-.3.3-.4.8-1.2.4-.6.1-.2.5-1.2.3-.6.1-.2.3-1.1.2-.7v-.2l.2-1.2v-.7-11.3 1" fill="#FACBD2"/>
      <path d="M536.4 595.6l.5-.5c.8-.7 1.8-1.4 2.8-2 .4-.3.7-.6 1.2-.8l2.8-1.4.4-.2 2.8-1.1.8-.3 2-.6.7-.2c.6 0 1.1-.2 1.7-.3l1.1-.2a49 49 0 0 1 3.4-.5l1-.1a51.9 51.9 0 0 1 16.8 1.4l1 .3 3.2 1 .4.2a32.4 32.4 0 0 1 7.2 4.2c.8.6 1.6 1.3 2.2 2l.6.6.7 1a13 13 0 0 1 2 4.8l.1.8v.9c0 .9 0 1.8-.3 2.8-1 3.4-3.7 6.7-8.3 9.3a46.5 46.5 0 0 1-42.2 0c-4.6-2.6-7.4-6-8.4-9.4-.3-1.3-.5-2.5-.3-3.8v-.9l.2-.7.3-1 .3-.7.4-.9.8-1.3.3-.4a15.2 15.2 0 0 1 1.8-2m-10.3 9.1l.1 1.6.1.5.4 1.3.1.5a14.3 14.3 0 0 0 2.1 4l.6.6a20.2 20.2 0 0 0 3.6 3.6l.8.6a31 31 0 0 0 8.2 4.4l3.8 1.3.7.2a52.5 52.5 0 0 0 17.9 2h.4l2.4-.2h.4a59 59 0 0 0 5-.7l.7-.1c1.2-.3 2.5-.5 3.7-.9h.3a48 48 0 0 0 2.4-.8l.5-.1c2.6-1 5-2 7.3-3.3l1.3-.9a29 29 0 0 0 1.8-1.2l.5-.4 1.7-1.5 1.7-1.8.4-.6.9-1.3.5-.7.5-1.2.4-.8.3-1.2.2-.8.1-1.2c.5-5.7-3-11.5-10.5-15.8a56 56 0 0 0-50.9 0c-7 4-10.4 9.3-10.4 14.7v.2" fill="#FFF"/>
      <path d="M567.1 464.6s22.4 38 21.8 78.7c-.7 40.8-7.7 67.6-12.4 68.3-4.8.6-4.1-4-3.3-6a306 306 0 0 0 9.9-64c-2.4-28.4-8.8-59-16-77M512.9 509.8s59 29.1 56.1 96.3l-4.4 5s7.6-56.6-51.7-101.3" fill="#7CB24B"/>
      <path d="M564 612.8s5.3 3.3 6.9-4c1.5-7.3 14-52.6 38.6-73.6-6.4 2.2-33.6 32-43.2 65-3.7 10.8-2.3 12.6-2.3 12.6M554.2 611.4s-12.2 4.5-15.9-30.7c-3.7-35.3 36.6-43.5 27.1-89.6 4.5 7.1 8.2 34.3-10.8 62.4-7.8 10.5-11 28.2-.4 57.9" fill="#538526"/>
      <path d="M521.7 454.8s19 79 20 100c1 21.1 9.8 64.5 18.7 61.1.6-9.4-11.2-33.9-13-55.2-1.6-21.4-17.2-89.6-25.7-105.9" fill="#A1E36E"/>
      <path d="M601.6 498a71.4 71.4 0 0 0-13.4 16 127.3 127.3 0 0 0-19 50.7c-2.3 15-2.3 30-.8 45 0 .7 1.6.3 1.5-.3-2.8-28.7.2-58.5 13.4-84.5a83.8 83.8 0 0 1 19.2-26.2c.8-.7-.4-1-1-.6" fill="#538526"/>
      <path d="M597.6 501.2a2 2 0 1 1-4 0 2 2 0 0 1 4 0M595.8 510a2 2 0 1 1-4 0 2 2 0 0 1 4 0M587 514.6a2.2 2.2 0 1 1-4.5 0 2.2 2.2 0 0 1 4.5 0M587.3 524.3a2.2 2.2 0 1 1-4.5 0 2.2 2.2 0 0 1 4.5 0M578.8 529.3a3 3 0 1 1-6 0 3 3 0 0 1 6 0M581 542.4a3 3 0 1 1-6 0 3 3 0 0 1 6 0" fill="#F8F8FA"/>
      <path d="M502.6 543c8.1 2 16 6.9 22.5 11.9 18.6 14 31 34.4 38.8 56 .2.5 1.4.1 1.2-.3-7.8-21.5-20-41.7-38.3-55.8a66.7 66.7 0 0 0-23.5-12.6c-.4-.1-1.4.6-.7.7" fill="#538526"/>
      <path d="M500.8 543a1.4 1.4 0 1 0 2.5-1.2 1.4 1.4 0 0 0-2.5 1.2M507 543a1.6 1.6 0 1 0 3-1.3 1.6 1.6 0 0 0-3 1.4M511.4 548.7a1.6 1.6 0 1 0 2.8-1.4 1.6 1.6 0 0 0-2.8 1.4M519.3 549a1.8 1.8 0 1 0 3.2-1.5 1.8 1.8 0 0 0-3.2 1.5M522.3 556a1.8 1.8 0 1 0 3.3-1.5 1.8 1.8 0 0 0-3.3 1.5M530.2 556.7a2.4 2.4 0 1 0 4.3-2 2.4 2.4 0 0 0-4.3 2M533 566.9a2.4 2.4 0 1 0 4.4-2.1 2.4 2.4 0 0 0-4.3 2" fill="#F8F8FA"/>
      <path d="M560.4 616c4.8 1.8 6.7-14.4 6.7-41.6 0-27-9.5-68.7-12.6-82.5-3.2-13.8-3.9-34-2.5-43.9-3.2 3.9-6.1 29.9-2.7 47.5 3.4 17.7 10.1 49.8 10.6 65 .5 15-5.7 53 .5 55.4" fill="#7CB24B"/>
      <path d="M239.2 595c8.6-.3 18.4-3.6 24-7.1a36 36 0 0 1 13.6-5.6c3.2-.4 10.5-4.5 13.4-10.5l-2.1-14-24-2.2s-4.6 11.3-16.8 17.7c-11.7 6.3-18 10.3-18.7 18.5 1.9 1.5 5.3 3.5 10.6 3.3" fill="#AB6F75"/>
      <path d="M290.2 571.8c-2.9 6-10.2 10-13.4 10.5a36 36 0 0 0-13.5 5.6 55.2 55.2 0 0 1-24.1 7.2c-5.3.2-8.7-1.8-10.6-3.3v.8c0 3.9 9.4 8.9 30.9 0 7.3-3 6.3-5.3 18.3-8 8.1-2.4 13.1-8.4 12.8-10l-.4-2.8" fill="#824D5C"/>
      <path d="M325.8 330.7s2.9 18-2.1 38.2c-5 20.3-20.7 85.2-22.3 92.5-1.7 7.3-13.3 96.5-13.3 96.5s-15.7 5-26-3.7c2.7-25.3 7.3-91.8 10-100.8s13.3-82.5 13.3-82.5l-36.2-54.8 76.6 14.6z" fill="#95B6F0"/>
      <polygon fill="#83A2DF" points="274.5847 440.9678 292.6687 523.1058 291.5917 531.2008 287.0297 509.1838 282.3237 484.5738"/>
      <path d="M261.8 587a31.3 31.3 0 0 0 14.2-15.2c1.8-3.5 7.4-9.5 12.9-13.7 2.5-2 4-5.1 5.1-8-.8-2-1.5-3.4-2-5.4l-2.6-16.3-22.3 9.9s-4.3 17.7-11 26.1c-6 7.6-11 15.8-8 23.3 0 0 5.2 3.3 13.7-.8" fill="#AB6F75"/>
      <path d="M288.9 558.1a52.7 52.7 0 0 0-13 13.7c-1.7 3.6-5.6 11-14.1 15.1s-13.8.8-13.8.8c.3.8.7 1.6 1.2 2.3 2 2 8.5 3.7 20.4-4.3 4.8-3.9 9.5-16 12-18 2.6-2 13.4-9.7 13.4-15.3l-1-2.3c-1 2.9-2.6 6-5.1 8" fill="#824D5C"/>
      <path d="M249.2 316.1s-9.4 46.5-5.7 111.7c1.7 20.3 23.6 110.5 23.6 110.5s14.4 3.8 24.5-7.1c-6.5-29.2-19.2-100-19.2-105s13-55.3 13-55.3l-36.2-54.8z" fill="#95B6F0"/>
      <path d="M277.3 403.5s5.7-32.4-.8-46l9 13.4-8.2 32.6z" fill="#83A2DF"/>
      <path d="M255 265s-2 .4-4 2.2a13.7 13.7 0 0 0-4.2 8c-.5 2.8 1 5.3 3.4 7.3l4.4 1.2c7 1.6 17.5 3.2 33.9 5.1 1.5-5.5 1.8-14 1.8-14L255 265z" fill="#FFC1CB"/>
      <path d="M255.4 229.4s-5.7 30.5-6.1 33.6c-.3 1.8.7 3.3 1.7 4.2 2-1.8 4-2.1 4-2.1l.4-35.7zM325.8 330.7s2-19 2-28.8c.2-9.7 3.6-25.5 3.6-25.5l-3.9-9.8-36.1 34s4.7 7.8 14.1 4.1c9.4-3.7 20.6-15 20.6-15s-1 28.2-3 43.8c2-1.6 2.7-2.8 2.7-2.8" fill="#35395E"/>
      <path d="M305.5 304.7c-9.4 3.7-14.1-4-14.1-4l36.1-34.1-16-40.4-28-22.6s-14.7-6.5-21.2-3.2-26.1 60.2-22.3 73.9c1.2 3.2 1.7 5.7 10.2 8.2-2.4-2-4-4.5-3.4-7.4.8-4 2.5-6.4 4.2-7.9-1-1-2-2.4-1.7-4.2.4-3.1 6-33.6 6-33.6l-.3 35.7 35.3 9.7s-.3 8.5-1.8 14c-16.4-1.9-27-3.5-34-5.1l-.1 1.7c-1 8.8-4 24.2-5.2 30.7 1.9 6.7 15.7 16.7 26.9 20.1 29.5 6.3 42 1 47-2.7 2-15.6 3-43.8 3-43.8s-11.2 11.3-20.6 15" fill="#4B4E85"/>
      <path d="M311.8 221.6c-1 4.7-7.2 7.4-13.6 6-6.4-1.6-10.7-6.6-9.6-11.4 1.1-4.8 7.2-7.5 13.6-6 6.4 1.5 10.7 6.6 9.6 11.4" fill="#F192A5"/>
      <path d="M322.5 202.1s17-15.5 6.7-29.2c.5-4.7-.9-16.1-22.8-18.7-22-2.5-21 15.7-21 15.7l37 32.2z" fill="#241E47"/>
      <path d="M286.5 166.3s-4 11.7-3.8 18.6c-1 4.9-5.1 20.7 3.8 29.5 4.4 3 20.2 3 30-7.6 5.2 0 8.7-1.8 8.9-6.9.1-3.3-4.5-4-6-2-.7-1.6-4-9.6-2.4-17.5-4 1.2-11.7 1-16.2-3.6-4.6-4.7-8.4-16-14.3-10.5" fill="#FFC1CB"/>
      <path d="M332.3 195.6l-.6-1a2 2 0 0 0-1.2-.8l-9.5-2c-1.4-.3-3.3.6-4.1 1.9l-11.1 17.8c-.5.7-.5 1.5-.2 2l.7 1.2.4-.3h.2l9.4 2c1.5.4 3.3-.5 4.2-1.8l11-17.8c.2-.3.4-.6.4-.9l.4-.3z" fill="#121633"/>
      <path d="M317 217.4l-9.5-2c-1.4-.3-2-1.6-1.1-3l11.1-17.7a4.3 4.3 0 0 1 4.2-2l9.4 2c1.4.4 2 1.7 1 3l-11 17.9a4.3 4.3 0 0 1-4.2 1.8" fill="#2A2944"/>
      <path d="M343.5 246.8c-1.6-4.7-13.2-15.3-22.8-23.5a18.2 18.2 0 0 0-3.7 4.7c-.6 1.8-3.8 20.5-6 34.4l9.4-9.3-6.7 11.8c1.9 0 4 .5 5 1.8.4.9-.6 3.4-3.2 3 .2 1.3.5 4.6-.8 5.2-1.2.5-3.3.3-3.5-1.8 0-1.1-.4-1.9-.9-2.4l-1 1.9-.8 4.7s-2.2 3.3-7.8 3.5c-8.9-.3-10.4-6-10.4-6-3.4 15-2 27.7 5 27.7 27.4-.6 50.8-47.5 48.2-55.7" fill="#4B4E85"/>
      <path d="M331 194c-1.5 0-2.8 1.8-4.4 5.4.2-5-1.7-7.4-2.9-7-1.1.3-1.5 1.2-1 3.7.7 2.5.1 6.9-.6 9-.4-2.9-1.5-4.7-2.5-6.7s-3.2-2-4-1.3c-.8.8-.2 1.7 1.5 4.3 1.8 2.5 1.5 6.1.7 7.2-.4-.6-2.9-2.4-6-3-3.2-.4-3.5 2.1-2.3 2.5 4.7 1.6 5.7 2.8 4.7 4.5-1.1.9-2.1 1.8-3 2.8-4.9 5.5-6.6 13-6.6 13l-14.3 46.4s1.5 5.7 10.4 6c5.6-.2 7.8-3.5 7.8-3.5l.8-4.7.3-2.4.9-5.1.4-2.7c2.3-13.9 5.5-32.6 6.1-34.4.4-1.2 2-2.9 3.7-4.7 2.7-2.8 5.9-6 6-7.9.4-3 2.4-11.6 2.8-13.8.3-2.2 2.7-5.4 3-6.1.4-.8.1-1.5-1.4-1.5" fill="#FFC1CB"/>
      <path d="M311 262.4l-.5 2.7 3.2-.2 6.7-11.8-9.5 9.3zM309.3 272.6l1-1.9-.7-.5-.3 2.4" fill="#35395E"/>
      <path d="M318.7 266.7c-1-1.3-3.1-1.7-5-1.8-1.3 0-2.4 0-3.2.2l-.9 5.1.7.5c.5.5.8 1.3.9 2.4.2 2 2.3 2.3 3.5 1.8 1.3-.6 1-4 .8-5.3 2.6.5 3.6-2 3.2-3" fill="#F192A5"/>
      <path d="M3.1 51.5a4 4 0 0 0 .7.3l.4.1a5.4 5.4 0 0 0 .8.2H5.8a6.1 6.1 0 0 0 1.4-.1h.1l.6-.2.6-.3 11.7-6.7c.7-.4 1-1 1-1.6l.2 35.6c0 .5-.4 1.1-1.1 1.6L8.6 87l-.5.2H8l-.4.2h-.4a6 6 0 0 1-.3.1h-.4l-.4.1H6h-.1H5h-.3l-.1-.1-.4-.1H4l-.2-.1h-.1l-.6-.3-2.7-1.6V49.9L3 51.5z" fill="#312783"/>
      <path d="M.4 50l2.7 1.5a6 6 0 0 0 5.4 0l11.7-6.7c1.5-.9 1.5-2.3 0-3.1L17.5 40l-17 9.8z" fill="#FFF"/>
      <path d="M3.2 70.8a6 6 0 0 0 5.4 0L20.2 64c.7-.3 1-.9 1.1-1.4v16.2c0 .5-.3 1.1-1 1.6L8.6 87a4 4 0 0 1-.5.2H8l-.4.2h-.4a6 6 0 0 1-.3.1h-.4l-.4.1H6h-.1H5h-.3l-.1-.1-.4-.1H4l-.2-.1h-.1l-.6-.3-2.7-1.6V69.2l2.7 1.6z" fill="#009FE3"/>
      <path d="M13.8 55.2a5.1 5.1 0 0 0-2.4 4c0 1.5 1.1 2 2.4 1.3a5.1 5.1 0 0 0 2.3-4c0-1.5-1-2-2.3-1.3" fill="#FFF"/>
    </g>
    <g transform="translate(0 155.3)">
      <mask id="b" fill="#fff">
        <use xlink:href="#a"/>
      </mask>
      <polygon fill="#DDDFE8" mask="url(#b)" points="281.7297 226.8398 257.3957 212.6988 256.7797 -4.6012 281.1137 9.5398"/>
    </g>
    <g transform="translate(0 155.3)">
      <mask id="d" fill="#fff">
        <use xlink:href="#c"/>
      </mask>
      <polygon fill="#EFF0F5" mask="url(#d)" points="88.4357 338.4385 64.1017 324.2965 257.3957 212.6995 281.7297 226.8395"/>
    </g>
    <g transform="translate(0 155.3)">
      <mask id="j" fill="#fff">
        <use xlink:href="#i"/>
      </mask>
      <polygon fill="#EFF0F5" mask="url(#j)" points="-115.49 232.7656 -139.824 218.6236 261.766 -13.2334 286.1 0.9076"/>
    </g>
    <g transform="translate(0 155.3)">
      <mask id="l" fill="#fff">
        <use xlink:href="#k"/>
      </mask>
      <path d="M281.7 226.8l-.6-217.3L87.8 121.1l.6 217.3 193.3-111.6zM83.4 341.3L82.8 124l-193.3 111.6.6 217.3L83.4 341.3zm-198.9-108.5L286.1.9l.6 228.8-401.5 231.9-.7-228.8z" fill="#FFF" mask="url(#l)"/>
    </g>
    <g>
      <path d="M748.7 165.2c.5.3 1 0 1-.5a2 2 0 0 0-1-1.6c-.5-.3-1-.1-1 .5a2 2 0 0 0 1 1.6zm7 12.2c.5.3 1 0 1-.5a2 2 0 0 0-1-1.7c-.5-.3-1 0-1 .6a2 2 0 0 0 1 1.6zm7.1-4c.5.3 1 0 1-.6a2 2 0 0 0-1-1.6c-.5-.3-1 0-1 .5a2 2 0 0 0 1 1.7zm-7-14.4c-.5-.3-1 0-1 .6a2 2 0 0 0 1 1.6c.5.3 1 0 1-.6a2 2 0 0 0-1-1.6zm5.6 6l-.6-.7c-.3-.2-.5-.2-.7 0-.4.1-.4.8 0 1.4.2.4.4.6.7.7.2.2.4.2.6.1.4-.2.4-.9 0-1.5zm-11.3-5l.7.7c.2.1.5.2.6 0 .4-.2.4-.9 0-1.5a2 2 0 0 0-.6-.7c-.3-.1-.5-.2-.7 0-.4.2-.4.8 0 1.5zm10 17.2c.1.3.4.6.6.7.3.2.5.2.7 0 .4-.1.4-.8 0-1.5l-.7-.7h-.6c-.4.2-.4.9 0 1.5zm-10-5.8l.6.8h.7c.4-.2.4-.9 0-1.5-.2-.3-.4-.6-.7-.7-.2-.2-.4-.2-.6 0-.4.1-.4.8 0 1.4zm5.6 1.7c2.4 1.3 4.3.2 4.3-2.4 0-2.7-1.9-6-4.2-7.4-2.4-1.3-4.3-.2-4.3 2.5s1.9 6 4.2 7.3zm107.9 62.3c2.3 1.3 4.2.2 4.3-2.5 0-2.7-2-6-4.3-7.3-2.3-1.3-4.2-.2-4.2 2.4 0 2.7 1.9 6 4.2 7.4zm-95.7-59l25.6 14.7a5.8 5.8 0 0 0 2.5 3.3c1 .7 2 .4 2.4-.5l56.1 32.4c.5.3 1 0 1-.5a2 2 0 0 0-1-1.6l-56-32.4a5.8 5.8 0 0 0-2.5-3.4c-1.1-.6-2-.4-2.5.5L768 174.2c-.5-.3-.9 0-1 .5a2 2 0 0 0 1 1.6zm96.5 39.4a29 29 0 0 1 13.2 22.7c0 8.4-6 11.8-13.2 7.6l-110.2-63.6a29 29 0 0 1-13-22.7c0-8.4 5.9-11.8 13.1-7.6l110.1 63.6z" fill="#F6F6F6"/>
      <path d="M863.6 225.6a9.3 9.3 0 0 1 4.3 7.3c0 2.7-2 3.8-4.3 2.5a9.3 9.3 0 0 1-4.2-7.4c0-2.6 1.9-3.7 4.2-2.4M755.8 161.2a2 2 0 0 1-1-1.6c0-.6.5-.9 1-.6.5.3 1 1 1 1.6 0 .6-.5.9-1 .6M761.4 166.5h-.6a2 2 0 0 1-.7-.8c-.4-.6-.4-1.3 0-1.5h.7l.6.8c.4.6.4 1.3 0 1.5M750 170c.3-.2.5-.2.7 0 .3.1.5.4.7.7.4.6.4 1.3 0 1.5h-.7a2 2 0 0 1-.6-.8c-.4-.6-.4-1.3 0-1.5M751.4 160.7c-.1.2-.4.1-.6 0a2 2 0 0 1-.7-.7c-.4-.7-.4-1.3 0-1.6l.7.1c.2.2.5.4.6.7.4.6.4 1.3 0 1.5M760 175.7h.7l.7.7c.4.7.4 1.4 0 1.6h-.7a2 2 0 0 1-.6-.8c-.4-.6-.4-1.3 0-1.5M755.8 163.3a9.3 9.3 0 0 1 4.2 7.4c0 2.6-2 3.7-4.3 2.4a9.3 9.3 0 0 1-4.2-7.3c0-2.7 2-3.8 4.3-2.5M755.7 175.2c.6.3 1 1 1 1.7 0 .6-.5.8-1 .5a2 2 0 0 1-1-1.6c0-.6.5-.9 1-.6M762.8 171.2c.5.3 1 1 1 1.6 0 .6-.5.9-1 .6a2 2 0 0 1-1-1.7c0-.6.5-.8 1-.5M748.7 163c.5.4 1 1 1 1.7 0 .6-.5.8-1 .5a2 2 0 0 1-1-1.6c0-.6.5-.8 1-.5M796 188.4c-1.1-.6-2-.4-2.5.5l-.2 1 .2 1.2a5.8 5.8 0 0 0 2.5 3.3c1 .7 2 .4 2.4-.5l.2-1c0-.3 0-.7-.2-1.1a5.8 5.8 0 0 0-2.4-3.4" fill="#F6F6F6"/>
      <path d="M768 174.2l25.5 14.7-.2 1 .2 1.2-25.6-14.8a2 2 0 0 1-1-1.6c.1-.6.5-.8 1-.5M798.4 191.8l56.1 32.4c.5.3 1 1 1 1.6 0 .6-.5.8-1 .5l-56-32.4.1-1c0-.3 0-.7-.2-1.1" fill="#F6F6F6"/>
      <path d="M733.5 253a23.7 23.7 0 1 1-47.3 0 23.7 23.7 0 0 1 47.3 0" fill="#FFCD5E"/>
      <path d="M731.5 242.6c-.4-2.6-1.6-8.2-4.7-13.2-4.2-6.8-4-11.8-4-11.8 0-2-1.3-3.9-3.9-5.3-5-3-13.2-3-18.2 0-2.6 1.4-3.8 3.3-3.8 5.3 0 0 .1 5-4.1 11.8a36 36 0 0 0-4.6 13c-.9 3.8 1.2 7.8 6.2 10.7a34 34 0 0 0 31 0c4.9-2.8 6.9-6.7 6-10.5" fill="#2F2F2F"/>
      <path d="M718.3 206.2c0 1.3-.9 2.5-2.5 3.5-3.3 1.9-8.6 1.9-12 0-1.6-1-2.4-2.2-2.4-3.5v8.8c0 1.2.8 2.5 2.5 3.4 3.3 2 8.6 2 11.9 0 1.6-1 2.5-2.2 2.5-3.4v-8.8z" fill="#676767"/>
      <path d="M703.9 209.7c3.3 1.9 8.6 1.9 11.9 0 1.6-1 2.5-2.2 2.5-3.5 0-1.2-.9-2.5-2.5-3.4-3.3-2-8.7-2-12 0-1.6 1-2.4 2.2-2.4 3.4 0 1.3.8 2.5 2.5 3.5" fill="#E9E9E9"/>
      <path d="M713.5 203c-.4-1.4-1.7-2-1.7-2a4.4 4.4 0 0 0-4 0s-1.2.6-1.6 2c-.4 1.3-.5 3.2-.5 3.2 0 .6.5 1.2 1.3 1.7 1.5 1 4.1 1 5.7 0 .8-.5 1.2-1 1.2-1.7 0 0 0-1.9-.4-3.2" fill="#787878"/>
      <path d="M708.6 94v107.1l.3.6a2 2 0 0 0 1.8 0c.2-.2.4-.4.4-.6v-107h-2.5z" fill="#2F2F2F"/>
    </g>
  </g>
</svg>
