<svg width="771px" height="381px" xmlns="http://www.w3.org/2000/svg" xmlns:xlink="http://www.w3.org/1999/xlink">
  <defs>
    <polygon id="a" points="0.512878907 0.126527238 198.01272 0.126527238 198.01272 11.0417749 0.512878907 11.0417749"/>
    <path d="M16.5 1.4c-3.6 1-5.3 3.1-8 5.5-2.4 2-5.1 3.6-6.6 6.6-2.7 5.4-1 11.8.7 17 1 3 .5 6 1.3 9C4.7 43 7 43.2 9.5 45c4.4 3.4 9 13.5 14.6 5.4 1.9-2.8 2.8-5.5 6-7 2.5-1.3 6.6-1 8-3.8 1.7-3.7.3-10 1-12.8.7-3.3 5.9-2.7 1.5-7.3-3-3.1-1.7-4.5-2.5-8.4-.4-2.2-2.8-6-4.4-7.3A18.8 18.8 0 0 0 22.4.6c-2.2 0-4.2.3-6 .8" id="c"/>
    <linearGradient x1="99.9999137%" y1="49.999699%" x2="-0.000384503474%" y2="49.999699%" id="d">
      <stop stop-color="#F9C19E" offset="0%"/>
      <stop stop-color="#FFD6C1" offset="100%"/>
    </linearGradient>
    <path d="M28.4 7c-.7 1.5-2.6 2.6-4 3.7a35.2 35.2 0 0 0-6 7.5c-5.5 8.5-12 17-13.6 27.3-1.7 11-.4 22-1.9 33-.7 5.4 0 11.1-1 16.3-1 6-3 9.9.3 15.7a25.8 25.8 0 0 0 23.1 13.9 35.2 35.2 0 0 0 25-11.8c3.8-4 5.2-8 7-13.1 1.8-5.5 4.3-10.7 6-16.3C65 77.7 68 72.8 68 67c0-6.9-.5-13.9-2.2-20.5-1.4-5.5-4-10.5-6.1-15.6-2.5-5.7 1-9.5.6-12-.2-1.4-4.7-2.8-5.9-3.7-2-1.5-3.4-3.3-5.1-5.1-4-4.3-9-7.4-14.8-9a13 13 0 0 0-3.2-.6c-2.7 0-1.2 2.6-3 6.4" id="f"/>
    <polygon id="h" points="0 0.219022495 38.590516 0.219022495 38.590516 46.4974939 0 46.4974939"/>
    <polygon id="j" points="0.287636364 68.3186916 15.4515455 69.4949533 20.4438182 1.49616822 5.27927273 0.319252336"/>
    <linearGradient x1="49.9982702%" y1="6.24172499e-06%" x2="49.9982702%" y2="100.000293%" id="k">
      <stop stop-color="#E6AA8A" offset="0%"/>
      <stop stop-color="#E6B6A0" offset="100%"/>
    </linearGradient>
    <polygon id="m" points="0.516065574 78.087888 33.9304918 80.580096 39.8531148 3.031992 6.43934426 0.539784"/>
    <linearGradient x1="50.000092%" y1="99.9998434%" x2="50.000092%" y2="0.000407791514%" id="n">
      <stop stop-color="#E6AA8A" offset="0%"/>
      <stop stop-color="#E6B6A0" offset="100%"/>
    </linearGradient>
    <path d="M12.8 2.4C5.2 5 .3 9.6.2 17.7c-.2 7 2.3 12.5 4.3 19.2A26.2 26.2 0 0 0 17 53.3c3.7 2.3 6.3 3.8 8.6-.7 1.6-3 1.8-6 5.7-7.3 2-.6 4.5.2 6.3-1 3.2-2.3 2-7.6 1.7-10.7-.2-2 0-3.3 1-3.8 1.1-.5 2.6-.9 3-1.8.4-1-2.3-4-3.2-6.2-1.3-3.2 1.5-7.6 0-11.2a18 18 0 0 0-5.5-6.3A19.2 19.2 0 0 0 22.8.6c-3.3 0-6.8.6-10 1.8" id="p"/>
    <linearGradient x1="100.000536%" y1="49.9997913%" x2="-8.56004185e-05%" y2="49.9997913%" id="q">
      <stop stop-color="#F9C19E" offset="0%"/>
      <stop stop-color="#FFD6C1" offset="100%"/>
    </linearGradient>
    <path d="M23.6 2.5c-.1 1.5.2 3.4-.6 5-.6 1-2.7 2.8-3.7 3.8-4.8 5.1-8 9-11.1 15.2C5.4 32 1.8 37.1.6 43.2c-1.2 5.8.5 11.7.7 17.6.3 14 1.6 27.8 2.3 41.8.2 5-.5 12.4 5.5 13.9 4.9 1.1 14-4 18.4-5.8 5.7-2.1 11.8-4 16.6-7.9 6.5-5.3 10-10.2 10.9-18 1.3-11.8 2.3-21.4 1.5-33.6-.6-7.1-4.3-13.9-4.6-20.6-.2-3.1 1.7-7 .4-10.1-.6-1.5-4.1-3.9-5.1-5-4.4-4.4-7.6-9.7-13.3-12.8A18 18 0 0 0 26.4.2c-1.5 0-2.6.6-2.8 2.3" id="s"/>
    <polygon id="u" points="0.420739336 46.8977692 270.430209 67.4200385 273.940915 20.5778462 3.9314455 0.0562307692"/>
    <linearGradient x1="99.9999847%" y1="50.0000469%" x2="-3.38032716e-05%" y2="50.0000469%" id="v">
      <stop stop-color="#E6AA8A" offset="0%"/>
      <stop stop-color="#E6B6A0" offset="100%"/>
    </linearGradient>
    <path d="M9.2.6C2 .8 1.2 9.2.6 15.4c-.8 8.8 7.5 10.3 14.6 14.1 3.8 2 6.8 5 10.9 6.6 4.9 2 10 2.5 15.2 3 4.8.6 10.2.6 14 3.6 3.8 2.9 6.4 6.8 10.9 8.7 3.8 1.6 9.3 2.7 13.2 1.3.7-.2 1-1.2 1.5-1.4h1.8c1.7-.1 3.6-1.3 2.3-2.6-3-3-5.8-5.7-8.4-8.9-1.2-1.4-4.6-4-4.2-5.8h2c3.3.2 8.7.3 9.4-2.2 1-3.3-18.2-3.7-20.4-3.6-8 .4-16.3-1.8-23-6.4-6.2-4.4-11.8-11-16.9-16.6C20.5 1.8 14.3.6 9.8.6h-.6" id="x"/>
    <linearGradient x1="100.000031%" y1="49.9999142%" x2="-0.000504814776%" y2="49.9999142%" id="y">
      <stop stop-color="#FFBF8E" offset="0%"/>
      <stop stop-color="#FFD6C1" offset="100%"/>
    </linearGradient>
    <path d="M18 1.4a27.9 27.9 0 0 0-12.7 12c-4 6.3-2.7 13.4-3.4 20.4C1.5 37 .2 40.2 0 43.4c0 4 2.5 3.4 6.1 4 5.7.9 12.8 3 18 5 5.7 2 5.2-3.7 7.7-8.2 7.3-12.8 9.8-28 1.3-40.9-1.4-2.2-5.1-3-8.6-3-2.6 0-5 .5-6.5 1" id="A"/>
    <linearGradient x1="50.0006593%" y1="99.9997542%" x2="50.0006593%" y2="-0.000168331867%" id="B">
      <stop stop-color="#DADAE6" offset="0%"/>
      <stop stop-color="#F6F6FF" offset="100%"/>
    </linearGradient>
    <path d="M4.8 7c-4.5 9.7-3.1 22 .6 31.8 1.8 4.7 4.1 9.3 6.5 13.7 1.1 2 2.6 4.1 3 6.4.6 3 0 2.6-1.4 4.3a56.1 56.1 0 0 0-3.7 5.2c-1.6 2.6-2.3 2.5-5.3 2.4-3.8 0-5.6.3-2.3 3.4 2.4 2.2 7.5 4.2 10.7 4.3 3.6.1 5.8-3.3 8.3-5.8 8-8.2 4.2-13.8 2.5-23.8-.9-5.3.1-10.7.7-16 .4-2.8.8-5.7.5-8.5-.2-2.7-1.2-5.1-.5-7.7.8-2.9 5.7-6.2 5.2-9.2-.5-2.8-4.6-4-7-4.5-3.3-.9-6.5-2.9-10-3h-.3C7.8 0 6.5 3.3 4.8 7" id="D"/>
    <linearGradient x1="50.0000211%" y1="99.9999187%" x2="50.0000211%" y2="0.000329103008%" id="E">
      <stop stop-color="#FFBF8E" offset="0%"/>
      <stop stop-color="#FFD6C1" offset="100%"/>
    </linearGradient>
    <path d="M14 7.8C9 13 4.9 30 3.7 32.8 3 34.2-.1 38 0 39.4.6 42.4 12 46 15.3 47c7.4 2 9 2.8 12.6-1.4 8.5-9.6 19.8-26.4 12.2-39.5a11 11 0 0 0-10-6C24.2.2 17.9 4 14 7.8" id="G"/>
    <linearGradient x1="29.9363709%" y1="95.0641412%" x2="76.7953308%" y2="3.45633376%" id="H">
      <stop stop-color="#DADAE6" offset="0%"/>
      <stop stop-color="#F6F6FF" offset="100%"/>
    </linearGradient>
    <path d="M16 1.4c-3.5 1-5.2 3.1-7.9 5.5-2.4 2-5 3.6-6.5 6.6-2.7 5.4-1 11.8.7 17 1 3 .5 6 1.3 9 .8 3.4 3.2 3.6 5.6 5.5 4.3 3.4 8.9 13.5 14.4 5.4 1.9-2.8 2.8-5.5 6-7 2.5-1.3 6.5-1 7.8-3.8 1.8-3.7.4-10 1-12.8.8-3.3 6-2.7 1.6-7.3-2.9-3.1-1.7-4.5-2.4-8.4-.5-2.2-2.8-6-4.5-7.3C30.4 1.6 26.1.6 22 .6c-2.1 0-4.2.3-5.8.8" id="J"/>
    <linearGradient x1="99.9994944%" y1="49.999699%" x2="0.000656966035%" y2="49.999699%" id="K">
      <stop stop-color="#F9C19E" offset="0%"/>
      <stop stop-color="#FFD6C1" offset="100%"/>
    </linearGradient>
    <path d="M28 7c-.6 1.5-2.5 2.6-3.8 3.7a35.2 35.2 0 0 0-6 7.5c-5.6 8.5-12.1 17-13.7 27.3-1.7 11-.3 22-1.8 33-.8 5.4 0 11.1-1 16.3-1.2 6-3 9.9.2 15.7A25.8 25.8 0 0 0 25 124.4a35.2 35.2 0 0 0 25-11.8c3.8-4 5.2-8 7-13.1 1.8-5.5 4.3-10.7 6-16.3 1.8-5.5 4.7-10.4 4.7-16.1 0-6.9-.4-13.9-2.2-20.5C64.1 41 61.6 36 59.4 31c-2.4-5.7 1-9.5.6-12-.2-1.4-4.6-2.8-5.9-3.7-2-1.5-3.4-3.3-5-5.1-4.2-4.3-9.1-7.4-14.9-9A13 13 0 0 0 31 .6c-2.7 0-1.2 2.6-3 6.4" id="M"/>
    <polygon id="O" points="0.6266 92.5960588 83.59325 98.8298235 90.59245 6.52429412 7.6245 0.290529412"/>
    <linearGradient x1="85.9400631%" y1="81.8621522%" x2="17.3356504%" y2="21.0421438%" id="P">
      <stop stop-color="#EDAF8E" offset="0%"/>
      <stop stop-color="#EFBDA5" offset="100%"/>
    </linearGradient>
    <path d="M9 .6C1.5.8 1 9.2.2 15.4c-.8 8.8 7.5 10.3 14.5 14.1 3.8 2 6.9 5 10.9 6.6 4.9 2 10 2.5 15.2 3 4.7.6 10.1.6 14 3.6 3.7 2.9 6.3 6.8 10.7 8.7 3.8 1.6 9.3 2.7 13.2 1.3.7-.2 1-1.2 1.5-1.4h1.8c1.6-.1 3.6-1.3 2.3-2.6-3-3-5.8-5.7-8.4-8.9-1.2-1.4-4.6-4-4.1-5.8h1.9c3.3.2 8.7.3 9.4-2.2.9-3.3-18.2-3.7-20.3-3.6-8 .4-16.2-1.8-22.9-6.4-6.2-4.4-11.8-11-16.9-16.6C20.1 1.8 14 .6 9.5.6h-.6" id="R"/>
    <linearGradient x1="99.999845%" y1="49.9999142%" x2="-0.000676504351%" y2="49.9999142%" id="S">
      <stop stop-color="#F9C19E" offset="0%"/>
      <stop stop-color="#FFD6C1" offset="100%"/>
    </linearGradient>
    <path d="M18.5 1.4a27.9 27.9 0 0 0-12.8 12c-4 6.3-2.7 13.4-3.5 20.4C2 37 .5 40.2.5 43.4c0 4 2.5 3.4 6 4 5.7.9 12.9 3 18.1 5 5.6 2 5.1-3.7 7.7-8.2 7.3-12.8 9.7-28 1.3-40.9-1.5-2.2-5.1-3-8.7-3-2.5 0-5 .5-6.4 1" id="U"/>
  </defs>
  <g fill="none" fill-rule="evenodd">
    <g transform="translate(10 40)">
      <path d="M264.6 335.5c0 3-59.2 5.5-132.2 5.5-73 0-132.3-2.4-132.3-5.5 0-3 59.2-5.4 132.3-5.4 73 0 132.2 2.4 132.2 5.4M505 335.5c0 3-45.7 5.3-102.2 5.3-56.4 0-102.2-2.3-102.2-5.3 0-2.9 45.8-5.2 102.2-5.2 56.5 0 102.2 2.3 102.2 5.2" fill="#EDE7F3"/>
      <polygon fill="#EDE7F3" points="119.237782 327.29219 412.136349 327.29219 400.877318 335.635973 107.979401 335.635973"/>
      <g transform="translate(562.8 330)">
        <mask id="b" fill="#fff">
          <use xlink:href="#a"/>
        </mask>
        <path d="M198 5.6c0 3-44.2 5.4-98.7 5.4C44.7 11 .5 8.6.5 5.6.5 2.6 44.7 0 99.3 0 153.8.1 198 2.6 198 5.6" fill="#EDE7F3" mask="url(#b)"/>
      </g>
      <path d="M81.5.5C80.7-1.7 79 5 76.1 7.1c-3.3 2.5-9 3.3-8.9 4.9.1.8.6 2 1.4 2 2.1.2 6.3-1.8 7.7-2.6 3.1-2 6.8-6.8 5.2-10.9" fill="#3F3F3F"/>
    </g>
    <g transform="translate(41 43)">
      <mask id="e" fill="#fff">
        <use xlink:href="#c"/>
      </mask>
      <path d="M16.5 1.4c-3.6 1-5.3 3.1-8 5.5-2.4 2-5.1 3.6-6.6 6.6-2.7 5.4-1 11.8.7 17 1 3 .5 6 1.3 9C4.7 43 7 43.2 9.5 45c4.4 3.4 9 13.5 14.6 5.4 1.9-2.8 2.8-5.5 6-7 2.5-1.3 6.6-1 8-3.8 1.7-3.7.3-10 1-12.8.7-3.3 5.9-2.7 1.5-7.3-3-3.1-1.7-4.5-2.5-8.4-.4-2.2-2.8-6-4.4-7.3A18.8 18.8 0 0 0 22.4.6c-2.2 0-4.2.3-6 .8" fill="url(#d)" mask="url(#e)"/>
    </g>
    <path d="M66 49.7c-1.8-3.5-25.4 4-26 14.2 0 2.7 1.6 11.8 5.4 12 4.6.5 5.4-7.6 5.5-10.4.1-4.6 2-11.2 6.8-7.3 1.8 1.4 3.5 8.1 6.6 3.3.9-1.4-.3-3.4-.2-5 0-2.2 2.9-4.8 1.9-6.8" fill="#4F3A23"/>
    <path d="M75.4 42.5c-.5-2.3-11.1-7.1-12.7-7.5a23 23 0 0 0-14.2 1.6C40.7 39.4 34 49.3 34.3 56c0 2.7 4 10 6.9 10.3 3.6.3 8.2-4.5 11.4-6.7C55 58 76 45.7 75.4 42.5" fill="#3F3F3F"/>
    <path d="M64.8 49.2c-3-3.2-5.4-8.1-9.2-10.4-4-2.4-7.5-1.6-11.8-1-.8.1-.5 1.5.4 1.3 5-.7 9.3-1.2 13 2.9 2.3 2.6 4.3 5.6 6.6 8.2.6.6 1.6-.3 1-1M91 39.4c-3.6.4-13 2.1-15.6 2.7-1.4.3-2.8 2.5-5.2 4.7-2.7 2.3-6.2 4.4-6.1 5.1 0 2.6 15-.4 17.6-1.6 2.8-1.2 5.7-2.7 7.6-5.2.5-.8 3.6-6 1.6-5.7" fill="#383838"/>
    <g transform="translate(11 77)">
      <mask id="g" fill="#fff">
        <use xlink:href="#f"/>
      </mask>
      <path d="M28.4 7c-.7 1.5-2.6 2.6-4 3.7a35.2 35.2 0 0 0-6 7.5c-5.5 8.5-12 17-13.6 27.3-1.7 11-.4 22-1.9 33-.7 5.4 0 11.1-1 16.3-1 6-3 9.9.3 15.7a25.8 25.8 0 0 0 23.1 13.9 35.2 35.2 0 0 0 25-11.8c3.8-4 5.2-8 7-13.1 1.8-5.5 4.3-10.7 6-16.3C65 77.7 68 72.8 68 67c0-6.9-.5-13.9-2.2-20.5-1.4-5.5-4-10.5-6.1-15.6-2.5-5.7 1-9.5.6-12-.2-1.4-4.7-2.8-5.9-3.7-2-1.5-3.4-3.3-5.1-5.1-4-4.3-9-7.4-14.8-9a13 13 0 0 0-3.2-.6c-2.7 0-1.2 2.6-3 6.4" mask="url(#g)"/>
    </g>
    <g transform="translate(0 75)">
      <path d="M93.1 90c-.1-4.2-1.1-4.9-5-5.3-2.8-.3-5.5-.6-8.2-1.5-4.1-1.4-5.3-.2-5 4.2l1.2 7.5c.6 3.5 2.4 3 5.6 2.7 2.5-.3 6.5.4 8.9-.5 3-1.2 2.7-4.2 2.5-7" fill="#E6B097"/>
      <g transform="translate(0 238.8)">
        <mask id="i" fill="#fff">
          <use xlink:href="#h"/>
        </mask>
        <path d="M36.5 33.2a32.2 32.2 0 0 1-3.1-17.4c.9-6.7-1-9.8-6.9-12.9C20.7 0 18.3-.7 13 1.7 9.2 3.4.8 8 0 12.8c-.6 4 5.2 10.3 8.4 12.3 2.2 1.5 5 1.7 6.8 3.8 1.8 2.1 3.6 7.2 6 9.4 2.4 2.3 11 8.6 14.6 8.2 5-.6 2.1-10 .7-13.3" fill="#30305F" mask="url(#i)"/>
      </g>
      <path d="M86.4 292.8c-2.3-3-7.7-3.4-11.5-4.8-5.2-2-13.1-8-15.6-9.1-5.4-2.6-24.3 1.6-26.5 3.5-1.6 1.4-2 6.3-2.3 8.3-1.2 6.6 3.5 8.5 9.5 8.9 3.6.2 7-.9 10.5-.2 3 .6 6 1.8 9 2.6 6.5 1.7 34.2.4 26.9-9.2" fill="#30305F"/>
      <path d="M89.9 196.9c1.6-8.8-4.2-25.8-5.9-31.5-1.5-5.2-4-10.1-4.9-15.5-.8-4.3-.2-11.3-2.8-15.1-5-7.6-4.6 13.7-4.8 15.4-.7 5.9-2 11.7-2.6 17.6-.6 6-2.4 11.8-3.2 17.8-.7 5 0 9.7-2.2 14.4a18.9 18.9 0 0 1-12.3 10c-10.3 3.3-17 6.2-23.5 15.4-1.6 2.2-2.2 4-4.1 6-2 2.2-6.4 3-6.9 6-1 6 10.4 14 18.5 12.5 3.8-.7 9.4-3.9 12.6-6 5.2-3.5 9.4-8.5 14-12.7a240 240 0 0 0 15-14.4c2.2-2.5 12.2-14.9 13.1-19.9" fill="#B7165F"/>
      <path d="M80.8 85.6c-.2-2-.9-4-1-6 0-1.3.6-3 .4-4.2-.3-2.9-2.3-3.1-5.2-2.1-3.4 1.2-2.8 3-3.3 6A72.3 72.3 0 0 1 56.5 113c-5.8 6-15.2 9.2-23.3 8.8-10.1-.5-15.1-7.1-17-7-3.2.4-.9 9-.8 11.7.2 9.4-1.6 18.3 1.5 27.5 3 9.2 7.6 17.6 9.8 27 2.3 9.6 4.8 18.4 8.8 27.4 3.4 7.8-.6 18.7-1.3 27-.4 4.3.8 8 1.6 12 1.1 5.2-.2 9-2 13.7-1.4 4-2.2 8.3-2.7 12.5-.3 3.2-1.8 9.9.1 12.6 4 5.5 17.4 1.7 22.3 0 2.6-.8 8.3-2.8 9.2-5.6 1.2-3.7-2.4-6.6-3-10-1.9-9 5.8-14.8 6.9-23.4 1.2-9.8 1.8-19.6 3.1-29.4 1.7-11.7 2-23.5 3-35.3.4-5 .7-10 2.3-14.7 6-18.5-.4-27.6 4.3-48 2.5-11.1 3-22.7 1.5-34.1" fill="#E61D6E"/>
      <path d="M21.5 117.9c-3-3-5-8.2-5.7-10.4-1.3-4.3-.7-7.8.4-12 1-4.2-.2-8.1-.3-12.4 0-1.5.7-12.2-1.2-7.2-1.5 3.8-.2 9.6-.8 13.7-.6 4.1-2.5 7.9-3.4 12-1 4.9.5 9.4 3.6 12.9 3.3 3.5 8.5 4.6 7.4 3.4M77.7 58.6c-.1-2.8-1.7-8-2.8-10.3a79.8 79.8 0 0 0-21.8-29.1c-7.8-5.7-17-5.7-24.1 1.1a23 23 0 0 0-5 7.3c-.5 2-.3 2.8 1.3.8 1.5-2 2.4-4.2 4.5-6 2.3-2.1 5.4-3.7 8.5-4.2 8-1.5 14.5 3.3 19.3 9.1a76.1 76.1 0 0 1 13.2 21c2 5.2 2.2 11.1 3.2 12.5.4.5 3.7-.8 3.7-2.2" fill="#E61D6E"/>
      <path d="M78 59.4c-.2-2.5-3.7-2.4-4.8-.3a71 71 0 0 0-.9 15c0 2.1 5.1 0 5.4-1 1-4 .7-9.8.2-13.7" fill="#30305F"/>
      <path d="M61.3 129.2c-3 4.2-5.7 9-9.7 12.4-3.8 3.2-8 6.2-12.4 8.6-.8.5 0 1.7.8 1.2 4.4-2.4 8.8-5.5 12.6-8.8 4-3.6 7-8.4 10-12.7.5-.8-.7-1.5-1.3-.7M33.4 168c-1.6-3.3-2.5-7-3.4-10.5-1-3.7-3.3-8.8-2.8-12.6.1-.6-.6-1-1-.8a.6.6 0 0 0-.5-.2H14.5c-.9 0-.9 1.4 0 1.4H25.9c-.3 3.7 1.5 7.7 2.4 11.2 1 4.1 2 8.2 3.8 12-.2.6-.4 1.3-.7 1.7-.6.6-1.9.6-2.6.7-1.7.2-3.2.6-4.8 1.2-.8.2-.5 1.6.4 1.3 2-.7 4-1 6-1.4 2-.4 2.2-1.3 3-3v-.4-.6" fill="#B7165F"/>
      <path d="M47 232.4v-.2c.9-8 .6-16.1.1-24.2-.4-7.8-2.1-15.4-2.6-23.3l-.2-.5c0-4.7-.9-9-1.7-13.7-.7-4.8-.9-9.5-2-14.3a54.8 54.8 0 0 1-1.3-16.6c.4-5.2.4-10.2-.8-15.3-.2-.9-1.5-.5-1.3.3a54 54 0 0 1 .7 16.3c-.4 5 0 9.6 1.1 14.5 1 4.8 1.6 9.5 2.2 14.3.6 5.2 1.8 10 1.7 15.2 0 .2.1.4.3.5.5 7.6 2.2 15 2.6 22.6a154.3 154.3 0 0 1 0 24.8c.9 9.8-1.6 20-2.8 29.8-.5 4.4 0 9-.7 13.2-.7 3.8 1 8 1.8 11.7.2 1 1.5.5 1.3-.3l-1.5-7c-.5-2.2 0-3.8.3-6 .3-2.1-.5-4.3-.4-6.5 0-2.1.5-4.3.8-6.4 1.2-9.5 3.5-19.4 2.5-29" fill="#B7165F"/>
      <polygon fill="#FADDBC" points="316.328051 83.1972469 115.147655 68.0524375 120.250867 0.612553105 321.431263 15.7580113"/>
    </g>
    <g transform="translate(300 89)">
      <mask id="l" fill="#fff">
        <use xlink:href="#j"/>
      </mask>
      <polygon fill="url(#k)" mask="url(#l)" points="0.287636364 68.3186916 15.4515455 69.4949533 20.4438182 1.49616822 5.27927273 0.319252336"/>
    </g>
    <polygon fill="#FADDBC" points="285.073129 9.39979727 159.956934 0 154.073129 77.6008512 279.189324 87"/>
    <g transform="translate(245 7)">
      <mask id="o" fill="#fff">
        <use xlink:href="#m"/>
      </mask>
      <polygon fill="url(#n)" mask="url(#o)" points="0.516065574 78.087888 33.9304918 80.580096 39.8531148 3.031992 6.43934426 0.539784"/>
    </g>
    <g transform="translate(39)">
      <path d="M131.1 104c3.4-.2 6.3-4 6.6-8.6l-13.5-1c-.4 4.7 2 8.7 5.2 9.6l-.7 9-2.8-.2-.2 2.3 7.4.6.2-2.4-2.9-.2.7-9zm-35.6 8.8l10.2.8.2-2.3-10.2-.8-.2 2.3zm3.9-3.2l1-13.4h1l-1.7-4.8-2.5 4.5h1l-1 13.6 2.2.1zm5.1.4l1-13.5 1 .1-1.7-4.8-2.5 4.5h1.1l-1 13.6 2.1.1zM116.8 94c3.3.8 5.6 4.9 5.3 9.6l-6-.5-.5 7.5c0 .4 0 .8.2 1.1.2.3.4.5.7.5.3 0 .6-.1.8-.4.3-.2.4-.6.4-1l1.7.1c0 1-.4 2-1 2.6-.5.7-1.3 1-2 1-.8 0-1.5-.5-2-1.3-.4-.7-.6-1.7-.5-2.7l.5-7.5-5.9-.4c.4-4.7 3.2-8.4 6.6-8.7l.1-1.3 1.7.2v1.2z" fill="#C79F94"/>
      <polygon fill="#EBC1A8" points="282.378896 91.5930168 81.1769561 76.4657095 81.2816986 75.1041676 282.483639 90.2314749"/>
      <polygon fill="#EBC1A8" points="245.718621 10.8417877 120.769242 1.44773184 120.873334 0.0861899441 245.822713 9.48024581"/>
      <polygon fill="#EBC1A8" points="174.913712 4.83376536 161.264004 3.80791061 158.443763 41.0309497 172.093471 42.0568045"/>
      <path d="M31.6 95.7c-.5 1-1.3 2.1-2 3l-1.6 2.7c-8-7.3-15.7-16-27-17.6-.8-.1-1.1 1.2-.3 1.3 11.2 1.7 18.8 10.4 26.7 17.7.3.2.7.2.9 0 .9-.3 1.6-2 2-2.5.9-1.4 2-2.7 2.6-4.3.3-.8-1-1.1-1.3-.3" fill="#DADAE7"/>
    </g>
    <g transform="translate(378 39)">
      <mask id="r" fill="#fff">
        <use xlink:href="#p"/>
      </mask>
      <path d="M12.8 2.4C5.2 5 .3 9.6.2 17.7c-.2 7 2.3 12.5 4.3 19.2A26.2 26.2 0 0 0 17 53.3c3.7 2.3 6.3 3.8 8.6-.7 1.6-3 1.8-6 5.7-7.3 2-.6 4.5.2 6.3-1 3.2-2.3 2-7.6 1.7-10.7-.2-2 0-3.3 1-3.8 1.1-.5 2.6-.9 3-1.8.4-1-2.3-4-3.2-6.2-1.3-3.2 1.5-7.6 0-11.2a18 18 0 0 0-5.5-6.3A19.2 19.2 0 0 0 22.8.6c-3.3 0-6.8.6-10 1.8" fill="url(#q)" mask="url(#r)"/>
    </g>
    <path d="M409 49.3c-5.7-6.4-28.6 1.1-31 7-2.4 5.5-.4 9.6 1.2 13 .8 1.8 1.8 4 3.5 4.6 1.7.6 4 0 5-1.2 2-2 3.5-4.8 2.9-8.1-1.2-5.7 0-10.6 5.6-8 2 1 3.1 4.6 4.5 5.3 2.8 1.4 2.6-.9 3.2-2.7.7-2.5 1.2-4 3-5.9 0 0 3.8-2.1 2-4" fill="#4F3A23"/>
    <path d="M432.3 40.4c-2.2 0-13.5.8-16.7 1-.8.1-1.6.6-1.7.7-4.3 3.6-11 7.5-16 10.3-1 .6-1 1.7.5 1.8 7 .4 15.2.2 22-1.7 5-1.3 11.7-5.4 12.3-10.1.1-1 .3-2-.4-2" fill="#383838"/>
    <path d="M415 42c-.4-3.8-7.5-7.6-9.4-8.5-5-2.2-10.8-1.3-15.6-.2-8 2-16.6 6.5-16.9 15.6-.1 3.1 1 10.9 3.8 12.3 2.8 1.4 10.8-2.7 14-4.2 2.2-1 24.4-12.1 24-15" fill="#3F3F3F"/>
    <path d="M356.4 344c0-9.7-.3-33.5-14.3-27.5-3.8 1.7-17 6.6-18.3 11-1.6 5.9 8 11.9 10.4 15.8 1.7 2.9 2 6.1 3.9 9.3a64 64 0 0 0 14 15c3 1.9 6.3 3.2 8-.9 1.6-3.6-1-7.6-2.1-10.6a35.2 35.2 0 0 1-1.6-12" fill="#30305F"/>
    <path d="M420.8 277c3.1-12.1 0-25.5-2-37.7-1-6.2-7-34-8.8-40-5.1-18.5-12.8 14.2-14 18.7-2 8.3-1.5 16.6-1.3 25.1 0 6 1.1 13-2.2 18-4 6.2-10.8 11.1-15.7 16.8-8.5 10-18 18.8-26 29.1-3.3 4.2-7.1 7.3-5.4 12.8 1.4 4.6 9.6 15 13.5 17.7 8 5.4 24-19.9 31.1-27.3 9.2-9.6 27.4-19.4 30.8-33.1" fill="#B7165F"/>
    <g transform="translate(357 76)">
      <mask id="t" fill="#fff">
        <use xlink:href="#s"/>
      </mask>
      <path d="M23.6 2.5c-.1 1.5.2 3.4-.6 5-.6 1-2.7 2.8-3.7 3.8-4.8 5.1-8 9-11.1 15.2C5.4 32 1.8 37.1.6 43.2c-1.2 5.8.5 11.7.7 17.6.3 14 1.6 27.8 2.3 41.8.2 5-.5 12.4 5.5 13.9 4.9 1.1 14-4 18.4-5.8 5.7-2.1 11.8-4 16.6-7.9 6.5-5.3 10-10.2 10.9-18 1.3-11.8 2.3-21.4 1.5-33.6-.6-7.1-4.3-13.9-4.6-20.6-.2-3.1 1.7-7 .4-10.1-.6-1.5-4.1-3.9-5.1-5-4.4-4.4-7.6-9.7-13.3-12.8A18 18 0 0 0 26.4.2c-1.5 0-2.6.6-2.8 2.3" mask="url(#t)"/>
    </g>
    <path d="M421.7 364.8c-6.4-.8-10.4-7.3-16.8-8.4-4.2-.6-8.5.5-12.7.2-7.6-.7-10-2.9-13.2 4.6-2.4 5.8-4.3 12.8 2.8 14.6 6.1 1.6 11.4-.7 17.3-.2 6.4.6 10.9 2.7 17.8 2.2 4.5-.3 14.3-2 15.7-6.8 1.7-6.3-7-5.7-11-6.2" fill="#30305F"/>
    <path d="M415.6 295.6c0-18.7-.6-30.5-2.5-49.2-.8-7.4-2.7-38.7-1.4-47.5 1.2-7.7-.2-17 1.1-25.3 1-5.8 2.5-25.7.7-28.8-1.1-1.7-4.8-3.2-5.3-1.7-1.2 3.2-1.6 11.6-1.8 13.2-1.2 8.1-1.9 15-9.1 20.4-4 3-21 9.7-25.2 11-4.7 1.5-11.7.1-14.1 4.8-3 5.7-1.4 17.4-1.6 23.8-.2 9.2 2 17.7 4.5 26.5 2.2 8.3 16.1 44.1 17.5 48.3 5.5 16.2 1.4 36.4.8 53.2-.3 6.5-2 15 9.2 17 6.4 1.2 20.7 1.5 21.6-5 .6-4.4-1-9.5-.9-14 .2-5.3 6.5-38.5 6.5-46.7" fill="#E61D6E"/>
    <path d="M401.4 193.6c0-.8-1.3-1-1.3 0 0 3-.3 5.1-2.5 7.5-1.6 1.6-3.6 3.1-5.5 4.5-3.3 2.5-8 4.2-11 7.3-.5.7.4 1.7 1 1 2-2.2 5.4-3.5 7.9-5.1 2-1.4 4-2.8 5.8-4.4 1.7-1.4 4-3 5-5 1-1.7.6-4 .6-5.8" fill="#B7165F"/>
    <path d="M411.2 127.9c-1.4-13.2-8.3-40-28-35.9-8.5 1.8-14.4 8-18.5 15.2a79.8 79.8 0 0 0-6.5 21.5c-.1 1.5.1 2.8.2 2.2.7-4.3 5-17.7 7.7-22 5.2-8.4 13.1-15 23.9-13.3 8.4 1.3 12 10.2 14.2 17.2 1.2 3.8 2.6 12 3.3 16.7 0 .6 3.9.3 3.7-1.6" fill="#E61D6E"/>
    <path d="M411.5 129c-.3-1-4.1-.5-4 .3l.4 13.4c0 2 5.2 1.7 5.3.7.4-2.9-.5-9.3-1.7-14.3" fill="#30305F"/>
    <g transform="translate(86 141)">
      <mask id="w" fill="#fff">
        <use xlink:href="#u"/>
      </mask>
      <polygon fill="url(#v)" mask="url(#w)" points="0.420739336 46.8977692 270.430209 67.4200385 273.940915 20.5778462 3.9314455 0.0562307692"/>
    </g>
    <g transform="translate(14 141)">
      <mask id="z" fill="#fff">
        <use xlink:href="#x"/>
      </mask>
      <path d="M9.2.6C2 .8 1.2 9.2.6 15.4c-.8 8.8 7.5 10.3 14.6 14.1 3.8 2 6.8 5 10.9 6.6 4.9 2 10 2.5 15.2 3 4.8.6 10.2.6 14 3.6 3.8 2.9 6.4 6.8 10.9 8.7 3.8 1.6 9.3 2.7 13.2 1.3.7-.2 1-1.2 1.5-1.4h1.8c1.7-.1 3.6-1.3 2.3-2.6-3-3-5.8-5.7-8.4-8.9-1.2-1.4-4.6-4-4.2-5.8h2c3.3.2 8.7.3 9.4-2.2 1-3.3-18.2-3.7-20.4-3.6-8 .4-16.3-1.8-23-6.4-6.2-4.4-11.8-11-16.9-16.6C20.5 1.8 14.3.6 9.8.6h-.6" fill="url(#y)" mask="url(#z)"/>
    </g>
    <g transform="translate(16 99)">
      <mask id="C" fill="#fff">
        <use xlink:href="#A"/>
      </mask>
      <path d="M18 1.4a27.9 27.9 0 0 0-12.7 12c-4 6.3-2.7 13.4-3.4 20.4C1.5 37 .2 40.2 0 43.4c0 4 2.5 3.4 6.1 4 5.7.9 12.8 3 18 5 5.7 2 5.2-3.7 7.7-8.2 7.3-12.8 9.8-28 1.3-40.9-1.4-2.2-5.1-3-8.6-3-2.6 0-5 .5-6.5 1" fill="url(#B)" mask="url(#C)"/>
    </g>
    <g fill="#B7165F">
      <path d="M398 306.9c0-5.6-1-11-2-16.5-2.1-11.7-4.6-23.2-9-34.3-2-5.5-4.2-11-5.3-16.8-1.1-6-1-12.1-.7-18.1.9-12.6 3.1-25.2.5-37.7-.1-.8-1.5-.5-1.3.4 2.4 11.6.6 23.2-.4 34.8a74 74 0 0 0 4 32.4c4 11 7.5 21.8 9.7 33.4 1.1 6.1 2.4 12.3 3 18.4.5 6.5-.4 12.4-1.6 18.7-2.6 12.7-1.4 26.3-1.3 39.2 0 .8 1.3.8 1.3 0 0-12.4-1.2-25.5 1-37.6 1.1-5.5 2.3-10.7 2.2-16.3M370.5 223.7c-1-4.8-.8-9.7-1-14.6 0-.5-.4-.7-.7-.6-4 0-8.5 0-12.4-1.3-.8-.3-1.2 1-.4 1.3a37 37 0 0 0 12.2 1.4c0 3.8 0 7.7.5 11.5.6 4.3 2.3 8.3 1.8 12.7v.2c-3.5 2-7.2 3.2-11 4.2-1 .2-.5 1.5.3 1.3 4.1-1 8-2.3 11.6-4.4.3-.2.4-.9.4-1 .5-3.7-.6-7-1.3-10.7"/>
    </g>
    <g transform="translate(348 137)">
      <mask id="F" fill="#fff">
        <use xlink:href="#D"/>
      </mask>
      <path d="M4.8 7c-4.5 9.7-3.1 22 .6 31.8 1.8 4.7 4.1 9.3 6.5 13.7 1.1 2 2.6 4.1 3 6.4.6 3 0 2.6-1.4 4.3a56.1 56.1 0 0 0-3.7 5.2c-1.6 2.6-2.3 2.5-5.3 2.4-3.8 0-5.6.3-2.3 3.4 2.4 2.2 7.5 4.2 10.7 4.3 3.6.1 5.8-3.3 8.3-5.8 8-8.2 4.2-13.8 2.5-23.8-.9-5.3.1-10.7.7-16 .4-2.8.8-5.7.5-8.5-.2-2.7-1.2-5.1-.5-7.7.8-2.9 5.7-6.2 5.2-9.2-.5-2.8-4.6-4-7-4.5-3.3-.9-6.5-2.9-10-3h-.3C7.8 0 6.5 3.3 4.8 7" fill="url(#E)" mask="url(#F)"/>
    </g>
    <g transform="translate(355 98)">
      <mask id="I" fill="#fff">
        <use xlink:href="#G"/>
      </mask>
      <path d="M14 7.8C9 13 4.9 30 3.7 32.8 3 34.2-.1 38 0 39.4.6 42.4 12 46 15.3 47c7.4 2 9 2.8 12.6-1.4 8.5-9.6 19.8-26.4 12.2-39.5a11 11 0 0 0-10-6C24.2.2 17.9 4 14 7.8" fill="url(#H)" mask="url(#I)"/>
    </g>
    <g>
      <path d="M409.5 95.3c0-1-1.4-1-1.3 0 .1 1.7 0 3.4-.6 5-.2.7-.6 1.3-1 2a34 34 0 0 0-9.8-12c-5-3.7-10.1-7-16.4-7.9-.8-.1-1.4 1.2-.5 1.3a36 36 0 0 1 26.4 20.7c.2.6.8 0 1.2-.5a26.2 26.2 0 0 0 1.7-4c.4-1.6.5-3.1.3-4.6" fill="#DADAE7"/>
      <path d="M404.4 47c-2.4-3.2-4.9-7.5-8.3-9.8a19.5 19.5 0 0 0-11.3-2.6c-.9 0-.8 1.4.1 1.4 4-.1 8.7.6 11.6 3.4 2.6 2.5 4.7 5.6 6.7 8.4.5.7 1.7 0 1.2-.7" fill="#383838"/>
      <path d="M655.5 40.3c-.9-2.1-2.6 4.3-5.5 6.5-3.3 2.6-9 3.4-8.9 5 .1.7.6 2 1.4 2 2.1 0 6.3-1.9 7.7-2.7 3.2-1.9 6.8-6.7 5.3-10.8" fill="#3F3F3F"/>
    </g>
    <g transform="translate(604 43)">
      <mask id="L" fill="#fff">
        <use xlink:href="#J"/>
      </mask>
      <path d="M16 1.4c-3.5 1-5.2 3.1-7.9 5.5-2.4 2-5 3.6-6.5 6.6-2.7 5.4-1 11.8.7 17 1 3 .5 6 1.3 9 .8 3.4 3.2 3.6 5.6 5.5 4.3 3.4 8.9 13.5 14.4 5.4 1.9-2.8 2.8-5.5 6-7 2.5-1.3 6.5-1 7.8-3.8 1.8-3.7.4-10 1-12.8.8-3.3 6-2.7 1.6-7.3-2.9-3.1-1.7-4.5-2.4-8.4-.5-2.2-2.8-6-4.5-7.3C30.4 1.6 26.1.6 22 .6c-2.1 0-4.2.3-5.8.8" fill="url(#K)" mask="url(#L)"/>
    </g>
    <g>
      <path d="M629.4 49.7c-1.9-3.5-25.5 4-26 14.2-.1 2.7 1.6 11.8 5.4 12 4.5.5 5.4-7.6 5.5-10.4 0-4.6 2-11.2 6.8-7.3 1.7 1.4 3.5 8.1 6.5 3.3 1-1.4-.2-3.4-.2-5 0-2.2 3-4.8 2-6.8" fill="#4F3A23"/>
      <path d="M638.8 42.5c-.5-2.3-11.2-7.1-12.7-7.5a23 23 0 0 0-14.3 1.6c-7.7 2.8-14.3 12.7-14.2 19.5 0 2.7 4.2 10 7 10.3 3.6.3 8.2-4.5 11.4-6.7 2.4-1.7 23.5-14 22.8-17.2" fill="#3F3F3F"/>
      <path d="M628.2 49.2c-3-3.2-5.4-8.1-9.2-10.4-4-2.4-7.5-1.6-11.8-1-.9.1-.5 1.5.4 1.3 5-.7 9.2-1.2 13 2.9 2.3 2.6 4.2 5.6 6.6 8.2.6.6 1.6-.3 1-1M654.3 39.4c-3.5.4-13 2.1-15.5 2.7-1.4.3-2.8 2.5-5.3 4.7-2.6 2.3-6 4.4-6 5.1 0 2.6 15-.4 17.6-1.6 2.8-1.2 5.7-2.7 7.6-5.2.5-.8 3.6-6 1.6-5.7" fill="#383838"/>
    </g>
    <g transform="translate(575 77)">
      <mask id="N" fill="#fff">
        <use xlink:href="#M"/>
      </mask>
      <path d="M28 7c-.6 1.5-2.5 2.6-3.8 3.7a35.2 35.2 0 0 0-6 7.5c-5.6 8.5-12.1 17-13.7 27.3-1.7 11-.3 22-1.8 33-.8 5.4 0 11.1-1 16.3-1.2 6-3 9.9.2 15.7A25.8 25.8 0 0 0 25 124.4a35.2 35.2 0 0 0 25-11.8c3.8-4 5.2-8 7-13.1 1.8-5.5 4.3-10.7 6-16.3 1.8-5.5 4.7-10.4 4.7-16.1 0-6.9-.4-13.9-2.2-20.5C64.1 41 61.6 36 59.4 31c-2.4-5.7 1-9.5.6-12-.2-1.4-4.6-2.8-5.9-3.7-2-1.5-3.4-3.3-5-5.1-4.2-4.3-9.1-7.4-14.9-9A13 13 0 0 0 31 .6c-2.7 0-1.2 2.6-3 6.4" mask="url(#N)"/>
    </g>
    <g>
      <path d="M656 164.7c-.3-4.2-1.2-4.9-5.1-5.3-2.8-.3-5.5-.6-8.2-1.5-4.2-1.4-5.4-.3-5 4.2.2 2.4.8 5.2 1.1 7.5.6 3.5 2.4 3 5.6 2.7 2.5-.3 6.6.4 9-.5 2.9-1.2 2.6-4.2 2.5-7" fill="#E6B097"/>
      <path d="M599 346.9a32.2 32.2 0 0 1-3-17.4c.8-6.7-1.1-9.8-7-12.9-5.8-3-8.2-3.6-13.5-1.2-3.8 1.7-12.3 6.3-13 11.1-.6 4 5.1 10.3 8.4 12.4 2.2 1.4 5 1.6 6.8 3.7 1.8 2.2 3.6 7.2 6 9.4 2.4 2.3 11 8.6 14.7 8.2 5-.6 2.1-10 .7-13.3" fill="#30305F"/>
      <path d="M649.1 367.8c-2.2-3-7.7-3.4-11.4-4.8-5.4-2-13.3-8-15.8-9.2-5.4-2.6-24.4 1.7-26.5 3.5-1.7 1.5-2 6.4-2.3 8.3-1.2 6.6 3.5 8.6 9.5 9 3.6.2 7-.9 10.5-.2 3.1.6 6 1.8 9.1 2.6 6.5 1.7 34.3.4 27-9.2" fill="#30305F"/>
      <path d="M652.7 271.7c1.6-8.8-4.2-25.8-6-31.5-1.5-5.2-3.9-10.1-4.9-15.5-.7-4.3-.2-11.3-2.8-15.2-5-7.6-4.6 13.7-4.8 15.5-.7 5.9-2 11.7-2.6 17.6-.6 6.1-2.4 11.8-3.2 17.8-.7 5 0 9.7-2.2 14.4a19 19 0 0 1-12.4 10c-10.3 3.4-17 6.3-23.6 15.5-1.6 2.2-2.2 4-4 6-2.1 2.2-6.5 3-7 6-1 6 10.4 14 18.5 12.5 3.9-.7 9.5-3.9 12.7-6 5.2-3.5 9.4-8.5 14-12.7 5.2-4.6 10.3-9.4 15-14.5 2.4-2.4 12.3-14.9 13.3-19.9" fill="#B7165F"/>
      <path d="M643.5 160.2c-.2-2-.8-4-.9-6 0-1.2.5-2.9.3-4.1-.3-2.9-2.3-3.2-5.2-2.2-3.4 1.2-2.8 3-3.3 6.2a72.3 72.3 0 0 1-15.3 33.5 32 32 0 0 1-23.3 8.9c-10.2-.5-15.2-7.2-17.1-7-3.2.3-.9 9-.8 11.6.2 9.5-1.6 18.3 1.5 27.6 3 9.2 7.6 17.6 9.8 27a152 152 0 0 0 8.9 27.5c3.4 7.7-.6 18.7-1.4 27-.4 4.3.8 8 1.7 12 1.1 5.2-.3 9-2 13.7-1.4 4.1-2.3 8.3-2.7 12.6-.4 3.1-1.8 9.8.1 12.5 3.9 5.6 17.4 1.8 22.4.1 2.5-.8 8.2-2.8 9.2-5.7 1.2-3.7-2.4-6.5-3.1-10-1.8-9 6-14.8 7-23.4 1.1-9.8 1.8-19.6 3.1-29.4 1.6-11.8 2-23.6 3-35.3.4-5 .7-10 2.3-14.8 6-18.5-.4-27.6 4.3-48 2.6-11.2 3-22.9 1.5-34.3" fill="#E61D6E"/>
      <path d="M584 192.6c-3-3-5-8.1-5.7-10.4-1.3-4.3-.7-7.8.4-12 1-4.2-.2-8.1-.2-12.4 0-1.5.6-12.3-1.3-7.3-1.5 3.8-.2 9.7-.8 13.8-.6 4.1-2.5 7.9-3.4 12-1 4.9.4 9.4 3.6 12.9 3.3 3.5 8.6 4.6 7.4 3.4M640.4 133.2c-.1-2.8-1.7-8-2.7-10.3a80 80 0 0 0-22-29.2c-7.8-5.6-17-5.7-24.2 1.2a23 23 0 0 0-5 7.3c-.5 2-.2 2.8 1.3.8 1.6-2 2.4-4.2 4.5-6 2.4-2.1 5.5-3.7 8.6-4.2 8-1.5 14.5 3.3 19.4 9.1a76.2 76.2 0 0 1 13.2 21c2 5.3 2.2 11.2 3.2 12.5.4.5 3.8-.8 3.7-2.2" fill="#E61D6E"/>
      <path d="M640.7 134c-.2-2.4-3.7-2.3-4.8-.2a71 71 0 0 0-.9 15c0 2.1 5.1 0 5.4-1.1 1-4 .7-9.7.3-13.7" fill="#30305F"/>
      <path d="M624 203.9c-3 4.2-5.8 9-9.8 12.4a73 73 0 0 1-12.4 8.7c-.8.4 0 1.7.7 1.2a75 75 0 0 0 12.7-8.9c4.1-3.5 7-8.4 10-12.7.6-.7-.7-1.4-1.2-.7M596 242.8c-1.7-3.3-2.5-7-3.5-10.5-1-3.7-3.2-8.9-2.7-12.6 0-.7-.7-1-1-.8a.6.6 0 0 0-.6-.2H577c-.9 0-.9 1.4 0 1.4H588.4c-.2 3.6 1.6 7.7 2.5 11.2 1 4.1 2 8.2 3.8 12-.2.6-.4 1.3-.8 1.7-.6.6-1.8.6-2.6.7-1.6.3-3.2.6-4.8 1.2-.8.2-.5 1.6.4 1.3 2-.7 4-1 6.1-1.4 1.9-.4 2.2-1.3 3-3v-.4-.6" fill="#B7165F"/>
      <path d="M609.7 307.2v-.1c.8-8 .5-16.1 0-24.2-.4-7.8-2.1-15.5-2.6-23.3 0-.3 0-.4-.2-.5 0-4.8-.9-9-1.7-13.8-.7-4.8-1-9.5-2-14.3a54.8 54.8 0 0 1-1.3-16.6c.4-5.3.4-10.2-.8-15.4-.2-.8-1.5-.5-1.3.4a54 54 0 0 1 .6 16.3c-.3 5 .1 9.6 1.2 14.5 1 4.8 1.6 9.5 2.2 14.3.6 5.2 1.8 10 1.7 15.2 0 .3.1.5.3.6.5 7.6 2.2 15 2.6 22.6a154.2 154.2 0 0 1 0 24.8c.9 9.8-1.6 20.1-2.8 29.8-.6 4.5 0 9-.7 13.3-.7 3.8 1 8 1.8 11.7.2.9 1.5.5 1.3-.3l-1.5-7c-.5-2.2 0-3.9.3-6 .3-2.2-.5-4.3-.4-6.5.1-2.2.5-4.3.8-6.5 1.2-9.4 3.5-19.4 2.5-29" fill="#B7165F"/>
      <path d="M633.3 95.1c-.4 1.1-1.3 2.1-2 3.1l-1.6 2.7c-8-7.4-15.7-16-27-17.7-.9-.1-1.2 1.2-.4 1.3 11.3 1.7 19 10.4 26.9 17.7.2.3.6.3.8 0 .9-.2 1.6-1.9 2-2.5.9-1.4 2-2.7 2.6-4.2.3-.9-1-1.2-1.3-.4" fill="#DADAE7"/>
    </g>
    <g transform="translate(644 95)">
      <mask id="Q" fill="#fff">
        <use xlink:href="#O"/>
      </mask>
      <polygon fill="url(#P)" mask="url(#Q)" points="0.6266 92.5960588 83.59325 98.8298235 90.59245 6.52429412 7.6245 0.290529412"/>
    </g>
    <path d="M689.9 117c2.6-.3 4.9-3.2 5.2-6.9l-10.6-.7c-.3 3.6 1.5 6.8 4 7.5l-.5 7-2.2-.1-.1 1.8 5.8.4.1-1.8-2.2-.2.5-7zm-27.8 6.8l8 .6v-1.8l-7.9-.6-.1 1.8zm3-2.5l.8-10.6.8.1-1.3-3.8-2 3.6h.8l-.8 10.6h1.7zm4 .3l.8-10.6.8.1-1.4-3.8-1.9 3.6h.8l-.8 10.6h1.7zm9.6-12.6c2.6.6 4.4 3.8 4.1 7.5l-4.6-.4-.5 5.9.2.8c.2.2.4.4.6.4.2 0 .5 0 .6-.3.2-.2.3-.5.3-.8l1.4.1c0 .8-.4 1.6-.8 2a2 2 0 0 1-1.6.8 2 2 0 0 1-1.5-1c-.4-.5-.5-1.3-.5-2.1l.5-5.9-4.7-.3c.3-3.7 2.6-6.6 5.2-6.8v-1l1.4.1v1z" fill="#BD9086"/>
    <g transform="translate(578 141)">
      <mask id="T" fill="#fff">
        <use xlink:href="#R"/>
      </mask>
      <path d="M9 .6C1.5.8 1 9.2.2 15.4c-.8 8.8 7.5 10.3 14.5 14.1 3.8 2 6.9 5 10.9 6.6 4.9 2 10 2.5 15.2 3 4.7.6 10.1.6 14 3.6 3.7 2.9 6.3 6.8 10.7 8.7 3.8 1.6 9.3 2.7 13.2 1.3.7-.2 1-1.2 1.5-1.4h1.8c1.6-.1 3.6-1.3 2.3-2.6-3-3-5.8-5.7-8.4-8.9-1.2-1.4-4.6-4-4.1-5.8h1.9c3.3.2 8.7.3 9.4-2.2.9-3.3-18.2-3.7-20.3-3.6-8 .4-16.2-1.8-22.9-6.4-6.2-4.4-11.8-11-16.9-16.6C20.1 1.8 14 .6 9.5.6h-.6" fill="url(#S)" mask="url(#T)"/>
    </g>
    <g transform="translate(578 99)">
      <mask id="V" fill="#fff">
        <use xlink:href="#U"/>
      </mask>
      <path d="M18.5 1.4a27.9 27.9 0 0 0-12.8 12c-4 6.3-2.7 13.4-3.5 20.4C2 37 .5 40.2.5 43.4c0 4 2.5 3.4 6 4 5.7.9 12.9 3 18.1 5 5.6 2 5.1-3.7 7.7-8.2 7.3-12.8 9.7-28 1.3-40.9-1.5-2.2-5.1-3-8.7-3-2.5 0-5 .5-6.4 1" mask="url(#V)"/>
    </g>
  </g>
</svg>
