<?xml version="1.0" encoding="UTF-8"?>
<svg width="124px" height="123px" viewBox="0 0 124 123" version="1.1" xmlns="http://www.w3.org/2000/svg" xmlns:xlink="http://www.w3.org/1999/xlink">
    <!-- Generator: Sketch 53.2 (72643) - https://sketchapp.com -->
    <title>trolley 2</title>
    <desc>Created with Sketch.</desc>
    <defs>
        <linearGradient x1="50%" y1="0%" x2="50%" y2="100%" id="linearGradient-1">
            <stop stop-color="#F43EA6" offset="0%"></stop>
            <stop stop-color="#F5576C" offset="100%"></stop>
        </linearGradient>
        <linearGradient x1="50%" y1="0%" x2="50%" y2="100%" id="linearGradient-2">
            <stop stop-color="#F43EA6" offset="0%"></stop>
            <stop stop-color="#F5576C" offset="100%"></stop>
        </linearGradient>
    </defs>
    <g id="About-us" stroke="none" stroke-width="1" fill="none" fill-rule="evenodd">
        <g id="About" transform="translate(-649.000000, -1424.000000)">
            <g id="trolley-2" transform="translate(649.000000, 1424.000000)">
                <g id="trolley" transform="translate(0.037313, 0.000000)">
                    <path d="M27.8671875,98.9765625 C23.8929977,98.9765625 20.6601563,102.209404 20.6601563,106.183594 C20.6601563,110.157784 23.8929977,113.390625 27.8671875,113.390625 C31.8413773,113.390625 35.0742188,110.157784 35.0742188,106.183594 C35.0742188,102.209404 31.8413773,98.9765625 27.8671875,98.9765625 Z M27.8671875,108.585938 C26.5421448,108.585938 25.4648438,107.508636 25.4648438,106.183594 C25.4648438,104.858551 26.5421448,103.78125 27.8671875,103.78125 C29.1922302,103.78125 30.2695313,104.858551 30.2695313,106.183594 C30.2695313,107.508636 29.1922302,108.585938 27.8671875,108.585938 Z" id="Shape" fill="url(#linearGradient-1)"></path>
                    <path d="M115.792969,98.9765625 L111.949219,98.9765625 L111.949219,47.0859375 C111.949219,45.7590178 110.873795,44.6835938 109.546875,44.6835938 L97.5351562,44.6835938 L97.5351562,12.0117187 C97.5351562,10.6847991 96.4597322,9.609375 95.1328125,9.609375 C85.0110627,9.609375 56.4804154,9.609375 47.0859375,9.609375 C45.7590178,9.609375 44.6835938,10.6847991 44.6835938,12.0117187 L44.6835938,98.9765625 L43.0629501,98.9765625 C41.4010164,95.4603195 38.5914001,92.6507035 35.0742188,90.9878312 L35.0742188,7.20703125 C35.0742188,3.23284143 31.8413773,-5.68434189e-14 27.8671875,-5.68434189e-14 L7.20703125,-5.68434189e-14 C3.23284143,-5.68434189e-14 0,3.23284143 0,7.20703125 C0,11.1812211 3.23284143,14.4140625 7.20703125,14.4140625 L20.6601562,14.4140625 L20.6601562,90.9878312 C14.8494873,93.7467728 11.0507812,99.6512833 11.0507812,106.183594 C11.0507812,115.456078 18.5947037,123 27.8671875,123 C34.3994979,123 40.3040084,119.201294 43.0629501,113.390625 L115.792969,113.390625 C119.767159,113.390625 123,110.157784 123,106.183594 C123,102.209404 119.767159,98.9765625 115.792969,98.9765625 Z M107.144531,98.9765625 L49.4882813,98.9765625 L49.4882813,49.4882813 L66.3046875,49.4882813 L66.3046875,74.953125 C66.3046875,75.8633879 66.8189392,76.6948242 67.6325455,77.1020964 C68.4461516,77.5093689 69.4202271,77.421158 70.1484375,76.875 L78.3164063,70.7490234 L86.484375,76.875 C87.2135238,77.4220963 88.1875992,77.5084305 89.000267,77.1020964 C89.8138733,76.6948242 90.328125,75.8633879 90.328125,74.953125 L90.328125,49.4882813 L107.144531,49.4882813 L107.144531,98.9765625 Z M71.109375,49.4882813 L85.5234375,49.4882813 L85.5234375,70.1484375 L79.7578125,65.8242188 C79.3308334,65.5042191 78.8231506,65.34375 78.3164063,65.34375 C77.8096619,65.34375 77.3019791,65.5042191 76.875,65.8242188 L71.109375,70.1484375 L71.109375,49.4882813 Z M66.3046875,14.4140625 L75.9140625,14.4140625 L75.9140625,28.1824951 L72.441925,25.8683625 C72.0384065,25.5990372 71.5738907,25.4648438 71.109375,25.4648438 C70.6448593,25.4648438 70.1803435,25.5990372 69.776825,25.8683625 L66.3046875,28.1824951 L66.3046875,14.4140625 Z M61.5,14.4140625 L61.5,32.671875 C61.5,33.5577393 61.9879761,34.3713456 62.7687378,34.7898788 C63.5504379,35.2084122 64.4982377,35.1614913 65.2348938,34.6707 L71.109375,30.754692 L76.9838562,34.6707 C77.7214509,35.1624299 78.6701888,35.2074739 79.4500122,34.7898788 C80.2307739,34.3722839 80.71875,33.5577393 80.71875,32.671875 L80.71875,14.4140625 L92.7304688,14.4140625 L92.7304688,44.6835938 C79.4678422,44.6835938 62.58387,44.6835938 49.4882813,44.6835938 L49.4882813,14.4140625 L61.5,14.4140625 Z M7.20703125,9.609375 C5.88198853,9.609375 4.8046875,8.53207397 4.8046875,7.20703125 C4.8046875,5.88198853 5.88198853,4.8046875 7.20703125,4.8046875 L27.8671875,4.8046875 C29.1922302,4.8046875 30.2695313,5.88198853 30.2695313,7.20703125 L30.2695313,89.5407943 C29.4775085,89.4272461 28.6761018,89.3671875 27.8671875,89.3671875 C27.0582732,89.3671875 26.2568665,89.4272461 25.4648438,89.5407943 L25.4648438,12.0117188 C25.4648438,10.6847991 24.3894197,9.609375 23.0625,9.609375 L7.20703125,9.609375 Z M27.8671875,118.195313 C21.2438508,118.195313 15.8554688,112.80693 15.8554688,106.183594 C15.8554688,99.6315764 21.1556396,94.171875 27.8671875,94.171875 C34.5768586,94.171875 39.8789063,99.637207 39.8789063,106.183594 C39.8789063,112.895142 34.4192048,118.195313 27.8671875,118.195313 Z M115.792969,108.585938 L44.5099869,108.585938 C44.6235352,107.793915 44.6835937,106.992508 44.6835937,106.183594 C44.6835937,105.374679 44.6225968,104.573273 44.5099869,103.78125 L115.792969,103.78125 C117.118011,103.78125 118.195313,104.858551 118.195313,106.183594 C118.195313,107.508636 117.118011,108.585938 115.792969,108.585938 Z" id="Shape" fill="url(#linearGradient-1)"></path>
                    <path d="M99.9375,94.171875 C101.26442,94.171875 102.339844,93.0964509 102.339844,91.7695313 L102.339844,86.9648438 C102.339844,85.6379241 101.26442,84.5625 99.9375,84.5625 C98.6105803,84.5625 97.5351563,85.6379241 97.5351563,86.9648438 L97.5351563,91.7695313 C97.5351563,93.0964509 98.6105803,94.171875 99.9375,94.171875 Z" id="Path" fill="url(#linearGradient-2)"></path>
                    <path d="M99.9375,74.953125 C101.263481,74.953125 102.339844,76.0294877 102.339844,77.3554688 C102.339844,78.6814498 101.263481,79.7578125 99.9375,79.7578125 C98.6115189,79.7578125 97.5351563,78.6814498 97.5351563,77.3554688 C97.5351563,76.0294877 98.6115189,74.953125 99.9375,74.953125 Z" id="Path" fill="url(#linearGradient-1)"></path>
                    <path d="M90.328125,84.5625 C89.0012053,84.5625 87.9257813,85.6379241 87.9257813,86.9648438 L87.9257813,91.7695313 C87.9257813,93.0964509 89.0012053,94.171875 90.328125,94.171875 C91.6550447,94.171875 92.7304688,93.0964509 92.7304688,91.7695313 L92.7304688,86.9648438 C92.7304688,85.6379241 91.6550447,84.5625 90.328125,84.5625 Z" id="Path" fill="url(#linearGradient-2)"></path>
                </g>
            </g>
        </g>
    </g>
</svg>