<?xml version="1.0" encoding="UTF-8"?>
<svg width="187px" height="58px" viewBox="0 0 187 58" version="1.1" xmlns="http://www.w3.org/2000/svg" xmlns:xlink="http://www.w3.org/1999/xlink">
    <!-- Generator: Sketch 53.2 (72643) - https://sketchapp.com -->
    <title>checkicon/visa</title>
    <desc>Created with Sketch.</desc>
    <g id="Dashboard" stroke="none" stroke-width="1" fill="none" fill-rule="evenodd">
        <g id="Edit-account" transform="translate(-791.000000, -527.000000)">
            <g id="checkicon/visa" transform="translate(791.000000, 526.000000)">
                <g id="visa">
                    <polygon id="Path" fill="#3C58BF" fill-rule="nonzero" points="68.9426752 57.088004 78.1295635 3.11681548 92.4840764 3.11681548 83.5842784 57.088004"></polygon>
                    <polygon id="Path" fill="#293688" fill-rule="nonzero" points="68.9426752 57.088004 80.7133758 3.11681548 92.4840764 3.11681548 83.5842784 57.088004"></polygon>
                    <path d="M137.88535,3.84471637 C134.917947,2.6374661 130.170101,1.43021584 124.235294,1.43021584 C109.398277,1.43021584 98.7156238,8.97553001 98.7156238,19.8407824 C98.7156238,27.9897217 106.134133,32.2150977 112.06894,34.9314108 C118.003747,37.6477239 119.784189,39.4585993 119.784189,41.8730998 C119.784189,45.4948506 115.036343,47.305726 110.881978,47.305726 C104.947171,47.305726 101.683027,46.4002883 96.6384414,44.2876004 L94.5612589,43.3821627 L92.4840764,55.7564779 C96.0449607,57.2655408 102.573248,58.7746036 109.398277,58.7746036 C125.125515,58.7746036 135.511428,51.2292894 135.511428,39.7604119 C135.511428,33.422348 131.653803,28.5933469 122.751592,24.6697835 C117.410266,21.9534704 114.146122,20.4444076 114.146122,17.7280945 C114.146122,15.3135939 116.816785,12.8990934 122.751592,12.8990934 C127.796178,12.8990934 131.357063,13.8045311 134.027726,15.0117814 L135.511428,15.6154065 L137.88535,3.84471637 L137.88535,3.84471637 Z" id="Path" fill="#3C58BF" fill-rule="nonzero"></path>
                    <path d="M137.88535,3.84471637 C134.917947,2.6374661 130.170101,1.43021584 124.235294,1.43021584 C109.398277,1.43021584 101.386287,8.97553001 101.386287,19.8407824 C101.386287,27.9897217 106.134133,32.2150977 112.06894,34.9314108 C118.003747,37.6477239 119.784189,39.4585993 119.784189,41.8730998 C119.784189,45.4948506 115.036343,47.305726 110.881978,47.305726 C104.947171,47.305726 101.683027,46.4002883 96.6384414,44.2876004 L94.5612589,43.3821627 L92.4840764,55.7564779 C96.0449607,57.2655408 102.573248,58.7746036 109.398277,58.7746036 C125.125515,58.7746036 135.511428,51.2292894 135.511428,39.7604119 C135.511428,33.422348 131.653803,28.5933469 122.751592,24.6697835 C117.410266,21.9534704 114.146122,20.4444076 114.146122,17.7280945 C114.146122,15.3135939 116.816785,12.8990934 122.751592,12.8990934 C127.796178,12.8990934 131.357063,13.8045311 134.027726,15.0117814 L135.511428,15.6154065 L137.88535,3.84471637 L137.88535,3.84471637 Z" id="Path" fill="#293688" fill-rule="nonzero"></path>
                    <path d="M162.701757,3.11681548 C159.153916,3.11681548 156.493036,3.41665541 155.014769,7.01473464 L132.840764,57.088004 L148.806047,57.088004 L151.762581,48.0928059 L170.684398,48.0928059 L172.458319,57.088004 L186.649682,57.088004 L174.232239,3.11681548 L162.701757,3.11681548 Z M155.901729,39.0976078 C156.788689,36.3990484 161.814797,23.2060912 161.814797,23.2060912 C161.814797,23.2060912 162.99741,19.9078519 163.88437,17.8089723 L164.771331,22.9062513 C164.771331,22.9062513 167.727864,36.3990484 168.319171,39.3974477 L155.901729,39.3974477 L155.901729,39.0976078 Z" id="Shape" fill="#3C58BF" fill-rule="nonzero"></path>
                    <path d="M166.249598,3.11681548 C162.701757,3.11681548 160.040876,3.41665541 158.562609,7.01473464 L132.840764,57.088004 L148.806047,57.088004 L151.762581,48.0928059 L170.684398,48.0928059 L172.458319,57.088004 L186.649682,57.088004 L174.232239,3.11681548 L166.249598,3.11681548 Z M155.901729,39.0976078 C157.084342,36.0992084 161.814797,23.2060912 161.814797,23.2060912 C161.814797,23.2060912 162.99741,19.9078519 163.88437,17.8089723 L164.771331,22.9062513 C164.771331,22.9062513 167.727864,36.3990484 168.319171,39.3974477 L155.901729,39.3974477 L155.901729,39.0976078 Z" id="Shape" fill="#293688" fill-rule="nonzero"></path>
                    <path d="M40.9171975,40.5968075 L39.4225053,32.8009691 C36.7320594,23.8057711 28.062845,13.9110532 18.4968153,9.1136142 L31.9490446,57.088004 L48.0917197,57.088004 L72.3057325,3.11681548 L56.1630573,3.11681548 L40.9171975,40.5968075 Z" id="Path" fill="#3C58BF" fill-rule="nonzero"></path>
                    <path d="M40.9171975,40.5968075 L39.4225053,32.8009691 C36.7320594,23.8057711 28.062845,13.9110532 18.4968153,9.1136142 L31.9490446,57.088004 L48.0917197,57.088004 L72.3057325,3.11681548 L59.1524416,3.11681548 L40.9171975,40.5968075 Z" id="Path" fill="#293688" fill-rule="nonzero"></path>
                    <path d="M0,3.11681548 L2.59758532,3.72399135 C21.0693032,8.27781037 33.7686092,19.8141519 38.6751592,33.475609 L33.4799886,7.6706345 C32.6141268,4.02757928 30.0165415,3.11681548 26.841715,3.11681548 L0,3.11681548 L0,3.11681548 Z" id="Path" fill="#FFBC00" fill-rule="nonzero"></path>
                    <path d="M0,3.11681548 L0,3.11681548 C18.4717178,7.71663268 33.7686092,19.6761574 38.6751592,33.475609 L33.7686092,11.7031409 C32.9027474,8.02328716 30.0165415,5.8767058 26.841715,5.8767058 L0,3.11681548 Z" id="Path" fill="#F7981D" fill-rule="nonzero"></path>
                    <path d="M0,3.11681548 L0,3.11681548 C18.4717178,7.71663268 33.7686092,19.6761574 38.6751592,33.475609 L35.2117121,21.5160843 C34.3458504,17.8362305 33.191368,14.1563768 29.1506797,12.6231044 L0,3.11681548 Z" id="Path" fill="#ED7C00" fill-rule="nonzero"></path>
                    <g id="Group" transform="translate(18.496815, 9.863214)" fill="#051244" fill-rule="nonzero">
                        <path d="M36.9043459,29.5674866 L26.7854123,19.5645558 L22.0235612,30.744302 L20.8330985,23.3892058 C18.1545572,14.5630904 9.52370216,4.85436347 0,0.147101923 L13.3927062,47.2197174 L29.4639536,47.2197174 L36.9043459,29.5674866 Z" id="Path"></path>
                        <polygon id="Path" points="64.5826053 47.2197174 51.7851305 34.2747482 49.4042049 47.2197174"></polygon>
                        <path d="M98.8084099,28.9790789 L98.8084099,28.9790789 C99.9988727,30.1558943 100.594104,31.0385059 100.296488,32.2153212 C100.296488,35.7457674 95.5346373,37.5109905 91.3680176,37.5109905 C85.4157037,37.5109905 82.1419311,36.6283789 77.0824643,34.568952 L74.9991545,33.6863405 L72.9158447,45.7486982 C76.487233,47.2197174 83.0347782,48.6907367 89.8799391,48.6907367 C99.4036413,48.6907367 107.141649,46.042902 111.605885,41.3356405 L98.8084099,28.9790789 Z" id="Path"></path>
                        <path d="M116.07012,47.2197174 L130.058058,47.2197174 L133.034215,38.393602 L152.081619,38.393602 L153.867313,47.2197174 L168.152866,47.2197174 L163.093399,25.7428366 L145.236458,8.67901349 L146.129305,13.386275 C146.129305,13.386275 149.105462,26.6254481 149.700693,29.5674866 L137.200834,29.5674866 C138.391297,26.6254481 143.153148,13.9746827 143.153148,13.9746827 C143.153148,13.9746827 144.343611,10.7384404 145.236458,8.67901349" id="Path"></path>
                    </g>
                </g>
            </g>
        </g>
    </g>
</svg>