<svg width="704px" height="223px" xmlns="http://www.w3.org/2000/svg" xmlns:xlink="http://www.w3.org/1999/xlink">
  <defs>
    <rect id="a" x="-5.00222086e-12" width="704" height="223"/>
    <path d="M26.5 0L11.2 63 0 154.9h14c0-2.4.1-5 .4-7.6 2.3-18.5 12.5-33.5 22.9-33.5 10.3 0 16.9 15 14.6 33.5a62 62 0 0 1-1.4 7.6H185c0-2.4.1-5 .4-7.6 2.3-18.5 12.5-33.5 22.9-33.5 10.3 0 16.9 15 14.6 33.5-.3 2.6-.8 5.2-1.4 7.6h32.6l6.6-54.7-51-22.7L167.3 0H26.5z" id="c"/>
    <polygon id="e" points="0 287.917603 714.932748 287.917603 714.932748 0.349740401 0 0.349740401"/>
    <path d="M24.2.6L10.6 56 .7 136.6h12.4c0-2.2.1-4.4.4-6.7 2-16.3 11-29.5 20.2-29.5s15 13.2 13 29.5a54 54 0 0 1-1.3 6.7h119.1c0-2.2.1-4.4.4-6.7 2-16.3 11-29.5 20.2-29.5s15 13.2 13 29.5a54 54 0 0 1-1.2 6.7h28.8l5.9-48-45.2-20-37.6-68H24.2z" id="g"/>
    <path d="M2.2.3h63.2c6.2 0 11 6.2 12.6 15.3H.3L2.2.3z" id="i"/>
    <linearGradient x1="-5.68130169e-07%" y1="50.0014483%" x2="99.9991102%" y2="50.0014483%" id="j">
      <stop stop-color="#FFEFE8" offset="0%"/>
      <stop stop-color="#FFE8FF" offset="100%"/>
    </linearGradient>
    <polygon id="l" points="2.32251244 0.325722222 145.929726 0.325722222 144.077015 15.568463 0.469800995 15.568463"/>
    <linearGradient x1="6.34417611e-05%" y1="50.0014483%" x2="100.000074%" y2="50.0014483%" id="m">
      <stop stop-color="#FFEFE8" offset="0%"/>
      <stop stop-color="#FFE8FF" offset="100%"/>
    </linearGradient>
    <polygon id="o" points="2.17503731 0.259518519 159.068259 0.259518519 157.215547 15.5022593 0.321442786 15.5022593"/>
    <linearGradient x1="0.000160376939%" y1="50.0012897%" x2="100.000012%" y2="50.0012897%" id="p">
      <stop stop-color="#FFEFE8" offset="0%"/>
      <stop stop-color="#FFE8FF" offset="100%"/>
    </linearGradient>
    <polygon id="r" points="1.29195274 0.259518519 158.185174 0.259518519 157.622649 4.88848148 0.729427861 4.88848148"/>
    <linearGradient x1="-0.000245931061%" y1="50.0064092%" x2="100.000003%" y2="50.0064092%" id="s">
      <stop stop-color="#FFEFE8" offset="0%"/>
      <stop stop-color="#FFE8FF" offset="100%"/>
    </linearGradient>
  </defs>
  <g fill="none" fill-rule="evenodd">
    <mask id="b" fill="#fff">
      <use xlink:href="#a"/>
    </mask>
    <use fill="#FFF" xlink:href="#a"/>
    <g mask="url(#b)">
      <g transform="translate(-86 201)">
        <mask id="d" fill="#fff">
          <use xlink:href="#c"/>
        </mask>
        <path d="M26.5 0L11.2 63 0 154.9h14c0-2.4.1-5 .4-7.6 2.3-18.5 12.5-33.5 22.9-33.5 10.3 0 16.9 15 14.6 33.5a62 62 0 0 1-1.4 7.6H185c0-2.4.1-5 .4-7.6 2.3-18.5 12.5-33.5 22.9-33.5 10.3 0 16.9 15 14.6 33.5-.3 2.6-.8 5.2-1.4 7.6h32.6l6.6-54.7-51-22.7L167.3 0H26.5z" mask="url(#d)"/>
      </g>
    </g>
    <g mask="url(#b)">
      <g transform="translate(-27 -44)">
        <path d="M359.7 88.4a30.3 30.3 0 0 1 30.3 30.3v150.1H265.4V109.2a38 38 0 0 1 73.9-13 30.3 30.3 0 0 1 20.4-7.8M656.7 187.3a47.3 47.3 0 0 0-94.4 6.5v75h94.8v-9a36.3 36.3 0 0 0-.4-72.5" fill="#59C602"/>
        <polygon fill="#FFF" points="100.862608 268.826811 281.051457 268.826811 281.051457 89.4108686 190.957032 43.9022237 100.862608 89.4108686"/>
        <mask id="f" fill="#fff">
          <use xlink:href="#e"/>
        </mask>
        <polygon fill="#B2B2B2" mask="url(#f)" points="25.7992884 268.826723 100.862785 268.826723 100.862785 89.4107803 25.7992884 89.4107803"/>
        <polygon fill="#CBCBCB" mask="url(#f)" points="190.956147 43.902047 115.894421 43.902047 25.7991114 89.4098088 100.862608 89.4098088"/>
        <polygon fill="#4E4E4E" mask="url(#f)" points="134.653614 268.826723 247.259035 268.826723 247.259035 142.624312 134.653614 142.624312"/>
        <polygon fill="#CBCBCB" mask="url(#f)" points="274.076844 93.6879464 190.956324 51.7023178 183.234678 55.6033364 267.102939 97.9669672 267.102939 268.826635 274.076844 268.826635"/>
        <polygon fill="#989898" mask="url(#f)" points="29.2866832 103.331508 97.3753899 103.331508 97.3753899 96.370261 29.2866832 96.370261"/>
        <polygon fill="#989898" mask="url(#f)" points="93.887995 268.826723 97.3753899 268.826723 97.3753899 103.331508 93.887995 103.331508"/>
        <polygon fill="#CBCBCB" mask="url(#f)" points="120.705539 139.186965 120.705539 268.826723 127.679444 268.826723 127.679444 135.663948"/>
        <polygon fill="#FFD4A8" mask="url(#f)" points="167.556002 268.826723 232.747543 268.826723 232.747543 177.601002 167.556002 177.601002"/>
        <path d="M221.8 196c3.6-.6 6.4-4.9 6.4-10.1h-14.6c0 5.2 2.8 9.5 6.4 10.2v10h-3v2.6h7.9v-2.6h-3v-10zm-37.2 12.7h11v-2.6h-11v2.6zm3.8-3.9v-15h1.2l-2.3-5.2-2.3 5.2h1.2v15h2.2zm5.5 0v-15h1.2l-2.3-5.2-2.3 5.2h1.1v15h2.3zm11.9-18.8c3.5.6 6.3 5 6.3 10.2h-6.3v8.3c0 .4 0 .9.3 1.2.2.2.5.4.8.4.3 0 .6-.2.8-.4.3-.3.4-.8.4-1.2h1.8c0 1.2-.3 2.2-.9 3-.5.7-1.3 1.2-2 1.2-.9 0-1.7-.5-2.2-1.2-.5-.8-.9-1.8-.9-3v-8.3h-6.3c0-5.3 2.8-9.6 6.3-10.2v-1.4h1.9v1.4z" fill="#AA836D" mask="url(#f)"/>
        <polygon fill="#DDA272" mask="url(#f)" points="116.618447 268.826723 167.556002 268.826723 167.556002 177.601002 116.618447 177.601002"/>
        <polygon fill="#BD885C" mask="url(#f)" points="134.653614 195.771605 149.520835 195.771605 149.520835 177.601002 134.653614 177.601002"/>
        <polygon fill="#BD885C" mask="url(#f)" points="134.653614 268.826723 149.520835 268.826723 149.520835 250.657003 134.653614 250.657003"/>
        <polygon fill="#FFD4A8" mask="url(#f)" points="432.372092 109.228167 506.857748 109.228167 520.11622 0.349387128 445.630564 0.349387128"/>
        <polygon fill="#DDA272" mask="url(#f)" points="357.886613 109.228167 432.372269 109.228167 445.630741 0.349387128 371.145085 0.349387128"/>
        <polygon fill="#BD885C" mask="url(#f)" points="384.25914 109.228167 405.999388 109.228167 409.235471 82.6593775 387.494338 82.6593775"/>
        <polygon fill="#E61D6E" mask="url(#f)" points="583.924395 160.999196 609.93075 160.999196 608.073343 176.249997 582.066988 176.249997"/>
        <polygon fill="#FF6663" mask="url(#f)" points="583.924395 160.999196 609.93075 160.999196 609.366183 165.630607 583.360713 165.630607"/>
        <path d="M466.3 209.6c9.1 0 15 13.3 13 29.6-2 16.4-11 29.6-20.2 29.6h-13.8c-9.1 0-15-13.2-13-29.6 2-16.3 11-29.6 20.2-29.6h13.8z" fill="#4E4E4E" mask="url(#f)"/>
        <path d="M452.5 209.6c9.2 0 15 13.3 13 29.6-2 16.4-11 29.6-20.2 29.6-9.1 0-15-13.2-13-29.6 2-16.3 11-29.6 20.2-29.6" fill="#353635" mask="url(#f)"/>
        <path d="M617.6 209.6c9.2 0 15 13.3 13 29.6-2 16.4-11 29.6-20.2 29.6h-13.8c-9.1 0-15-13.2-13-29.6 2-16.3 11-29.6 20.2-29.6h13.8z" fill="#4E4E4E" mask="url(#f)"/>
        <path d="M603.8 209.6c9.2 0 15 13.3 13 29.6-2 16.4-11 29.6-20.2 29.6-9.1 0-15-13.2-13-29.6 2-16.3 11-29.6 20.2-29.6" fill="#353635" mask="url(#f)"/>
        <path d="M349.2 209.6c9.1 0 15 13.3 13 29.6-2 16.4-11 29.6-20.2 29.6h-13.8c-9.2 0-15-13.2-13-29.6 2-16.3 11-29.6 20.2-29.6h13.8zM500.5 209.6c9.2 0 15 13.3 13 29.6-2 16.4-11 29.6-20.2 29.6h-13.8c-9.1 0-15-13.2-13-29.6 2-16.3 11-29.6 20.2-29.6h13.8z" fill="#4E4E4E" mask="url(#f)"/>
        <polygon fill="#E84D93" mask="url(#f)" points="445.166079 109.228167 562.28892 109.228167 599.855621 177.601532 482.731011 177.602415"/>
        <polygon fill="#F9509D" mask="url(#f)" points="482.7311 177.602857 599.854825 177.60109 644.993624 197.659939 527.869014 197.659939"/>
        <polygon fill="#E61D6E" mask="url(#f)" points="521.985573 245.975339 639.109298 245.975339 644.99389 197.659939 527.868395 197.659939"/>
        <polygon fill="#FFF" mask="url(#f)" points="526.943319 205.263525 545.606766 205.263525 548.053517 226.035985 524.414272 226.035985"/>
        <polygon fill="#4E4E4E" mask="url(#f)" points="551.346322 205.263525 619.381935 205.263525 611.87532 226.035985 553.793959 226.035985"/>
        <polygon fill="#FFF" mask="url(#f)" points="644.067399 205.263525 625.403952 205.263525 617.898222 226.035985 641.538351 226.035985"/>
        <polygon fill="#FFF" mask="url(#f)" points="562.425725 241.204915 599.831375 241.204915 601.097668 230.80632 563.692903 230.80632"/>
        <path d="M309.5 246H342c.5-2.2 1-4.4 1.2-6.8 2-16.3-3.8-29.6-13-29.6-9.1 0-18.2 13.3-20.2 29.6-.3 2.4-.4 4.6-.4 6.8M460.9 246h32.3c.5-2.2 1-4.4 1.2-6.8 2-16.3-3.8-29.6-13-29.6-9.1 0-18.2 13.3-20.1 29.6a52 52 0 0 0-.4 6.8" fill="#7A0000" mask="url(#f)"/>
        <path d="M335.4 209.6c9.2 0 15 13.3 13 29.6-2 16.4-11 29.6-20.2 29.6s-15-13.2-13-29.6c2-16.3 11-29.6 20.2-29.6M486.7 209.6c9.2 0 15 13.3 13 29.6-2 16.4-11 29.6-20.2 29.6-9.1 0-15-13.2-13-29.6 2-16.3 11-29.6 20.2-29.6" fill="#1F1F1F" mask="url(#f)"/>
      </g>
      <g transform="translate(270 64)">
        <mask id="h" fill="#fff">
          <use xlink:href="#g"/>
        </mask>
        <path d="M24.2.6L10.6 56 .7 136.6h12.4c0-2.2.1-4.4.4-6.7 2-16.3 11-29.5 20.2-29.5s15 13.2 13 29.5a54 54 0 0 1-1.3 6.7h119.1c0-2.2.1-4.4.4-6.7 2-16.3 11-29.5 20.2-29.5s15 13.2 13 29.5a54 54 0 0 1-1.2 6.7h28.8l5.9-48-45.2-20-37.6-68H24.2z" fill="#E61D6E" mask="url(#h)"/>
      </g>
      <g transform="translate(232 69)">
        <polygon fill="#CBCBCB" points="268.00098 92.167384 252.736863 92.167384 250.212124 112.928865 265.477124 112.928865"/>
        <polygon fill="#6D0317" points="54.9771368 71.4072265 46.1498234 71.4072265 43.6259677 92.1678253 52.4532811 92.1678253"/>
        <path d="M75.2 110c4.4 0 7 7.2 6 16.1-1.2 9-5.6 16.2-10 16.2-4.3 0-7-7.2-5.8-16.2 1-9 5.5-16.2 9.8-16.2M226.2 110c4.4 0 7 7.2 6 16.1-1.1 9-5.5 16.2-9.9 16.2-4.3 0-7-7.2-6-16.2 1.2-9 5.6-16.2 10-16.2" fill="#7F7F7F"/>
        <polygon fill="#6D0317" points="252.736687 92.167384 240.952806 92.167384 243.395418 112.928865 250.212831 112.928865"/>
        <polygon fill="#175163" points="193.831413 0.235685185 300.280194 0.235685185 335.546177 64.5194815 229.097396 64.5194815"/>
        <polygon fill="#042E39" points="157.040255 0.235685185 182.422755 0.235685185 217.417631 64.0295741 149.909347 58.8877531"/>
        <polygon fill="#027A8E" points="274.897517 0.235685185 300.280017 0.235685185 326.442281 47.9261852 324.865092 47.9261852 323.020328 63.0956605 267.766609 58.8877531"/>
        <polygon fill="#E61D6E" points="182.028723 47.92645 207.980812 47.92645 206.128101 63.1691907 180.175128 63.1691907"/>
        <path d="M262.6 64.5c.7-5.7 3.2-11 6.6-14.8 3.5-4 8.1-6.4 12.9-6.4 4.8 0 8.8 2.4 11.4 6.4 2.5 3.8 3.7 9 3 14.8h-4.1c.6-4.8-.4-9.2-2.5-12.3-2-3-4.8-4.8-8.3-4.8-3.4 0-6.8 1.8-9.5 4.8a22.7 22.7 0 0 0-5.4 12.3h-4.1z" fill="#175163"/>
        <polygon fill="#FF6663" points="182.028723 47.92645 207.980812 47.92645 207.418287 52.555413 181.465315 52.555413"/>
        <polygon fill="#353635" points="354.221561 108.875257 302.860479 108.875257 296.095168 92.1672074 292.353539 92.1672074 294.79615 112.928689 352.759173 112.928689"/>
        <polygon fill="#24949E" points="221.830493 51.274592 245.352333 0.23595 257.28104 0.23595 228.313216 63.0923944"/>
        <polygon fill="#24949E" points="232.914705 64.5195698 262.540427 0.235773457 282.486658 0.235773457 252.860937 64.5195698"/>
        <polygon fill="#2BABBF" points="274.897517 0.235685185 282.486746 0.235685185 272.1785 22.6045926"/>
        <g transform="translate(157.2 96.2)">
          <mask id="k" fill="#fff">
            <use xlink:href="#i"/>
          </mask>
          <path d="M2.2.3h63.2c6.2 0 11 6.2 12.6 15.3H.3L2.2.3z" fill="url(#j)" opacity="0.35844494" mask="url(#k)"/>
        </g>
        <g transform="translate(0 96.2)">
          <mask id="n" fill="#fff">
            <use xlink:href="#l"/>
          </mask>
          <polygon fill="url(#m)" opacity="0.246117001" mask="url(#n)" points="2.32251244 0.325722222 145.929726 0.325722222 144.077015 15.568463 0.469800995 15.568463"/>
        </g>
        <g transform="translate(23 47.7)">
          <mask id="q" fill="#fff">
            <use xlink:href="#o"/>
          </mask>
          <polygon fill="url(#p)" opacity="0.40969122" mask="url(#q)" points="2.17503731 0.259518519 159.068259 0.259518519 157.215547 15.5022593 0.321442786 15.5022593"/>
        </g>
        <g opacity="0.124441964" transform="translate(23.8 47.7)">
          <mask id="t" fill="#fff">
            <use xlink:href="#r"/>
          </mask>
          <polygon fill="url(#s)" mask="url(#t)" points="1.29195274 0.259518519 158.185174 0.259518519 157.622649 4.88848148 0.729427861 4.88848148"/>
        </g>
        <g fill="#FFF">
          <path d="M104.2 87.3V66.8l.2-.2c2.7-4.4 6.8-4.9 9.2-5 1 0 .5-.5 0-.6-5.6-1.5-8.2 1.2-9.4 3.8v-13l32.7-20v36.6l-32.7 19zM68 31.3l10 6.4V51c0 .7.3 1.3.9 1.7l10 7.2a2 2 0 0 0 3.4-1.7V46.8l7.7 5v35.1L68 68.4V31.3zm34.4-22.5l10.2 5.9-31.8 19.8-10.9-7 32.5-18.7zM84.6 37l32.1-20 6.1 3.5-32 20.5-6.2-4zm-2.4 3.3l5.9 3.8v10.2L82 50v-9.7zm20 7.9l-7.5-4.8L126.9 23l8.5 5-33.3 20.3zM140 25.7L103.5 4.6a2 2 0 0 0-2.1 0l-36.5 21a1.9 1.9 0 0 0-.4.4l-.2.2-.1.1v.1H64l-.1.2-.2.6v42.4a2 2 0 0 0 1 1.8l36.6 21.1a2 2 0 0 0 2 0l36.6-21c.7-.4 1-1.1 1-1.9V27.5a2 2 0 0 0-1-1.8z"/>
          <path d="M127 63.6c-.1.9 1-.2 1-.2-.5 7.7-10 8.4-10 8.4-1 .3 2.2.6 2.2.6 8.3.2 8.6-6.2 9-7.3.2-1.1 1.4-.4.7-2s-2.6-.5-2.8.5M131.2 54.6a2.7 2.7 0 1 1-1.4-5.1 2.7 2.7 0 0 1 1.4 5.1m-2 3.4a1.4 1.4 0 1 1-.7-2.6 1.4 1.4 0 0 1 .7 2.6m6.1-5.2a5.5 5.5 0 1 0-10.6 2.8 5.5 5.5 0 0 0 10.6-2.8"/>
        </g>
      </g>
    </g>
  </g>
</svg>
