<svg xmlns="http://www.w3.org/2000/svg" viewBox="0 0 690.82 326.97">
  <defs>
    <style>
      .cls-1{fill:#e71e6e}
    </style>
  </defs>
  <g id="Layer_2" data-name="Layer 2">
    <g id="Capa_1" data-name="Capa 1">
      <path class="cls-1" d="M281.41 78.93L146.47 1a7.71 7.71 0 0 0-7.69 0L3.85 78.93l-.12.07-.62.41-.2.15c-.2.16-.39.33-.58.51l-.11.1a6.39 6.39 0 0 0-.59.68l-.15.21c-.09.12-.18.24-.26.37a1.62 1.62 0 0 0-.1.18l-.12.27c-.11.21-.22.41-.31.62a1.08 1.08 0 0 0-.08.19 7.84 7.84 0 0 0-.52 1.81v.16q0 .42-.06.84v155.88A7.68 7.68 0 0 0 3.84 248l134.93 77.9a7.67 7.67 0 0 0 7.68 0L281.38 248a7.7 7.7 0 0 0 3.84-6.66V85.58a7.61 7.61 0 0 0-3.81-6.65zm-140 83.18l-27.4-17.54 118.81-75.93 31.6 18.25-123 75.22zm-73.72-29l21.89 14v37.45l-21.89-15.7zm9.18-12.38L195.3 47l22.52 13-118 75.46zm65.76-104.16l37.58 21.69L62.58 111.6 22.49 85.93l120.14-69.36zM15.39 99.64l37 23.67v49.56a7.65 7.65 0 0 0 3.21 6.24l37.26 26.74A7.69 7.69 0 0 0 105 199.6V157l28.67 18.36v129.87L15.39 237zM149 306.71V231a4.27 4.27 0 0 0 .72-.86c10.15-16.22 25.37-18.07 34-18.18 3.59-.05 1.77-2.09-.05-2.59-20.64-5.58-30.24 4.66-34.65 14v-47.89l120.83-73.91V237L149 306.71z"/>
      <path class="cls-1" d="M233.66 218.92c-.71 3.45 3.68-.44 3.68-.44-2.21 28.23-37.22 31.08-37.22 31.08-3.54.95 8.16 2.15 8.16 2.15 30.49.52 31.76-23.12 32.84-27.19s5.57-1.5 2.93-7.29-9.69-1.74-10.39 1.69zm5.63-54.17a20.25 20.25 0 1 0 24.79 14.34 20.25 20.25 0 0 0-24.79-14.34z"/>
      <path d="M255.6 173.92a9.8 9.8 0 1 1-12-6.94 9.79 9.79 0 0 1 12 6.94zm-9.31 17a5.55 5.55 0 1 1-6.8-3.93 5.56 5.56 0 0 1 6.8 3.94z" fill="#fff"/>
      <path d="M439.19 139.38l-26.25-59.31h-15.6l9.83 21.68-16.7 37.63-38.07-86.21h-15.56l47.21 106.44a6.67 6.67 0 0 0 2.54 2.95 7 7 0 0 0 3.88 1.11 6.78 6.78 0 0 0 6.41-4.06L414.83 119l18 40.68a7.1 7.1 0 0 0 12.8-.08l47.05-106.42H477.4l-38.21 86.2zm65.36-86.21h14v109.66h-14zm96.94 7.2c-7.06-5.43-16.94-8.18-29.36-8.18s-22.3 2.75-29.31 8.18C535.65 65.93 532 73.73 532 83.58c0 5.73 1.2 10.52 3.57 14.22a27.34 27.34 0 0 0 9.15 8.84 48 48 0 0 0 12.43 5.08c4.47 1.18 9 2.25 13.57 3.19 5.55 1.1 10.22 2.23 13.89 3.33a35.82 35.82 0 0 1 8.5 3.58 10.24 10.24 0 0 1 4 4.19 15 15 0 0 1 1.2 6.42c0 3.73-.85 6.71-2.51 8.86a18.8 18.8 0 0 1-6.52 5.32 27 27 0 0 1-8.57 2.55 61 61 0 0 1-17.21 0 27.62 27.62 0 0 1-8.57-2.55 18 18 0 0 1-6.44-5.3c-1.63-2.15-2.46-5.14-2.46-8.87v-2.09H532v2.09c0 9.85 3.64 17.63 10.82 23.14 7 5.38 16.86 8.11 29.3 8.11s22.31-2.72 29.35-8.1c7.23-5.51 10.9-13.29 10.9-23.14 0-5.73-1.21-10.49-3.58-14.16a27.56 27.56 0 0 0-9.14-8.76 48 48 0 0 0-12.43-5.08q-6.74-1.78-13.57-3.2c-5.45-1.11-10-2.23-13.67-3.33a35.75 35.75 0 0 1-8.51-3.64A11.15 11.15 0 0 1 547.3 90a14.24 14.24 0 0 1-1.3-6.41c0-3.74.82-6.73 2.46-8.88a17.92 17.92 0 0 1 6.54-5.29 26.81 26.81 0 0 1 8.56-2.55 68.27 68.27 0 0 1 8.61-.62 70.18 70.18 0 0 1 8.6.62 27.1 27.1 0 0 1 8.57 2.55 18.56 18.56 0 0 1 6.52 5.32c1.67 2.15 2.51 5.13 2.51 8.86v2.09h14V83.6c0-9.87-3.66-17.67-10.88-23.23zm89.33 6.71v-13.9h-63.64a7 7 0 0 0-4.9 2 6.63 6.63 0 0 0-2.12 4.89v95.76a7.14 7.14 0 0 0 7 7h63.64v-14.05h-56.6v-38.9h42.7l4.21-14H634.2V67.07h56.62z" fill="#706f6f"/>
      <path class="cls-1" d="M383.34 222.11L431 281.35h-13.14l-41.54-51.78-12.58 13.17v38.76h-10.23V171.94h10.23v56l53.24-56h14zM452.83 182v34.23h48l-3.06 10.24h-44.94v44.76h58.81v10.27h-63.93a5.25 5.25 0 0 1-5.13-5.12v-99.47a4.68 4.68 0 0 1 1.54-3.51 5.06 5.06 0 0 1 3.59-1.47h63.93V182zm80.74 0v34.23h48l-3.06 10.24h-44.94v44.76h58.81v10.27h-63.93a5.25 5.25 0 0 1-5.13-5.12v-99.47a4.68 4.68 0 0 1 1.54-3.51 5 5 0 0 1 3.59-1.47h63.93V182zm125.36-10.09a32 32 0 0 1 12.36 2.71 33.3 33.3 0 0 1 10.17 6.95 32.34 32.34 0 0 1 9.36 22.82 31.5 31.5 0 0 1-2.56 12.65 33.2 33.2 0 0 1-7 10.39 33.68 33.68 0 0 1-10.39 7A31.67 31.67 0 0 1 658.2 237H617v44.5h-10.29V176.91a4.64 4.64 0 0 1 1.54-3.51 5 5 0 0 1 3.59-1.47h47.09zm-.73 55a21.7 21.7 0 0 0 8.63-1.76 22.52 22.52 0 0 0 12-12 22.1 22.1 0 0 0 1.76-8.78 21.7 21.7 0 0 0-1.76-8.63 22.58 22.58 0 0 0-12-12 21.7 21.7 0 0 0-8.63-1.74H617v44.91h41.2z"/>
    </g>
  </g>
</svg>
