<svg width="991" height="779" xmlns="http://www.w3.org/2000/svg"><g fill="none" fill-rule="evenodd"><path d="M1060 649.003c0 7.73-181.771 13.997-406 13.997s-406-6.266-406-13.997C248 641.27 429.771 635 654 635c224.224.005 406 6.271 406 14.003zM735 711.5c0 5.246-158.49 9.5-354 9.5s-354-4.254-354-9.5 158.49-9.5 354-9.5 354 4.254 354 9.5z" fill="#E1E1FE" fill-rule="nonzero"/><path d="M853.205 546.159c.11.498.15.906.07 1.155.268-.831.353-1.688.343-2.554 1.945-6.738 4.25-13.356 6.95-19.79.553-1.305 1.14-2.594 1.727-3.89 3.11-1.12 10.509-1.807 12.464-2.45 4.035-1.324 9.21-2.808 12.544-5.517 1.388-1.125 4.751-4.965 2.995-6.946-1.995-2.241-9.046 2.275-10.767 3.41-3.816 2.515-7.25 5.638-11.32 7.714-1.856.946-3.886 1.718-5.537 2.938a156.784 156.784 0 0 1 8.9-16.637c3.001-1.16 10.644-1.857 12.634-2.515 4.035-1.324 9.21-2.808 12.543-5.517 1.383-1.126 4.752-4.97 2.995-6.947-1.995-2.241-9.045 2.276-10.767 3.411-3.816 2.515-7.249 5.637-11.319 7.714-1.836.936-3.846 1.703-5.488 2.903 3.528-5.632 7.404-11.03 11.692-16.09 2.936-3.495 6.076-6.807 9.36-9.974 3.622.209 8.528.99 10.15.911 4.249-.214 9.642-.279 13.573-2.007 1.632-.717 5.896-3.53 4.707-5.896-1.348-2.684-9.344-.189-11.31.448-4.348 1.42-8.483 3.516-12.96 4.447-.797.165-1.613.3-2.429.444a132.063 132.063 0 0 1 14.335-11.543c1.497.338 3.09.423 4.622.622 3.886.503 7.573 2.027 11.389 2.958 1.722.418 8.727 2.032 9.658-.339.82-2.091-3.03-4.213-4.478-4.72-3.483-1.22-8.08-.937-11.713-.847-1.308.03-5.04.906-8.03 1.35 2.398-1.624 4.83-3.193 7.329-4.652 3.97-2.3 8.08-4.372 12.29-6.244 1.79.627 3.79.672 5.696.921 3.886.503 7.573 2.027 11.384 2.958 1.722.418 8.727 2.032 9.658-.339.82-2.091-3.03-4.212-4.478-4.72-3.483-1.22-8.08-.932-11.713-.847-1.517.035-6.299 1.205-9.403 1.519 5.617-2.43 11.414-4.477 17.37-6.04 1.591.373 3.298.418 4.94.597 3.896.428 7.608 1.882 11.439 2.739 1.726.388 8.762 1.862 9.647-.523.782-2.106-3.11-4.153-4.567-4.631-3.508-1.155-8.095-.777-11.728-.623-.477.02-1.283.165-2.248.354a98.727 98.727 0 0 0-9.414 1.36 1.559 1.559 0 0 1-.284-.1c.08.045.17.065.249.11a106.59 106.59 0 0 0-12.573 3.241c1.179-.996 2.189-2.256 3.274-3.376 2.721-2.804 6.124-4.82 9.14-7.3 1.358-1.12 6.821-5.742 5.498-7.938-1.165-1.937-5.145-.16-6.414.692-3.045 2.042-5.562 5.896-7.662 8.854-1.005 1.42-3.389 7.166-5.085 9.482a107.13 107.13 0 0 0-11.32 4.541c1.319-1.27 2.26-2.978 3.334-4.502 2.254-3.192 5.309-5.716 7.901-8.635 1.17-1.32 5.851-6.732 4.21-8.704-1.448-1.738-5.1.637-6.22 1.673-2.692 2.49-4.587 6.693-6.204 9.95-.821 1.653-2.429 8.385-3.807 10.606-1.492.718-2.975 1.45-4.433 2.231-6.07 3.222-11.827 7.012-17.25 11.24.253-1.096.433-2.226.671-3.322.851-3.834 2.687-7.35 3.956-11.06.572-1.673 2.796-8.505.537-9.695-1.995-1.051-4.443 2.564-5.075 3.959-1.522 3.35-1.652 7.977-1.895 11.622-.1 1.494.597 6.245.651 9.392a123.783 123.783 0 0 0-14.528 13.684c.378-1.28.721-2.564 1.144-3.72 1.07-2.903 2.234-5.771 3.583-8.555 2.11-4.347 4.677-8.49 7.896-12.08 1.637-1.823-.11-4.736-2.483-4.114a4.38 4.38 0 0 0-.274.08c-3.811 1.22-5.811 5.298-7.339 9.013-1.159 2.829-7.563 18.131-5.408 22.628a133.6 133.6 0 0 0-13.13 18.784c.88-3.69 2.621-7.106 3.84-10.702.568-1.673 2.792-8.505.528-9.695-1.995-1.051-4.443 2.57-5.07 3.964-1.518 3.35-1.647 7.982-1.886 11.622-.085 1.34.468 5.294.627 8.366a140.246 140.246 0 0 0-7.633 16.613c-.044-.762-.104-1.53-.134-2.281-.134-3.934.766-7.813 1.065-11.732.134-1.768.582-8.959-1.896-9.546-2.189-.518-3.652 3.605-3.916 5.119-.636 3.635.394 8.162 1.065 11.757.279 1.479 2.135 5.92 2.97 8.958a146.073 146.073 0 0 0-4.174 13.331c-.204-3.48.224-6.981.214-10.477-.005-1.773-.12-8.984-2.637-9.377-2.22-.344-3.353 3.89-3.498 5.418-.348 3.675 1.025 8.112 1.98 11.648.314 1.17 1.812 4.193 2.941 6.872C850.011 551.318 841.478 559.27 841 568c1.214-7.649 10.13-14.446 12.205-21.841zM409.753 384.024c.075.502.185.9.35 1.103-.55-.676-.939-1.446-1.238-2.256-4.248-5.58-8.78-10.918-13.622-15.946a171.053 171.053 0 0 0-3.01-3.002c-3.314.07-10.487 2.082-12.553 2.182-4.253.208-9.634.68-13.732-.646-1.702-.552-6.24-2.927-5.3-5.397 1.062-2.803 9.288-1.123 11.305-.68 4.477.978 8.81 2.653 13.372 3.13 2.076.218 4.258.208 6.244.75a157.09 157.09 0 0 0-14.315-12.309c-3.225-.005-10.632 2.082-12.733 2.187-4.253.208-9.634.68-13.732-.646-1.702-.552-6.234-2.927-5.3-5.397 1.063-2.803 9.288-1.123 11.305-.68 4.477.978 8.815 2.653 13.372 3.13 2.056.214 4.213.214 6.184.74-5.325-3.985-10.9-7.623-16.736-10.803-4.003-2.206-8.136-4.17-12.349-5.938-3.319 1.49-7.627 3.975-9.179 4.482-4.058 1.322-9.134 3.19-13.437 2.992-1.787-.085-6.788-1.178-6.529-3.807.295-2.981 8.685-3.523 10.752-3.632 4.582-.234 9.204.238 13.736-.502.804-.134 1.618-.298 2.431-.457a133.111 133.111 0 0 0-17.575-5.62c-1.283.854-2.74 1.5-4.108 2.236-3.459 1.863-6.364 4.601-9.598 6.832-1.463 1.009-7.442 5.02-9.164 3.146-1.523-1.655 1.322-5.01 2.495-5.998 2.825-2.385 7.233-3.762 10.667-4.984 1.238-.438 5.046-.964 8.006-1.62-2.825-.651-5.67-1.243-8.535-1.71a131.13 131.13 0 0 0-13.752-1.416c-1.452 1.223-3.309 1.983-5.006 2.897-3.459 1.864-6.364 4.602-9.598 6.833-1.463 1.009-7.443 5.019-9.165 3.145-1.517-1.654 1.323-5.009 2.496-5.997 2.825-2.386 7.233-3.762 10.667-4.985 1.437-.511 6.329-1.133 9.349-1.953-6.135-.253-12.3-.08-18.439.597-1.357.92-2.94 1.57-4.412 2.325-3.494 1.794-6.45 4.478-9.728 6.65-1.478.978-7.538 4.874-9.225 2.966-1.487-1.68 1.418-4.984 2.61-5.953 2.871-2.33 7.303-3.623 10.757-4.78.455-.155 1.258-.309 2.232-.478a100.32 100.32 0 0 1 9.304-2.107 1.33 1.33 0 0 0 .23-.194c-.06.075-.136.12-.195.19a107.495 107.495 0 0 1 12.937-1.482c-1.462-.506-2.86-1.316-4.277-1.972-3.554-1.635-7.472-2.296-11.186-3.529-1.677-.556-8.45-2.902-8.001-5.421.394-2.221 4.761-1.988 6.254-1.655 3.589.81 7.327 3.499 10.357 5.506 1.453.96 5.745 5.461 8.171 7.017 4.073-.17 8.161-.12 12.23.174-1.693-.71-3.185-1.968-4.738-2.997-3.26-2.166-7.023-3.424-10.502-5.218-1.567-.81-7.901-4.179-7.073-6.599.73-2.136 5.007-1.232 6.424-.666 3.42 1.357 6.704 4.592 9.39 7.047 1.362 1.247 5.285 6.942 7.377 8.522 1.652.134 3.304.283 4.951.492 6.843.825 13.597 2.296 20.195 4.294-.628-.93-1.203-1.924-1.821-2.853-2.172-3.265-5.162-5.883-7.677-8.89-1.138-1.356-5.676-6.922-3.988-8.84 1.492-1.695 5.08.8 6.174 1.868 2.63 2.574 4.417 6.843 5.95 10.148.629 1.356 1.687 6.032 2.765 8.979a124.691 124.691 0 0 1 18.523 7.543c-.813-1.053-1.597-2.131-2.41-3.05-2.042-2.321-4.168-4.577-6.43-6.684-3.539-3.29-7.432-6.237-11.734-8.428-2.187-1.113-1.598-4.453.843-4.721.095-.01.19-.02.285-.025 4.008-.229 7.347 2.857 10.112 5.77 2.102 2.216 13.602 14.177 13.203 19.141a134.24 134.24 0 0 1 19.047 12.796c-2.151-3.12-5.012-5.685-7.442-8.592-1.133-1.357-5.67-6.927-3.979-8.845 1.493-1.695 5.082.805 6.175 1.873 2.625 2.58 4.407 6.843 5.94 10.152.564 1.218 1.467 5.099 2.42 8.016a140.05 140.05 0 0 1 13.118 12.741c-.23-.726-.45-1.461-.694-2.172-1.288-3.712-3.524-7.001-5.216-10.55-.764-1.6-3.768-8.139-1.657-9.575 1.862-1.267 4.717 2.052 5.506 3.364 1.901 3.16 2.565 7.742 3.229 11.335.27 1.476.13 6.281.44 9.412a144.358 144.358 0 0 1 8.7 10.927c-1.059-3.32-2.721-6.425-3.969-9.685-.634-1.655-3.12-8.413-.903-9.68 1.956-1.118 4.537 2.42 5.226 3.792 1.647 3.3 1.951 7.926 2.33 11.558.126 1.203-.189 4.552-.279 7.454C414.57 387.691 425.416 392.044 429 400c-3.853-6.694-14.645-9.83-19.247-15.976z" fill="#538406" fill-rule="nonzero"/><path d="M477.956 436.95c.215.468.435.821.65.972-.72-.499-1.31-1.134-1.834-1.84-5.669-4.211-11.547-8.105-17.63-11.61a180.679 180.679 0 0 0-3.75-2.057c-3.164 1.019-9.477 5.033-11.432 5.724-4.023 1.422-9.057 3.424-13.366 3.308-1.79-.05-6.823-1.059-6.633-3.732.22-3.03 8.598-3.757 10.662-3.903 4.579-.333 9.217.055 13.731-.787 2.06-.383 4.15-1.019 6.209-1.059a156.495 156.495 0 0 0-17.26-7.872c-3.1.918-9.618 5.073-11.603 5.78-4.024 1.421-9.057 3.423-13.366 3.308-1.79-.05-6.823-1.06-6.633-3.732.22-3.031 8.597-3.757 10.662-3.904 4.579-.333 9.217.056 13.731-.786 2.04-.384 4.11-1.004 6.149-1.054-6.254-2.35-12.647-4.292-19.155-5.714-4.474-.999-9.003-1.725-13.552-2.24-2.759 2.406-6.188 6.057-7.533 6.995-3.519 2.451-7.857 5.724-12.046 6.763-1.74.429-6.853.802-7.358-1.836-.565-2.985 7.333-5.92 9.287-6.616 4.329-1.543 8.908-2.406 13.047-4.428.734-.358 1.47-.756 2.204-1.145a130.661 130.661 0 0 0-18.48-.428c-.99 1.2-2.204 2.249-3.304 3.353-2.79 2.804-4.799 6.304-7.268 9.4-1.115 1.398-5.714 7.02-7.903 5.69-1.93-1.176-.16-5.256.685-6.557 2.034-3.132 5.868-5.739 8.818-7.907 1.064-.782 4.568-2.38 7.228-3.873-2.9.176-5.799.418-8.683.786a128.35 128.35 0 0 0-13.611 2.567c-1.045 1.604-2.61 2.88-3.98 4.257-2.789 2.804-4.798 6.303-7.267 9.4-1.115 1.397-5.714 7.02-7.903 5.688-1.93-1.175-.16-5.254.685-6.556 2.034-3.131 5.868-5.734 8.817-7.907 1.235-.908 5.754-2.92 8.423-4.584-5.963 1.513-11.832 3.45-17.535 5.865-1.04 1.286-2.375 2.37-3.574 3.53-2.845 2.749-4.914 6.208-7.443 9.26-1.14 1.376-5.844 6.903-8.008 5.531-1.91-1.21-.06-5.255.805-6.54 2.089-3.092 5.978-5.624 8.967-7.737.395-.277 1.12-.66 2.01-1.104a100.39 100.39 0 0 1 8.332-4.715c.065-.086.13-.177.16-.258-.035.086-.095.157-.135.243a106.145 106.145 0 0 1 12.002-5.154c-1.55-.071-3.124-.464-4.669-.691-3.879-.575-7.827-.091-11.746-.222-1.77-.06-8.943-.404-9.233-2.98-.255-2.275 4.004-3.304 5.534-3.405 3.674-.242 8.037 1.301 11.521 2.386 1.67.519 7.079 3.666 9.848 4.483a107.315 107.315 0 0 1 11.797-3.339c-1.83-.206-3.62-.998-5.409-1.558-3.749-1.175-7.723-1.316-11.577-2.063-1.74-.337-8.777-1.8-8.677-4.392.09-2.29 4.453-2.633 5.978-2.491 3.669.337 7.748 2.546 11.027 4.165 1.664.822 7.058 5.24 9.517 6.178a115.7 115.7 0 0 1 4.894-.943c6.803-1.155 13.711-1.664 20.62-1.614-.87-.726-1.705-1.523-2.565-2.254-3.02-2.557-6.633-4.246-9.912-6.445-1.48-.994-7.428-5.109-6.353-7.459.95-2.078 5.108-.68 6.463.05 3.259 1.756 6.193 5.392 8.612 8.17.99 1.14 3.34 5.386 5.219 7.948 6.683.131 13.356.817 19.945 2.028-1.08-.797-2.145-1.614-3.185-2.28-2.624-1.674-5.308-3.258-8.082-4.66-4.34-2.188-8.918-3.933-13.677-4.831-2.419-.459-2.804-3.873-.54-4.836l.265-.106c3.784-1.372 7.873.67 11.357 2.713 2.655 1.553 17.106 9.9 18.14 14.842a133.282 133.282 0 0 1 21.945 6.99c-2.955-2.421-6.434-4.096-9.603-6.229-1.48-.993-7.423-5.113-6.348-7.464.95-2.072 5.108-.675 6.463.056 3.26 1.755 6.188 5.396 8.603 8.175.89 1.024 2.864 4.544 4.614 7.105a139.995 139.995 0 0 1 16.235 8.64c-.43-.641-.85-1.292-1.29-1.917-2.299-3.243-5.383-5.805-8.017-8.77-1.19-1.336-5.944-6.838-4.324-8.84 1.43-1.766 5.113.645 6.248 1.694 2.73 2.527 4.674 6.798 6.338 10.106.68 1.357 1.915 6.077 3.11 9.032a147.802 147.802 0 0 1 11.476 8.135c-1.964-2.925-4.443-5.472-6.573-8.286-1.08-1.427-5.398-7.292-3.629-9.158 1.56-1.65 5.049 1.054 6.099 2.194 2.524 2.738 4.138 7.15 5.538 10.58.465 1.135 1.12 4.483 1.86 7.338 6.798 5.648 18.455 6.773 24.168 13.49-5.608-5.431-16.87-5.391-23.044-10.05zm298.218 76.652c.164.19-.827-16.896 23.252-34.412 24.468-18.561 78.813-17.991 85.04-35.447 6.49-18.681-27.382-13.243-42.61-26.306-15.377-13.369-20.572-19.602-.269-24.425 20.224-4.488 32.463-6.625 31.815-23.585-.647-17.16 33.16-10.031 49.524-23.15 16.886-13.138 6.834-29.633-25.923-27.552-32.158 2.847-33.513-2.446-24.388-7.76 8.971-5.263 36.881-14.794 24.627-23.164-12.582-8.465-30.22.03-21.075-11.297 9.02-11.417 31.277-20.203 19.9-31.895-11.352-11.842-39.586-9.72-54.55 22.55-14.62 32.16-19.566 41.155-34.978 45.152-15.008 4.118-29.942-11.847-48.357-4.407-18.262 7.65-14.127 25.335-2.665 36.772 11.74 11.458 31.436 34.312 20.343 45.219-10.65 10.971-24.587-4.198-40.811-6.46-18.012-2.506-37.833 13.58-20.154 37.619 18.32 23.665 45.907 41.861 48.422 97.946a342.574 342.574 0 0 1 12.857-5.398z" fill="#538406" fill-rule="nonzero"/><g fill="#334C06" fill-rule="nonzero" opacity=".7"><path d="M769.065 517.565c.49.045.94-.29 1.03-.78 36.975-195.54 111.235-269.26 111.98-269.98a.96.96 0 0 0 .02-1.365.958.958 0 0 0-1.36-.02c-.75.725-75.45 74.875-112.535 271.005a.96.96 0 0 0 .765 1.125c.035.01.07.01.1.015z"/><path d="M838.015 310.285c.22.02.44-.03.635-.165 24.005-16.655 52.55-17.255 52.835-17.255a.965.965 0 0 0 .95-.975c-.01-.53-.395-.95-.975-.95-.29.005-29.405.6-53.905 17.6a.964.964 0 0 0-.245 1.34c.17.24.43.38.705.405zm-26.425 57.03c.25.02.51-.055.715-.235a.955.955 0 0 0 .095-1.355c-.225-.265-23.26-26.555-53.91-49.215a.966.966 0 0 0-1.35.2.97.97 0 0 0 .2 1.35c30.485 22.535 53.38 48.665 53.61 48.925.165.2.4.31.64.33zm5.21-12.645a.93.93 0 0 0 .435-.06c44.885-17.61 94.97-18.075 95.47-18.075.53 0 .96-.44.96-.965-.005-.53-.365-.965-.965-.96-.505 0-50.95.47-96.16 18.205a.972.972 0 0 0-.55 1.25c.135.35.46.575.81.605zm-33.96 101.22a.92.92 0 0 0 .485-.085c30.755-14.155 82.45-16.06 82.965-16.08.53-.02.95-.465.93-.995a.953.953 0 0 0-.995-.93c-.52.02-52.6 1.935-83.705 16.255a.964.964 0 0 0 .32 1.835zm-3.42 13.59a.957.957 0 0 0 .985-1.29c-14.095-38.335-51.13-68.465-51.505-68.765a.975.975 0 0 0-1.355.145.966.966 0 0 0 .145 1.355c.37.295 37 30.105 50.91 67.925.135.365.46.595.82.63z"/></g><path d="M482.826 450.602c-.164.19.827-16.896-23.252-34.412-24.468-18.561-78.813-17.991-85.04-35.447-6.495-18.686 27.382-13.243 42.61-26.306 15.377-13.374 20.572-19.602.269-24.425-20.224-4.488-32.463-6.625-31.815-23.585.647-17.16-33.16-10.031-49.524-23.15-16.886-13.138-6.834-29.633 25.923-27.552 32.158 2.847 33.513-2.446 24.388-7.76-8.971-5.263-36.881-14.794-24.627-23.164 12.582-8.465 30.22.03 21.075-11.297-9.02-11.417-31.277-20.203-19.9-31.895 11.352-11.842 39.586-9.72 54.55 22.55 14.62 32.16 19.566 41.155 34.978 45.152 15.008 4.118 29.942-11.847 48.357-4.407 18.262 7.65 14.122 25.335 2.665 36.772-11.74 11.458-31.436 34.312-20.343 45.219 10.65 10.971 24.587-4.198 40.811-6.46 18.012-2.506 37.833 13.58 20.154 37.619-18.32 23.665-45.907 41.861-48.422 97.946a339.118 339.118 0 0 0-12.857-5.398z" fill="#538406" fill-rule="nonzero"/><g fill="#334C06" fill-rule="nonzero" opacity=".7"><path d="M490.19 454.745a.959.959 0 0 1-1.032-.78c-37.011-195.54-111.345-269.26-112.091-269.98a.96.96 0 0 1-.02-1.365.96.96 0 0 1 1.361-.02c.751.725 75.525 74.875 112.647 271.005a.96.96 0 0 1-.766 1.125c-.04.01-.07.01-.1.015z"/><path d="M421.166 247.465a.949.949 0 0 1-.636-.165c-24.029-16.655-52.602-17.255-52.887-17.255a.965.965 0 0 1-.951-.975c.01-.53.395-.95.976-.95.29.005 29.434.6 53.958 17.6.44.305.546.905.245 1.34a.944.944 0 0 1-.705.405zm26.456 57.03a.965.965 0 0 1-.716-.235.954.954 0 0 1-.095-1.355c.225-.265 23.283-26.555 53.964-49.215a.968.968 0 0 1 1.351.2.97.97 0 0 1-.2 1.35c-30.515 22.535-53.433 48.665-53.663 48.925-.17.2-.4.31-.64.33zm-5.215-12.645a.933.933 0 0 1-.436-.06c-44.93-17.61-95.064-18.075-95.565-18.075a.965.965 0 0 1-.96-.965c.004-.53.365-.97.965-.96.506 0 51.001.47 96.261 18.205.496.195.74.755.546 1.25a.958.958 0 0 1-.811.605zM476.4 393.07a.921.921 0 0 1-.485-.085c-30.785-14.155-82.532-16.06-83.047-16.08a.965.965 0 0 1-.931-.995c.02-.53.45-.955.996-.93.52.02 52.652 1.935 83.788 16.255a.963.963 0 0 1-.32 1.835zm3.424 13.59a.957.957 0 0 1-.986-1.29c14.11-38.335 51.181-68.465 51.556-68.765a.976.976 0 0 1 1.357.145.961.961 0 0 1-.145 1.355c-.37.295-37.037 30.1-50.961 67.925a.967.967 0 0 1-.82.63z"/></g><path d="M763.847 541.002s-1.726-69.259 52.907-75.636c54.629-6.378 34.918 72.407 11.495 98.2 0 0 30.352-35.673 50.572-11.583 20.22 24.09-36.539 51.72-36.539 51.72s45.424-15.374 58.001-4.956c16.229 13.442-14.542 32.997-14.542 32.997S934.87 612.19 924.584 647L691 646.347l72.847-105.345z" fill="#538406" fill-rule="nonzero"/><path d="M785 46.168v555.664C785 627.337 764.419 648 739.014 648H511.986C486.581 648 466 627.337 466 601.832V46.168C466 20.688 486.581 0 511.986 0h227.028C764.419-.005 785 20.688 785 46.168z" fill="#6D6D6D" fill-rule="nonzero"/><path d="M785 46.315V54H466v-7.685C466 20.754 486.581 0 511.985 0H739.01C764.419-.005 785 20.754 785 46.315zM785 594v7.7c0 25.563-20.591 46.3-46.005 46.3h-227.02C486.561 648 466 627.263 466 601.7V594h319zm8.945-340H786V132h7.945c.581 0 1.055.459 1.055 1.022v119.956c0 .563-.474 1.022-1.055 1.022zM466 190h-7.06a.952.952 0 0 1-.94-.963v-58.074c0-.53.418-.963.94-.963H466v60zm0 64h-7.063c-.52 0-.937-.374-.937-.838v-35.324c0-.464.418-.838.937-.838H466v37z" fill="#1E1E1E" fill-rule="nonzero"/><path d="M580 26c0 4.968-4.032 9-9 9s-9-4.032-9-9a9 9 0 0 1 9-9c4.973 0 9 4.027 9 9zm20 1.5a4.5 4.5 0 1 1-9 0 4.5 4.5 0 0 1 9 0zm94.362 5.5h-82.724a.64.64 0 0 1-.638-.645v-9.71a.64.64 0 0 1 .638-.645h82.724a.64.64 0 0 1 .638.645v9.71a.64.64 0 0 1-.638.645zM643 621.5c0 9.663-7.832 17.5-17.5 17.5-9.663 0-17.5-7.832-17.5-17.5 0-9.663 7.837-17.5 17.5-17.5 9.668.005 17.5 7.837 17.5 17.5z" fill="#FFF" fill-rule="nonzero"/><path fill="#EAEAEA" fill-rule="nonzero" d="M473 55h303v539H473z"/><g opacity=".33" fill="#59595B" fill-rule="nonzero"><path d="M723.886 392.57c0 11.66-42.432 21.115-94.772 21.115s-94.77-9.45-94.77-21.115c0-11.66 42.43-21.11 94.77-21.11 52.34 0 94.772 9.455 94.772 21.11z" opacity=".5"/><g transform="translate(534 371)"><path d="M189.886 21.57c0 11.66-42.432 21.115-94.772 21.115S.344 33.235.344 21.57C.343 9.91 42.773.46 95.113.46s94.772 9.455 94.772 21.11z" opacity=".3"/><ellipse opacity=".5" cx="95.114" cy="21.57" rx="49.43" ry="11.01"/></g></g><g fill-rule="nonzero"><path d="M710.323 253.208l-82.03-47.253a4.68 4.68 0 0 0-4.666 0l-82.024 47.253-.075.05c-.13.08-.25.164-.37.248a.578.578 0 0 0-.119.1 3.49 3.49 0 0 0-.354.308l-.075.06c-.13.13-.249.269-.359.413l-.09.13c-.054.074-.109.143-.159.223l-.065.11c-.03.054-.06.104-.084.159-.07.12-.135.248-.19.378 0 .045-.035.08-.05.114-.15.353-.249.722-.299 1.1a.332.332 0 0 0 0 .1 4.22 4.22 0 0 0-.035.502v94.56c0 1.666.888 3.208 2.333 4.04l82.025 47.252a4.656 4.656 0 0 0 4.666 0l82.03-47.253a4.647 4.647 0 0 0 2.333-4.04v-94.515a4.66 4.66 0 0 0-2.343-4.04zm-85.07 50.456l-16.658-10.641 72.198-46.059 19.23 11.045-74.77 45.655zm-44.817-17.562l13.307 8.493v22.716l-13.307-9.523v-21.686zm5.584-7.512l71.968-44.77 13.69 7.886-71.728 45.765-13.93-8.88zm39.95-63.212l22.844 13.159-71.519 44.486-24.385-15.572 73.06-42.073zm-77.363 50.392l22.49 14.357v30.05c0 1.502.724 2.91 1.945 3.785l22.64 16.234a4.675 4.675 0 0 0 6.516-1.065 4.658 4.658 0 0 0 .878-2.716V300.58l17.435 11.139v78.774l-71.904-41.422V265.77zm81.247 125.603v-45.929a2.94 2.94 0 0 0 .439-.522c6.172-9.84 15.42-10.96 20.67-11.035 2.184 0 1.072-1.268 0-1.567-12.549-3.393-18.382 2.826-21.064 8.493v-29.04l73.409-44.834v82.112l-73.454 42.322z" fill="#E71E6E"/><path d="M681.291 338.121c-.434 2.095 2.239-.259 2.239-.259-1.341 17.124-22.625 18.856-22.625 18.856-2.16.577 4.96 1.303 4.96 1.303 18.537.313 19.305-14.024 19.963-16.492.658-2.468 3.38-.91 1.78-4.428-1.595-3.522-5.888-1.06-6.317 1.02zm3.425-32.855c-6.566 1.751-10.47 8.483-8.715 15.04 1.755 6.552 8.5 10.447 15.072 8.696 6.566-1.751 10.47-8.483 8.715-15.04v-.005c-1.76-6.552-8.506-10.442-15.072-8.69z" fill="#E71E6E"/><path d="M694.633 310.828a5.95 5.95 0 0 1-4.218 7.279 5.962 5.962 0 0 1-7.294-4.21 5.94 5.94 0 0 1 4.218-7.273 5.951 5.951 0 0 1 7.294 4.204c0-.005 0-.005 0 0zm-5.663 10.318a3.364 3.364 0 0 1-2.39 4.12 3.364 3.364 0 1 1-1.74-6.502h.006a3.366 3.366 0 0 1 4.123 2.382z" fill="#FFF"/></g><path d="M673.453 54.11L473.065 361.36V190.217L561.832 54.11zm84.377 0L473.065 490.747v-79.305L706.11 54.11zm18.05 178.663v79.305L592.197 593.736h-51.715z" opacity=".5" fill="#FFF" fill-rule="nonzero"/><path d="M757.04 714.035c0 2.685 26.095 4.865 58.28 4.865s58.275-2.18 58.275-4.865-26.09-4.865-58.275-4.865-58.28 2.18-58.28 4.865z" opacity=".5" fill="#B0AFFD" fill-rule="nonzero"/><path d="M219.21 773.61c0 2.813 26.09 5.097 58.28 5.097 32.185 0 58.275-2.284 58.275-5.097 0-2.813-26.09-5.097-58.275-5.097s-58.28 2.284-58.28 5.097z" opacity=".5" fill="#7C7C7C" fill-rule="nonzero"/><g fill-rule="nonzero"><g fill="#AF835B"><path d="M466.904 593.496l57.964-.066.065 57.109-57.965.066z"/><path d="M466.905 593.496l57.964-.067.012 10.328-57.964.067z"/><path d="M465.466 592.322l59.875-.068.011 10.322-59.874.069z"/><path d="M500.539 592.282l.015 17.226-1.078-1.654-1.088 1.66-1.079-1.655-1.078 1.654-1.083-1.654-1.083 1.66-1.083-1.655-1.078 1.654-.02-17.226z"/></g><path fill="#E9A056" d="M470.424 593.49l57.964-.065.065 57.109-57.964.066z"/><path fill="#AF835B" d="M470.425 593.49l57.965-.065.011 10.328-57.964.065z"/><path fill="#E9A056" d="M468.986 592.322l59.875-.068.012 10.327-59.875.069z"/><path fill="#EA8237" d="M504.054 592.277l.02 17.231-1.083-1.659-1.083 1.66-1.083-1.655-1.079 1.66-1.078-1.66-1.088 1.66-1.078-1.655-1.078 1.654-.02-17.226z"/></g><g fill-rule="nonzero"><g fill="#AF835B"><path d="M435.763 534.698l57.965-.067.064 57.114-57.964.067z"/><path d="M435.765 534.698l57.964-.067.012 10.328-57.965.066z"/><path d="M434.325 533.529l59.875-.069.012 10.323-59.875.068z"/><path d="M469.398 533.484l.02 17.231-1.083-1.659-1.083 1.66-1.083-1.655-1.078 1.66-1.083-1.66-1.084 1.66-1.083-1.655-1.078 1.66-.02-17.232z"/></g><path fill="#D38C4C" d="M439.284 534.693l57.964-.067.064 57.11-57.964.065z"/><path fill="#AF835B" d="M439.285 534.693l57.964-.067.012 10.328-57.964.066z"/><path fill="#D38C4C" d="M437.846 533.524l59.875-.069.011 10.323-59.875.068z"/><path fill="#EA8237" d="M472.914 533.484l.02 17.226-1.078-1.659-1.089 1.66-1.078-1.655-1.078 1.66-1.083-1.66-1.083 1.66-1.083-1.655-1.079 1.66-.02-17.227z"/></g><path fill="#E71E6E" fill-rule="nonzero" d="M667.507 711l-227.91-55.436L414 639l290 71.416z"/><path fill="#ED2680" fill-rule="nonzero" d="M239 424h262v227H239z"/><path d="M37.026 596.809c4.52 8.848 1.013 19.69-7.836 24.215-8.848 4.525-19.691 1.013-24.216-7.835-4.52-8.848-1.013-19.69 7.836-24.216 8.853-4.52 19.696-1.012 24.216 7.836z" fill="#E71E6E" fill-rule="nonzero"/><path d="M225 457.005l-.035 2.53-.035 3.611-.733 81.772v.395l-98.54.425L65 546l.2-.262.302-.46.301-.36 59.824-82.493c1.501-2.1 3.835-3.449 6.434-3.775l82.936-9.585c5.004-.598 9.536 2.98 10.003 7.94z" fill="#ED2680" fill-rule="nonzero"/><path d="M224 459.287l-.035 3.661c-.1-2.028-1.422-4.592-2.908-5.924a7.2 7.2 0 0 0-5.647-1.798l-79.703 9.585c-2.81.33-5.35 1.863-7.005 4.192L74.332 546 73 545.835l54.773-77.528a11.092 11.092 0 0 1 7.794-4.658l79.669-9.585c2.41-.3 4.787.466 6.607 2.098a8.11 8.11 0 0 1 2.157 3.125z" fill="#E71E6E" fill-rule="nonzero"/><path d="M213 469.298V545l-31.335-.08-11.745-.025-17.019-.044-18.586-.045-33.677-.08-5.638-.01v-9.084c0-2.689.799-5.303 2.307-7.534l35.95-53.143a12.6 12.6 0 0 1 8.968-5.458l12.075-1.434 36.793-4.378 13.712-1.633a7.266 7.266 0 0 1 5.134 1.324 7.224 7.224 0 0 1 3.061 5.922z" fill="#B9C9EF" fill-rule="nonzero"/><path d="M225 545.005V667H75.312C60.744 667 18 666.038 18 666.038v-61.695c0-29.106 19.494-53.347 45.272-58.516h.035a60.627 60.627 0 0 1 2.463-.428c.035 0 .1 0 .135-.035 2.528-.33 5.057-.364 7.65-.364H225v.005z" fill="#ED2680" fill-rule="nonzero"/><path d="M204.2 563h-18.4c-2.652 0-4.8-2.238-4.8-5s2.148-5 4.8-5h18.4c2.652 0 4.8 2.238 4.8 5s-2.148 5-4.8 5z" fill="#3D38A0" fill-rule="nonzero"/><path d="M209 556.794c0 1.447-.54 2.744-1.405 3.682-.876.939-2.078 1.524-3.397 1.524h-18.396c-2.653 0-4.802-2.33-4.802-5.206 0-.635.107-1.236.3-1.794.662 2.004 2.424 3.423 4.502 3.423h18.396c1.32 0 2.52-.585 3.397-1.524A5.22 5.22 0 0 0 208.7 555c.193.558.3 1.154.3 1.794z" fill="#262691" fill-rule="nonzero"/><path fill="#8EB9BF" fill-rule="nonzero" opacity=".5" d="M191 464l-56.492 82-33.508-.086 53.392-77.49zm23 5.96v14.122L170.274 546 153 545.955 210.898 464c1.87 1.322 3.102 3.481 3.102 5.96zm0 31.04v44l-32-.083z"/><path d="M23.004 663h-9.008C6.266 663 0 656.733 0 649s6.265-14 13.996-14h9.008C30.734 635 37 641.267 37 649c-.005 7.733-6.27 14-13.996 14z" fill="#FF408E" fill-rule="nonzero"/><path d="M375 648.995l7.733-10.725A43.982 43.982 0 0 1 418.41 620a43.984 43.984 0 0 1 35.402 17.894L462 649" fill="#0A0A0A" fill-rule="nonzero"/><path d="M511.587 668H14.413c-.784 0-1.413-.607-1.413-1.353v-15.294c0-.75.634-1.353 1.413-1.353h497.174c.784 0 1.413.607 1.413 1.353v15.294c.005.746-.629 1.353-1.413 1.353zM94 648.995l7.733-10.725A43.982 43.982 0 0 1 137.41 620a43.984 43.984 0 0 1 35.402 17.894L181 649" fill="#E71E6E" fill-rule="nonzero"/><circle fill="#565656" fill-rule="nonzero" cx="137" cy="670" r="41"/><circle fill="#FEFEFE" fill-rule="nonzero" transform="rotate(-45 137.714 670.107)" cx="137.714" cy="670.107" r="30.724"/><circle fill="#4A4A4F" fill-rule="nonzero" cx="138" cy="670" r="22"/><circle stroke="#FEFEFE" stroke-width=".254" cx="138" cy="670" r="20"/><path d="M150 670.5c0 6.901-5.594 12.5-12.5 12.5-6.901 0-12.5-5.594-12.5-12.5 0-6.901 5.594-12.5 12.5-12.5 6.901.005 12.5 5.599 12.5 12.5z" fill="#474747" fill-rule="nonzero"/><circle fill="#2A2A2B" fill-rule="nonzero" cx="138" cy="670" r="4"/><circle stroke="#FEFEFE" stroke-width=".127" cx="138.5" cy="670.5" r="5.5"/><g transform="translate(374 626)"><circle fill="#173A2C" fill-rule="nonzero" cx="43.56" cy="43.719" r="40.318"/><circle fill="#FEFEFE" fill-rule="nonzero" transform="rotate(-45 43.551 43.718)" cx="43.551" cy="43.718" r="30.604"/><circle fill="#0A0A0A" fill-rule="nonzero" cx="43.56" cy="43.719" r="22.222"/><circle stroke="#FEFEFE" stroke-width=".254" cx="43.56" cy="43.719" r="20.358"/><path d="M56.202 43.719c0 6.98-5.657 12.642-12.642 12.642-6.98 0-12.643-5.657-12.643-12.642 0-6.98 5.658-12.643 12.643-12.643 6.98.005 12.642 5.663 12.642 12.643z" fill="#81172B" fill-rule="nonzero"/><path d="M34.472 46.045a9.4 9.4 0 0 1-.288-2.321c0-1.223.233-2.392.66-3.46m6.851 12.652a9.38 9.38 0 0 1-5.573-3.48m13.628 1.337a9.335 9.335 0 0 1-4.321 2.143m7.511-9.197c0 1.71-.457 3.316-1.257 4.698" stroke="#0A0A0A" stroke-width=".254" stroke-linecap="round"/><path d="M47.686 43.719a4.126 4.126 0 1 1-8.253 0 4.126 4.126 0 1 1 8.253 0z" fill="#0A0A0A" fill-rule="nonzero"/><circle stroke="#FEFEFE" stroke-width=".127" cx="43.56" cy="43.719" r="5.19"/></g><g fill-rule="nonzero"><path fill="#E9A056" d="M558.662 586.084l20.254-82.388 83.717 20.761-20.254 82.388z"/><path fill="#AF835B" d="M575.251 518.59l3.663-14.9 83.718 20.761-3.663 14.9z"/><path fill="#E9A056" d="M577.278 501.44l86.474 21.444-3.661 14.896-86.475-21.445z"/><path fill="#EA8237" d="M627.945 514.037l-6.109 24.852-.971-2.778-2.158 2.002-.971-2.777-2.148 2.001-.972-2.777-2.157 2.002-.972-2.778-2.147 2.007 6.108-24.852z"/><path fill="#E9A056" d="M533.318 668.741l20.254-82.387 83.718 20.76-20.254 82.388z"/><path fill="#AF835B" d="M549.914 601.265l3.663-14.9 83.718 20.76-3.664 14.9z"/><path fill="#E9A056" d="M551.939 584.095l86.474 21.445-3.662 14.896-86.474-21.445z"/><path fill="#FFC064" d="M602.603 596.695l-6.109 24.852-.971-2.777-2.158 2.002-.971-2.778-2.148 2.002-.972-2.778-2.157 2.002-.972-2.777-2.147 2.001 6.109-24.847z"/><g fill="#AF835B"><path d="M602.153 685.81l20.254-82.387 83.717 20.761-20.254 82.388z"/><path d="M618.74 618.32l3.662-14.901 83.718 20.76-3.663 14.901z"/><path d="M620.772 601.163l86.475 21.445-3.662 14.895-86.475-21.444z"/><path d="M671.444 613.765l-6.114 24.852-.971-2.777-2.158 2.002-.972-2.778-2.147 2.002-.972-2.772-2.157 1.996-.972-2.777-2.147 2.007 6.108-24.852z"/></g><path fill="#FFC064" d="M607.234 687.076l20.254-82.388 83.717 20.761-20.253 82.387z"/><path fill="#AF835B" d="M623.821 619.578l3.663-14.9 83.717 20.76-3.663 14.901z"/><path fill="#FFC064" d="M625.85 602.426l86.475 21.445-3.662 14.896-86.474-21.445z"/><path fill="#EA8237" d="M676.526 615.026l-6.113 24.853-.972-2.778-2.158 2.002-.971-2.778-2.148 2.002-.971-2.777-2.158 2.001-.972-2.777-2.147 2.007 6.109-24.852z"/></g><path d="M297.23 620.626h-19.84a.901.901 0 0 1-.9-.897V456.057a.9.9 0 0 1 .9-.897h19.84a.9.9 0 0 1 .9.897v163.672a.905.905 0 0 1-.9.897zm41.695 0h-19.84a.901.901 0 0 1-.9-.897V456.057a.9.9 0 0 1 .9-.897h19.84a.9.9 0 0 1 .9.897v163.672a.905.905 0 0 1-.9.897zm41.695 0h-19.84a.901.901 0 0 1-.9-.897V456.057a.9.9 0 0 1 .9-.897h19.84a.9.9 0 0 1 .9.897v163.672a.905.905 0 0 1-.9.897zm41.695 0h-19.84a.901.901 0 0 1-.9-.897V456.057a.9.9 0 0 1 .9-.897h19.84a.9.9 0 0 1 .9.897v163.672a.901.901 0 0 1-.9.897zm41.695 0h-19.84a.901.901 0 0 1-.9-.897V456.057a.9.9 0 0 1 .9-.897h19.84a.9.9 0 0 1 .9.897v163.672a.901.901 0 0 1-.9.897z" opacity=".2" fill="#989898" fill-rule="nonzero"/><g fill-rule="nonzero"><path fill="#AF835B" d="M421.598 580.553l.045 38.393-1.966-3.69-1.97 3.695-1.961-3.69-1.956 3.695-1.965-3.69-1.971 3.695-1.96-3.69-1.957 3.695-.044-38.398z"/><path fill="#E9A056" d="M366.94 583.223l105.206-.12.145 127.3-105.207.12z"/><path fill="#AF835B" d="M366.94 583.223l105.206-.12.026 23.023-105.206.12z"/><path fill="#E9A056" d="M364.327 580.615l108.675-.124.026 23.013-108.675.123z"/><path fill="#FFC064" d="M427.983 580.543l.045 38.398-1.966-3.69-1.966 3.695-1.965-3.69-1.956 3.695-1.966-3.69-1.965 3.69-1.966-3.686-1.956 3.691-.045-38.393z"/><g fill="#AF835B"><path d="M307.401 709.816l.085-75.083 76.562.087-.085 75.083z"/><path d="M307.47 648.312l.016-13.579 76.562.088-.015 13.578z"/><path d="M385.933 646.855l-79.085-.09.015-13.573 79.085.09z"/><path d="M339.622 633.227l-.025 22.648 1.428-2.176 1.433 2.181 1.428-2.176 1.424 2.176 1.428-2.171 1.433 2.176 1.428-2.176 1.429 2.181.025-22.648z"/></g><path fill="#FFC064" d="M302.754 709.811l.085-75.083 76.562.087-.085 75.084z"/><path fill="#AF835B" d="M302.823 648.307l.016-13.578 76.562.087-.016 13.578z"/><path fill="#FFC064" d="M381.28 646.85l-79.084-.09.015-13.574 79.085.09z"/><path fill="#EA8237" d="M334.974 633.222l-.025 22.648 1.428-2.176 1.433 2.181 1.429-2.176 1.423 2.176 1.433-2.176 1.433 2.181 1.428-2.176 1.424 2.181.025-22.648z"/></g><path d="M225 545v1H64a50.771 50.771 0 0 1 2.453-.518c.034 0 .1 0 .134-.042l.3-.44H225z" fill="#E71E6E" fill-rule="nonzero"/><g opacity=".5" fill="#020202" fill-rule="nonzero"><path d="M109.631 531.783v19.346c0 2.385-3.044 3.291-4.293 1.278l-3.251-5.244c-2.557-4.127-2.385-9.436.438-13.377l2.532-3.533c1.451-2.018 4.574-.971 4.574 1.53z" opacity=".3"/><g opacity=".3"><path d="M93.121 556.106h-7.859c-2.665 0-4.824-2.21-4.824-4.932 0-2.728 2.159-4.937 4.824-4.937h7.86c2.66 0 4.819 2.21 4.819 4.937.005 2.723-2.154 4.932-4.82 4.932z"/><path d="M92.395 546.428l13.638-9.058 2.525 3.98-13.638 9.058z"/><path d="M97.71 552.674a4.811 4.811 0 0 1-1.18 1.983 4.756 4.756 0 0 1-3.409 1.449h-7.849c-2.665 0-4.824-2.204-4.824-4.937 0-1.364.545-2.587 1.416-3.478.256-.261.531-.498.846-.69a4.844 4.844 0 0 0-.231 1.496c0 2.727 2.154 4.937 4.824 4.937h7.85a4.64 4.64 0 0 0 2.557-.76z" opacity=".5"/></g></g><g fill-rule="nonzero"><path fill="#5858C4" d="M94.366 546.316l13.638-8.999 2.525 3.955-13.638 9z"/><path d="M111.607 531.765v19.22c0 2.37-3.045 3.27-4.294 1.27l-3.25-5.21c-2.558-4.1-2.386-9.375.437-13.29l2.533-3.51c1.446-2.005 4.574-.965 4.574 1.52z" fill="#5858C4"/><path d="M111.552 551.52c-.418 1.955-3.093 2.58-4.244.73l-3.246-5.21a11.914 11.914 0 0 1 .443-13.28l2.528-3.51c.452-.615 1.042-.945 1.667-1.035l-1.948 2.71c-2.827 3.915-3 9.18-.442 13.28l3.246 5.21c.487.775 1.244 1.115 1.996 1.105z" fill="#4444AD"/><path d="M95.097 555.93h-7.86c-2.66 0-4.819-2.195-4.819-4.9 0-2.71 2.159-4.905 4.82-4.905h7.859c2.66 0 4.82 2.195 4.82 4.905 0 2.705-2.16 4.9-4.82 4.9z" fill="#5858C4"/><path d="M99.68 552.52a4.774 4.774 0 0 1-1.18 1.97 4.77 4.77 0 0 1-3.408 1.44h-7.85c-2.665 0-4.824-2.19-4.824-4.905 0-1.355.546-2.57 1.416-3.455.256-.26.532-.495.846-.685-.152.47-.23.965-.23 1.485 0 2.71 2.153 4.905 4.824 4.905h7.849a4.66 4.66 0 0 0 2.557-.755z" fill="#4444AD"/></g><path d="M815 498.713c-3.544 7.048-4.33 21.92-7.997 28.903-1.804 3.432-15.94 23.002-26.321 32.384-1.377-3.462-8.406.534-6.287-2.522 6.596-9.5 19.233-20.57 20.944-35.565 1.126-9.871 8.405-32.913 8.405-32.913" fill="#D8826A" fill-rule="nonzero"/><path d="M846.994 715.971c4.61-.4 9.2-2.905 11.218-3.092 1.665-.163 6.176-1.327 7.428-1.682 1.252-.355-1.011-7.955-2.975-8.197 0 0-.344.316-1.021.686-1.016.542-2.784 1.203-5.273 1.09-2.788 2.702-2.69 3.472-6.151 5.578-1.507.922-3.196 2.185-4.227 3.28-1.345 1.415-1.6 2.564 1.001 2.337z" fill="#000" fill-rule="nonzero"/><path d="M861.525 699s.817 3.519 1.475 4.239c-3.846 4.536-7.077 2.117-7.077 2.117l.016-.61-.939-4.394 6.525-1.352z" fill="#ED9C80" fill-rule="nonzero"/><path d="M779.713 714.61c4.515 1.085 9.67.167 11.65.629 1.635.373 6.298.702 7.598.76 1.3.064 1.551-7.835-.241-8.685 0 0-.429.187-1.192.324-1.137.187-3.028.256-5.362-.638-3.506 1.67-3.659 2.425-7.613 3.319-1.723.393-3.728 1.05-5.057 1.763-1.724.918-2.33 1.92.217 2.528z" fill="#000" fill-rule="nonzero"/><path d="M798.885 702.771s-.323 3.264.115 4.075c-5.468 2.75-8-.279-8-.279l.22-.517.49-4.05 7.175.771z" fill="#ED9C80" fill-rule="nonzero"/><path d="M839.718 577.651s9.6-19.887-4.037-35.651c0 0-12.766 4.883-22.748 4.928-7.863.035-11.787-1.05-11.787-1.05S798.47 560.63 798 584l41.718-6.349zM810 645.598v.04c0 20.1-6.787 45.824-9.166 60.362-.25 0-.52-.02-.745-.04-5.195-.276-8.089-1.085-8.089-1.085l.083-1.547c1.739-23.455 1.322-62 1.533-74.161.02-.85.083-1.633.206-2.311 1.449-8.831 10.322-7.088 13.573 1.316a30.707 30.707 0 0 1 1.347 4.436c.146.638.269 1.27.391 1.954v.02c.372 2.08.622 4.285.745 6.6v.232c.063.658.083 1.316.102 1.974v.15c.02.679.02 1.357.02 2.06z" fill="#1E1E1E" fill-rule="nonzero"/><path d="M823.394 586.019c-.064.227-.124.479-.208.73-2.16 8.407-8.015 28.365-12.126 40.444l-.02.064c0 .02 0 .02-.02.04-.943 2.774-1.802 5.129-2.498 6.822v.02c-.357.854-1.216 1.584-2.368 2.088a7.763 7.763 0 0 1-1.803.563c-4.638.957-11.331-1.17-11.351-10.238 0-1.022.084-2.108.253-3.273 1.073-7.301 5.269-47.804 5.835-51.684.566-3.9 1.638-9.572 3.754-10.18 10.606-2.927 24.202 10.066 20.552 24.604z" fill="#1E1E1E" fill-rule="nonzero"/><path d="M808.942 631.447L811 628c0 .02 0 .02-.02.04-.233.835-1.804 6.81-1.744 13.352v.228c.02.628.04 1.295.104 1.943v.149c.084 1.063.084 1.71.02 2.027v.04c-.398 1.691-2.729-6.81-3.256-8.798a23.148 23.148 0 0 0-.104-.396l2.078-3.635.864-1.503z" fill="#272728" fill-rule="nonzero"/><path d="M823 587.578c-2.175 8.467-8.07 28.57-12.21 40.737 0 0 0 .02-.02.064 0 .02 0 .02-.02.04-.235.84-1.815 6.847-1.755 13.425v.229c.065.651.085 1.302.105 1.954v.149c.02.671.02 1.342.02 2.038v.04c0 19.894-6.93 45.357-9.36 59.746-.255 0-.53-.02-.76-.04 0 0 2.81-23.633 5.98-39.956 2.45-12.585.21-23.633-.95-28.023-.34-1.303-.59-2.02-.59-2.02l3.02-6.995c3.465-9.139 4.9-30.882 4.9-30.882-6-15.737-5.745-35.084-5.745-35.084l5.915 1.198 9.885 13.425 1.585 9.955z" fill="#1E1E1E" fill-rule="nonzero" opacity=".5"/><path d="M841.43 629.963c-6.551-7.024-16.44-4.518-12.551 5.981 4.154 11.225 17.223 42.489 23.98 64.613l.473 1.443s3.298-.36 8.668-2.224c-2.983-14.27-4.272-38.624-11.242-55.978-2.245-5.585-5.931-10.197-9.328-13.835z" fill="#1E1E1E" fill-rule="nonzero"/><path d="M806.004 562.315c-.34-16.536 19.523-4.32 29.034 1.732 4.003 2.547 5.232 7.217 5.518 11.556.286 4.34 2.814 49.009 3.37 57.162 1.26 18.383-14.07 7.412-15.264 2.262-2.994-12.988-22.472-63.698-22.658-72.712z" fill="#1E1E1E" fill-rule="nonzero"/><path d="M843.737 621s.093 8.337 6.263 19c0 0-10.803-5.981-11.296-6.79-.492-.809-1.94-8.97-1.67-9.807.268-.838 6.703-2.403 6.703-2.403z" fill="#1C1C1C" fill-rule="nonzero"/><path d="M795.153 434.71s-3.192 29.698 19.577 23.418c1.162.142 8.121-1.569 9.139-10.566 1.017-8.996-4.205-18.56-4.641-18.849-.437-.283-14.793-.713-15.373-.713-.576 0-8.702 6.71-8.702 6.71z" fill="#ED9C80" fill-rule="nonzero"/><path d="M814.549 442.14s-3.394-1.542-2.547-6.181c.847-4.634.28-4.918-3.114-2.952-3.394 1.966-20.516 11.234-17.543-10.393 1.98 1.125 8.208.985 9.481-1.687 1.274-2.668 15.844-9.975 21.364.701 3.82.14 8.207 4.495 7.781 13.061-.426 8.566-3.56 19.621-6.788 20.224-3.234.602-4.954-1.966-4.809-6.038.14-2.105 6.368-4.918 1.84-11.234-1.985-2.106-7.505-.279-5.665 4.5z" fill="#542B0E" fill-rule="nonzero"/><path d="M818.657 455.657s-.561 6.004 1.343 8.47c-4.509 3.552-12.706 2.808-12.706 2.808s2.466-2.553 0-11.091c-2.465-8.538 11.363-.187 11.363-.187z" fill="#ED9C80" fill-rule="nonzero"/><path d="M793 502.785s6.375 4.827 11 5.215l-2.44-27-2.594 6.618L793 502.785z" fill="#FFF" fill-rule="nonzero"/><path d="M793 502.828s6.375 4.787 11 5.172l-1.756-27-.683.225c-1.181 3.426-3.258 10.83-2.988 18.087.025.65-.073 3.586-.073 4.822 0 .97-3.403-.676-5.5-1.306z" fill="#B0AFFD" fill-rule="nonzero" opacity=".3"/><path d="M799 545.284s.264.126.759.321c3.456 1.35 18.38 6.138 36.945-3.427l2.296-1.224s-3.02-7.02-3.623-27.444c-.602-20.424-.034-22.702-3.417-32.804C829.012 471.88 819.51 461 819.51 461s-8.887 5.68-12.104 5.68c-4.034 10.102-8.26 23.174-6.751 32.628 1.004 6.313-.074 24.684-.896 36.196a649.4 649.4 0 0 1-.759 9.78z" fill="#FFF" fill-rule="nonzero"/><path d="M798 544.68s.27.126.774.32c8.082-6.223 18.68-15.338 21.523-19.237 3.436-4.697 4.695-12.72 5.1-16.236.554-.015 1.118-.025 1.688-.06 2.807-13.936-1.738-26.467-1.738-26.467l-14.87 5.36-5.554 16.754s4.14 1.895 7.367 2.548c-.504 5.032-1.693 13.319-2.502 15.03-.64 1.34-5.94 7.025-11.014 12.276a638.486 638.486 0 0 1-.774 9.713z" fill="#B0AFFD" fill-rule="nonzero" opacity=".3"/><g fill-rule="nonzero"><path fill="#FFC064" d="M742.562 564.72l.058-50.46 51.995.058-.058 50.46z"/><path fill="#AF835B" d="M742.61 523.385l.011-9.128 51.995.059-.01 9.127z"/><path fill="#FFC064" d="M795.897 522.405l-53.71-.06.01-9.123 53.71.06z"/><path fill="#EA8237" d="M764.445 513.248l-.015 15.218.97-1.46.97 1.465.975-1.466.965 1.466.97-1.46.975 1.465.97-1.466.965 1.466.02-15.218z"/></g><g fill="#ED9C80" fill-rule="nonzero"><path d="M783.05 560.306c-.015 1.53-2.98 5.652-5.22 6.266-.72.196-1.5.222-2.19-.075-1.02.448-4.245.77-3.025-1.123-2.065 1.707-4.385 1.596-6.98 1.44-.87-.05-.83-1.072 1.075-1.57 2.645-.695 4.565-2.437 5.975-4.958-.39-.307-.715.246-1.79.408-1.19.176-1.825-.368-1.855-.891-.025-.398 1.41-.84 1.725-1.047 1.195-.78 2.39-1.555 3.59-2.336 1.315-.855 2.19-1.248 3.76-1.343.26-.016 2.82.16 2.175 1.097"/><path d="M825.735 500.528c-3.155 6.402-11.5 27.657-12.785 30.103-5.065 9.638-30.73 30.405-30.73 30.405s-4.31-.765-4.265-5.104c7.34-5.013 21.235-26.726 24.1-29.308 1.855-1.676 10.455-35.317 10.455-35.317"/></g><path d="M824.78 482s2.745 11.202 0 24.92c-11.16.604-19.78-2.419-19.78-2.419l3.564-18.35" fill="#FFF" fill-rule="nonzero"/><path d="M279 571.671c4.544 5.298 8.333 17.872 12.973 23.09 2.282 2.565 18.618 16.373 29.574 22.239.47-3.252 7.397-1.3 4.92-3.476-7.698-6.757-20.966-13.594-25.58-26.088-3.039-8.22-14.164-26.436-14.164-26.436" fill="#D8826A" fill-rule="nonzero"/><g fill-rule="nonzero"><path fill="#E9A056" d="M306.553 575.416l45.051-.051.05 44.13-45.05.051z"/><path fill="#AF835B" d="M306.554 575.416l45.05-.051.01 7.983-45.05.051z"/><path fill="#E9A056" d="M305.436 574.512l46.535-.053.009 7.978-46.535.053z"/><path fill="#FFC064" d="M332.69 574.48l.015 13.31-.84-1.276-.842 1.276-.84-1.276-.842 1.281-.841-1.281-.841 1.281-.841-1.276-.836 1.281-.015-13.31z"/></g><path d="M259.976 749.666s-1.645 8.956-1.12 10.083c.526 1.122 2.398 4.384 4.264 5.53 1.96 1.207 6.264 2.589 6.623 3.127.353.534.393 1.327-.202 1.826-1.542 1.291-4.259 1.97-6.052 1.715-5.817-.828-6.475-3.416-9.86-3.75-.584-.06-1.64.843-3.276.045-1.631-.798-2.452-2.29-2.344-3.72.182-2.464 1.494-4.519 2.417-6.359.924-1.84 1.41-10.163 1.41-10.163" fill="#FFBFAE" fill-rule="nonzero"/><path d="M272.509 601l-23.326.58s-9.06 13.012-5.245 25.266c1.88 6.024 4.128 8.981 5.14 11.838.948 2.668 7.91 40.592 7.523 43.39-.387 2.792-3.454 10.66-4.5 18.882-1.261 9.885-.244 41.975-1.202 50.512 2.918 1.579 5.474 1.628 7.98 1.474 3.086-24.697 11.129-57.846 12.196-70.18 1.062-12.338 2.774-52.04 1.434-81.762z" fill="#FF8A29" fill-rule="nonzero"/><path d="M269.85 641.968s-16.2-34.454-19.343-26.88c-5.19 12.516 4.69 19.32 4.69 19.32 3.836 6.154 12.526 41.338 12.987 48.798.238 3.874-.01 7.768.188 11.647.015.273.144.874.223 1.147 1.036-5.776 1.71-10.842 1.978-13.941.748-8.662.426-22.4-.298-40.126-.138.01-.282.005-.426.035z" fill="#F47211" fill-rule="nonzero"/><path d="M269.64 770.712c.417-.722.503-1.803.091-2.06-.575-.353-2.61-1.575-3.79-2.055-1.174-.485-3.031-.892-2.375-.572.656.32-.509 1.6-1.597 1.561-3.764-.136-6.598-2.453-8.75-2.913-3.107-.664-4.491-4.116-4.639-4.673-.574.368-1.866 3.2-2.116 4.086-.229.8-.64 2.264-.381 3.093.178.567.57 1.71.417 2.928 0 0 .62.43 2.238.712 1.028.18 2.396-.02 2.396-.02l.219-1.856s.84-.048 1.917.136c1.074.184 2.85 1.12 2.956 1.231.442.48.809 1.362 1.384 1.62 1.52.687 3.041.998 4.96 1.06 4.028.127 6.352-1.042 7.07-2.278z" fill="#060219" fill-rule="nonzero"/><path d="M278.673 755c2.613.02 4.871.057 7.483.125-.207 4.408.642 7.657.768 7.94.51 1.14 3.113 3.818 5.245 4.642 2.238.863 6.993 1.548 7.438 2.003.444.455.59 1.203.02 1.768-1.476 1.457-4.275 2.502-6.215 2.52-6.286.063-7.321-2.304-10.96-2.127-.626.03-1.636 1.045-3.476.523-1.839-.523-2.9-1.821-2.97-3.196-.122-2.372 1.808-4.596 2.551-6.483.126-.317.066-7.16.116-7.715z" fill="#FFBFAE" fill-rule="nonzero"/><path d="M254.935 598l22.835 6.079c6.996 28.498 11.797 60.068 11.176 77.87-.357 10.242-3.104 53.027-3.358 70.525l-.015 1.526c-2.518-.07-5.04-.12-7.558-.14-.015-.239-.03-.478-.04-.673-.874-10.711-5.303-38.81-5.25-48.14.064-10.93 2.904-20.934 2.904-20.934s-15.58-45.981-16.621-48.833c-1.042-2.853-7.04-3.92-8.473-11.27-2.468-12.666 4.4-26.01 4.4-26.01z" fill="#FF8A29" fill-rule="nonzero"/><path d="M299.796 771.313c.32-.847.266-2.034-.174-2.24-.61-.292-2.766-1.294-3.98-1.633-1.219-.339-3.09-.493-2.404-.249.687.244-.295 1.812-1.373 1.94-3.714.444-6.79-1.622-8.966-1.786-3.139-.233-4.324-3.757-4.541-4.345-.518.487-2.036 3.762-2.177 4.763-.125.906-.343 2.554.015 3.407.247.588.779 1.765.779 3.105 0 0 .662.371 2.292.424 1.03.032 2.35-.397 2.35-.397l-.02-2.045s.818-.186 1.901-.154c1.079.032 2.418.625 3.076 1.155.513.419 1.06 1.118 1.664 1.277 1.746.46 2.998.583 4.889.35 3.985-.493 6.122-2.12 6.669-3.572z" fill="#060219" fill-rule="nonzero"/><path d="M276.664 539c1.584.511 1.033 4.315 2.617 4.827 1.146.372 3.384-.159 4.437.427 5.593 3.109 4.23 9.445 4.978 17.267 2.415 5.984 3.094 11.421 1.254 14.798-2.287 4.191-4.737 5.388-7.56 8.87-2.11 2.601-2.76 7.915-3.143 13.62-.064.984.762 2.697.536 3.656-.433 1.837-3.183 2.433-6.262 2.523-7.073.208-17.826-2.28-20.984-2.13-2.971.143-5.79-1.287-5.519-3.06.192-1.236 1.412-1.758 1.874-4.156 1.013-5.28 1.702-18.459 2.49-22.933 2.016-11.457 3.487-19.978 8.027-30.566" fill="#FFF" fill-rule="nonzero"/><path d="M292.765 566.63c-1.79-2.99-4.225-5.69-6.61-8.283l-6.115 2.759c2.945 5.387 3.535 11.755 4.925 17.66 1.39.117 3.54-.376 3.54-.376.59-.958.37-.48 1.15-1.866 1.26-2.222 2.89-5.924 3.11-9.894z" opacity=".3" fill="#B0AFFD" fill-rule="nonzero"/><path d="M296.87 522.626c.637-2.657 1.092-5.491.976-7.833-.228-4.493-.88-10.998-8.578-13.596-7.704-2.598-16.15-.91-18.607 4.503-2.456 5.412-1.789 13.56-2.107 17.925-.319 4.364-3.554 9.614-3.554 9.614L281.6 540s2.638-5.742 3.745-6.436c1.102-.694 1.522 2.022 5.197 1.683 1.562-.143 3.2-2.893 4.428-6.264.035-.098.076-.226.116-.334.819-.05 1.754-.119 1.966-.183 1.138-.34 1.042-.831.779-1.535-.577-1.515-.834-3.12-.96-4.305zM321 615.858c.014 1.424 2.49 5.264 4.359 5.836.6.183 1.254.21 1.831-.07.849.419 3.543.718 2.527-1.043 1.722 1.59 3.663 1.488 5.828 1.344.725-.048.692-1.002-.897-1.462-2.207-.648-3.81-2.27-4.988-4.616.33-.29.596.23 1.498.38.996.166 1.52-.342 1.55-.83.019-.37-1.178-.782-1.44-.974l-2.995-2.174c-1.097-.798-1.827-1.162-3.143-1.248-.22-.016-2.356.15-1.817 1.017" fill="#FFBFAE" fill-rule="nonzero"/><path d="M284 564.07c2.71 5.602 9.864 24.192 10.971 26.335C299.318 598.837 321.34 617 321.34 617s3.7-.669 3.66-4.465c-6.296-4.385-18.223-23.377-20.678-25.64-1.593-1.464-8.972-30.895-8.972-30.895" fill="#FFBFAE" fill-rule="nonzero"/><path d="M289.423 543.854c-6.317-2.272-12.335-2.227-17.203-6.854-4.853 3.697 6.165 24.707 8.84 25.248 2.735.55 6.407 12.174 7.091 13.752 8.713-.31 11.849-4.951 11.849-4.951-3.663-10.581-4.453-24.997-10.577-27.195z" fill="#FFF" fill-rule="nonzero"/><path d="M284.867 543.985c-.446-1.586-1.683-2.842-1.973-4.463-.276-1.532.01-3.503.866-4.833.526-.818 1.347-1.394 2.108-2 3.395-2.69 4.567-4.892 3.375-8.853-.39-1.295-.746-2.635-.621-3.98.11-1.217.35-2.493 1.677-2.66.927-.114 1.523.098 1.858.862.235.536-.175 4.389 1.097 2.197 1.221-2.104 2.323-2.271 2.213-7.084-.015-.572-.235-2.892.12-3.237 2.288 1.61 2.974 4.4 3.265 6.439 1.702-.725 2.158-3.153 2.148-4.08-.015-1.891-.235-3.344-.952-4.813-3.034-6.246-6.203-7.365-8.877-8.448-2.594-1.055-5.288-2.129-8.087-2.025-2.799.103-6.259.956-7.05 3.025-3.89-.946-6.074 2.414-6.98 3.62a19.407 19.407 0 0 0-2.94 5.715c-.96 3.025-1.156 6.237-1.907 9.321-.61 2.508-1.677 5.109-3.625 6.882-1.873 1.7-4.527 1.882-6.565 3.444-2.588 1.985-4.01 5.247-3.835 8.488.175 3.227 1.898 6.695-.055 9.68-.636.971-1.533 1.75-2.158 2.725-1.442 2.246-1.197 5.325.225 7.587 1.422 2.26 4.176 4.832 6.745 5.557 2.568.724 4.576 1.078 7.24.906 4.712-.3 8.683-.079 13.63-4.32 2.799-2.405.976-3.745 3.665-6.292 1.507-1.428 3.655-2.202 4.752-4.044.906-1.527 1.076-3.434.67-5.143a.78.78 0 0 0-.03-.173z" fill="#161616" fill-rule="nonzero"/><g fill-rule="nonzero"><path fill="#AF835B" d="M918.008 562.14l-.025 25.27 1.282-2.43 1.286 2.435 1.281-2.43 1.276 2.43 1.282-2.43 1.286 2.435 1.281-2.43 1.276 2.43.03-25.27z"/><path fill="#E9A056" d="M884.916 647.6l.095-83.777 68.686.079-.094 83.776z"/><path fill="#AF835B" d="M884.992 578.972l.017-15.153 68.686.078-.017 15.153z"/><path fill="#E9A056" d="M955.38 577.331l-70.946-.081.017-15.148 70.946.081z"/><path fill="#FFC064" d="M913.841 562.135l-.03 25.27 1.282-2.43 1.286 2.435 1.281-2.43 1.277 2.43 1.286-2.425 1.281 2.43 1.286-2.43 1.277 2.43.025-25.27z"/><g fill="#AF835B"><path d="M942.529 598.368l49.984-.057.055 49.417-49.984.057z"/><path d="M942.526 598.368l49.985-.057.01 8.94-49.985.056z"/><path d="M941.285 597.352l51.628-.06.01 8.935-51.628.06z"/><path d="M971.528 597.317l.015 14.907-.934-1.433-.933 1.433-.934-1.433-.929 1.438-.933-1.433-.934 1.433-.933-1.433-.93 1.433-.019-14.902z"/></g><path fill="#FFC064" d="M945.563 598.363l49.984-.057.056 49.417-49.985.057z"/><path fill="#AF835B" d="M945.56 598.363l49.985-.057.01 8.939-49.984.057z"/><path fill="#FFC064" d="M944.32 597.352l51.627-.06.01 8.935-51.628.059z"/><path fill="#EA8237" d="M974.562 597.317l.015 14.902-.933-1.433-.934 1.438-.934-1.433-.928 1.433-.934-1.433-.934 1.433-.933-1.428-.929 1.433-.02-14.907z"/></g></g></svg>