<?xml version="1.0" encoding="UTF-8"?>
<svg width="98px" height="113px" viewBox="0 0 98 113" version="1.1" xmlns="http://www.w3.org/2000/svg" xmlns:xlink="http://www.w3.org/1999/xlink">
    <!-- Generator: Sketch 53.2 (72643) - https://sketchapp.com -->
    <title>Group 14</title>
    <desc>Created with Sketch.</desc>
    <g id="Pricing" stroke="none" stroke-width="1" fill="none" fill-rule="evenodd">
        <g transform="translate(-597.000000, -633.000000)" id="Group-14">
            <g transform="translate(597.000000, 634.000000)">
                <polygon id="Fill-1" fill="#F6D4B0" points="49.500412 -0.27243173 1 27.7261262 1 83.7260576 49.500412 111.727568 98 83.7260576 98 27.7261262"></polygon>
                <polygon id="Fill-2" fill="#A67C52" points="49 55.7225761 49 111.727568 98 83.7335909 98 27.7275683"></polygon>
                <polygon id="Fill-3" fill="#C69C6D" points="0 83.7335451 49 111.727568 49 55.7225532 0 27.7275683"></polygon>
                <polygon id="Fill-4" fill="#E3BA8D" points="49.0001721 -0.27243173 2 26.7297261 49.0001721 53.7275683 96 26.7297261"></polygon>
                <polygon id="Fill-5" fill="#F2CDA4" points="67.9799481 9.72756827 79 16.155617 30.0159321 44.7275683 19 38.2995901"></polygon>
                <polygon id="Fill-6" fill="#DAB083" points="30 45.0985637 30 60.7275683 19 54.3578672 19 38.7275683"></polygon>
                <polygon id="Fill-7" fill="#DAB083" points="72.6884981 13.7275683 74 14.475104 26.3115019 41.7275683 25 40.9796272"></polygon>
                <path d="M56,93.7216032 L61.4997285,82.7275683 L67,87.0709854 L56,93.7216032 Z M58.7480653,99.7275683 L58.7480653,92.0585582 L64.2478617,88.7335333 L64.2478617,96.4019753 L58.7480653,99.7275683 Z" id="Fill-8" fill="#252525"></path>
                <g id="Group-13" transform="translate(5.000000, 67.727568)" fill="#363636">
                    <path d="M4.17887075,2.38426891 L2.80077551,1.59892437 L2.11063946,5.74278992 L2.80077551,6.13351261 L2.11063946,9.37089076 L4.17887075,6.01418487 L3.48689796,5.62164706 L4.17887075,2.38426891 Z M3.48689796,11.021916 L3.48689796,15.6046387 L5.20982313,16.5895798 C5.40145578,16.6969412 5.55472109,16.9878319 5.55472109,17.2395966 C5.55472109,17.4873277 5.40145578,17.6034958 5.20982313,17.4962017 L1.07961905,15.1355294 C0.886353741,15.0263529 0.734789116,14.7354622 0.734789116,14.4837647 C0.734789116,14.2307227 0.886353741,14.1197983 1.07961905,14.2272269 L2.80077551,15.2121681 L2.80077551,10.6311933 C1.25145578,9.51388235 0.0450612245,7.11361345 0.0450612245,5.01485714 L0.0450612245,4.55966387 L0.0450612245,4.10655462 L0.0450612245,0.0250084034 L3.13485714,1.78823529 C3.13846259,1.78823529 3.13846259,1.79179832 3.14383673,1.79179832 C3.14744218,1.79179832 3.14744218,1.79536134 3.15111565,1.79536134 L6.24621769,3.56396639 L6.24621769,7.64914286 L6.24621769,8.10211765 L6.24621769,8.55563025 C6.24621769,10.6579496 5.03628571,11.6767731 3.48689796,11.021916 L3.48689796,11.021916 Z" id="Fill-9"></path>
                    <path d="M19.9638367,19.3953345 C19.8989388,18.6883092 19.4796871,17.921116 18.9540408,17.6196034 C18.3815238,17.2930824 17.919483,17.6391664 17.919483,18.3920403 C17.919483,17.6391664 17.4573741,16.7664941 16.8867619,16.441721 C16.3160136,16.1151328 15.8517279,16.461284 15.8517279,17.2128134 C15.8517279,16.6239059 15.5609116,15.9650151 15.1656054,15.5493513 L15.1656054,19.5414185 L15.1656054,21.7831664 L15.1656054,22.2647126 C15.1656054,22.514595 15.3188707,22.8073008 15.5104354,22.9146622 C15.6983946,23.0233681 15.8517279,22.9075361 15.8517279,22.6540235 L15.8517279,22.1755697 L15.8517279,21.7474689 C15.8517279,21.5010824 16.0085306,21.3830319 16.1965578,21.4922084 C16.3881224,21.6009143 16.5432245,21.891805 16.5432245,22.1435025 L16.5432245,23.0500571 C16.5432245,23.8034017 16.0789388,24.1477378 15.5104354,23.8212168 C14.9379184,23.4964437 14.4741088,22.6202084 14.4741088,21.868679 L14.4741088,15.1552 C14.0747211,15.1159395 13.7875102,15.4370824 13.7875102,16.0296202 C13.7875102,15.2780908 13.3254014,14.4053513 12.7529524,14.0805782 C12.1840408,13.7558723 11.7215238,14.1002084 11.7215238,14.8517378 C11.7215238,14.1002084 11.259483,13.2239731 10.6851973,12.8991328 C10.159551,12.5957378 9.74077551,12.886763 9.67764626,13.5219899 C9.66682993,13.422158 9.65417687,13.3170824 9.65417687,13.2167798 C9.65417687,9.8546958 11.7918639,8.34316639 14.4741088,9.66182185 L14.4741088,9.1659563 C14.4741088,8.9124437 14.6273061,8.7979563 14.8202993,8.90538487 C15.0082585,9.01402353 15.1656054,9.30854454 15.1656054,9.55667899 L15.1656054,10.0582588 C17.846898,11.8143597 19.9854694,15.7582924 19.9854694,19.1203765 C19.9854694,19.2202756 19.974585,19.3061916 19.9638367,19.3953345" id="Fill-11"></path>
                </g>
            </g>
        </g>
    </g>
</svg>